<svg xmlns="http://www.w3.org/2000/svg" xmlns:xlink="http://www.w3.org/1999/xlink" viewBox="0 0 341.19 320.7"><defs><style>.cls-1{isolation:isolate;}.cls-10,.cls-11,.cls-12,.cls-13,.cls-14,.cls-15,.cls-16,.cls-17,.cls-18,.cls-19,.cls-2,.cls-20,.cls-21,.cls-22,.cls-23,.cls-24,.cls-25,.cls-26,.cls-27,.cls-28,.cls-29,.cls-3,.cls-30,.cls-31,.cls-32,.cls-33,.cls-34,.cls-35,.cls-36,.cls-37,.cls-38,.cls-39,.cls-4,.cls-40,.cls-41,.cls-42,.cls-43,.cls-44,.cls-45,.cls-46,.cls-47,.cls-5,.cls-6,.cls-7,.cls-8,.cls-9{mix-blend-mode:screen;}.cls-2{fill:url(#radial-gradient);}.cls-3{fill:url(#radial-gradient-2);}.cls-4{fill:url(#radial-gradient-3);}.cls-5{fill:url(#radial-gradient-4);}.cls-6{fill:url(#radial-gradient-5);}.cls-7{fill:url(#radial-gradient-6);}.cls-8{fill:url(#radial-gradient-7);}.cls-9{fill:url(#radial-gradient-8);}.cls-10{fill:url(#radial-gradient-9);}.cls-11{fill:url(#radial-gradient-10);}.cls-12{fill:url(#radial-gradient-11);}.cls-13{fill:url(#radial-gradient-12);}.cls-14{fill:url(#radial-gradient-13);}.cls-15{fill:url(#radial-gradient-14);}.cls-16{fill:url(#radial-gradient-15);}.cls-17{fill:url(#radial-gradient-16);}.cls-18{fill:url(#radial-gradient-17);}.cls-19{fill:url(#radial-gradient-18);}.cls-20{fill:url(#radial-gradient-19);}.cls-21{fill:url(#radial-gradient-20);}.cls-22{fill:url(#radial-gradient-21);}.cls-23{fill:url(#radial-gradient-22);}.cls-24{fill:url(#radial-gradient-23);}.cls-25{fill:url(#radial-gradient-24);}.cls-26{fill:url(#radial-gradient-25);}.cls-27{fill:url(#radial-gradient-26);}.cls-28{fill:url(#radial-gradient-27);}.cls-29{fill:url(#radial-gradient-28);}.cls-30{fill:url(#radial-gradient-29);}.cls-31{fill:url(#radial-gradient-30);}.cls-32{fill:url(#radial-gradient-31);}.cls-33{fill:url(#radial-gradient-32);}.cls-34{fill:url(#radial-gradient-33);}.cls-35{fill:url(#radial-gradient-34);}.cls-36{fill:url(#radial-gradient-35);}.cls-37{fill:url(#radial-gradient-36);}.cls-38{fill:url(#radial-gradient-37);}.cls-39{fill:url(#radial-gradient-38);}.cls-40{fill:url(#radial-gradient-39);}.cls-41{fill:url(#radial-gradient-40);}.cls-42{fill:url(#radial-gradient-41);}.cls-43{fill:url(#radial-gradient-42);}.cls-44{fill:url(#radial-gradient-43);}.cls-45{fill:url(#radial-gradient-44);}.cls-46{fill:url(#radial-gradient-45);}.cls-47{fill:url(#radial-gradient-46);}.cls-48,.cls-49,.cls-50,.cls-51,.cls-52,.cls-53,.cls-54,.cls-55,.cls-56,.cls-57,.cls-58,.cls-59,.cls-60,.cls-61,.cls-62,.cls-63,.cls-64,.cls-65,.cls-66,.cls-67,.cls-68,.cls-69,.cls-70,.cls-71,.cls-72,.cls-73,.cls-74,.cls-75,.cls-76,.cls-77,.cls-78,.cls-79,.cls-80,.cls-81,.cls-82,.cls-83,.cls-84,.cls-85,.cls-86,.cls-87,.cls-88,.cls-89,.cls-90,.cls-91,.cls-92,.cls-93,.cls-94,.cls-95,.cls-96,.cls-97,.cls-98{fill:#fff;}.cls-48{opacity:0.27;}.cls-49{opacity:0.52;}.cls-50{opacity:0.58;}.cls-51{opacity:0.37;}.cls-52{opacity:0.21;}.cls-53{opacity:0.61;}.cls-54{opacity:0.6;}.cls-55{opacity:0.63;}.cls-56{opacity:0.54;}.cls-57{opacity:0.22;}.cls-58{opacity:0.64;}.cls-59{opacity:0.5;}.cls-60{opacity:0.48;}.cls-61{opacity:0.53;}.cls-62{opacity:0.35;}.cls-63{opacity:0.28;}.cls-64{opacity:0.69;}.cls-65{opacity:0.51;}.cls-66{opacity:0.65;}.cls-67{opacity:0.2;}.cls-68{opacity:0.68;}.cls-69{opacity:0.26;}.cls-70{opacity:0.32;}.cls-71{opacity:0.66;}.cls-72{opacity:0.25;}.cls-73{opacity:0.7;}.cls-74{opacity:0.4;}.cls-75{opacity:0.23;}.cls-76{opacity:0.43;}.cls-77{opacity:0.55;}.cls-78{opacity:0.67;}.cls-79{opacity:0.46;}.cls-80{opacity:0.42;}.cls-81{opacity:0.45;}.cls-82{opacity:0.44;}.cls-83{opacity:0.38;}.cls-84{opacity:0.59;}.cls-85{opacity:0.24;}.cls-86{opacity:0.41;}.cls-87{opacity:0.62;}.cls-88{opacity:0.36;}.cls-89{opacity:0.57;}.cls-90{opacity:0.56;}.cls-91{opacity:0.29;}.cls-92{opacity:0.49;}.cls-93{opacity:0.34;}.cls-94{opacity:0.33;}.cls-95{opacity:0.3;}.cls-96{opacity:0.47;}.cls-97{opacity:0.31;}.cls-98{opacity:0.39;}</style><radialGradient id="radial-gradient" cx="97.01" cy="276.13" r="3.69" gradientTransform="translate(-94.37 193.06) rotate(-39.79)" gradientUnits="userSpaceOnUse"><stop offset="0.08" stop-color="#fffff2"/><stop offset="0.12" stop-color="#d4d4ca"/><stop offset="0.17" stop-color="#a8a8a0"/><stop offset="0.23" stop-color="#808079"/><stop offset="0.29" stop-color="#5d5d59"/><stop offset="0.35" stop-color="#40403d"/><stop offset="0.42" stop-color="#282826"/><stop offset="0.5" stop-color="#161615"/><stop offset="0.6" stop-color="#0a0a09"/><stop offset="0.72" stop-color="#020202"/><stop offset="1"/></radialGradient><radialGradient id="radial-gradient-2" cx="168.13" cy="219.62" r="6.39" gradientTransform="translate(211.44 -20.02) rotate(44.93)" xlink:href="#radial-gradient"/><radialGradient id="radial-gradient-3" cx="158.78" cy="349.88" r="4.12" xlink:href="#radial-gradient"/><radialGradient id="radial-gradient-4" cx="364.42" cy="211.44" r="8.8" gradientTransform="translate(-156.91 126.88) rotate(-39.79)" xlink:href="#radial-gradient"/><radialGradient id="radial-gradient-5" cx="199.11" cy="123.72" r="8.95" xlink:href="#radial-gradient"/><radialGradient id="radial-gradient-6" cx="182.52" cy="256.96" r="8.38" gradientTransform="translate(47.94 3.56) rotate(4.37)" xlink:href="#radial-gradient"/><radialGradient id="radial-gradient-7" cx="328.95" cy="145.57" r="8.8" xlink:href="#radial-gradient"/><radialGradient id="radial-gradient-8" cx="269.48" cy="97.94" r="3.98" xlink:href="#radial-gradient"/><radialGradient id="radial-gradient-9" cx="278.04" cy="230.15" r="1.56" xlink:href="#radial-gradient"/><radialGradient id="radial-gradient-10" cx="213.78" cy="172.05" r="3.55" xlink:href="#radial-gradient"/><radialGradient id="radial-gradient-11" cx="165.03" cy="272.95" r="1.7" xlink:href="#radial-gradient"/><radialGradient id="radial-gradient-12" cx="275.14" cy="353.82" r="3.69" xlink:href="#radial-gradient"/><radialGradient id="radial-gradient-13" cx="320.96" cy="247.42" r="4.69" xlink:href="#radial-gradient"/><radialGradient id="radial-gradient-14" cx="266.32" cy="93.41" r="7.53" gradientTransform="matrix(1, -0.07, 0.07, 1, -102.39, 20.69)" xlink:href="#radial-gradient"/><radialGradient id="radial-gradient-15" cx="251.08" cy="284.71" r="4.26" xlink:href="#radial-gradient"/><radialGradient id="radial-gradient-16" cx="223.93" cy="344.97" r="5.96" xlink:href="#radial-gradient"/><radialGradient id="radial-gradient-17" cx="80.52" cy="243.92" r="3.12" xlink:href="#radial-gradient"/><radialGradient id="radial-gradient-18" cx="289.34" cy="202.61" r="8.66" xlink:href="#radial-gradient"/><radialGradient id="radial-gradient-19" cx="124.72" cy="102.45" r="1.7" xlink:href="#radial-gradient"/><radialGradient id="radial-gradient-20" cx="213.78" cy="135.94" r="1.99" gradientTransform="translate(122.8 -90.34) rotate(49.81)" xlink:href="#radial-gradient"/><radialGradient id="radial-gradient-21" cx="390.8" cy="270.09" r="5.54" xlink:href="#radial-gradient"/><radialGradient id="radial-gradient-22" cx="150.35" cy="162" r="5.82" xlink:href="#radial-gradient"/><radialGradient id="radial-gradient-23" cx="231.05" cy="63.5" r="2.84" xlink:href="#radial-gradient"/><radialGradient id="radial-gradient-24" cx="93.17" cy="290.92" r="3.69" gradientTransform="translate(318.1 -93.54) rotate(62.41)" xlink:href="#radial-gradient"/><radialGradient id="radial-gradient-25" cx="164.3" cy="234.4" r="6.39" gradientTransform="translate(318.1 -93.54) rotate(62.41)" xlink:href="#radial-gradient"/><radialGradient id="radial-gradient-26" cx="154.95" cy="364.66" r="4.12" gradientTransform="translate(318.1 -93.54) rotate(62.41)" xlink:href="#radial-gradient"/><radialGradient id="radial-gradient-27" cx="360.59" cy="226.21" r="8.8" gradientTransform="translate(318.1 -93.54) rotate(62.41)" xlink:href="#radial-gradient"/><radialGradient id="radial-gradient-28" cx="195.27" cy="138.5" r="8.95" gradientTransform="translate(318.1 -93.54) rotate(62.41)" xlink:href="#radial-gradient"/><radialGradient id="radial-gradient-29" cx="178.68" cy="271.74" r="8.38" gradientTransform="translate(474.21 106.72) rotate(108.37)" xlink:href="#radial-gradient"/><radialGradient id="radial-gradient-30" cx="325.11" cy="160.34" r="8.8" gradientTransform="translate(318.1 -93.54) rotate(62.41)" xlink:href="#radial-gradient"/><radialGradient id="radial-gradient-31" cx="265.64" cy="112.71" r="3.98" gradientTransform="translate(318.1 -93.54) rotate(62.41)" xlink:href="#radial-gradient"/><radialGradient id="radial-gradient-32" cx="274.21" cy="244.93" r="1.56" gradientTransform="translate(318.1 -93.54) rotate(62.41)" xlink:href="#radial-gradient"/><radialGradient id="radial-gradient-33" cx="209.94" cy="186.82" r="3.55" gradientTransform="translate(318.1 -93.54) rotate(62.41)" xlink:href="#radial-gradient"/><radialGradient id="radial-gradient-34" cx="161.2" cy="287.73" r="1.7" gradientTransform="translate(318.1 -93.54) rotate(62.41)" xlink:href="#radial-gradient"/><radialGradient id="radial-gradient-35" cx="271.31" cy="368.6" r="3.69" gradientTransform="translate(516.59 94.36) rotate(97.16)" xlink:href="#radial-gradient"/><radialGradient id="radial-gradient-36" cx="317.12" cy="262.19" r="4.69" gradientTransform="translate(318.1 -93.54) rotate(62.41)" xlink:href="#radial-gradient"/><radialGradient id="radial-gradient-37" cx="262.47" cy="108.18" r="7.53" gradientTransform="translate(538.25 -17.62) rotate(110.84)" xlink:href="#radial-gradient"/><radialGradient id="radial-gradient-38" cx="247.25" cy="299.49" r="4.26" gradientTransform="translate(318.1 -93.54) rotate(62.41)" xlink:href="#radial-gradient"/><radialGradient id="radial-gradient-39" cx="220.1" cy="359.75" r="5.96" gradientTransform="translate(318.1 -93.54) rotate(62.41)" xlink:href="#radial-gradient"/><radialGradient id="radial-gradient-40" cx="76.68" cy="258.71" r="3.12" gradientTransform="translate(318.1 -93.54) rotate(62.41)" xlink:href="#radial-gradient"/><radialGradient id="radial-gradient-41" cx="285.51" cy="217.38" r="8.66" gradientTransform="translate(318.1 -93.54) rotate(62.41)" xlink:href="#radial-gradient"/><radialGradient id="radial-gradient-42" cx="120.88" cy="117.23" r="1.7" gradientTransform="translate(318.1 -93.54) rotate(62.41)" xlink:href="#radial-gradient"/><radialGradient id="radial-gradient-43" cx="209.94" cy="150.71" r="1.99" gradientTransform="translate(318.1 -93.54) rotate(62.41)" xlink:href="#radial-gradient"/><radialGradient id="radial-gradient-44" cx="386.97" cy="284.85" r="5.54" gradientTransform="translate(318.1 -93.54) rotate(62.41)" xlink:href="#radial-gradient"/><radialGradient id="radial-gradient-45" cx="146.5" cy="176.78" r="5.82" gradientTransform="translate(318.1 -93.54) rotate(62.41)" xlink:href="#radial-gradient"/><radialGradient id="radial-gradient-46" cx="227.2" cy="78.28" r="2.84" gradientTransform="translate(318.1 -93.54) rotate(62.41)" xlink:href="#radial-gradient"/></defs><g class="cls-1"><g id="Layer_1" data-name="Layer 1"><path class="cls-2" d="M159.73,340.8a3.69,3.69,0,1,1-5.19-.48A3.69,3.69,0,0,1,159.73,340.8Z" transform="translate(-62.54 -66.18)"/><circle class="cls-3" cx="175.38" cy="254.21" r="6.39" transform="matrix(0.09, -1, 1, 0.09, -156.43, 339.27)"/><path class="cls-4" d="M254.72,357.66a4.12,4.12,0,1,1-5.8-.53A4.11,4.11,0,0,1,254.72,357.66Z" transform="translate(-62.54 -66.18)"/><circle class="cls-5" cx="258.43" cy="56.12" r="8.8"/><path class="cls-6" d="M144.68,155a8.94,8.94,0,1,1-12.59-1.15A8.93,8.93,0,0,1,144.68,155Z" transform="translate(-62.54 -66.18)"/><circle class="cls-7" cx="210.33" cy="273.7" r="8.38" transform="translate(-193.78 157.72) rotate(-44.16)"/><path class="cls-8" d="M258.32,88.76a8.8,8.8,0,1,1-12.4-1.13A8.8,8.8,0,0,1,258.32,88.76Z" transform="translate(-62.54 -66.18)"/><path class="cls-9" d="M178.43,93.31a4,4,0,1,1-5.6-.51A4,4,0,0,1,178.43,93.31Z" transform="translate(-62.54 -66.18)"/><path class="cls-10" d="M267.77,191a1.56,1.56,0,0,1-2.4,2,1.56,1.56,0,1,1,2.4-2Z" transform="translate(-62.54 -66.18)"/><path class="cls-11" d="M182.73,186.17a3.55,3.55,0,1,1-5-.45A3.55,3.55,0,0,1,182.73,186.17Z" transform="translate(-62.54 -66.18)"/><path class="cls-12" d="M208.44,296.09a1.7,1.7,0,1,1-2.4-.22A1.71,1.71,0,0,1,208.44,296.09Z" transform="translate(-62.54 -66.18)"/><path class="cls-13" d="M346.33,286.48a3.69,3.69,0,1,1-5.2-.47A3.69,3.69,0,0,1,346.33,286.48Z" transform="translate(-62.54 -66.18)"/><path class="cls-14" d="M314.2,174.77a4.68,4.68,0,1,1-6.6-.61A4.68,4.68,0,0,1,314.2,174.77Z" transform="translate(-62.54 -66.18)"/><circle class="cls-15" cx="170.05" cy="94.39" r="7.53" transform="translate(-85.71 50.46) rotate(-35.6)"/><path class="cls-16" d="M284.05,248.42a4.26,4.26,0,1,1-6-.55A4.25,4.25,0,0,1,284.05,248.42Z" transform="translate(-62.54 -66.18)"/><path class="cls-17" d="M303.06,311a6,6,0,1,1-8.4-.77A6,6,0,0,1,303.06,311Z" transform="translate(-62.54 -66.18)"/><path class="cls-18" d="M126,327a3.12,3.12,0,1,1-4.4-.4A3.11,3.11,0,0,1,126,327Z" transform="translate(-62.54 -66.18)"/><path class="cls-19" d="M264.29,158a8.67,8.67,0,1,1-12.2-1.11A8.66,8.66,0,0,1,264.29,158Z" transform="translate(-62.54 -66.18)"/><path class="cls-20" d="M68.35,190.87a1.71,1.71,0,1,1-2.4-.21A1.71,1.71,0,0,1,68.35,190.87Z" transform="translate(-62.54 -66.18)"/><circle class="cls-21" cx="156.9" cy="160.7" r="1.99" transform="translate(-67.42 250.3) rotate(-89.61)"/><path class="cls-22" d="M383,146.94a5.54,5.54,0,1,1-7.8-.71A5.54,5.54,0,0,1,383,146.94Z" transform="translate(-62.54 -66.18)"/><path class="cls-23" d="M129.31,217.6a5.82,5.82,0,1,1-8.2-.75A5.82,5.82,0,0,1,129.31,217.6Z" transform="translate(-62.54 -66.18)"/><path class="cls-24" d="M126,92.17a2.84,2.84,0,1,1-4-.36A2.85,2.85,0,0,1,126,92.17Z" transform="translate(-62.54 -66.18)"/><path class="cls-25" d="M105.12,127a3.69,3.69,0,1,1,1.56-5A3.68,3.68,0,0,1,105.12,127Z" transform="translate(-62.54 -66.18)"/><path class="cls-26" d="M189.4,166.29a6.38,6.38,0,1,1,2.71-8.62A6.38,6.38,0,0,1,189.4,166.29Z" transform="translate(-62.54 -66.18)"/><path class="cls-27" d="M68.57,216.32a4.12,4.12,0,1,1,1.74-5.56A4.13,4.13,0,0,1,68.57,216.32Z" transform="translate(-62.54 -66.18)"/><path class="cls-28" d="M288.68,338.61a8.8,8.8,0,1,1,3.73-11.88A8.8,8.8,0,0,1,288.68,338.61Z" transform="translate(-62.54 -66.18)"/><path class="cls-29" d="M289.92,151.6a8.95,8.95,0,1,1,3.79-12.07A8.94,8.94,0,0,1,289.92,151.6Z" transform="translate(-62.54 -66.18)"/><circle class="cls-30" cx="160.01" cy="190.67" r="8.38" transform="translate(-150.83 106.94) rotate(-45.95)"/><path class="cls-31" d="M330.63,276.66a8.8,8.8,0,1,1,3.73-11.88A8.8,8.8,0,0,1,330.63,276.66Z" transform="translate(-62.54 -66.18)"/><path class="cls-32" d="M343.07,197.62a4,4,0,1,1,1.68-5.37A4,4,0,0,1,343.07,197.62Z" transform="translate(-62.54 -66.18)"/><path class="cls-33" d="M228.74,264.3a1.56,1.56,0,1,1,.66-2.1A1.56,1.56,0,0,1,228.74,264.3Z" transform="translate(-62.54 -66.18)"/><path class="cls-34" d="M251.39,182.19a3.55,3.55,0,1,1,1.5-4.79A3.54,3.54,0,0,1,251.39,182.19Z" transform="translate(-62.54 -66.18)"/><path class="cls-35" d="M138.52,184.09a1.7,1.7,0,0,1-1.57-3,1.7,1.7,0,1,1,1.57,3Z" transform="translate(-62.54 -66.18)"/><circle class="cls-36" cx="117.06" cy="317.63" r="3.69" transform="matrix(0.82, -0.57, 0.57, 0.82, -222.69, 57.17)"/><path class="cls-37" d="M234.76,313.1a4.68,4.68,0,1,1,2-6.32A4.69,4.69,0,0,1,234.76,313.1Z" transform="translate(-62.54 -66.18)"/><circle class="cls-38" cx="343.78" cy="189.19" r="7.53" transform="matrix(0.66, -0.75, 0.75, 0.66, -88.42, 254.65)"/><path class="cls-39" d="M169.14,268.07a4.26,4.26,0,1,1,1.81-5.75A4.25,4.25,0,0,1,169.14,268.07Z" transform="translate(-62.54 -66.18)"/><path class="cls-40" d="M104,273.42a6,6,0,1,1,2.52-8A6,6,0,0,1,104,273.42Z" transform="translate(-62.54 -66.18)"/><path class="cls-41" d="M125.77,97a3.12,3.12,0,1,1,1.32-4.21A3.13,3.13,0,0,1,125.77,97Z" transform="translate(-62.54 -66.18)"/><path class="cls-42" d="M261.67,267.85a8.66,8.66,0,1,1,3.67-11.68A8.66,8.66,0,0,1,261.67,267.85Z" transform="translate(-62.54 -66.18)"/><path class="cls-43" d="M271,69.4a1.7,1.7,0,1,1,.72-2.3A1.71,1.71,0,0,1,271,69.4Z" transform="translate(-62.54 -66.18)"/><path class="cls-44" d="M282.67,164.09a2,2,0,1,1,.84-2.68A2,2,0,0,1,282.67,164.09Z" transform="translate(-62.54 -66.18)"/><path class="cls-45" d="M247.41,386.26a5.54,5.54,0,1,1,2.34-7.47A5.55,5.55,0,0,1,247.41,386.26Z" transform="translate(-62.54 -66.18)"/><path class="cls-46" d="M232,123.34a5.82,5.82,0,1,1,2.47-7.86A5.81,5.81,0,0,1,232,123.34Z" transform="translate(-62.54 -66.18)"/><path class="cls-47" d="M355.26,146.6a2.84,2.84,0,1,1,1.2-3.83A2.84,2.84,0,0,1,355.26,146.6Z" transform="translate(-62.54 -66.18)"/><circle class="cls-48" cx="91.11" cy="174" r="0.48"/><path class="cls-49" d="M159,309.54a.85.85,0,1,1,.85.84A.85.85,0,0,1,159,309.54Z" transform="translate(-62.54 -66.18)"/><path class="cls-50" d="M153.83,220.1a.43.43,0,0,1,.85,0,.43.43,0,1,1-.85,0Z" transform="translate(-62.54 -66.18)"/><path class="cls-51" d="M140.57,224.52a.52.52,0,1,1,.52.51A.52.52,0,0,1,140.57,224.52Z" transform="translate(-62.54 -66.18)"/><path class="cls-52" d="M143.32,238a.82.82,0,0,1,.82-.82.82.82,0,0,1,.81.82.81.81,0,0,1-.81.81A.82.82,0,0,1,143.32,238Z" transform="translate(-62.54 -66.18)"/><path class="cls-53" d="M133.9,234a.7.7,0,1,1,.7.7A.7.7,0,0,1,133.9,234Z" transform="translate(-62.54 -66.18)"/><path class="cls-54" d="M148.36,227.93a.21.21,0,0,1,.21-.21.21.21,0,1,1,0,.42A.21.21,0,0,1,148.36,227.93Z" transform="translate(-62.54 -66.18)"/><circle class="cls-55" cx="83.97" cy="231.1" r="0.33"/><path class="cls-56" d="M131.15,222.31a.43.43,0,1,1,.85,0,.43.43,0,0,1-.85,0Z" transform="translate(-62.54 -66.18)"/><path class="cls-57" d="M151.68,292.25a.63.63,0,1,1,1.26,0,.63.63,0,0,1-1.26,0Z" transform="translate(-62.54 -66.18)"/><path class="cls-58" d="M156.59,282.21a.16.16,0,0,1,.16-.15.15.15,0,1,1,0,.3A.16.16,0,0,1,156.59,282.21Z" transform="translate(-62.54 -66.18)"/><path class="cls-59" d="M151,192.77a.15.15,0,0,1,.15-.15.15.15,0,0,1,.15.15.15.15,0,0,1-.15.16A.16.16,0,0,1,151,192.77Z" transform="translate(-62.54 -66.18)"/><circle class="cls-60" cx="77.21" cy="210.4" r="0.79"/><path class="cls-61" d="M142.19,290a.61.61,0,1,1,.61.61A.6.6,0,0,1,142.19,290Z" transform="translate(-62.54 -66.18)"/><path class="cls-62" d="M132.62,286a.64.64,0,0,1,.63-.64.64.64,0,0,1,.64.64.64.64,0,0,1-.64.63A.63.63,0,0,1,132.62,286Z" transform="translate(-62.54 -66.18)"/><circle class="cls-63" cx="82.92" cy="134.42" r="0.39"/><path class="cls-62" d="M141.45,190.56a.18.18,0,1,1,.18.18A.18.18,0,0,1,141.45,190.56Z" transform="translate(-62.54 -66.18)"/><path class="cls-64" d="M128,195a.43.43,0,1,1,.42.42A.42.42,0,0,1,128,195Z" transform="translate(-62.54 -66.18)"/><path class="cls-65" d="M191.25,243.09a.31.31,0,1,1,.3.3A.3.3,0,0,1,191.25,243.09Z" transform="translate(-62.54 -66.18)"/><path class="cls-66" d="M197.49,312.44a.27.27,0,1,1,.54,0,.27.27,0,1,1-.54,0Z" transform="translate(-62.54 -66.18)"/><path class="cls-67" d="M192,223a.15.15,0,0,1,.15-.15.15.15,0,1,1,0,.3A.15.15,0,0,1,192,223Z" transform="translate(-62.54 -66.18)"/><path class="cls-68" d="M180.52,306.82a.24.24,0,0,1,.24-.24.24.24,0,0,1,0,.48A.24.24,0,0,1,180.52,306.82Z" transform="translate(-62.54 -66.18)"/><path class="cls-69" d="M183.3,320.27a.51.51,0,0,1,.51-.51.51.51,0,0,1,0,1A.51.51,0,0,1,183.3,320.27Z" transform="translate(-62.54 -66.18)"/><path class="cls-69" d="M171.9,236.88a.6.6,0,1,1,.6.6A.6.6,0,0,1,171.9,236.88Z" transform="translate(-62.54 -66.18)"/><path class="cls-55" d="M188.1,310.23a.15.15,0,0,1,.15-.15.15.15,0,0,1,0,.3A.15.15,0,0,1,188.1,310.23Z" transform="translate(-62.54 -66.18)"/><path class="cls-70" d="M182.46,220.8a.18.18,0,1,1,.18.18A.18.18,0,0,1,182.46,220.8Z" transform="translate(-62.54 -66.18)"/><circle class="cls-70" cx="106.94" cy="159.03" r="0.33"/><path class="cls-71" d="M189.94,295.16a.27.27,0,1,1,.54,0,.27.27,0,0,1-.54,0Z" transform="translate(-62.54 -66.18)"/><path class="cls-72" d="M192,205.72a.88.88,0,1,1,.88.88A.88.88,0,0,1,192,205.72Z" transform="translate(-62.54 -66.18)"/><path class="cls-73" d="M190.39,275.08a.43.43,0,1,1,.42.42A.42.42,0,0,1,190.39,275.08Z" transform="translate(-62.54 -66.18)"/><path class="cls-74" d="M175.58,200.1a.3.3,0,1,1,.6,0,.3.3,0,1,1-.6,0Z" transform="translate(-62.54 -66.18)"/><path class="cls-51" d="M180.16,292.94a.54.54,0,1,1,1.08,0,.54.54,0,1,1-1.08,0Z" transform="translate(-62.54 -66.18)"/><path class="cls-61" d="M169.12,209.55a.27.27,0,1,1,.27.27A.27.27,0,0,1,169.12,209.55Z" transform="translate(-62.54 -66.18)"/><path class="cls-75" d="M182.76,203.51a.61.61,0,1,1,.61.6A.61.61,0,0,1,182.76,203.51Z" transform="translate(-62.54 -66.18)"/><circle class="cls-76" cx="116.99" cy="127.28" r="0.72"/><path class="cls-58" d="M168,277.28a.18.18,0,1,1,.18.18A.18.18,0,0,1,168,277.28Z" transform="translate(-62.54 -66.18)"/><path class="cls-48" d="M150,296.54a.58.58,0,1,1,.58.57A.58.58,0,0,1,150,296.54Z" transform="translate(-62.54 -66.18)"/><path class="cls-77" d="M154.39,286.5a.57.57,0,0,1,.57-.58.58.58,0,1,1,0,1.15A.57.57,0,0,1,154.39,286.5Z" transform="translate(-62.54 -66.18)"/><path class="cls-78" d="M150.43,276.46a.7.7,0,1,1,.7.69A.7.7,0,0,1,150.43,276.46Z" transform="translate(-62.54 -66.18)"/><path class="cls-63" d="M137.51,280.87a.45.45,0,0,1,.45-.45.46.46,0,0,1,.46.45.47.47,0,0,1-.46.46A.46.46,0,0,1,137.51,280.87Z" transform="translate(-62.54 -66.18)"/><path class="cls-50" d="M140.29,294.32a.72.72,0,0,1,.72-.72.73.73,0,0,1,.73.72.73.73,0,0,1-.73.73A.73.73,0,0,1,140.29,294.32Z" transform="translate(-62.54 -66.18)"/><path class="cls-50" d="M131.05,290.33a.42.42,0,1,1,.42.42A.42.42,0,0,1,131.05,290.33Z" transform="translate(-62.54 -66.18)"/><path class="cls-51" d="M145,284.28a.42.42,0,1,1,.42.43A.42.42,0,0,1,145,284.28Z" transform="translate(-62.54 -66.18)"/><path class="cls-56" d="M141.37,274.25a.25.25,0,1,1,.24.24A.25.25,0,0,1,141.37,274.25Z" transform="translate(-62.54 -66.18)"/><path class="cls-67" d="M128.27,278.66a.18.18,0,1,1,.18.18A.18.18,0,0,1,128.27,278.66Z" transform="translate(-62.54 -66.18)"/><circle class="cls-72" cx="84.87" cy="203.02" r="0.82"/><path class="cls-50" d="M153.08,338.56a.54.54,0,0,1,1.08,0,.54.54,0,1,1-1.08,0Z" transform="translate(-62.54 -66.18)"/><path class="cls-76" d="M147.5,249.13a.52.52,0,1,1,.52.51A.51.51,0,0,1,147.5,249.13Z" transform="translate(-62.54 -66.18)"/><path class="cls-71" d="M136.26,332.94a.36.36,0,1,1,.36.36A.36.36,0,0,1,136.26,332.94Z" transform="translate(-62.54 -66.18)"/><circle class="cls-68" cx="75.36" cy="200.81" r="0.03"/><circle class="cls-79" cx="65.82" cy="196.81" r="0.3"/><path class="cls-79" d="M142.1,257a.24.24,0,0,1,.24-.25.25.25,0,0,1,0,.49A.24.24,0,0,1,142.1,257Z" transform="translate(-62.54 -66.18)"/><path class="cls-80" d="M137.63,246.92a.88.88,0,1,1,.87.87A.87.87,0,0,1,137.63,246.92Z" transform="translate(-62.54 -66.18)"/><path class="cls-54" d="M124.46,251.33a.88.88,0,1,1,.88.88A.87.87,0,0,1,124.46,251.33Z" transform="translate(-62.54 -66.18)"/><circle class="cls-81" cx="173.03" cy="165.99" r="0.3"/><path class="cls-79" d="M237.78,245.62a.85.85,0,0,1,1.69,0,.85.85,0,1,1-1.69,0Z" transform="translate(-62.54 -66.18)"/><path class="cls-74" d="M228.42,241.62a.66.66,0,1,1,.66.67A.66.66,0,0,1,228.42,241.62Z" transform="translate(-62.54 -66.18)"/><circle class="cls-82" cx="45.44" cy="157.98" r="0.42"/><path class="cls-83" d="M237.3,146.15a.15.15,0,0,1,.15-.15.15.15,0,0,1,.16.15.16.16,0,0,1-.16.15A.15.15,0,0,1,237.3,146.15Z" transform="translate(-62.54 -66.18)"/><path class="cls-57" d="M276.76,209.45a.39.39,0,1,1,.39.39A.38.38,0,0,1,276.76,209.45Z" transform="translate(-62.54 -66.18)"/><circle class="cls-60" cx="47.41" cy="142.9" r="0.45"/><path class="cls-59" d="M109.74,189a.81.81,0,0,1,.81-.82.82.82,0,1,1,0,1.63A.81.81,0,0,1,109.74,189Z" transform="translate(-62.54 -66.18)"/><path class="cls-84" d="M96.6,193.42a.79.79,0,1,1,.79.79A.79.79,0,0,1,96.6,193.42Z" transform="translate(-62.54 -66.18)"/><path class="cls-72" d="M235.39,218.29a.12.12,0,1,1,.24,0,.12.12,0,0,1-.24,0Z" transform="translate(-62.54 -66.18)"/><circle class="cls-85" cx="28.35" cy="136.69" r="0.72"/><path class="cls-78" d="M104.75,196.83a.12.12,0,0,1,.12-.12.12.12,0,1,1,0,.24A.12.12,0,0,1,104.75,196.83Z" transform="translate(-62.54 -66.18)"/><path class="cls-80" d="M100.92,186.79a.12.12,0,0,1,.12-.12.13.13,0,0,1,.12.12.12.12,0,0,1-.12.12A.12.12,0,0,1,100.92,186.79Z" transform="translate(-62.54 -66.18)"/><circle class="cls-53" cx="25.33" cy="125.02" r="0.42"/><circle class="cls-55" cx="44.89" cy="179.18" r="0.39"/><path class="cls-79" d="M228.49,261.2a.85.85,0,1,1,1.69,0,.85.85,0,0,1-1.69,0Z" transform="translate(-62.54 -66.18)"/><circle class="cls-84" cx="172.51" cy="119.03" r="0.36"/><circle class="cls-65" cx="221.54" cy="167.88" r="0.39"/><path class="cls-62" d="M219.22,259a.61.61,0,1,1,.6.6A.6.6,0,0,1,219.22,259Z" transform="translate(-62.54 -66.18)"/><path class="cls-48" d="M233.69,238a.21.21,0,0,1,.42,0,.21.21,0,0,1-.42,0Z" transform="translate(-62.54 -66.18)"/><path class="cls-86" d="M110.74,326.48a.27.27,0,1,1,.54,0,.27.27,0,0,1-.54,0Z" transform="translate(-62.54 -66.18)"/><circle class="cls-87" cx="176.78" cy="244.62" r="0.72"/><path class="cls-78" d="M223.48,235.83a.91.91,0,1,1,.91.91A.91.91,0,0,1,223.48,235.83Z" transform="translate(-62.54 -66.18)"/><circle class="cls-54" cx="47.51" cy="228.17" r="0.36"/><path class="cls-55" d="M230.21,210.71a.58.58,0,0,1,.58-.57.58.58,0,0,1,0,1.15A.58.58,0,0,1,230.21,210.71Z" transform="translate(-62.54 -66.18)"/><path class="cls-54" d="M233.11,224.16a.73.73,0,0,1,.73-.72.72.72,0,0,1,.72.72.73.73,0,0,1-.72.73A.73.73,0,0,1,233.11,224.16Z" transform="translate(-62.54 -66.18)"/><path class="cls-70" d="M224.05,220.17a.25.25,0,1,1,.49,0,.25.25,0,0,1-.49,0Z" transform="translate(-62.54 -66.18)"/><path class="cls-88" d="M238.06,214.12a.22.22,0,0,1,.43,0,.22.22,0,1,1-.43,0Z" transform="translate(-62.54 -66.18)"/><path class="cls-89" d="M234.05,204.09a.39.39,0,1,1,.39.39A.39.39,0,0,1,234.05,204.09Z" transform="translate(-62.54 -66.18)"/><path class="cls-75" d="M220.67,208.5a.61.61,0,1,1,.61.6A.6.6,0,0,1,220.67,208.5Z" transform="translate(-62.54 -66.18)"/><circle class="cls-90" cx="125.89" cy="233.26" r="0.79"/><path class="cls-80" d="M192.41,289.41a.46.46,0,1,1,.46.45A.45.45,0,0,1,192.41,289.41Z" transform="translate(-62.54 -66.18)"/><path class="cls-86" d="M188.4,279.37a.64.64,0,0,1,.63-.64.64.64,0,0,1,.64.64.64.64,0,0,1-.64.63A.63.63,0,0,1,188.4,279.37Z" transform="translate(-62.54 -66.18)"/><path class="cls-84" d="M175.2,283.78a.67.67,0,1,1,.67.67A.67.67,0,0,1,175.2,283.78Z" transform="translate(-62.54 -66.18)"/><path class="cls-64" d="M178.31,297.23a.61.61,0,0,1,1.21,0,.61.61,0,1,1-1.21,0Z" transform="translate(-62.54 -66.18)"/><path class="cls-86" d="M168.47,293.23a.91.91,0,0,1,1.81,0,.91.91,0,1,1-1.81,0Z" transform="translate(-62.54 -66.18)"/><path class="cls-68" d="M184.43,366.59a.7.7,0,1,1,.69.69A.69.69,0,0,1,184.43,366.59Z" transform="translate(-62.54 -66.18)"/><circle class="cls-90" cx="116.98" cy="210.97" r="0.72"/><path class="cls-81" d="M165.75,281.57a.61.61,0,1,1,.6.6A.6.6,0,0,1,165.75,281.57Z" transform="translate(-62.54 -66.18)"/><path class="cls-91" d="M185.29,272.12a0,0,0,0,1,0,0,0,0,0,0,1,0,0l0,0A0,0,0,0,1,185.29,272.12Z" transform="translate(-62.54 -66.18)"/><circle class="cls-54" cx="127.21" cy="195.89" r="0.69"/><path class="cls-68" d="M185.44,252a.48.48,0,1,1,.48.48A.48.48,0,0,1,185.44,252Z" transform="translate(-62.54 -66.18)"/><path class="cls-70" d="M172.21,256.45a.54.54,0,0,1,.54-.54.55.55,0,0,1,.55.54.55.55,0,0,1-.55.55A.55.55,0,0,1,172.21,256.45Z" transform="translate(-62.54 -66.18)"/><path class="cls-82" d="M175.38,269.9a.43.43,0,0,1,.85,0,.43.43,0,1,1-.85,0Z" transform="translate(-62.54 -66.18)"/><circle class="cls-58" cx="103.72" cy="199.72" r="0.76"/><path class="cls-83" d="M179.91,259.86a.33.33,0,1,1,.33.34A.33.33,0,0,1,179.91,259.86Z" transform="translate(-62.54 -66.18)"/><path class="cls-59" d="M175.92,249.82a.49.49,0,1,1,.49.49A.49.49,0,0,1,175.92,249.82Z" transform="translate(-62.54 -66.18)"/><path class="cls-53" d="M163.12,254.24a.12.12,0,1,1,.12.12A.12.12,0,0,1,163.12,254.24Z" transform="translate(-62.54 -66.18)"/><path class="cls-75" d="M223.8,176.08a.84.84,0,0,1,.84-.85.85.85,0,0,1,.85.85.84.84,0,0,1-.85.84A.83.83,0,0,1,223.8,176.08Z" transform="translate(-62.54 -66.18)"/><path class="cls-77" d="M228.23,166a.85.85,0,0,1,.85-.85.84.84,0,0,1,.84.85.83.83,0,0,1-.84.84A.84.84,0,0,1,228.23,166Z" transform="translate(-62.54 -66.18)"/><path class="cls-92" d="M224.94,156a.31.31,0,1,1,.3.3A.3.3,0,0,1,224.94,156Z" transform="translate(-62.54 -66.18)"/><path class="cls-89" d="M211.53,160.42a.55.55,0,0,1,.55-.55.55.55,0,0,1,.54.55.54.54,0,0,1-.54.54A.55.55,0,0,1,211.53,160.42Z" transform="translate(-62.54 -66.18)"/><path class="cls-66" d="M215,173.87a.15.15,0,0,1,.15-.16.16.16,0,0,1,.15.16.15.15,0,0,1-.15.15A.15.15,0,0,1,215,173.87Z" transform="translate(-62.54 -66.18)"/><path class="cls-71" d="M205.5,169.87a.09.09,0,1,1,.09.09A.09.09,0,0,1,205.5,169.87Z" transform="translate(-62.54 -66.18)"/><path class="cls-84" d="M219.26,163.83a.31.31,0,1,1,.3.3A.31.31,0,0,1,219.26,163.83Z" transform="translate(-62.54 -66.18)"/><path class="cls-85" d="M215.61,153.79a.12.12,0,0,1,.24,0,.12.12,0,0,1-.24,0Z" transform="translate(-62.54 -66.18)"/><path class="cls-92" d="M202.29,158.2a.28.28,0,0,1,.28-.27.27.27,0,0,1,0,.54A.28.28,0,0,1,202.29,158.2Z" transform="translate(-62.54 -66.18)"/><path class="cls-64" d="M221.5,148.75a0,0,0,0,1,.06,0,0,0,0,0,1-.06,0A0,0,0,0,1,221.5,148.75Z" transform="translate(-62.54 -66.18)"/><path class="cls-54" d="M227.71,218.11a0,0,0,0,1,0,0,0,0,0,0,1,0,0l0,0A0,0,0,0,1,227.71,218.11Z" transform="translate(-62.54 -66.18)"/><path class="cls-93" d="M221.92,128.67a.21.21,0,0,1,.21-.21.21.21,0,1,1,0,.42A.21.21,0,0,1,221.92,128.67Z" transform="translate(-62.54 -66.18)"/><path class="cls-60" d="M208.91,133.09A.05.05,0,0,1,209,133a.06.06,0,0,1,.06.06.06.06,0,0,1-.06.06A.06.06,0,0,1,208.91,133.09Z" transform="translate(-62.54 -66.18)"/><path class="cls-70" d="M211.44,146.54a.58.58,0,1,1,.58.57A.58.58,0,0,1,211.44,146.54Z" transform="translate(-62.54 -66.18)"/><path class="cls-90" d="M202.32,142.54a.15.15,0,0,1,.15-.15.15.15,0,1,1,0,.3A.15.15,0,0,1,202.32,142.54Z" transform="translate(-62.54 -66.18)"/><circle class="cls-69" cx="155.68" cy="149.71" r="0.88"/><circle class="cls-49" cx="202.94" cy="119.16" r="0.45"/><circle class="cls-76" cx="136.91" cy="64.69" r="0.42"/><path class="cls-53" d="M261.91,179a.64.64,0,1,1,.63.63A.63.63,0,0,1,261.91,179Z" transform="translate(-62.54 -66.18)"/><path class="cls-82" d="M266.29,169a.69.69,0,0,1,.69-.7.7.7,0,1,1,0,1.39A.69.69,0,0,1,266.29,169Z" transform="translate(-62.54 -66.18)"/><path class="cls-71" d="M262.94,158.91a.21.21,0,0,1,.21-.21.21.21,0,0,1,.21.21.22.22,0,0,1-.21.21A.21.21,0,0,1,262.94,158.91Z" transform="translate(-62.54 -66.18)"/><path class="cls-54" d="M302.63,222.21a.21.21,0,0,1,.21-.21.21.21,0,1,1,0,.42A.21.21,0,0,1,302.63,222.21Z" transform="translate(-62.54 -66.18)"/><path class="cls-52" d="M252.85,176.77a.18.18,0,1,1,.18.18A.18.18,0,0,1,252.85,176.77Z" transform="translate(-62.54 -66.18)"/><circle class="cls-57" cx="180.95" cy="106.59" r="0.36"/><circle class="cls-91" cx="194.93" cy="100.55" r="0.45"/><path class="cls-94" d="M306.1,215.58a.4.4,0,1,1,.39.39A.39.39,0,0,1,306.1,215.58Z" transform="translate(-62.54 -66.18)"/><path class="cls-75" d="M239.65,161.11a.82.82,0,0,1,.82-.82.82.82,0,0,1,0,1.64A.82.82,0,0,1,239.65,161.11Z" transform="translate(-62.54 -66.18)"/><circle class="cls-70" cx="196.89" cy="85.47" r="0.42"/><path class="cls-75" d="M315.82,200.51a.91.91,0,1,1,.91.9A.91.91,0,0,1,315.82,200.51Z" transform="translate(-62.54 -66.18)"/><path class="cls-87" d="M312.08,190.47a.82.82,0,1,1,1.63,0,.82.82,0,0,1-1.63,0Z" transform="translate(-62.54 -66.18)"/><path class="cls-95" d="M246.6,136a.27.27,0,1,1,.27.28A.27.27,0,0,1,246.6,136Z" transform="translate(-62.54 -66.18)"/><path class="cls-89" d="M301.87,208.33a.91.91,0,1,1,.91.91A.9.9,0,0,1,301.87,208.33Z" transform="translate(-62.54 -66.18)"/><circle class="cls-75" cx="177.84" cy="79.26" r="0.27"/><circle class="cls-60" cx="191.82" cy="73.22" r="0.48"/><circle class="cls-93" cx="240.84" cy="122.07" r="0.72"/><path class="cls-66" d="M289.61,192.67a.61.61,0,1,1,1.21,0,.61.61,0,0,1-1.21,0Z" transform="translate(-62.54 -66.18)"/><path class="cls-68" d="M220.67,232.43a.85.85,0,1,1,.85.85A.85.85,0,0,1,220.67,232.43Z" transform="translate(-62.54 -66.18)"/><circle class="cls-64" cx="165.18" cy="235.61" r="0.42"/><path class="cls-67" d="M222,212.36a.15.15,0,0,1,.15-.16.16.16,0,0,1,.15.16.15.15,0,0,1-.15.15A.15.15,0,0,1,222,212.36Z" transform="translate(-62.54 -66.18)"/><circle class="cls-88" cx="148.18" cy="229.98" r="0.69"/><circle class="cls-76" cx="149.46" cy="164.04" r="0.3"/><circle class="cls-56" cx="139.92" cy="160.04" r="0.45"/><path class="cls-61" d="M217.67,299.58a.54.54,0,1,1,1.08,0,.54.54,0,0,1-1.08,0Z" transform="translate(-62.54 -66.18)"/><path class="cls-49" d="M212.48,210.14a.13.13,0,0,1,.12-.12.13.13,0,0,1,.13.12.12.12,0,0,1-.13.12A.12.12,0,0,1,212.48,210.14Z" transform="translate(-62.54 -66.18)"/><circle class="cls-73" cx="136.9" cy="148.37" r="0.42"/><path class="cls-82" d="M218.22,205.11a.19.19,0,0,1,.18-.19.2.2,0,0,1,.19.19.19.19,0,0,1-.19.18A.18.18,0,0,1,218.22,205.11Z" transform="translate(-62.54 -66.18)"/><path class="cls-73" d="M224.1,274.46a.51.51,0,1,1,.51.52A.51.51,0,0,1,224.1,274.46Z" transform="translate(-62.54 -66.18)"/><path class="cls-88" d="M218.1,185a.91.91,0,1,1,1.81,0,.91.91,0,0,1-1.81,0Z" transform="translate(-62.54 -66.18)"/><path class="cls-74" d="M205.63,189.44a.21.21,0,1,1,.42,0,.21.21,0,1,1-.42,0Z" transform="translate(-62.54 -66.18)"/><circle class="cls-48" cx="146.35" cy="136.71" r="0.69"/><path class="cls-94" d="M198.87,198.9a.48.48,0,1,1,.48.48A.48.48,0,0,1,198.87,198.9Z" transform="translate(-62.54 -66.18)"/><circle class="cls-67" cx="150.79" cy="126.67" r="0.82"/><path class="cls-53" d="M211.11,262.21a.15.15,0,0,1,.15-.15.15.15,0,1,1,0,.3A.15.15,0,0,1,211.11,262.21Z" transform="translate(-62.54 -66.18)"/><path class="cls-87" d="M197.28,266.63a.82.82,0,0,1,.82-.82.82.82,0,1,1-.82.82Z" transform="translate(-62.54 -66.18)"/><circle class="cls-70" cx="121.05" cy="108.74" r="0.79"/><path class="cls-90" d="M183.65,154.84a.54.54,0,1,1,.54.55A.54.54,0,0,1,183.65,154.84Z" transform="translate(-62.54 -66.18)"/><circle class="cls-56" cx="108.49" cy="93.08" r="0.73"/><path class="cls-83" d="M173.89,172.71a.19.19,0,0,1,.19-.18.18.18,0,1,1,0,.36A.19.19,0,0,1,173.89,172.71Z" transform="translate(-62.54 -66.18)"/><circle class="cls-61" cx="101.99" cy="102.53" r="0.63"/><path class="cls-66" d="M231.1,221.56a.27.27,0,1,1,.27.27A.27.27,0,0,1,231.1,221.56Z" transform="translate(-62.54 -66.18)"/><circle class="cls-51" cx="112.14" cy="86.45" r="0.6"/><circle class="cls-82" cx="151.83" cy="149.75" r="0.33"/><path class="cls-92" d="M180.08,147.6a.4.4,0,1,1,.79,0,.4.4,0,0,1-.79,0Z" transform="translate(-62.54 -66.18)"/><path class="cls-54" d="M180.84,127.52a.24.24,0,1,1,.24.24A.25.25,0,0,1,180.84,127.52Z" transform="translate(-62.54 -66.18)"/><circle class="cls-96" cx="105.37" cy="65.75" r="0.72"/><path class="cls-88" d="M170.33,145.38a.63.63,0,0,1,.63-.63.64.64,0,0,1,.64.63.64.64,0,0,1-.64.64A.64.64,0,0,1,170.33,145.38Z" transform="translate(-62.54 -66.18)"/><path class="cls-90" d="M160.85,141.38a.57.57,0,0,1,.57-.57.58.58,0,1,1,0,1.15A.57.57,0,0,1,160.85,141.38Z" transform="translate(-62.54 -66.18)"/><circle class="cls-70" cx="112.86" cy="69.16" r="0.85"/><circle class="cls-57" cx="109.03" cy="59.12" r="0.79"/><path class="cls-76" d="M157.86,129.72a.54.54,0,1,1,.54.54A.54.54,0,0,1,157.86,129.72Z" transform="translate(-62.54 -66.18)"/><path class="cls-93" d="M177.62,183.87a.34.34,0,0,1,.67,0,.34.34,0,0,1-.67,0Z" transform="translate(-62.54 -66.18)"/><path class="cls-55" d="M167.87,181.66a.57.57,0,1,1,.57.57A.56.56,0,0,1,167.87,181.66Z" transform="translate(-62.54 -66.18)"/><circle class="cls-51" cx="94.5" cy="199.29" r="0.45"/><path class="cls-89" d="M88.78,249.29a.91.91,0,1,1,.9.9A.9.9,0,0,1,88.78,249.29Z" transform="translate(-62.54 -66.18)"/><path class="cls-52" d="M74.63,174.31a.12.12,0,0,1,.24,0,.12.12,0,0,1-.24,0Z" transform="translate(-62.54 -66.18)"/><path class="cls-55" d="M77.71,167.68a.69.69,0,0,1,.69-.7.7.7,0,1,1,0,1.39A.69.69,0,0,1,77.71,167.68Z" transform="translate(-62.54 -66.18)"/><path class="cls-81" d="M64.39,172.09a.85.85,0,1,1,.85.85A.85.85,0,0,1,64.39,172.09Z" transform="translate(-62.54 -66.18)"/><path class="cls-82" d="M246.79,283.74a.54.54,0,1,1,1.08,0,.54.54,0,0,1-1.08,0Z" transform="translate(-62.54 -66.18)"/><circle class="cls-96" cx="187.45" cy="128.12" r="0.39"/><path class="cls-94" d="M298.81,243.15a.21.21,0,1,1,.21.21A.21.21,0,0,1,298.81,243.15Z" transform="translate(-62.54 -66.18)"/><path class="cls-90" d="M232.39,188.68a.61.61,0,1,1,.61.6A.6.6,0,0,1,232.39,188.68Z" transform="translate(-62.54 -66.18)"/><circle class="cls-49" cx="173.51" cy="135.95" r="0.69"/><circle class="cls-51" cx="163.96" cy="131.95" r="0.76"/><circle class="cls-88" cx="177.94" cy="125.91" r="0.82"/><path class="cls-75" d="M236.16,182.05a.49.49,0,1,1,.49.48A.48.48,0,0,1,236.16,182.05Z" transform="translate(-62.54 -66.18)"/><path class="cls-61" d="M276.19,245.35a.15.15,0,0,1,.15-.15.15.15,0,0,1,.15.15.15.15,0,0,1-.15.16A.16.16,0,0,1,276.19,245.35Z" transform="translate(-62.54 -66.18)"/><circle class="cls-97" cx="63.28" cy="106.61" r="0.36"/><path class="cls-77" d="M115.43,170.59a.88.88,0,1,1,.87.87A.87.87,0,0,1,115.43,170.59Z" transform="translate(-62.54 -66.18)"/><path class="cls-57" d="M121.5,165.55a.61.61,0,1,1,1.21,0,.61.61,0,0,1-1.21,0Z" transform="translate(-62.54 -66.18)"/><path class="cls-53" d="M125.69,155.51a.85.85,0,1,1,.85.85A.85.85,0,0,1,125.69,155.51Z" transform="translate(-62.54 -66.18)"/><path class="cls-95" d="M124.32,224.87a.16.16,0,0,1,.16-.16.16.16,0,0,1,.15.16.15.15,0,0,1-.15.15A.16.16,0,0,1,124.32,224.87Z" transform="translate(-62.54 -66.18)"/><path class="cls-95" d="M162,208.77a.36.36,0,1,1,.72,0,.36.36,0,1,1-.72,0Z" transform="translate(-62.54 -66.18)"/><circle class="cls-95" cx="50.05" cy="97.15" r="0.66"/><path class="cls-77" d="M155.45,218.23a.47.47,0,0,1,.46-.46.46.46,0,0,1,.45.46.45.45,0,0,1-.45.45A.46.46,0,0,1,155.45,218.23Z" transform="translate(-62.54 -66.18)"/><path class="cls-63" d="M116.88,153.3a.14.14,0,0,1,.15-.15.15.15,0,0,1,.15.15.15.15,0,0,1-.15.15A.15.15,0,0,1,116.88,153.3Z" transform="translate(-62.54 -66.18)"/><path class="cls-58" d="M112.5,143.26a.7.7,0,1,1,.69.69A.69.69,0,0,1,112.5,143.26Z" transform="translate(-62.54 -66.18)"/><path class="cls-79" d="M152.68,206.56a.21.21,0,0,1,.21-.21.21.21,0,0,1,0,.42A.21.21,0,0,1,152.68,206.56Z" transform="translate(-62.54 -66.18)"/><path class="cls-59" d="M145,110.2a.7.7,0,0,1,.7-.69.7.7,0,0,1,0,1.39A.7.7,0,0,1,145,110.2Z" transform="translate(-62.54 -66.18)"/><circle class="cls-66" cx="139.11" cy="116.36" r="0.03"/><path class="cls-54" d="M138.85,119.66a.4.4,0,1,1,.79,0,.4.4,0,0,1-.79,0Z" transform="translate(-62.54 -66.18)"/><path class="cls-58" d="M150.59,183a.56.56,0,0,1,.57-.57.57.57,0,1,1,0,1.14A.56.56,0,0,1,150.59,183Z" transform="translate(-62.54 -66.18)"/><path class="cls-63" d="M136,108a.21.21,0,0,1,.22-.21.21.21,0,1,1,0,.42A.21.21,0,0,1,136,108Z" transform="translate(-62.54 -66.18)"/><path class="cls-81" d="M145.41,96.33a.27.27,0,1,1,.54,0,.27.27,0,0,1-.54,0Z" transform="translate(-62.54 -66.18)"/><path class="cls-62" d="M137.27,171.72a.64.64,0,0,1,.64-.63.63.63,0,0,1,.63.63.64.64,0,0,1-.63.64A.64.64,0,0,1,137.27,171.72Z" transform="translate(-62.54 -66.18)"/><path class="cls-93" d="M142,166.56a.67.67,0,1,1,.66.66A.66.66,0,0,1,142,166.56Z" transform="translate(-62.54 -66.18)"/><circle class="cls-96" cx="87.56" cy="103.79" r="0.39"/><circle class="cls-52" cx="83.73" cy="93.75" r="0.03"/><path class="cls-61" d="M132.56,164.35a.54.54,0,1,1,1.08,0,.54.54,0,0,1-1.08,0Z" transform="translate(-62.54 -66.18)"/><circle class="cls-54" cx="76.96" cy="73.05" r="0.42"/><path class="cls-63" d="M141.89,152.68a.65.65,0,0,1,.66-.66.66.66,0,0,1,.67.66.67.67,0,0,1-.67.67A.66.66,0,0,1,141.89,152.68Z" transform="translate(-62.54 -66.18)"/><circle class="cls-60" cx="70.47" cy="82.5" r="0.39"/><path class="cls-98" d="M199.58,201.53a.27.27,0,1,1,.27.27A.27.27,0,0,1,199.58,201.53Z" transform="translate(-62.54 -66.18)"/><path class="cls-54" d="M195.92,191.49a.09.09,0,1,1,.09.09A.09.09,0,0,1,195.92,191.49Z" transform="translate(-62.54 -66.18)"/><path class="cls-89" d="M131.4,216.41a.36.36,0,0,1,.72,0,.36.36,0,1,1-.72,0Z" transform="translate(-62.54 -66.18)"/><circle class="cls-65" cx="103.14" cy="127.07" r="0.82"/><path class="cls-71" d="M115,193.68a.18.18,0,1,1,.18.18A.18.18,0,0,1,115,193.68Z" transform="translate(-62.54 -66.18)"/><circle class="cls-48" cx="37.72" cy="52.52" r="0.39"/><path class="cls-82" d="M104.47,211.54a.61.61,0,1,1,.61.61A.6.6,0,0,1,104.47,211.54Z" transform="translate(-62.54 -66.18)"/><path class="cls-68" d="M259.31,160.2a.24.24,0,0,1,.24-.24.24.24,0,0,1,.24.24.23.23,0,0,1-.24.24A.24.24,0,0,1,259.31,160.2Z" transform="translate(-62.54 -66.18)"/><circle class="cls-76" cx="45.2" cy="55.93" r="0.36"/><circle class="cls-86" cx="41.37" cy="45.89" r="0.69"/><path class="cls-67" d="M256.29,148.54a.24.24,0,0,1,.24-.24.23.23,0,0,1,.24.24.24.24,0,0,1-.24.24A.24.24,0,0,1,256.29,148.54Z" transform="translate(-62.54 -66.18)"/><circle class="cls-90" cx="47.17" cy="40.85" r="0.72"/><path class="cls-70" d="M101.48,184.22a.49.49,0,1,1,.48.48A.49.49,0,0,1,101.48,184.22Z" transform="translate(-62.54 -66.18)"/><path class="cls-92" d="M90.05,100.82a.61.61,0,1,1,.6.61A.6.6,0,0,1,90.05,100.82Z" transform="translate(-62.54 -66.18)"/><circle class="cls-84" cx="50.84" cy="146.87" r="0.03"/><path class="cls-88" d="M101.77,131.45a.33.33,0,0,1,.66,0,.33.33,0,1,1-.66,0Z" transform="translate(-62.54 -66.18)"/><path class="cls-61" d="M251.88,257a.19.19,0,0,1,.19-.18.18.18,0,0,1,0,.36A.19.19,0,0,1,251.88,257Z" transform="translate(-62.54 -66.18)"/><path class="cls-93" d="M258.57,235.34a.84.84,0,0,1,.85-.84.83.83,0,0,1,.84.84.84.84,0,0,1-.84.85A.85.85,0,0,1,258.57,235.34Z" transform="translate(-62.54 -66.18)"/><circle class="cls-55" cx="201.31" cy="159.12" r="0.48"/><path class="cls-51" d="M259.42,215.26a.6.6,0,0,1,.6-.6.61.61,0,1,1,0,1.21A.6.6,0,0,1,259.42,215.26Z" transform="translate(-62.54 -66.18)"/><path class="cls-73" d="M246.31,219.68a.55.55,0,0,1,.55-.54.54.54,0,1,1,0,1.08A.55.55,0,0,1,246.31,219.68Z" transform="translate(-62.54 -66.18)"/><path class="cls-54" d="M249.39,233.13a.52.52,0,1,1,.52.51A.52.52,0,0,1,249.39,233.13Z" transform="translate(-62.54 -66.18)"/><circle class="cls-60" cx="177.82" cy="162.95" r="0.06"/><path class="cls-53" d="M254.31,223.09a0,0,0,0,1,0,0,0,0,0,0,1,0,.06A0,0,0,0,1,254.31,223.09Z" transform="translate(-62.54 -66.18)"/><path class="cls-73" d="M250.27,213.05a.24.24,0,0,1,.24-.24.24.24,0,0,1,0,.48A.24.24,0,0,1,250.27,213.05Z" transform="translate(-62.54 -66.18)"/><path class="cls-71" d="M238.42,296.86a.7.7,0,0,1,1.39,0,.7.7,0,1,1-1.39,0Z" transform="translate(-62.54 -66.18)"/><path class="cls-95" d="M255.73,208a.58.58,0,1,1,.58.58A.58.58,0,0,1,255.73,208Z" transform="translate(-62.54 -66.18)"/><path class="cls-93" d="M260.56,198a.18.18,0,0,1,.36,0,.18.18,0,1,1-.36,0Z" transform="translate(-62.54 -66.18)"/><path class="cls-61" d="M256.64,187.94a.27.27,0,1,1,.27.27A.27.27,0,0,1,256.64,187.94Z" transform="translate(-62.54 -66.18)"/><path class="cls-84" d="M245.3,271.75a.22.22,0,1,1,.21.21A.22.22,0,0,1,245.3,271.75Z" transform="translate(-62.54 -66.18)"/><path class="cls-98" d="M248.41,285.2a.16.16,0,0,1,.15-.16.16.16,0,0,1,.16.16.16.16,0,0,1-.16.15A.15.15,0,0,1,248.41,285.2Z" transform="translate(-62.54 -66.18)"/><path class="cls-91" d="M236.68,201.8a.57.57,0,0,1,.57-.57.58.58,0,1,1,0,1.15A.57.57,0,0,1,236.68,201.8Z" transform="translate(-62.54 -66.18)"/><path class="cls-93" d="M303.79,254.65a.3.3,0,1,1,.6,0,.3.3,0,1,1-.6,0Z" transform="translate(-62.54 -66.18)"/><path class="cls-79" d="M248.26,265.12a.91.91,0,1,1,1.81,0,.91.91,0,0,1-1.81,0Z" transform="translate(-62.54 -66.18)"/><circle class="cls-53" cx="173.46" cy="203.35" r="0.76"/><path class="cls-67" d="M202.94,248.33a.61.61,0,0,1,.61-.61.61.61,0,0,1,0,1.21A.61.61,0,0,1,202.94,248.33Z" transform="translate(-62.54 -66.18)"/><path class="cls-62" d="M198,300.63a.52.52,0,1,1,.52.52A.51.51,0,0,1,198,300.63Z" transform="translate(-62.54 -66.18)"/><path class="cls-93" d="M184.55,305.05a.85.85,0,1,1,.84.85A.85.85,0,0,1,184.55,305.05Z" transform="translate(-62.54 -66.18)"/><path class="cls-88" d="M181.25,331.55a.58.58,0,1,1,.58.58A.58.58,0,0,1,181.25,331.55Z" transform="translate(-62.54 -66.18)"/><path class="cls-82" d="M193.19,246.12a.85.85,0,1,1,.85.84A.85.85,0,0,1,193.19,246.12Z" transform="translate(-62.54 -66.18)"/><path class="cls-88" d="M188.83,298.42a.21.21,0,0,1,.21-.21.21.21,0,1,1,0,.42A.21.21,0,0,1,188.83,298.42Z" transform="translate(-62.54 -66.18)"/><circle class="cls-85" cx="113.34" cy="236.65" r="0.42"/><path class="cls-98" d="M241.18,251.24a.27.27,0,1,1,.54,0,.27.27,0,0,1-.54,0Z" transform="translate(-62.54 -66.18)"/><path class="cls-82" d="M236.19,303.54a.27.27,0,1,1,.27.27A.27.27,0,0,1,236.19,303.54Z" transform="translate(-62.54 -66.18)"/><path class="cls-75" d="M223.61,245.61a.85.85,0,1,1,.84.85A.85.85,0,0,1,223.61,245.61Z" transform="translate(-62.54 -66.18)"/><path class="cls-97" d="M217.84,255.06a.12.12,0,0,1,.24,0,.12.12,0,1,1-.24,0Z" transform="translate(-62.54 -66.18)"/><path class="cls-95" d="M231.76,249a.18.18,0,1,1,.18.18A.18.18,0,0,1,231.76,249Z" transform="translate(-62.54 -66.18)"/><path class="cls-57" d="M226.4,301.33a.55.55,0,0,1,.55-.55.55.55,0,0,1,.54.55.54.54,0,0,1-.54.54A.55.55,0,0,1,226.4,301.33Z" transform="translate(-62.54 -66.18)"/><circle class="cls-75" cx="151.24" cy="239.56" r="0.33"/><path class="cls-61" d="M271.79,283.94a.27.27,0,1,1,.27.27A.27.27,0,0,1,271.79,283.94Z" transform="translate(-62.54 -66.18)"/><path class="cls-94" d="M275.92,273.9a.58.58,0,1,1,1.15,0,.58.58,0,0,1-1.15,0Z" transform="translate(-62.54 -66.18)"/><path class="cls-79" d="M272.42,263.86a.24.24,0,1,1,.24.24A.24.24,0,0,1,272.42,263.86Z" transform="translate(-62.54 -66.18)"/><path class="cls-93" d="M261.17,347.67a.1.1,0,0,1,.1-.09.09.09,0,1,1,0,.18A.1.1,0,0,1,261.17,347.67Z" transform="translate(-62.54 -66.18)"/><circle class="cls-51" cx="200" cy="215.54" r="0.3"/><circle class="cls-65" cx="190.46" cy="211.54" r="0.45"/><path class="cls-55" d="M266.29,271.68A.69.69,0,0,1,267,271a.7.7,0,1,1-.69.69Z" transform="translate(-62.54 -66.18)"/><path class="cls-89" d="M262.33,261.65a.82.82,0,0,1,.82-.82.82.82,0,0,1,.81.82.81.81,0,0,1-.81.81A.82.82,0,0,1,262.33,261.65Z" transform="translate(-62.54 -66.18)"/><path class="cls-62" d="M249.53,266.06a.45.45,0,1,1,.45.45A.45.45,0,0,1,249.53,266.06Z" transform="translate(-62.54 -66.18)"/><path class="cls-92" d="M268.67,256.61a.28.28,0,0,1,.28-.27.27.27,0,1,1,0,.54A.28.28,0,0,1,268.67,256.61Z" transform="translate(-62.54 -66.18)"/><path class="cls-71" d="M273.2,246.57a.18.18,0,1,1,.18.18A.18.18,0,0,1,273.2,246.57Z" transform="translate(-62.54 -66.18)"/><circle class="cls-88" cx="208.78" cy="249.74" r="0.3"/><path class="cls-89" d="M256.17,241a.22.22,0,0,1,.21-.22.21.21,0,0,1,.21.22.21.21,0,0,1-.21.21A.22.22,0,0,1,256.17,241Z" transform="translate(-62.54 -66.18)"/><path class="cls-61" d="M259.28,254.4a.16.16,0,0,1,.15-.16.15.15,0,0,1,.15.16.15.15,0,0,1-.15.15A.15.15,0,0,1,259.28,254.4Z" transform="translate(-62.54 -66.18)"/><path class="cls-58" d="M249.35,250.4a.54.54,0,1,1,1.08,0,.54.54,0,1,1-1.08,0Z" transform="translate(-62.54 -66.18)"/><path class="cls-98" d="M264.73,323.75a.91.91,0,1,1,.91.91A.9.9,0,0,1,264.73,323.75Z" transform="translate(-62.54 -66.18)"/><path class="cls-64" d="M260,234.32a.06.06,0,0,1,.06-.06s.07,0,.07.06a.07.07,0,0,1-.07.06A.06.06,0,0,1,260,234.32Z" transform="translate(-62.54 -66.18)"/><path class="cls-57" d="M246.36,238.73a.51.51,0,1,1,.51.52A.51.51,0,0,1,246.36,238.73Z" transform="translate(-62.54 -66.18)"/><path class="cls-62" d="M290.63,280.63a.28.28,0,0,1,.28-.27.27.27,0,0,1,.27.27.28.28,0,0,1-.27.28A.29.29,0,0,1,290.63,280.63Z" transform="translate(-62.54 -66.18)"/><path class="cls-48" d="M287.22,269a.67.67,0,1,1,1.33,0,.67.67,0,0,1-1.33,0Z" transform="translate(-62.54 -66.18)"/><path class="cls-52" d="M287.64,253.31a.16.16,0,0,1,.15-.16.15.15,0,0,1,.15.16.15.15,0,0,1-.15.15A.15.15,0,0,1,287.64,253.31Z" transform="translate(-62.54 -66.18)"/><path class="cls-65" d="M284.38,241.64a.4.4,0,1,1,.39.39A.39.39,0,0,1,284.38,241.64Z" transform="translate(-62.54 -66.18)"/><path class="cls-48" d="M261.09,255.66a.09.09,0,1,1,.09.09A.09.09,0,0,1,261.09,255.66Z" transform="translate(-62.54 -66.18)"/><path class="cls-86" d="M266.65,250.62a.33.33,0,0,1,.33-.33.33.33,0,1,1,0,.66A.33.33,0,0,1,266.65,250.62Z" transform="translate(-62.54 -66.18)"/><circle class="cls-89" cx="207.72" cy="236.74" r="0.27"/><path class="cls-65" d="M266.36,292.89a.06.06,0,0,1,.06-.06.05.05,0,0,1,.06.06.06.06,0,0,1-.06.06A.06.06,0,0,1,266.36,292.89Z" transform="translate(-62.54 -66.18)"/><circle class="cls-85" cx="190.72" cy="231.12" r="0.69"/><circle class="cls-56" cx="194.92" cy="182.22" r="0.36"/><path class="cls-86" d="M246.61,306.75a.16.16,0,0,1,.16-.15.15.15,0,0,1,.15.15.16.16,0,0,1-.15.16A.16.16,0,0,1,246.61,306.75Z" transform="translate(-62.54 -66.18)"/><circle class="cls-60" cx="198.2" cy="234.53" r="0.33"/><path class="cls-98" d="M256.82,290.67a.09.09,0,1,1,.09.09A.09.09,0,0,1,256.82,290.67Z" transform="translate(-62.54 -66.18)"/><path class="cls-52" d="M242.93,295.09a.82.82,0,0,1,.81-.82.82.82,0,0,1,.82.82.82.82,0,0,1-.82.81A.81.81,0,0,1,242.93,295.09Z" transform="translate(-62.54 -66.18)"/><path class="cls-53" d="M231,282.78a0,0,0,0,1,0,0l0,0a0,0,0,0,1,0,0A0,0,0,0,1,231,282.78Z" transform="translate(-62.54 -66.18)"/><path class="cls-84" d="M231,262.7a.58.58,0,1,1,.58.58A.58.58,0,0,1,231,262.7Z" transform="translate(-62.54 -66.18)"/><path class="cls-57" d="M218.2,267.12a.24.24,0,0,1,.24-.24.24.24,0,0,1,0,.48A.24.24,0,0,1,218.2,267.12Z" transform="translate(-62.54 -66.18)"/><path class="cls-54" d="M221.46,280.57a0,0,0,0,1,0,0,0,0,0,0,1,0,.06A0,0,0,0,1,221.46,280.57Z" transform="translate(-62.54 -66.18)"/><path class="cls-78" d="M211.62,276.57a.33.33,0,1,1,.66,0,.33.33,0,0,1-.66,0Z" transform="translate(-62.54 -66.18)"/><path class="cls-48" d="M225.78,270.53a.15.15,0,1,1,.15.15A.15.15,0,0,1,225.78,270.53Z" transform="translate(-62.54 -66.18)"/><path class="cls-82" d="M223.62,339.89a.25.25,0,1,1,.24.24A.25.25,0,0,1,223.62,339.89Z" transform="translate(-62.54 -66.18)"/><path class="cls-96" d="M208.78,264.91a.15.15,0,1,1,.3,0,.15.15,0,1,1-.3,0Z" transform="translate(-62.54 -66.18)"/><path class="cls-86" d="M227.32,255.45a.58.58,0,1,1,.57.58A.58.58,0,0,1,227.32,255.45Z" transform="translate(-62.54 -66.18)"/><circle class="cls-70" cx="165.96" cy="169.19" r="0.42"/><path class="cls-49" d="M215.21,239.79a.12.12,0,1,1,.12.12A.12.12,0,0,1,215.21,239.79Z" transform="translate(-62.54 -66.18)"/><circle class="cls-61" cx="155.84" cy="187.06" r="0.42"/><path class="cls-91" d="M208.38,249.24a.46.46,0,0,1,.46-.45.45.45,0,0,1,.45.45.46.46,0,0,1-.45.46A.47.47,0,0,1,208.38,249.24Z" transform="translate(-62.54 -66.18)"/><circle class="cls-95" cx="162.05" cy="256.41" r="0.06"/><circle class="cls-93" cx="158.21" cy="246.37" r="0.79"/><path class="cls-58" d="M205.58,237.58a.23.23,0,0,1,.24-.24.24.24,0,0,1,.24.24.24.24,0,0,1-.24.24A.24.24,0,0,1,205.58,237.58Z" transform="translate(-62.54 -66.18)"/><path class="cls-48" d="M224.8,291.73a.57.57,0,0,1,1.14,0,.57.57,0,1,1-1.14,0Z" transform="translate(-62.54 -66.18)"/><path class="cls-90" d="M215.28,289.52a.58.58,0,1,1,1.15,0,.58.58,0,0,1-1.15,0Z" transform="translate(-62.54 -66.18)"/><path class="cls-64" d="M202.48,293.93a.21.21,0,0,1,.42,0,.21.21,0,1,1-.42,0Z" transform="translate(-62.54 -66.18)"/><path class="cls-96" d="M290.8,300.21a.36.36,0,1,1,.36.36A.36.36,0,0,1,290.8,300.21Z" transform="translate(-62.54 -66.18)"/><circle class="cls-92" cx="225.06" cy="260.53" r="0.76"/><path class="cls-77" d="M281.38,298a.27.27,0,1,1,.54,0,.27.27,0,0,1-.54,0Z" transform="translate(-62.54 -66.18)"/><path class="cls-50" d="M278,241.61a.42.42,0,1,1,.42.42A.42.42,0,0,1,278,241.61Z" transform="translate(-62.54 -66.18)"/><path class="cls-83" d="M282.32,231.57a.58.58,0,1,1,1.15,0,.58.58,0,0,1-1.15,0Z" transform="translate(-62.54 -66.18)"/><circle class="cls-67" cx="218.29" cy="234.74" r="0.76"/><path class="cls-72" d="M279.27,204.24a.52.52,0,1,1,.51.51A.51.51,0,0,1,279.27,204.24Z" transform="translate(-62.54 -66.18)"/><path class="cls-88" d="M278.89,287.92a.88.88,0,1,1,.88.88A.88.88,0,0,1,278.89,287.92Z" transform="translate(-62.54 -66.18)"/><path class="cls-52" d="M363.53,233.48a.88.88,0,1,1,.88.88A.87.87,0,0,1,363.53,233.48Z" transform="translate(-62.54 -66.18)"/><path class="cls-67" d="M315.38,164.56a.61.61,0,1,1,.6.6A.6.6,0,0,1,315.38,164.56Z" transform="translate(-62.54 -66.18)"/><path class="cls-64" d="M364.4,213.41a.61.61,0,1,1,.61.6A.61.61,0,0,1,364.4,213.41Z" transform="translate(-62.54 -66.18)"/><path class="cls-81" d="M298.62,158.93a.36.36,0,0,1,.36-.36.37.37,0,0,1,.37.36.38.38,0,0,1-.37.37A.37.37,0,0,1,298.62,158.93Z" transform="translate(-62.54 -66.18)"/><path class="cls-78" d="M302,172.38a.06.06,0,0,1,.06-.06.06.06,0,0,1,.06.06.05.05,0,0,1-.06.06A.06.06,0,0,1,302,172.38Z" transform="translate(-62.54 -66.18)"/><path class="cls-87" d="M293.72,247.78a.54.54,0,0,1,.54-.54.55.55,0,0,1,.55.54.55.55,0,0,1-.55.55A.55.55,0,0,1,293.72,247.78Z" transform="translate(-62.54 -66.18)"/><circle class="cls-71" cx="245.7" cy="175.56" r="0.36"/><path class="cls-97" d="M302.51,152.31a.13.13,0,0,1,.13-.13.13.13,0,0,1,.12.13.13.13,0,0,1-.12.12A.13.13,0,0,1,302.51,152.31Z" transform="translate(-62.54 -66.18)"/><path class="cls-94" d="M289.14,156.72a.33.33,0,1,1,.33.33A.33.33,0,0,1,289.14,156.72Z" transform="translate(-62.54 -66.18)"/><path class="cls-57" d="M308.31,147.27a.12.12,0,0,1,.12-.12.12.12,0,1,1,0,.24A.12.12,0,0,1,308.31,147.27Z" transform="translate(-62.54 -66.18)"/><path class="cls-57" d="M314.52,216.62a.12.12,0,0,1,.24,0,.12.12,0,1,1-.24,0Z" transform="translate(-62.54 -66.18)"/><path class="cls-77" d="M308.64,127.19a.4.4,0,1,1,.4.39A.39.39,0,0,1,308.64,127.19Z" transform="translate(-62.54 -66.18)"/><circle class="cls-90" cx="286.19" cy="124.31" r="0.82"/><path class="cls-84" d="M298.26,145.06a.66.66,0,0,1,.66-.67.67.67,0,1,1,0,1.33A.66.66,0,0,1,298.26,145.06Z" transform="translate(-62.54 -66.18)"/><circle class="cls-74" cx="228.61" cy="154.27" r="0.72"/><path class="cls-66" d="M303.09,135a.27.27,0,1,1,.54,0,.27.27,0,0,1-.54,0Z" transform="translate(-62.54 -66.18)"/><path class="cls-48" d="M299.28,125a.24.24,0,0,1,.24-.24.24.24,0,0,1,.25.24.25.25,0,0,1-.49,0Z" transform="translate(-62.54 -66.18)"/><path class="cls-60" d="M286,129.39a.33.33,0,0,1,.33-.33.34.34,0,0,1,0,.67A.33.33,0,0,1,286,129.39Z" transform="translate(-62.54 -66.18)"/><path class="cls-48" d="M281.14,111.83a.88.88,0,1,1,.87.88A.88.88,0,0,1,281.14,111.83Z" transform="translate(-62.54 -66.18)"/><path class="cls-96" d="M340.54,240.07a.54.54,0,0,1,1.08,0,.54.54,0,1,1-1.08,0Z" transform="translate(-62.54 -66.18)"/><path class="cls-87" d="M282.1,91.75a.52.52,0,1,1,.52.52A.51.51,0,0,1,282.1,91.75Z" transform="translate(-62.54 -66.18)"/><path class="cls-58" d="M323.45,234.45a.63.63,0,0,1,.63-.63.63.63,0,1,1,0,1.26A.63.63,0,0,1,323.45,234.45Z" transform="translate(-62.54 -66.18)"/><circle class="cls-88" cx="209.96" cy="43.43" r="0.72"/><path class="cls-56" d="M315.55,164.51a.27.27,0,1,1,.54,0,.27.27,0,0,1-.54,0Z" transform="translate(-62.54 -66.18)"/><path class="cls-69" d="M276.42,99.58a.52.52,0,1,1,.52.51A.52.52,0,0,1,276.42,99.58Z" transform="translate(-62.54 -66.18)"/><circle class="cls-55" cx="210.56" cy="23.35" r="0.76"/><circle class="cls-92" cx="199.17" cy="107.17" r="0.45"/><path class="cls-98" d="M324,104.7a.4.4,0,1,1,.39.39A.39.39,0,0,1,324,104.7Z" transform="translate(-62.54 -66.18)"/><path class="cls-72" d="M320,94.66a.51.51,0,1,1,.51.51A.51.51,0,0,1,320,94.66Z" transform="translate(-62.54 -66.18)"/><path class="cls-95" d="M306.48,99.08a.88.88,0,1,1,.87.87A.87.87,0,0,1,306.48,99.08Z" transform="translate(-62.54 -66.18)"/><path class="cls-73" d="M311.36,191.92a.82.82,0,0,1,.81-.82.82.82,0,0,1,0,1.64A.82.82,0,0,1,311.36,191.92Z" transform="translate(-62.54 -66.18)"/><path class="cls-51" d="M300.35,108.53a.52.52,0,1,1,.51.51A.51.51,0,0,1,300.35,108.53Z" transform="translate(-62.54 -66.18)"/><circle class="cls-51" cx="252.3" cy="36.3" r="0.73"/><circle class="cls-67" cx="248.47" cy="26.26" r="0.79"/><path class="cls-73" d="M299.07,176.26a.54.54,0,1,1,1.08,0,.54.54,0,1,1-1.08,0Z" transform="translate(-62.54 -66.18)"/><path class="cls-95" d="M242.67,190.07a.06.06,0,1,1,.06.06A.06.06,0,0,1,242.67,190.07Z" transform="translate(-62.54 -66.18)"/><path class="cls-58" d="M293.88,149.48a.54.54,0,0,1,.54-.54.55.55,0,0,1,.55.54.55.55,0,0,1-.55.55A.55.55,0,0,1,293.88,149.48Z" transform="translate(-62.54 -66.18)"/><path class="cls-77" d="M229.9,174.41a.27.27,0,1,1,.27.27A.27.27,0,0,1,229.9,174.41Z" transform="translate(-62.54 -66.18)"/><path class="cls-91" d="M232.61,187.86a.61.61,0,1,1,.61.6A.61.61,0,0,1,232.61,187.86Z" transform="translate(-62.54 -66.18)"/><path class="cls-74" d="M223.19,183.86a.49.49,0,1,1,.49.48A.48.48,0,0,1,223.19,183.86Z" transform="translate(-62.54 -66.18)"/><path class="cls-88" d="M236.81,177.82a.85.85,0,1,1,.84.84A.84.84,0,0,1,236.81,177.82Z" transform="translate(-62.54 -66.18)"/><path class="cls-55" d="M232,88.38a.06.06,0,0,1,.12,0,.06.06,0,0,1-.12,0Z" transform="translate(-62.54 -66.18)"/><path class="cls-90" d="M218.31,92.8a.58.58,0,1,1,.58.57A.57.57,0,0,1,218.31,92.8Z" transform="translate(-62.54 -66.18)"/><path class="cls-51" d="M145.2,105.64a.09.09,0,1,1,.09.09A.09.09,0,0,1,145.2,105.64Z" transform="translate(-62.54 -66.18)"/><path class="cls-54" d="M131.52,110.06a.61.61,0,0,1,.6-.61.62.62,0,0,1,.61.61.61.61,0,0,1-.61.6A.6.6,0,0,1,131.52,110.06Z" transform="translate(-62.54 -66.18)"/><circle class="cls-54" cx="73.23" cy="37.25" r="0.72"/><path class="cls-93" d="M119.59,196.89a.36.36,0,1,1,.36.36A.36.36,0,0,1,119.59,196.89Z" transform="translate(-62.54 -66.18)"/><path class="cls-81" d="M182.59,108.55a.6.6,0,0,1,1.2,0,.6.6,0,1,1-1.2,0Z" transform="translate(-62.54 -66.18)"/><path class="cls-61" d="M225.93,165.22a.61.61,0,1,1,.61.61A.6.6,0,0,1,225.93,165.22Z" transform="translate(-62.54 -66.18)"/><path class="cls-58" d="M213,169.64a.39.39,0,1,1,.39.39A.38.38,0,0,1,213,169.64Z" transform="translate(-62.54 -66.18)"/><path class="cls-86" d="M208.67,86.73a.61.61,0,1,1,.6.61A.6.6,0,0,1,208.67,86.73Z" transform="translate(-62.54 -66.18)"/><circle class="cls-54" cx="137.19" cy="16.55" r="0.36"/><path class="cls-94" d="M201.42,181.71a.34.34,0,0,1,.67,0,.34.34,0,0,1-.67,0Z" transform="translate(-62.54 -66.18)"/><circle class="cls-70" cx="130.95" cy="45.58" r="0.69"/><path class="cls-72" d="M259.7,164.61a.63.63,0,0,1,.63-.63.63.63,0,1,1,0,1.26A.63.63,0,0,1,259.7,164.61Z" transform="translate(-62.54 -66.18)"/><path class="cls-52" d="M202.91,95.68a.73.73,0,0,1,.73-.72.72.72,0,0,1,.72.72.73.73,0,0,1-.72.73A.73.73,0,0,1,202.91,95.68Z" transform="translate(-62.54 -66.18)"/><path class="cls-51" d="M190,100.1a.49.49,0,1,1,.48.48A.48.48,0,0,1,190,100.1Z" transform="translate(-62.54 -66.18)"/><path class="cls-48" d="M230.23,146.68a.36.36,0,0,1,.36-.36.36.36,0,1,1,0,.72A.36.36,0,0,1,230.23,146.68Z" transform="translate(-62.54 -66.18)"/><path class="cls-88" d="M220.36,144.47a.73.73,0,0,1,.72-.73.73.73,0,0,1,.73.73.73.73,0,0,1-.73.72A.72.72,0,0,1,220.36,144.47Z" transform="translate(-62.54 -66.18)"/><path class="cls-54" d="M157.77,81.58a.91.91,0,1,1,.91.91A.9.9,0,0,1,157.77,81.58Z" transform="translate(-62.54 -66.18)"/><path class="cls-71" d="M171.4,96.74a.7.7,0,1,1,.7.7A.69.69,0,0,1,171.4,96.74Z" transform="translate(-62.54 -66.18)"/><path class="cls-76" d="M162.22,94.53a.37.37,0,0,1,.37-.36.36.36,0,1,1,0,.72A.37.37,0,0,1,162.22,94.53Z" transform="translate(-62.54 -66.18)"/><path class="cls-86" d="M149,98.94a.39.39,0,1,1,.39.4A.39.39,0,0,1,149,98.94Z" transform="translate(-62.54 -66.18)"/><path class="cls-90" d="M355.84,94.69a.52.52,0,1,1,.52.51A.52.52,0,0,1,355.84,94.69Z" transform="translate(-62.54 -66.18)"/><path class="cls-94" d="M349.59,104.14a.27.27,0,0,1,.27-.27.27.27,0,1,1,0,.54A.27.27,0,0,1,349.59,104.14Z" transform="translate(-62.54 -66.18)"/><circle class="cls-57" cx="337.16" cy="85.18" r="0.06"/><circle class="cls-52" cx="288.68" cy="190.72" r="0.51"/><path class="cls-61" d="M353.25,167.47a.64.64,0,0,1,.64-.64.64.64,0,0,1,.63.64.63.63,0,0,1-.63.63A.64.64,0,0,1,353.25,167.47Z" transform="translate(-62.54 -66.18)"/><circle class="cls-55" cx="340.37" cy="150.13" r="0.82"/><path class="cls-49" d="M336.65,161.84a.24.24,0,0,1,.24-.24.24.24,0,0,1,.24.24.24.24,0,0,1-.24.24A.23.23,0,0,1,336.65,161.84Z" transform="translate(-62.54 -66.18)"/><circle class="cls-97" cx="277.4" cy="109.11" r="0.72"/><path class="cls-93" d="M329.79,171.29a.61.61,0,1,1,.6.61A.6.6,0,0,1,329.79,171.29Z" transform="translate(-62.54 -66.18)"/><path class="cls-96" d="M344.16,165.25a.22.22,0,0,1,.21-.21.21.21,0,0,1,.21.21.21.21,0,0,1-.21.21A.21.21,0,0,1,344.16,165.25Z" transform="translate(-62.54 -66.18)"/><path class="cls-88" d="M340,155.21a.55.55,0,0,1,.55-.54.54.54,0,0,1,.54.54.55.55,0,0,1-.54.55A.55.55,0,0,1,340,155.21Z" transform="translate(-62.54 -66.18)"/><path class="cls-87" d="M379.72,218.52a.52.52,0,1,1,.51.51A.51.51,0,0,1,379.72,218.52Z" transform="translate(-62.54 -66.18)"/><circle class="cls-70" cx="283.8" cy="83.99" r="0.79"/><path class="cls-55" d="M350.17,140.14a.61.61,0,1,1,.6.6A.6.6,0,0,1,350.17,140.14Z" transform="translate(-62.54 -66.18)"/><path class="cls-82" d="M346,130.1a.91.91,0,1,1,.91.9A.91.91,0,0,1,346,130.1Z" transform="translate(-62.54 -66.18)"/><circle class="cls-66" cx="271.23" cy="68.33" r="0.51"/><circle class="cls-97" cx="274.28" cy="81.78" r="0.63"/><circle class="cls-90" cx="264.74" cy="77.78" r="0.66"/><circle class="cls-84" cx="278.72" cy="71.74" r="0.76"/><path class="cls-75" d="M338.53,207.28a.67.67,0,1,1,.67.66A.66.66,0,0,1,338.53,207.28Z" transform="translate(-62.54 -66.18)"/><circle class="cls-52" cx="261.72" cy="66.12" r="0.66"/><circle class="cls-77" cx="247.65" cy="244.16" r="0.39"/><path class="cls-74" d="M312.1,220.91a.76.76,0,1,1,.76.76A.76.76,0,0,1,312.1,220.91Z" transform="translate(-62.54 -66.18)"/><path class="cls-48" d="M308.9,210.87a.13.13,0,0,1,.12-.12.12.12,0,0,1,.12.12.12.12,0,0,1-.12.13A.13.13,0,0,1,308.9,210.87Z" transform="translate(-62.54 -66.18)"/><path class="cls-60" d="M295.4,215.29a.46.46,0,0,1,.46-.45.45.45,0,0,1,0,.9A.46.46,0,0,1,295.4,215.29Z" transform="translate(-62.54 -66.18)"/><path class="cls-48" d="M298.36,228.74a.55.55,0,0,1,.55-.54.54.54,0,1,1,0,1.08A.55.55,0,0,1,298.36,228.74Z" transform="translate(-62.54 -66.18)"/><path class="cls-85" d="M289.15,224.74a.22.22,0,0,1,.43,0,.21.21,0,0,1-.21.21A.21.21,0,0,1,289.15,224.74Z" transform="translate(-62.54 -66.18)"/><circle class="cls-48" cx="240.8" cy="152.52" r="0.36"/><path class="cls-55" d="M299.36,208.66a.15.15,0,1,1,.15.15A.15.15,0,0,1,299.36,208.66Z" transform="translate(-62.54 -66.18)"/><path class="cls-91" d="M287.9,292.47a.22.22,0,0,1,.43,0,.21.21,0,0,1-.22.21A.21.21,0,0,1,287.9,292.47Z" transform="translate(-62.54 -66.18)"/><path class="cls-60" d="M306.47,283a.61.61,0,0,1,.61-.6.6.6,0,0,1,0,1.2A.61.61,0,0,1,306.47,283Z" transform="translate(-62.54 -66.18)"/><circle class="cls-73" cx="300.06" cy="186.29" r="0.69"/><circle class="cls-72" cx="296.23" cy="176.25" r="0.36"/><path class="cls-85" d="M292.5,188a.25.25,0,0,1,.49,0,.24.24,0,0,1-.24.24A.24.24,0,0,1,292.5,188Z" transform="translate(-62.54 -66.18)"/><path class="cls-97" d="M295.25,201.41a.55.55,0,0,1,.55-.54.54.54,0,0,1,.54.54.55.55,0,0,1-.54.55A.55.55,0,0,1,295.25,201.41Z" transform="translate(-62.54 -66.18)"/><path class="cls-78" d="M286,197.41a.22.22,0,0,1,.43,0,.22.22,0,1,1-.43,0Z" transform="translate(-62.54 -66.18)"/><path class="cls-75" d="M299.66,191.37a.57.57,0,0,1,.57-.57.58.58,0,1,1,0,1.15A.57.57,0,0,1,299.66,191.37Z" transform="translate(-62.54 -66.18)"/><circle class="cls-67" cx="233.86" cy="115.15" r="0.85"/><circle class="cls-67" cx="220.69" cy="119.56" r="0.57"/><path class="cls-71" d="M346.14,233.86a.18.18,0,0,1,.18-.18.18.18,0,1,1,0,.36A.18.18,0,0,1,346.14,233.86Z" transform="translate(-62.54 -66.18)"/><circle class="cls-69" cx="288.22" cy="157.64" r="0.09"/><circle class="cls-53" cx="284.39" cy="147.6" r="0.36"/><path class="cls-73" d="M333.19,218.2a.57.57,0,1,1,.57.57A.57.57,0,0,1,333.19,218.2Z" transform="translate(-62.54 -66.18)"/><path class="cls-67" d="M338.43,311a.15.15,0,1,1,.3,0,.15.15,0,1,1-.3,0Z" transform="translate(-62.54 -66.18)"/><circle class="cls-80" cx="264.73" cy="161.47" r="0.76"/><path class="cls-51" d="M341.07,221.61a.18.18,0,1,1,.18.18A.18.18,0,0,1,341.07,221.61Z" transform="translate(-62.54 -66.18)"/><circle class="cls-91" cx="274.87" cy="145.38" r="0.72"/><path class="cls-68" d="M325.32,295.38a.7.7,0,1,1,1.39,0,.7.7,0,0,1-1.39,0Z" transform="translate(-62.54 -66.18)"/><circle class="cls-62" cx="280.67" cy="140.35" r="0.33"/><path class="cls-58" d="M348.94,275.89a.48.48,0,1,1,1,0,.48.48,0,1,1-1,0Z" transform="translate(-62.54 -66.18)"/><circle class="cls-72" cx="283.04" cy="199.66" r="0.39"/><circle class="cls-66" cx="320.97" cy="183.57" r="0.82"/><path class="cls-49" d="M214.41,285.66a.39.39,0,1,1,.39.39A.39.39,0,0,1,214.41,285.66Z" transform="translate(-62.54 -66.18)"/><circle class="cls-82" cx="159.19" cy="244.08" r="0.39"/><path class="cls-49" d="M202.68,261.55a.45.45,0,0,1,.9,0,.45.45,0,1,1-.9,0Z" transform="translate(-62.54 -66.18)"/><path class="cls-81" d="M240.28,298.42a.21.21,0,1,1,.42,0,.21.21,0,1,1-.42,0Z" transform="translate(-62.54 -66.18)"/><circle class="cls-98" cx="181.6" cy="225.6" r="0.39"/><path class="cls-88" d="M253.47,276.71a.91.91,0,1,1,.91.91A.9.9,0,0,1,253.47,276.71Z" transform="translate(-62.54 -66.18)"/><path class="cls-68" d="M249.73,266.67a.82.82,0,0,1,1.63,0,.82.82,0,1,1-1.63,0Z" transform="translate(-62.54 -66.18)"/><path class="cls-93" d="M239.52,284.54a.91.91,0,1,1,.91.9A.91.91,0,0,1,239.52,284.54Z" transform="translate(-62.54 -66.18)"/><circle class="cls-68" cx="178.49" cy="198.28" r="0.72"/><path class="cls-98" d="M227.26,268.88a.61.61,0,1,1,.61.6A.61.61,0,0,1,227.26,268.88Z" transform="translate(-62.54 -66.18)"/><path class="cls-67" d="M168.75,297.76a.27.27,0,0,1,.54,0,.27.27,0,1,1-.54,0Z" transform="translate(-62.54 -66.18)"/><circle class="cls-72" cx="89.48" cy="225.96" r="0.33"/><path class="cls-48" d="M236.46,319.36a.21.21,0,1,1,.21.21A.21.21,0,0,1,236.46,319.36Z" transform="translate(-62.54 -66.18)"/><path class="cls-64" d="M213.84,321.56a.15.15,0,0,1,.15-.15.15.15,0,0,1,0,.3A.15.15,0,0,1,213.84,321.56Z" transform="translate(-62.54 -66.18)"/><circle class="cls-82" cx="37.51" cy="218.8" r="0.36"/><path class="cls-71" d="M93.1,294.43a.46.46,0,0,1,.46-.45.45.45,0,0,1,.45.45.46.46,0,0,1-.45.46A.47.47,0,0,1,93.1,294.43Z" transform="translate(-62.54 -66.18)"/><path class="cls-71" d="M90.33,282.77a.21.21,0,0,1,.21-.21.21.21,0,0,1,.21.21.22.22,0,0,1-.21.21A.21.21,0,0,1,90.33,282.77Z" transform="translate(-62.54 -66.18)"/><circle class="cls-70" cx="76.76" cy="192.56" r="0.03"/><path class="cls-85" d="M137.23,277.74a.27.27,0,1,1,.54,0,.27.27,0,0,1-.54,0Z" transform="translate(-62.54 -66.18)"/><path class="cls-57" d="M133.57,267.7a.09.09,0,1,1,.09.09A.09.09,0,0,1,133.57,267.7Z" transform="translate(-62.54 -66.18)"/><path class="cls-93" d="M102.51,269.46a.82.82,0,0,1,.82-.82.82.82,0,0,1,.81.82.81.81,0,0,1-.81.81A.82.82,0,0,1,102.51,269.46Z" transform="translate(-62.54 -66.18)"/><path class="cls-91" d="M241.44,330.85a.3.3,0,1,1,.3.31A.3.3,0,0,1,241.44,330.85Z" transform="translate(-62.54 -66.18)"/><path class="cls-54" d="M301.18,309.69a.88.88,0,1,1,.88.88A.88.88,0,0,1,301.18,309.69Z" transform="translate(-62.54 -66.18)"/><path class="cls-92" d="M302.05,289.61a.61.61,0,1,1,.61.61A.6.6,0,0,1,302.05,289.61Z" transform="translate(-62.54 -66.18)"/><path class="cls-67" d="M285.57,266.7a.82.82,0,0,1,.81-.82.82.82,0,0,1,0,1.64A.82.82,0,0,1,285.57,266.7Z" transform="translate(-62.54 -66.18)"/><path class="cls-69" d="M278.19,316.28a.54.54,0,1,1,.54.54A.54.54,0,0,1,278.19,316.28Z" transform="translate(-62.54 -66.18)"/><path class="cls-79" d="M261.1,310.66a.64.64,0,0,1,.63-.64.64.64,0,0,1,.64.64.64.64,0,0,1-.64.63A.63.63,0,0,1,261.1,310.66Z" transform="translate(-62.54 -66.18)"/><path class="cls-97" d="M253.2,240.71a.27.27,0,0,1,.54,0,.27.27,0,1,1-.54,0Z" transform="translate(-62.54 -66.18)"/><path class="cls-48" d="M231.53,225.69a.54.54,0,0,1,.54-.54.54.54,0,1,1,0,1.08A.54.54,0,0,1,231.53,225.69Z" transform="translate(-62.54 -66.18)"/><path class="cls-82" d="M163.58,241.43a.61.61,0,1,1,.61.61A.6.6,0,0,1,163.58,241.43Z" transform="translate(-62.54 -66.18)"/><circle class="cls-50" cx="88.48" cy="179.66" r="0.39"/><path class="cls-82" d="M197.35,240.82a.64.64,0,0,1,.63-.64.64.64,0,0,1,.64.64.64.64,0,0,1-.64.63A.63.63,0,0,1,197.35,240.82Z" transform="translate(-62.54 -66.18)"/><circle class="cls-64" cx="105.7" cy="156.7" r="0.36"/><circle class="cls-54" cx="96.19" cy="154.49" r="0.72"/><path class="cls-74" d="M337.29,227.57a.06.06,0,0,1,.06-.06.05.05,0,0,1,.06.06.06.06,0,0,1-.06.06A.06.06,0,0,1,337.29,227.57Z" transform="translate(-62.54 -66.18)"/><path class="cls-80" d="M339.75,292.52a.82.82,0,0,1,.81-.82.82.82,0,1,1,0,1.64A.82.82,0,0,1,339.75,292.52Z" transform="translate(-62.54 -66.18)"/><path class="cls-64" d="M317.37,294.72a.52.52,0,1,1,.51.52A.51.51,0,0,1,317.37,294.72Z" transform="translate(-62.54 -66.18)"/><path class="cls-73" d="M299.56,328.68a.7.7,0,1,1,.69.69A.69.69,0,0,1,299.56,328.68Z" transform="translate(-62.54 -66.18)"/><circle class="cls-97" cx="233.88" cy="252.46" r="0.36"/><circle class="cls-59" cx="258.62" cy="259.78" r="0.82"/><path class="cls-65" d="M333.58,204.32a.12.12,0,1,1,.12.12A.12.12,0,0,1,333.58,204.32Z" transform="translate(-62.54 -66.18)"/><path class="cls-65" d="M324.07,200.32a.09.09,0,1,1,.09.09A.09.09,0,0,1,324.07,200.32Z" transform="translate(-62.54 -66.18)"/><circle class="cls-92" cx="275.59" cy="128.1" r="0.79"/><circle class="cls-61" cx="273.53" cy="197.45" r="0.39"/><circle class="cls-59" cx="258.6" cy="122.47" r="0.36"/><path class="cls-58" d="M290.15,246.85a.31.31,0,0,1,.61,0,.31.31,0,0,1-.61,0Z" transform="translate(-62.54 -66.18)"/><path class="cls-88" d="M282.32,324a.39.39,0,1,1,.39.39A.38.38,0,0,1,282.32,324Z" transform="translate(-62.54 -66.18)"/><path class="cls-65" d="M330,329.15a.15.15,0,0,1,.15-.15.15.15,0,0,1,0,.3A.15.15,0,0,1,330,329.15Z" transform="translate(-62.54 -66.18)"/><circle class="cls-90" cx="260.83" cy="235.88" r="0.72"/><path class="cls-93" d="M310,306.48a.18.18,0,1,1,.36,0,.18.18,0,1,1-.36,0Z" transform="translate(-62.54 -66.18)"/><path class="cls-85" d="M304.23,253.58a.64.64,0,0,1,.64-.63.63.63,0,0,1,.63.63.64.64,0,0,1-.63.64A.64.64,0,0,1,304.23,253.58Z" transform="translate(-62.54 -66.18)"/><path class="cls-82" d="M318.75,247.54a.09.09,0,1,1,.09.09A.09.09,0,0,1,318.75,247.54Z" transform="translate(-62.54 -66.18)"/><path class="cls-77" d="M313.52,299.85a.34.34,0,0,1,.33-.34.34.34,0,0,1,0,.67A.33.33,0,0,1,313.52,299.85Z" transform="translate(-62.54 -66.18)"/><path class="cls-85" d="M346.22,266.79a.18.18,0,1,1,.18.18A.18.18,0,0,1,346.22,266.79Z" transform="translate(-62.54 -66.18)"/><path class="cls-64" d="M349.24,280.24a.21.21,0,0,1,.42,0,.21.21,0,0,1-.42,0Z" transform="translate(-62.54 -66.18)"/><path class="cls-60" d="M353.4,270.2a.49.49,0,1,1,.49.49A.49.49,0,0,1,353.4,270.2Z" transform="translate(-62.54 -66.18)"/><circle class="cls-79" cx="287.51" cy="193.98" r="0.76"/><path class="cls-53" d="M336.34,264.58a.55.55,0,0,1,.55-.54.54.54,0,0,1,0,1.08A.55.55,0,0,1,336.34,264.58Z" transform="translate(-62.54 -66.18)"/><path class="cls-60" d="M355.55,255.13a.3.3,0,0,1,.6,0,.3.3,0,1,1-.6,0Z" transform="translate(-62.54 -66.18)"/><path class="cls-59" d="M356.09,235.05a.36.36,0,0,1,.36-.36.36.36,0,1,1,0,.72A.36.36,0,0,1,356.09,235.05Z" transform="translate(-62.54 -66.18)"/><path class="cls-78" d="M342.44,239.47a.85.85,0,0,1,.85-.85.85.85,0,1,1-.85.85Z" transform="translate(-62.54 -66.18)"/><path class="cls-55" d="M346.19,252.91a.15.15,0,0,1,.15-.15.15.15,0,0,1,.15.15.16.16,0,0,1-.15.16A.15.15,0,0,1,346.19,252.91Z" transform="translate(-62.54 -66.18)"/><circle class="cls-69" cx="276.03" cy="262.13" r="0.42"/><circle class="cls-86" cx="288.23" cy="176.69" r="0.69"/><circle class="cls-55" cx="284.4" cy="166.65" r="0.06"/><circle class="cls-76" cx="271.23" cy="171.07" r="0.03"/><path class="cls-52" d="M348,254.18a.06.06,0,0,1,.06-.06.05.05,0,0,1,.06.06.06.06,0,0,1-.06.06A.06.06,0,0,1,348,254.18Z" transform="translate(-62.54 -66.18)"/><path class="cls-90" d="M353.25,249.14a.63.63,0,0,1,.63-.63.63.63,0,1,1,0,1.26A.63.63,0,0,1,353.25,249.14Z" transform="translate(-62.54 -66.18)"/><path class="cls-82" d="M356.62,301.44a.54.54,0,0,1,.54-.54.55.55,0,0,1,.55.54.55.55,0,0,1-.55.55A.55.55,0,0,1,356.62,301.44Z" transform="translate(-62.54 -66.18)"/><circle class="cls-71" cx="290.79" cy="225.22" r="0.24"/><path class="cls-67" d="M344.16,246.93a.21.21,0,1,1,.42,0,.21.21,0,0,1-.42,0Z" transform="translate(-62.54 -66.18)"/><circle class="cls-56" cx="271.13" cy="239.09" r="0.39"/><circle class="cls-98" cx="285.11" cy="233.05" r="0.69"/><circle class="cls-88" cx="281.27" cy="223.01" r="0.36"/><path class="cls-65" d="M329.8,293.61a.85.85,0,0,1,.85-.85.84.84,0,0,1,.84.85.83.83,0,0,1-.84.84A.84.84,0,0,1,329.8,293.61Z" transform="translate(-62.54 -66.18)"/><path class="cls-76" d="M317.22,281.3a.69.69,0,0,1,1.38,0,.69.69,0,1,1-1.38,0Z" transform="translate(-62.54 -66.18)"/><circle class="cls-50" cx="255.97" cy="195.04" r="0.3"/><path class="cls-80" d="M307.85,279.09a.55.55,0,0,1,.55-.55.55.55,0,0,1,.54.55.54.54,0,0,1-.54.54A.55.55,0,0,1,307.85,279.09Z" transform="translate(-62.54 -66.18)"/><path class="cls-62" d="M298.73,275.09a.12.12,0,0,1,.12-.12.12.12,0,1,1,0,.24A.12.12,0,0,1,298.73,275.09Z" transform="translate(-62.54 -66.18)"/><path class="cls-87" d="M312.62,269.05a.21.21,0,0,1,.21-.21.21.21,0,1,1,0,.42A.21.21,0,0,1,312.62,269.05Z" transform="translate(-62.54 -66.18)"/><path class="cls-80" d="M310.17,338.4a.6.6,0,1,1,.6.61A.6.6,0,0,1,310.17,338.4Z" transform="translate(-62.54 -66.18)"/><path class="cls-87" d="M295.8,263.43a0,0,0,0,1,0,0,0,0,0,0,1,0,0,0,0,0,0,1,0,0Z" transform="translate(-62.54 -66.18)"/><path class="cls-88" d="M316.3,333.37a.27.27,0,1,1,.27.27A.27.27,0,0,1,316.3,333.37Z" transform="translate(-62.54 -66.18)"/><circle class="cls-78" cx="252.86" cy="167.71" r="0.42"/><path class="cls-74" d="M302,238.31a.25.25,0,1,1,.25.24A.25.25,0,0,1,302,238.31Z" transform="translate(-62.54 -66.18)"/><path class="cls-82" d="M306.63,331.15a.43.43,0,1,1,.43.43A.42.42,0,0,1,306.63,331.15Z" transform="translate(-62.54 -66.18)"/><path class="cls-66" d="M295.62,247.76a.13.13,0,0,1,.12-.12.12.12,0,0,1,.12.12.12.12,0,0,1-.12.12A.12.12,0,0,1,295.62,247.76Z" transform="translate(-62.54 -66.18)"/><path class="cls-98" d="M308.91,241.72a.81.81,0,0,1,.81-.81.82.82,0,0,1,.82.81.82.82,0,0,1-.82.82A.82.82,0,0,1,308.91,241.72Z" transform="translate(-62.54 -66.18)"/><path class="cls-65" d="M305.28,231.68a.61.61,0,1,1,.61.61A.6.6,0,0,1,305.28,231.68Z" transform="translate(-62.54 -66.18)"/><path class="cls-68" d="M292.63,236.1a.09.09,0,1,1,.09.09A.09.09,0,0,1,292.63,236.1Z" transform="translate(-62.54 -66.18)"/><path class="cls-68" d="M312.18,290.25a.09.09,0,0,1,.09-.09.09.09,0,1,1,0,.18A.09.09,0,0,1,312.18,290.25Z" transform="translate(-62.54 -66.18)"/><path class="cls-60" d="M302.67,288a.09.09,0,1,1,.09.09A.09.09,0,0,1,302.67,288Z" transform="translate(-62.54 -66.18)"/><path class="cls-57" d="M289.08,292.45a.52.52,0,1,1,.52.52A.51.51,0,0,1,289.08,292.45Z" transform="translate(-62.54 -66.18)"/><path class="cls-52" d="M131.24,354a.15.15,0,0,1,.15-.16.16.16,0,0,1,.15.16.15.15,0,0,1-.15.15A.15.15,0,0,1,131.24,354Z" transform="translate(-62.54 -66.18)"/><path class="cls-63" d="M133.57,264.6a.49.49,0,1,1,.48.48A.48.48,0,0,1,133.57,264.6Z" transform="translate(-62.54 -66.18)"/><path class="cls-66" d="M130.19,254.56a0,0,0,0,1,.06,0,0,0,0,0,1-.06,0Z" transform="translate(-62.54 -66.18)"/><path class="cls-91" d="M116.54,259a.52.52,0,1,1,.51.51A.51.51,0,0,1,116.54,259Z" transform="translate(-62.54 -66.18)"/><path class="cls-95" d="M119.53,272.43a.58.58,0,1,1,.57.57A.58.58,0,0,1,119.53,272.43Z" transform="translate(-62.54 -66.18)"/><path class="cls-65" d="M110.41,268.43a.15.15,0,0,1,.15-.15.15.15,0,1,1,0,.3A.15.15,0,0,1,110.41,268.43Z" transform="translate(-62.54 -66.18)"/><path class="cls-83" d="M124.12,262.39a.42.42,0,1,1,.42.42A.42.42,0,0,1,124.12,262.39Z" transform="translate(-62.54 -66.18)"/><path class="cls-84" d="M120.59,252.35a.12.12,0,0,1,.12-.12.12.12,0,1,1,0,.24A.12.12,0,0,1,120.59,252.35Z" transform="translate(-62.54 -66.18)"/><path class="cls-70" d="M107.33,256.76a.21.21,0,0,1,.42,0,.21.21,0,1,1-.42,0Z" transform="translate(-62.54 -66.18)"/><circle class="cls-89" cx="63.97" cy="181.13" r="0.03"/><path class="cls-98" d="M212.76,357.89a.85.85,0,1,1,.85.84A.85.85,0,0,1,212.76,357.89Z" transform="translate(-62.54 -66.18)"/><circle class="cls-66" cx="156.78" cy="215.72" r="0.82"/><path class="cls-50" d="M214.82,271.86a.67.67,0,1,1,.67.67A.67.67,0,0,1,214.82,271.86Z" transform="translate(-62.54 -66.18)"/><circle class="cls-66" cx="139.78" cy="210.09" r="0.72"/><path class="cls-72" d="M221.17,266.82a.12.12,0,0,1,.12-.12.13.13,0,0,1,.12.12.13.13,0,0,1-.12.13A.12.12,0,0,1,221.17,266.82Z" transform="translate(-62.54 -66.18)"/><circle class="cls-59" cx="146.18" cy="184.98" r="0.72"/><circle class="cls-69" cx="151" cy="277.82" r="0.33"/><path class="cls-66" d="M202.17,260.61a.06.06,0,0,1,.12,0,.06.06,0,0,1-.12,0Z" transform="translate(-62.54 -66.18)"/><path class="cls-98" d="M216,254.57a.21.21,0,1,1,.42,0,.21.21,0,1,1-.42,0Z" transform="translate(-62.54 -66.18)"/><path class="cls-61" d="M212.07,244.53a.31.31,0,1,1,.31.31A.31.31,0,0,1,212.07,244.53Z" transform="translate(-62.54 -66.18)"/><path class="cls-60" d="M199.12,249a.09.09,0,1,1,.09.09A.09.09,0,0,1,199.12,249Z" transform="translate(-62.54 -66.18)"/><path class="cls-73" d="M167.1,277.55a.42.42,0,1,1,.84,0,.42.42,0,0,1-.84,0Z" transform="translate(-62.54 -66.18)"/><path class="cls-85" d="M171.93,267.51a0,0,0,0,1,0,0,0,0,0,0,1,0,.06A0,0,0,0,1,171.93,267.51Z" transform="translate(-62.54 -66.18)"/><circle class="cls-70" cx="107.35" cy="270.68" r="0.76"/><path class="cls-92" d="M154.38,261.89a.58.58,0,1,1,.58.57A.58.58,0,0,1,154.38,261.89Z" transform="translate(-62.54 -66.18)"/><path class="cls-82" d="M157.31,275.34a.7.7,0,1,1,.7.69A.7.7,0,0,1,157.31,275.34Z" transform="translate(-62.54 -66.18)"/><path class="cls-92" d="M148,271.34a.52.52,0,1,1,.52.51A.52.52,0,0,1,148,271.34Z" transform="translate(-62.54 -66.18)"/><circle class="cls-54" cx="101.67" cy="278.51" r="0.45"/><circle class="cls-53" cx="96.07" cy="189.07" r="0.33"/><circle class="cls-58" cx="84.67" cy="272.88" r="0.76"/><path class="cls-60" d="M164.35,250.22a.06.06,0,1,1,.06.06A.06.06,0,0,1,164.35,250.22Z" transform="translate(-62.54 -66.18)"/><path class="cls-54" d="M154.74,248a.15.15,0,0,1,.16-.15.15.15,0,0,1,.15.15.15.15,0,0,1-.15.15A.16.16,0,0,1,154.74,248Z" transform="translate(-62.54 -66.18)"/><path class="cls-91" d="M180.76,288.78a.73.73,0,0,1,.72-.73.73.73,0,0,1,.73.73.73.73,0,0,1-.73.72A.72.72,0,0,1,180.76,288.78Z" transform="translate(-62.54 -66.18)"/><path class="cls-76" d="M176.74,278.74a.91.91,0,1,1,.91.9A.91.91,0,0,1,176.74,278.74Z" transform="translate(-62.54 -66.18)"/><path class="cls-95" d="M164.21,283.15a.27.27,0,0,1,.27-.27.28.28,0,0,1,.28.27.29.29,0,0,1-.28.28A.28.28,0,0,1,164.21,283.15Z" transform="translate(-62.54 -66.18)"/><path class="cls-95" d="M159.61,372a.15.15,0,0,1,.15-.15.15.15,0,0,1,0,.3A.15.15,0,0,1,159.61,372Z" transform="translate(-62.54 -66.18)"/><path class="cls-90" d="M173.53,366a.21.21,0,1,1,.21.21A.21.21,0,0,1,173.53,366Z" transform="translate(-62.54 -66.18)"/><path class="cls-92" d="M167.53,276.52a.61.61,0,1,1,.61.61A.6.6,0,0,1,167.53,276.52Z" transform="translate(-62.54 -66.18)"/><path class="cls-90" d="M154.73,280.94a.24.24,0,1,1,.24.24A.24.24,0,0,1,154.73,280.94Z" transform="translate(-62.54 -66.18)"/><circle class="cls-79" cx="156.85" cy="225.5" r="0.79"/><circle class="cls-79" cx="154.78" cy="294.86" r="0.85"/><path class="cls-70" d="M202.24,286.06a.15.15,0,0,1,.15-.15.15.15,0,1,1,0,.3A.15.15,0,0,1,202.24,286.06Z" transform="translate(-62.54 -66.18)"/><circle class="cls-80" cx="135.13" cy="308.72" r="0.27"/><path class="cls-64" d="M209.69,289.47a.18.18,0,0,1,.18-.18.18.18,0,1,1,0,.36A.18.18,0,0,1,209.69,289.47Z" transform="translate(-62.54 -66.18)"/><circle class="cls-87" cx="143.5" cy="213.25" r="0.27"/><circle class="cls-97" cx="130.33" cy="217.66" r="0.66"/><circle class="cls-85" cx="188.61" cy="195.86" r="0.24"/><circle class="cls-96" cx="193.05" cy="185.82" r="0.24"/><path class="cls-84" d="M243.29,339.22a.12.12,0,0,1,.12-.12.13.13,0,0,1,.12.12.12.12,0,0,1-.12.12A.12.12,0,0,1,243.29,339.22Z" transform="translate(-62.54 -66.18)"/><path class="cls-80" d="M231.46,255.83a.63.63,0,0,1,.63-.63.64.64,0,0,1,.64.63.64.64,0,0,1-.64.64A.64.64,0,0,1,231.46,255.83Z" transform="translate(-62.54 -66.18)"/><path class="cls-66" d="M245.23,249.79a.85.85,0,1,1,.84.84A.84.84,0,0,1,245.23,249.79Z" transform="translate(-62.54 -66.18)"/><path class="cls-68" d="M269.42,258.74a.58.58,0,1,1,1.15,0,.58.58,0,0,1-1.15,0Z" transform="translate(-62.54 -66.18)"/><path class="cls-53" d="M266.49,247.07a.49.49,0,1,1,.49.49A.49.49,0,0,1,266.49,247.07Z" transform="translate(-62.54 -66.18)"/><path class="cls-79" d="M239.05,296.11a.06.06,0,0,1,.06-.06.05.05,0,0,1,.06.06.06.06,0,0,1-.06.06A.06.06,0,0,1,239.05,296.11Z" transform="translate(-62.54 -66.18)"/><path class="cls-72" d="M244.37,291.07a.54.54,0,0,1,.54-.54.54.54,0,1,1,0,1.08A.54.54,0,0,1,244.37,291.07Z" transform="translate(-62.54 -66.18)"/><path class="cls-64" d="M249.14,281a.21.21,0,1,1,.21.21A.21.21,0,0,1,249.14,281Z" transform="translate(-62.54 -66.18)"/><circle class="cls-82" cx="184.74" cy="284.2" r="0.27"/><circle class="cls-80" cx="169.81" cy="209.22" r="0.79"/><path class="cls-50" d="M235.28,288.86a.12.12,0,0,1,.24,0,.12.12,0,0,1-.24,0Z" transform="translate(-62.54 -66.18)"/><path class="cls-72" d="M225.55,284.86a.31.31,0,1,1,.31.3A.3.3,0,0,1,225.55,284.86Z" transform="translate(-62.54 -66.18)"/><path class="cls-97" d="M241.36,358.21a.25.25,0,0,1,.49,0,.24.24,0,0,1-.24.24A.24.24,0,0,1,241.36,358.21Z" transform="translate(-62.54 -66.18)"/><path class="cls-87" d="M237.68,348.17a.09.09,0,1,1,.09.09A.09.09,0,0,1,237.68,348.17Z" transform="translate(-62.54 -66.18)"/><circle class="cls-76" cx="160.3" cy="207.01" r="0.36"/><path class="cls-85" d="M210,260.89a.05.05,0,0,1,.06-.06.06.06,0,0,1,.06.06.06.06,0,0,1-.06.06A.06.06,0,0,1,210,260.89Z" transform="translate(-62.54 -66.18)"/><path class="cls-76" d="M201.87,338.07a.49.49,0,1,1,1,0,.49.49,0,0,1-1,0Z" transform="translate(-62.54 -66.18)"/><circle class="cls-63" cx="128.5" cy="188.49" r="0.76"/><path class="cls-92" d="M206.49,328a.3.3,0,1,1,.3.3A.29.29,0,0,1,206.49,328Z" transform="translate(-62.54 -66.18)"/><circle class="cls-98" cx="141.92" cy="203.65" r="0.36"/><path class="cls-68" d="M195.9,347a.82.82,0,0,1,.82-.82.82.82,0,0,1,.81.82.81.81,0,0,1-.81.81A.82.82,0,0,1,195.9,347Z" transform="translate(-62.54 -66.18)"/><circle class="cls-60" cx="119.24" cy="205.85" r="0.76"/><path class="cls-74" d="M269.77,278.31a.49.49,0,1,1,.48.49A.49.49,0,0,1,269.77,278.31Z" transform="translate(-62.54 -66.18)"/><path class="cls-59" d="M263.73,287.77a0,0,0,1,1,.06,0,0,0,0,1,1-.06,0Z" transform="translate(-62.54 -66.18)"/><path class="cls-64" d="M261.81,355.5a.7.7,0,0,1,.7-.7.7.7,0,1,1-.7.7Z" transform="translate(-62.54 -66.18)"/><path class="cls-56" d="M258.47,266a.39.39,0,0,1,.39-.39.38.38,0,0,1,.39.39.39.39,0,0,1-.39.39A.4.4,0,0,1,258.47,266Z" transform="translate(-62.54 -66.18)"/><circle class="cls-83" cx="205.85" cy="221.11" r="0.39"/><path class="cls-92" d="M266.26,356.65a.06.06,0,0,1,.06-.06.06.06,0,1,1,0,.12A.06.06,0,0,1,266.26,356.65Z" transform="translate(-62.54 -66.18)"/><path class="cls-98" d="M258.66,285.08a.22.22,0,0,1,.43,0,.21.21,0,0,1-.21.21A.21.21,0,0,1,258.66,285.08Z" transform="translate(-62.54 -66.18)"/><path class="cls-93" d="M305.48,290.2a.81.81,0,0,1,.81-.81.82.82,0,0,1,.82.81.82.82,0,0,1-.82.82A.82.82,0,0,1,305.48,290.2Z" transform="translate(-62.54 -66.18)"/><path class="cls-66" d="M289,284.58a.3.3,0,0,1,.3-.3.3.3,0,1,1,0,.6A.3.3,0,0,1,289,284.58Z" transform="translate(-62.54 -66.18)"/><path class="cls-90" d="M282.35,294a.45.45,0,1,1,.45.45A.45.45,0,0,1,282.35,294Z" transform="translate(-62.54 -66.18)"/><path class="cls-88" d="M296.3,288a.48.48,0,1,1,.48.48A.47.47,0,0,1,296.3,288Z" transform="translate(-62.54 -66.18)"/><path class="cls-81" d="M292.07,278a.88.88,0,1,1,.87.88A.88.88,0,0,1,292.07,278Z" transform="translate(-62.54 -66.18)"/><path class="cls-62" d="M279.48,282.37a.3.3,0,1,1,.3.3A.3.3,0,0,1,279.48,282.37Z" transform="translate(-62.54 -66.18)"/><path class="cls-84" d="M320.71,333.74a.06.06,0,0,1,.12,0,.06.06,0,1,1-.12,0Z" transform="translate(-62.54 -66.18)"/><path class="cls-59" d="M325.84,294.62a.18.18,0,0,1,.36,0,.18.18,0,1,1-.36,0Z" transform="translate(-62.54 -66.18)"/><path class="cls-94" d="M318.92,273.93a.34.34,0,1,1,.33.33A.34.34,0,0,1,318.92,273.93Z" transform="translate(-62.54 -66.18)"/><path class="cls-90" d="M322.24,287.37a.06.06,0,0,1,.06-.06.06.06,0,0,1,.06.06s0,.07-.06.07A.07.07,0,0,1,322.24,287.37Z" transform="translate(-62.54 -66.18)"/><path class="cls-55" d="M311.92,283.38a.84.84,0,0,1,.84-.85.85.85,0,1,1,0,1.69A.84.84,0,0,1,311.92,283.38Z" transform="translate(-62.54 -66.18)"/><path class="cls-58" d="M326.47,277.34a.27.27,0,1,1,.54,0,.27.27,0,1,1-.54,0Z" transform="translate(-62.54 -66.18)"/><path class="cls-54" d="M322.36,267.3a.55.55,0,0,1,.55-.55.55.55,0,0,1,.54.55.54.54,0,0,1-.54.54A.55.55,0,0,1,322.36,267.3Z" transform="translate(-62.54 -66.18)"/><circle class="cls-78" cx="247.2" cy="205.53" r="0.73"/><circle class="cls-63" cx="236.23" cy="272.62" r="0.24"/><path class="cls-76" d="M287,257.19a.51.51,0,1,1,.51.52A.51.51,0,0,1,287,257.19Z" transform="translate(-62.54 -66.18)"/><path class="cls-80" d="M277.86,253.19a.09.09,0,1,1,.18,0,.09.09,0,1,1-.18,0Z" transform="translate(-62.54 -66.18)"/><path class="cls-77" d="M291,247.15a.91.91,0,1,1,.91.91A.9.9,0,0,1,291,247.15Z" transform="translate(-62.54 -66.18)"/><circle class="cls-73" cx="228.83" cy="202.17" r="0.09"/><path class="cls-76" d="M281,266.14a.91.91,0,0,1,1.81,0,.91.91,0,1,1-1.81,0Z" transform="translate(-62.54 -66.18)"/><path class="cls-58" d="M268.08,270.56a.61.61,0,1,1,.61.6A.61.61,0,0,1,268.08,270.56Z" transform="translate(-62.54 -66.18)"/></g></g></svg>