<?xml version="1.0" encoding="UTF-8"?>
<!DOCTYPE svg PUBLIC "-//W3C//DTD SVG 1.1//EN" "http://www.w3.org/Graphics/SVG/1.1/DTD/svg11.dtd">
<svg xmlns="http://www.w3.org/2000/svg" version="1.1" width="1114px" height="104px" style="shape-rendering:geometricPrecision; text-rendering:geometricPrecision; image-rendering:optimizeQuality; fill-rule:evenodd; clip-rule:evenodd" xmlns:xlink="http://www.w3.org/1999/xlink">
<g><path style="opacity:0.994" fill="#9655c3" d="M 920.5,-0.5 C 925.833,-0.5 931.167,-0.5 936.5,-0.5C 956.139,34.1496 975.805,68.8162 995.5,103.5C 981.833,103.5 968.167,103.5 954.5,103.5C 934.833,69.5 915.167,35.5 895.5,1.5C 903.997,1.03925 912.331,0.372585 920.5,-0.5 Z"/></g>
<g><path style="opacity:0.995" fill="#9758c6" d="M 936.5,-0.5 C 940.5,-0.5 944.5,-0.5 948.5,-0.5C 950.265,0.461384 952.265,0.794717 954.5,0.5C 974.431,34.6978 994.098,69.0311 1013.5,103.5C 1007.5,103.5 1001.5,103.5 995.5,103.5C 975.805,68.8162 956.139,34.1496 936.5,-0.5 Z"/></g>
<g><path style="opacity:0.993" fill="#985bca" d="M 954.5,0.5 C 973.847,1.79482 993.181,3.12815 1012.5,4.5C 1031.17,37.5 1049.83,70.5 1068.5,103.5C 1050.17,103.5 1031.83,103.5 1013.5,103.5C 994.098,69.0311 974.431,34.6978 954.5,0.5 Z"/></g>
<g><path style="opacity:0.994" fill="#9453c0" d="M 895.5,1.5 C 915.167,35.5 934.833,69.5 954.5,103.5C 943.833,103.5 933.167,103.5 922.5,103.5C 902.982,70.4646 883.982,37.1313 865.5,3.5C 875.464,2.50218 885.464,1.83551 895.5,1.5 Z"/></g>
<g><path style="opacity:0.997" fill="#7b2080" d="M -0.5,2.5 C 0.833333,2.5 2.16667,2.5 3.5,2.5C 23.0861,36.0036 42.4194,69.6702 61.5,103.5C 53.8333,103.5 46.1667,103.5 38.5,103.5C 25.8912,80.9025 12.8912,58.5692 -0.5,36.5C -0.5,25.1667 -0.5,13.8333 -0.5,2.5 Z"/></g>
<g><path style="opacity:0.993" fill="#7d2181" d="M 3.5,2.5 C 32.8166,5.63167 62.1499,8.63167 91.5,11.5C 108.833,42.1667 126.167,72.8333 143.5,103.5C 116.167,103.5 88.8333,103.5 61.5,103.5C 42.4194,69.6702 23.0861,36.0036 3.5,2.5 Z"/></g>
<g><path style="opacity:0.994" fill="#9350bc" d="M 865.5,3.5 C 883.982,37.1313 902.982,70.4646 922.5,103.5C 911.833,103.5 901.167,103.5 890.5,103.5C 871.406,71.0736 852.739,38.407 834.5,5.5C 844.795,4.46068 855.129,3.79401 865.5,3.5 Z"/></g>
<g><path style="opacity:0.994" fill="#995ece" d="M 1012.5,4.5 C 1015.5,4.5 1018.5,4.5 1021.5,4.5C 1040.42,37.3378 1059.09,70.3378 1077.5,103.5C 1074.5,103.5 1071.5,103.5 1068.5,103.5C 1049.83,70.5 1031.17,37.5 1012.5,4.5 Z"/></g>
<g><path style="opacity:0.994" fill="#9b60d1" d="M 1021.5,4.5 C 1040.15,5.7797 1058.81,6.7797 1077.5,7.5C 1089.26,28.0336 1101.26,48.367 1113.5,68.5C 1113.5,80.1667 1113.5,91.8333 1113.5,103.5C 1101.5,103.5 1089.5,103.5 1077.5,103.5C 1059.09,70.3378 1040.42,37.3378 1021.5,4.5 Z"/></g>
<g><path style="opacity:0.993" fill="#914cb8" d="M 834.5,5.5 C 852.739,38.407 871.406,71.0736 890.5,103.5C 870.5,103.5 850.5,103.5 830.5,103.5C 812.927,71.9259 794.927,40.5925 776.5,9.5C 795.776,7.69462 815.11,6.36128 834.5,5.5 Z"/></g>
<g><path style="opacity:0.986" fill="#9c63d5" d="M 1077.5,7.5 C 1079.74,7.20528 1081.74,7.53862 1083.5,8.5C 1093,26.168 1103,43.5014 1113.5,60.5C 1113.5,63.1667 1113.5,65.8333 1113.5,68.5C 1101.26,48.367 1089.26,28.0336 1077.5,7.5 Z"/></g>
<g><path style="opacity:0.988" fill="#9d64d5" d="M 1083.5,8.5 C 1093.51,8.55328 1103.51,8.88661 1113.5,9.5C 1113.5,26.5 1113.5,43.5 1113.5,60.5C 1103,43.5014 1093,26.168 1083.5,8.5 Z"/></g>
<g><path style="opacity:0.992" fill="#81298c" d="M 296.5,9.5 C 314.167,40.8333 331.833,72.1667 349.5,103.5C 320.5,103.5 291.5,103.5 262.5,103.5C 245.167,72.8333 227.833,42.1667 210.5,11.5C 239.145,10.0802 267.811,9.41352 296.5,9.5 Z"/></g>
<g><path style="opacity:0.989" fill="#812c8f" d="M 296.5,9.5 C 299.5,9.5 302.5,9.5 305.5,9.5C 323.073,41.0741 341.073,72.4075 359.5,103.5C 356.167,103.5 352.833,103.5 349.5,103.5C 331.833,72.1667 314.167,40.8333 296.5,9.5 Z"/></g>
<g><path style="opacity:0.989" fill="#822d91" d="M 305.5,9.5 C 322.167,9.5 338.833,9.5 355.5,9.5C 373.5,40.8333 391.5,72.1667 409.5,103.5C 392.833,103.5 376.167,103.5 359.5,103.5C 341.073,72.4075 323.073,41.0741 305.5,9.5 Z"/></g>
<g><path style="opacity:0.989" fill="#842f94" d="M 355.5,9.5 C 367.833,9.5 380.167,9.5 392.5,9.5C 410.073,41.0741 428.073,72.4075 446.5,103.5C 434.167,103.5 421.833,103.5 409.5,103.5C 391.5,72.1667 373.5,40.8333 355.5,9.5 Z"/></g>
<g><path style="opacity:0.989" fill="#843196" d="M 392.5,9.5 C 397.167,9.5 401.833,9.5 406.5,9.5C 424.167,40.8333 441.833,72.1667 459.5,103.5C 455.167,103.5 450.833,103.5 446.5,103.5C 428.073,72.4075 410.073,41.0741 392.5,9.5 Z"/></g>
<g><path style="opacity:0.989" fill="#863499" d="M 406.5,9.5 C 433.833,9.5 461.167,9.5 488.5,9.5C 506.5,40.8333 524.5,72.1667 542.5,103.5C 514.833,103.5 487.167,103.5 459.5,103.5C 441.833,72.1667 424.167,40.8333 406.5,9.5 Z"/></g>
<g><path style="opacity:0.989" fill="#87379d" d="M 488.5,9.5 C 499.167,9.5 509.833,9.5 520.5,9.5C 538.5,40.8333 556.5,72.1667 574.5,103.5C 563.833,103.5 553.167,103.5 542.5,103.5C 524.5,72.1667 506.5,40.8333 488.5,9.5 Z"/></g>
<g><path style="opacity:0.989" fill="#883aa0" d="M 520.5,9.5 C 534.167,9.5 547.833,9.5 561.5,9.5C 579.5,40.8333 597.5,72.1667 615.5,103.5C 601.833,103.5 588.167,103.5 574.5,103.5C 556.5,72.1667 538.5,40.8333 520.5,9.5 Z"/></g>
<g><path style="opacity:0.992" fill="#8a3ca4" d="M 561.5,9.5 C 577.558,9.78666 593.558,10.7867 609.5,12.5C 626.569,42.9688 643.902,73.3021 661.5,103.5C 646.167,103.5 630.833,103.5 615.5,103.5C 597.5,72.1667 579.5,40.8333 561.5,9.5 Z"/></g>
<g><path style="opacity:0.993" fill="#8c42ab" d="M 694.5,9.5 C 712.5,40.8333 730.5,72.1667 748.5,103.5C 727.167,103.5 705.833,103.5 684.5,103.5C 667.235,73.9689 650.235,44.3023 633.5,14.5C 653.818,12.6529 674.152,10.9862 694.5,9.5 Z"/></g>
<g><path style="opacity:0.989" fill="#8d45ae" d="M 694.5,9.5 C 696.167,9.5 697.833,9.5 699.5,9.5C 717.167,40.8333 734.833,72.1667 752.5,103.5C 751.167,103.5 749.833,103.5 748.5,103.5C 730.5,72.1667 712.5,40.8333 694.5,9.5 Z"/></g>
<g><path style="opacity:0.989" fill="#8e46b0" d="M 699.5,9.5 C 713.167,9.5 726.833,9.5 740.5,9.5C 758.073,41.0741 776.073,72.4075 794.5,103.5C 780.5,103.5 766.5,103.5 752.5,103.5C 734.833,72.1667 717.167,40.8333 699.5,9.5 Z"/></g>
<g><path style="opacity:0.991" fill="#9049b3" d="M 740.5,9.5 C 752.5,9.5 764.5,9.5 776.5,9.5C 794.927,40.5925 812.927,71.9259 830.5,103.5C 818.5,103.5 806.5,103.5 794.5,103.5C 776.073,72.4075 758.073,41.0741 740.5,9.5 Z"/></g>
<g><path style="opacity:0.993" fill="#7e2485" d="M 91.5,11.5 C 101.459,12.7626 111.459,13.7626 121.5,14.5C 137.499,13.7445 153.499,13.0778 169.5,12.5C 187.098,42.6979 204.431,73.0312 221.5,103.5C 195.5,103.5 169.5,103.5 143.5,103.5C 126.167,72.8333 108.833,42.1667 91.5,11.5 Z"/></g>
<g><path style="opacity:0.993" fill="#7f2688" d="M 210.5,11.5 C 227.833,42.1667 245.167,72.8333 262.5,103.5C 248.833,103.5 235.167,103.5 221.5,103.5C 204.431,73.0312 187.098,42.6979 169.5,12.5C 183.166,12.135 196.832,11.8016 210.5,11.5 Z"/></g>
<g><path style="opacity:0.992" fill="#8b3fa7" d="M 609.5,12.5 C 617.589,12.7116 625.589,13.3783 633.5,14.5C 650.235,44.3023 667.235,73.9689 684.5,103.5C 676.833,103.5 669.167,103.5 661.5,103.5C 643.902,73.3021 626.569,42.9688 609.5,12.5 Z"/></g>
<g><path style="opacity:0.993" fill="#7c1e7f" d="M -0.5,36.5 C 12.8912,58.5692 25.8912,80.9025 38.5,103.5C 25.5,103.5 12.5,103.5 -0.5,103.5C -0.5,81.1667 -0.5,58.8333 -0.5,36.5 Z"/></g>
</svg>
