<?xml version="1.0" encoding="UTF-8"?>
<!DOCTYPE svg PUBLIC "-//W3C//DTD SVG 1.1//EN" "http://www.w3.org/Graphics/SVG/1.1/DTD/svg11.dtd">
<svg xmlns="http://www.w3.org/2000/svg" version="1.1" width="893px" height="448px" style="shape-rendering:geometricPrecision; text-rendering:geometricPrecision; image-rendering:optimizeQuality; fill-rule:evenodd; clip-rule:evenodd" xmlns:xlink="http://www.w3.org/1999/xlink">
<g><path style="opacity:0.985" fill="#b773e7" d="M 891.5,-0.5 C 891.833,-0.5 892.167,-0.5 892.5,-0.5C 892.5,5.16667 892.5,10.8333 892.5,16.5C 886.071,30.5328 879.738,44.6994 873.5,59C 877.833,59.3333 882.167,59.6667 886.5,60C 882.282,65.3782 878.282,70.8782 874.5,76.5C 867.035,83.4641 859.702,90.6308 852.5,98C 844.788,104.714 836.788,111.047 828.5,117C 824.23,120.761 820.563,124.928 817.5,129.5C 814.785,132.214 812.451,135.214 810.5,138.5C 798.429,138.099 786.429,137.099 774.5,135.5C 774.833,134.833 775.167,134.167 775.5,133.5C 792.136,118.531 808.136,102.864 823.5,86.5C 846.191,57.4812 868.857,28.4812 891.5,-0.5 Z"/></g>
<g><path style="opacity:0.999" fill="#8b3fa7" d="M 892.5,16.5 C 892.5,144.5 892.5,272.5 892.5,400.5C 886.426,401.519 880.426,402.852 874.5,404.5C 874.5,295.167 874.5,185.833 874.5,76.5C 878.282,70.8782 882.282,65.3782 886.5,60C 882.167,59.6667 877.833,59.3333 873.5,59C 879.738,44.6994 886.071,30.5328 892.5,16.5 Z"/></g>
<g><path style="opacity:0.984" fill="#b773e7" d="M 760.5,29.5 C 755.788,40.5929 750.788,51.5929 745.5,62.5C 751.463,67.1281 757.13,72.1281 762.5,77.5C 757.334,81.8268 752.001,85.9935 746.5,90C 743.12,90.3386 739.787,90.8386 736.5,91.5C 726.19,92.7442 716.19,95.2442 706.5,99C 703.308,103.704 699.642,108.038 695.5,112C 689.628,117.376 683.628,122.543 677.5,127.5C 658.248,125.477 638.914,123.811 619.5,122.5C 625.521,117.146 631.188,111.479 636.5,105.5C 677.587,79.743 718.92,54.4097 760.5,29.5 Z"/></g>
<g><path style="opacity:0.997" fill="#9049b3" d="M 774.5,52.5 C 774.169,79.6718 774.502,106.672 775.5,133.5C 775.167,134.167 774.833,134.833 774.5,135.5C 767.59,140.904 761.09,146.904 755,153.5C 754.501,159.491 754.334,165.491 754.5,171.5C 754.665,175.182 754.499,178.848 754,182.5C 748.67,190.655 743.17,198.655 737.5,206.5C 736.501,168.337 736.168,130.004 736.5,91.5C 739.787,90.8386 743.12,90.3386 746.5,90C 752.001,85.9935 757.334,81.8268 762.5,77.5C 757.13,72.1281 751.463,67.1281 745.5,62.5C 750.788,51.5929 755.788,40.5929 760.5,29.5C 760.81,28.2617 761.31,28.2617 762,29.5C 766.424,37.0743 770.591,44.7409 774.5,52.5 Z"/></g>
<g><path style="opacity:0.981" fill="#8e46b0" d="M 774.5,52.5 C 782.965,60.4643 791.298,68.631 799.5,77C 807.568,80.0766 815.568,83.2433 823.5,86.5C 808.136,102.864 792.136,118.531 775.5,133.5C 774.502,106.672 774.169,79.6718 774.5,52.5 Z"/></g>
<g><path style="opacity:0.953" fill="#b773e7" d="M 574.5,76.5 C 573.595,84.383 571.762,92.0497 569,99.5C 562.007,104.732 555.174,110.066 548.5,115.5C 540.482,115.014 532.482,114.347 524.5,113.5C 541.129,101.178 557.795,88.8451 574.5,76.5 Z"/></g>
<g><path style="opacity:0.999" fill="#9656c4" d="M 574.5,76.5 C 577.582,78.3719 580.249,80.7052 582.5,83.5C 582.169,108.339 582.502,133.006 583.5,157.5C 578.474,165.702 572.474,173.202 565.5,180C 556.313,187.031 547.313,194.197 538.5,201.5C 532.975,205.426 527.309,209.093 521.5,212.5C 520.176,194.598 520.176,176.598 521.5,158.5C 525.398,154.03 528.232,149.03 530,143.5C 520.953,147.293 511.786,150.459 502.5,153C 507.764,147.229 513.43,142.063 519.5,137.5C 528.645,129.339 538.311,122.006 548.5,115.5C 555.174,110.066 562.007,104.732 569,99.5C 571.762,92.0497 573.595,84.383 574.5,76.5 Z"/></g>
<g><path style="opacity:0.998" fill="#8c42ab" d="M 874.5,76.5 C 874.5,185.833 874.5,295.167 874.5,404.5C 855.559,409.652 836.559,414.652 817.5,419.5C 817.5,338.833 817.5,258.167 817.5,177.5C 819.097,173.811 821.097,170.311 823.5,167C 821.455,166.51 819.455,166.677 817.5,167.5C 817.5,154.833 817.5,142.167 817.5,129.5C 820.563,124.928 824.23,120.761 828.5,117C 836.788,111.047 844.788,104.714 852.5,98C 859.702,90.6308 867.035,83.4641 874.5,76.5 Z"/></g>
<g><path style="opacity:0.984" fill="#9553c0" d="M 582.5,83.5 C 587.984,87.4166 593.318,91.5832 598.5,96C 611.108,99.4852 623.774,102.652 636.5,105.5C 631.188,111.479 625.521,117.146 619.5,122.5C 609.866,130.466 600.866,139.133 592.5,148.5C 589.14,151.194 586.14,154.194 583.5,157.5C 582.502,133.006 582.169,108.339 582.5,83.5 Z"/></g>
<g><path style="opacity:0.999" fill="#924db8" d="M 736.5,91.5 C 736.168,130.004 736.501,168.337 737.5,206.5C 733.108,212.228 729.108,218.228 725.5,224.5C 719.933,231.955 714.599,239.621 709.5,247.5C 698.103,264.608 686.436,281.608 674.5,298.5C 688.286,303.762 702.286,308.429 716.5,312.5C 717.442,312.392 718.275,312.059 719,311.5C 724.698,304.31 730.531,297.31 736.5,290.5C 736.5,336.167 736.5,381.833 736.5,427.5C 712.478,428.254 688.478,429.254 664.5,430.5C 664.5,354.167 664.5,277.833 664.5,201.5C 673.112,187.708 683.445,175.208 695.5,164C 685.231,164.315 674.897,164.815 664.5,165.5C 664.5,156.167 664.5,146.833 664.5,137.5C 669.374,134.893 673.708,131.56 677.5,127.5C 683.628,122.543 689.628,117.376 695.5,112C 699.642,108.038 703.308,103.704 706.5,99C 716.19,95.2442 726.19,92.7442 736.5,91.5 Z"/></g>
<g><path style="opacity:0.981" fill="#bf7ee9" d="M 524.5,113.5 C 532.482,114.347 540.482,115.014 548.5,115.5C 538.311,122.006 528.645,129.339 519.5,137.5C 511.367,137.242 503.367,136.242 495.5,134.5C 504.863,127.145 514.53,120.145 524.5,113.5 Z"/></g>
<g><path style="opacity:0.998" fill="#bf7ee9" d="M 619.5,122.5 C 638.914,123.811 658.248,125.477 677.5,127.5C 673.708,131.56 669.374,134.893 664.5,137.5C 654.697,142.903 645.03,148.57 635.5,154.5C 621.137,152.686 606.803,150.686 592.5,148.5C 600.866,139.133 609.866,130.466 619.5,122.5 Z"/></g>
<g><path style="opacity:0.98" fill="#b773e7" d="M 495.5,134.5 C 503.367,136.242 511.367,137.242 519.5,137.5C 513.43,142.063 507.764,147.229 502.5,153C 511.786,150.459 520.953,147.293 530,143.5C 528.232,149.03 525.398,154.03 521.5,158.5C 512.687,162.072 504.354,166.405 496.5,171.5C 490.364,174.401 484.364,177.568 478.5,181C 474.579,181.959 471.412,180.792 469,177.5C 461.889,181.97 454.722,186.304 447.5,190.5C 439.686,189.115 431.686,188.115 423.5,187.5C 447.106,169.357 471.106,151.69 495.5,134.5 Z"/></g>
<g><path style="opacity:0.999" fill="#bf7ee9" d="M 774.5,135.5 C 786.429,137.099 798.429,138.099 810.5,138.5C 802.379,151.739 793.045,164.072 782.5,175.5C 773.183,174.074 763.85,172.74 754.5,171.5C 754.334,165.491 754.501,159.491 755,153.5C 761.09,146.904 767.59,140.904 774.5,135.5 Z"/></g>
<g><path style="opacity:1" fill="#9350bd" d="M 664.5,137.5 C 664.5,146.833 664.5,156.167 664.5,165.5C 658.977,168.51 654.144,172.51 650,177.5C 644.294,185.602 638.128,193.269 631.5,200.5C 630.505,187.677 630.171,174.677 630.5,161.5C 631.779,158.888 633.445,156.555 635.5,154.5C 645.03,148.57 654.697,142.903 664.5,137.5 Z"/></g>
<g><path style="opacity:1" fill="#8f46b0" d="M 817.5,129.5 C 817.5,142.167 817.5,154.833 817.5,167.5C 809.839,168.037 803.839,171.371 799.5,177.5C 791.533,185.636 783.7,193.969 776,202.5C 775.333,196.167 775.333,189.833 776,183.5C 778.758,181.249 780.925,178.582 782.5,175.5C 793.045,164.072 802.379,151.739 810.5,138.5C 812.451,135.214 814.785,132.214 817.5,129.5 Z"/></g>
<g><path style="opacity:1" fill="#b773e7" d="M 592.5,148.5 C 606.803,150.686 621.137,152.686 635.5,154.5C 633.445,156.555 631.779,158.888 630.5,161.5C 616.513,175.482 605.513,191.482 597.5,209.5C 578.075,206.112 558.408,203.445 538.5,201.5C 547.313,194.197 556.313,187.031 565.5,180C 572.474,173.202 578.474,165.702 583.5,157.5C 586.14,154.194 589.14,151.194 592.5,148.5 Z"/></g>
<g><path style="opacity:1" fill="#9758c6" d="M 521.5,158.5 C 520.176,176.598 520.176,194.598 521.5,212.5C 519.5,214.167 517.5,215.833 515.5,217.5C 509.655,222.359 503.322,226.359 496.5,229.5C 496.5,210.167 496.5,190.833 496.5,171.5C 504.354,166.405 512.687,162.072 521.5,158.5 Z"/></g>
<g><path style="opacity:1" fill="#9552bf" d="M 630.5,161.5 C 630.171,174.677 630.505,187.677 631.5,200.5C 628.806,205.194 625.139,208.861 620.5,211.5C 610.947,216.769 601.947,222.769 593.5,229.5C 589.799,232.745 585.799,235.245 581.5,237C 583.494,234.842 584.828,232.342 585.5,229.5C 589.988,223.201 593.988,216.534 597.5,209.5C 605.513,191.482 616.513,175.482 630.5,161.5 Z"/></g>
<g><path style="opacity:1" fill="#b773e7" d="M 664.5,201.5 C 661.071,206.019 657.404,210.352 653.5,214.5C 642.459,213.911 631.459,212.911 620.5,211.5C 625.139,208.861 628.806,205.194 631.5,200.5C 638.128,193.269 644.294,185.602 650,177.5C 654.144,172.51 658.977,168.51 664.5,165.5C 674.897,164.815 685.231,164.315 695.5,164C 683.445,175.208 673.112,187.708 664.5,201.5 Z"/></g>
<g><path style="opacity:0.996" fill="#be7de8" d="M 817.5,177.5 C 816.833,178.167 816.167,178.833 815.5,179.5C 810.044,179.482 804.711,178.815 799.5,177.5C 803.839,171.371 809.839,168.037 817.5,167.5C 819.455,166.677 821.455,166.51 823.5,167C 821.097,170.311 819.097,173.811 817.5,177.5 Z"/></g>
<g><path style="opacity:0.998" fill="#995bca" d="M 496.5,171.5 C 496.5,190.833 496.5,210.167 496.5,229.5C 496.5,229.833 496.5,230.167 496.5,230.5C 494.091,231.701 492.091,233.367 490.5,235.5C 472.195,247.99 453.862,260.49 435.5,273C 427.122,284.107 419.789,295.774 413.5,308C 415.173,317.527 418.007,326.694 422,335.5C 422.725,336.059 423.558,336.392 424.5,336.5C 449.358,326.071 473.358,314.071 496.5,300.5C 496.5,345.833 496.5,391.167 496.5,436.5C 461.499,437.808 426.499,439.141 391.5,440.5C 391.5,381.5 391.5,322.5 391.5,263.5C 408.764,251.233 425.43,238.233 441.5,224.5C 443.423,224.205 445.09,223.372 446.5,222C 441.845,221.501 437.179,221.334 432.5,221.5C 429.813,221.336 427.146,221.503 424.5,222C 410.045,227.645 395.545,233.145 381,238.5C 380.5,238.167 380,237.833 379.5,237.5C 382.353,233.813 385.686,230.647 389.5,228C 401.899,219.81 414.232,211.643 426.5,203.5C 433.77,199.555 440.77,195.222 447.5,190.5C 454.722,186.304 461.889,181.97 469,177.5C 471.412,180.792 474.579,181.959 478.5,181C 484.364,177.568 490.364,174.401 496.5,171.5 Z"/></g>
<g><path style="opacity:1" fill="#b773e7" d="M 754.5,171.5 C 763.85,172.74 773.183,174.074 782.5,175.5C 780.925,178.582 778.758,181.249 776,183.5C 775.333,189.833 775.333,196.167 776,202.5C 783.7,193.969 791.533,185.636 799.5,177.5C 804.711,178.815 810.044,179.482 815.5,179.5C 814.5,181.5 813.5,183.5 812.5,185.5C 803.167,200.833 793.833,216.167 784.5,231.5C 765.039,228.585 745.372,226.251 725.5,224.5C 729.108,218.228 733.108,212.228 737.5,206.5C 743.17,198.655 748.67,190.655 754,182.5C 754.499,178.848 754.665,175.182 754.5,171.5 Z"/></g>
<g><path style="opacity:0.998" fill="#8e45ae" d="M 817.5,177.5 C 817.5,258.167 817.5,338.833 817.5,419.5C 815.958,420.301 814.292,420.634 812.5,420.5C 812.5,342.167 812.5,263.833 812.5,185.5C 813.5,183.5 814.5,181.5 815.5,179.5C 816.167,178.833 816.833,178.167 817.5,177.5 Z"/></g>
<g><path style="opacity:0.998" fill="#8e46b0" d="M 812.5,185.5 C 812.5,263.833 812.5,342.167 812.5,420.5C 800.312,424.744 787.646,426.744 774.5,426.5C 774.5,366.5 774.5,306.5 774.5,246.5C 778.578,242.016 781.911,237.016 784.5,231.5C 793.833,216.167 803.167,200.833 812.5,185.5 Z"/></g>
<g><path style="opacity:0.972" fill="#bf7ee9" d="M 423.5,187.5 C 431.686,188.115 439.686,189.115 447.5,190.5C 440.77,195.222 433.77,199.555 426.5,203.5C 419.482,202.608 412.482,201.608 405.5,200.5C 411.138,195.679 417.138,191.346 423.5,187.5 Z"/></g>
<g><path style="opacity:0.997" fill="#bf7ee9" d="M 538.5,201.5 C 558.408,203.445 578.075,206.112 597.5,209.5C 593.988,216.534 589.988,223.201 585.5,229.5C 562.074,225.493 538.741,221.493 515.5,217.5C 517.5,215.833 519.5,214.167 521.5,212.5C 527.309,209.093 532.975,205.426 538.5,201.5 Z"/></g>
<g><path style="opacity:0.998" fill="#9350bc" d="M 664.5,201.5 C 664.5,277.833 664.5,354.167 664.5,430.5C 653.154,430.486 641.821,430.819 630.5,431.5C 630.5,368.833 630.5,306.167 630.5,243.5C 632.806,241.861 634.806,239.861 636.5,237.5C 641.803,231.356 646.969,225.022 652,218.5C 652.791,217.255 653.291,215.922 653.5,214.5C 657.404,210.352 661.071,206.019 664.5,201.5 Z"/></g>
<g><path style="opacity:0.999" fill="#9b61d2" d="M 374.5,222.5 C 360.917,232.532 346.584,241.699 331.5,250C 323.31,256.93 314.31,262.596 304.5,267C 293.583,268.528 283.25,271.861 273.5,277C 258.951,287.764 244.284,298.264 229.5,308.5C 228.504,292.675 228.17,276.675 228.5,260.5C 232.249,257.112 236.249,253.945 240.5,251C 250.897,248.853 261.23,246.853 271.5,245C 265.564,250.097 260.564,255.931 256.5,262.5C 256.833,262.833 257.167,263.167 257.5,263.5C 268.527,259.769 279.527,255.935 290.5,252C 313.229,238.977 335.563,225.477 357.5,211.5C 358.531,210.751 359.698,210.085 361,209.5C 365.395,214.064 369.895,218.398 374.5,222.5 Z"/></g>
<g><path style="opacity:0.979" fill="#b773e7" d="M 357.5,211.5 C 335.563,225.477 313.229,238.977 290.5,252C 279.527,255.935 268.527,259.769 257.5,263.5C 257.167,263.167 256.833,262.833 256.5,262.5C 260.564,255.931 265.564,250.097 271.5,245C 261.23,246.853 250.897,248.853 240.5,251C 236.249,253.945 232.249,257.112 228.5,260.5C 220.688,265.577 213.021,270.91 205.5,276.5C 183.042,293.785 160.709,311.285 138.5,329C 147.82,326.666 157.154,324 166.5,321C 171.167,320.333 175.833,320.333 180.5,321C 162.236,331.603 144.236,342.603 126.5,354C 117.916,358.747 108.916,362.08 99.5,364C 103.622,358.209 108.122,352.709 113,347.5C 115.102,342.526 116.769,337.526 118,332.5C 104.899,338.962 92.7318,346.795 81.5,356C 67.7967,368.705 53.7967,381.039 39.5,393C 28.6395,399.596 18.3062,406.93 8.5,415C 5.85352,420.461 3.52018,425.961 1.5,431.5C 1.22639,420.656 0.559728,409.99 -0.5,399.5C -0.5,399.167 -0.5,398.833 -0.5,398.5C 54.9889,350.577 110.322,302.41 165.5,254C 167.087,253.138 168.754,252.471 170.5,252C 206.156,247.251 241.822,242.585 277.5,238C 304.154,229.06 330.821,220.226 357.5,211.5 Z"/></g>
<g><path style="opacity:0.997" fill="#bf7ee9" d="M 620.5,211.5 C 631.459,212.911 642.459,213.911 653.5,214.5C 653.291,215.922 652.791,217.255 652,218.5C 646.969,225.022 641.803,231.356 636.5,237.5C 621.942,235.354 607.608,232.687 593.5,229.5C 601.947,222.769 610.947,216.769 620.5,211.5 Z"/></g>
<g><path style="opacity:0.999" fill="#b773e7" d="M 405.5,200.5 C 412.482,201.608 419.482,202.608 426.5,203.5C 414.232,211.643 401.899,219.81 389.5,228C 385.686,230.647 382.353,233.813 379.5,237.5C 380,237.833 380.5,238.167 381,238.5C 395.545,233.145 410.045,227.645 424.5,222C 427.146,221.503 429.813,221.336 432.5,221.5C 435.368,222.64 438.368,223.64 441.5,224.5C 425.43,238.233 408.764,251.233 391.5,263.5C 387.862,265.99 384.195,268.49 380.5,271C 376.167,272.819 371.833,274.319 367.5,275.5C 357.722,277.53 348.055,279.696 338.5,282C 343.459,276.316 347.459,270.483 350.5,264.5C 336.167,271 321.833,277.5 307.5,284C 288.391,302.782 268.391,320.449 247.5,337C 264.296,335.129 281.13,332.963 298,330.5C 299.257,330.85 299.591,331.517 299,332.5C 295.667,337.167 292.333,341.833 289,346.5C 286.408,349.762 283.241,352.262 279.5,354C 262.438,363.195 245.438,372.362 228.5,381.5C 221.605,384.399 214.938,387.733 208.5,391.5C 185.224,386.931 162.224,381.264 139.5,374.5C 162.078,358.39 184.412,342.057 206.5,325.5C 214.472,320.187 222.139,314.521 229.5,308.5C 244.284,298.264 258.951,287.764 273.5,277C 283.25,271.861 293.583,268.528 304.5,267C 314.31,262.596 323.31,256.93 331.5,250C 346.584,241.699 360.917,232.532 374.5,222.5C 384.833,215.167 395.167,207.833 405.5,200.5 Z"/></g>
<g><path style="opacity:1" fill="#b774e7" d="M 515.5,217.5 C 538.741,221.493 562.074,225.493 585.5,229.5C 584.828,232.342 583.494,234.842 581.5,237C 585.799,235.245 589.799,232.745 593.5,229.5C 607.608,232.687 621.942,235.354 636.5,237.5C 634.806,239.861 632.806,241.861 630.5,243.5C 626.299,246.1 621.966,248.434 617.5,250.5C 577.193,243.647 536.86,236.98 496.5,230.5C 496.5,230.167 496.5,229.833 496.5,229.5C 503.322,226.359 509.655,222.359 515.5,217.5 Z"/></g>
<g><path style="opacity:0.988" fill="#be7de9" d="M 432.5,221.5 C 437.179,221.334 441.845,221.501 446.5,222C 445.09,223.372 443.423,224.205 441.5,224.5C 438.368,223.64 435.368,222.64 432.5,221.5 Z"/></g>
<g><path style="opacity:0.998" fill="#bf7ee9" d="M 725.5,224.5 C 745.372,226.251 765.039,228.585 784.5,231.5C 781.911,237.016 778.578,242.016 774.5,246.5C 771.061,250.36 767.395,254.027 763.5,257.5C 746.494,254.943 729.494,252.277 712.5,249.5C 710.97,249.36 709.97,248.693 709.5,247.5C 714.599,239.621 719.933,231.955 725.5,224.5 Z"/></g>
<g><path style="opacity:0.994" fill="#bf7ee9" d="M 496.5,230.5 C 536.86,236.98 577.193,243.647 617.5,250.5C 612.086,254.54 606.086,257.54 599.5,259.5C 563.275,251.027 526.941,243.027 490.5,235.5C 492.091,233.367 494.091,231.701 496.5,230.5 Z"/></g>
<g><path style="opacity:1" fill="#b773e7" d="M 490.5,235.5 C 526.941,243.027 563.275,251.027 599.5,259.5C 595.208,262.457 591.208,265.79 587.5,269.5C 585.5,270.833 583.833,272.5 582.5,274.5C 575.819,279.86 569.486,285.694 563.5,292C 548.699,302.313 534.366,313.146 520.5,324.5C 518.264,325.389 516.264,326.722 514.5,328.5C 513.479,327.998 513.312,327.332 514,326.5C 527.5,307 541,287.5 554.5,268C 543.8,269.336 533.134,271.336 522.5,274C 514.301,283.365 505.634,292.198 496.5,300.5C 473.358,314.071 449.358,326.071 424.5,336.5C 423.558,336.392 422.725,336.059 422,335.5C 418.007,326.694 415.173,317.527 413.5,308C 419.789,295.774 427.122,284.107 435.5,273C 453.862,260.49 472.195,247.99 490.5,235.5 Z"/></g>
<g><path style="opacity:0.998" fill="#9452bf" d="M 630.5,243.5 C 630.5,306.167 630.5,368.833 630.5,431.5C 616.09,431.785 601.757,432.451 587.5,433.5C 587.5,378.833 587.5,324.167 587.5,269.5C 591.208,265.79 595.208,262.457 599.5,259.5C 606.086,257.54 612.086,254.54 617.5,250.5C 621.966,248.434 626.299,246.1 630.5,243.5 Z"/></g>
<g><path style="opacity:0.997" fill="#9049b3" d="M 774.5,246.5 C 774.5,306.5 774.5,366.5 774.5,426.5C 761.823,426.514 749.156,426.847 736.5,427.5C 736.5,381.833 736.5,336.167 736.5,290.5C 745.878,279.791 754.878,268.791 763.5,257.5C 767.395,254.027 771.061,250.36 774.5,246.5 Z"/></g>
<g><path style="opacity:1" fill="#b773e7" d="M 709.5,247.5 C 709.97,248.693 710.97,249.36 712.5,249.5C 729.494,252.277 746.494,254.943 763.5,257.5C 754.878,268.791 745.878,279.791 736.5,290.5C 730.531,297.31 724.698,304.31 719,311.5C 718.275,312.059 717.442,312.392 716.5,312.5C 702.286,308.429 688.286,303.762 674.5,298.5C 686.436,281.608 698.103,264.608 709.5,247.5 Z"/></g>
<g><path style="opacity:0.998" fill="#9a5ece" d="M 391.5,263.5 C 391.5,322.5 391.5,381.5 391.5,440.5C 383.5,440.833 375.5,441.167 367.5,441.5C 367.5,386.167 367.5,330.833 367.5,275.5C 371.833,274.319 376.167,272.819 380.5,271C 384.195,268.49 387.862,265.99 391.5,263.5 Z"/></g>
<g><path style="opacity:0.997" fill="#9b60d1" d="M 367.5,275.5 C 367.5,330.833 367.5,386.167 367.5,441.5C 326.311,442.812 285.311,444.812 244.5,447.5C 239.167,447.5 233.833,447.5 228.5,447.5C 228.5,425.5 228.5,403.5 228.5,381.5C 245.438,372.362 262.438,363.195 279.5,354C 283.241,352.262 286.408,349.762 289,346.5C 292.333,341.833 295.667,337.167 299,332.5C 299.591,331.517 299.257,330.85 298,330.5C 281.13,332.963 264.296,335.129 247.5,337C 268.391,320.449 288.391,302.782 307.5,284C 321.833,277.5 336.167,271 350.5,264.5C 347.459,270.483 343.459,276.316 338.5,282C 348.055,279.696 357.722,277.53 367.5,275.5 Z"/></g>
<g><path style="opacity:1" fill="#9d63d4" d="M 228.5,260.5 C 228.17,276.675 228.504,292.675 229.5,308.5C 222.139,314.521 214.472,320.187 206.5,325.5C 205.504,309.342 205.17,293.009 205.5,276.5C 213.021,270.91 220.688,265.577 228.5,260.5 Z"/></g>
<g><path style="opacity:0.995" fill="#9554c2" d="M 587.5,269.5 C 587.5,324.167 587.5,378.833 587.5,433.5C 585.833,433.5 584.167,433.5 582.5,433.5C 582.5,380.5 582.5,327.5 582.5,274.5C 583.833,272.5 585.5,270.833 587.5,269.5 Z"/></g>
<g><path style="opacity:0.997" fill="#9655c3" d="M 582.5,274.5 C 582.5,327.5 582.5,380.5 582.5,433.5C 561.828,434.013 541.161,434.68 520.5,435.5C 520.5,398.5 520.5,361.5 520.5,324.5C 534.366,313.146 548.699,302.313 563.5,292C 569.486,285.694 575.819,279.86 582.5,274.5 Z"/></g>
<g><path style="opacity:0.994" fill="#9d65d6" d="M 205.5,276.5 C 205.17,293.009 205.504,309.342 206.5,325.5C 184.412,342.057 162.078,358.39 139.5,374.5C 162.224,381.264 185.224,386.931 208.5,391.5C 207.791,392.404 206.791,392.737 205.5,392.5C 205.5,410.833 205.5,429.167 205.5,447.5C 194.833,447.5 184.167,447.5 173.5,447.5C 117.644,446.202 61.6437,444.369 5.5,442C 3.89881,441.727 2.39881,441.227 1,440.5C 0.504648,437.469 0.671315,434.469 1.5,431.5C 3.52018,425.961 5.85352,420.461 8.5,415C 18.3062,406.93 28.6395,399.596 39.5,393C 53.7967,381.039 67.7967,368.705 81.5,356C 92.7318,346.795 104.899,338.962 118,332.5C 116.769,337.526 115.102,342.526 113,347.5C 108.122,352.709 103.622,358.209 99.5,364C 108.916,362.08 117.916,358.747 126.5,354C 144.236,342.603 162.236,331.603 180.5,321C 175.833,320.333 171.167,320.333 166.5,321C 157.154,324 147.82,326.666 138.5,329C 160.709,311.285 183.042,293.785 205.5,276.5 Z"/></g>
<g><path style="opacity:0.997" fill="#9758c6" d="M 520.5,324.5 C 520.5,361.5 520.5,398.5 520.5,435.5C 512.5,435.833 504.5,436.167 496.5,436.5C 496.5,391.167 496.5,345.833 496.5,300.5C 505.634,292.198 514.301,283.365 522.5,274C 533.134,271.336 543.8,269.336 554.5,268C 541,287.5 527.5,307 514,326.5C 513.312,327.332 513.479,327.998 514.5,328.5C 516.264,326.722 518.264,325.389 520.5,324.5 Z"/></g>
<g><path style="opacity:0.991" fill="#9d63d4" d="M 228.5,381.5 C 228.5,403.5 228.5,425.5 228.5,447.5C 220.833,447.5 213.167,447.5 205.5,447.5C 205.5,429.167 205.5,410.833 205.5,392.5C 206.791,392.737 207.791,392.404 208.5,391.5C 214.938,387.733 221.605,384.399 228.5,381.5 Z"/></g>
</svg>
