<?xml version="1.0" encoding="UTF-8"?>
<!DOCTYPE svg PUBLIC "-//W3C//DTD SVG 1.1//EN" "http://www.w3.org/Graphics/SVG/1.1/DTD/svg11.dtd">
<svg xmlns="http://www.w3.org/2000/svg" version="1.1" width="1184px" height="482px" style="shape-rendering:geometricPrecision; text-rendering:geometricPrecision; image-rendering:optimizeQuality; fill-rule:evenodd; clip-rule:evenodd" xmlns:xlink="http://www.w3.org/1999/xlink">
<g><path style="opacity:0.997" fill="#9247ab" d="M 243.5,-0.5 C 243.833,-0.5 244.167,-0.5 244.5,-0.5C 247.229,5.35443 249.562,11.3544 251.5,17.5C 251.5,155.167 251.5,292.833 251.5,430.5C 237.98,427.122 224.646,423.456 211.5,419.5C 211.5,290.167 211.5,160.833 211.5,31.5C 221.86,20.4729 232.527,9.80628 243.5,-0.5 Z"/></g>
<g><path style="opacity:0.984" fill="#c582ec" d="M 244.5,-0.5 C 244.833,-0.5 245.167,-0.5 245.5,-0.5C 273.833,35.5 302.167,71.5 330.5,107.5C 342.758,120.425 355.425,133.092 368.5,145.5C 373.473,149.806 378.14,154.473 382.5,159.5C 369.833,160.5 357.167,161.5 344.5,162.5C 340.481,155.306 335.481,148.806 329.5,143C 320.671,136.333 312.004,129.5 303.5,122.5C 292.467,112.468 282.134,101.801 272.5,90.5C 270.384,87.2111 268.051,84.0444 265.5,81C 269.821,80.501 274.154,80.3343 278.5,80.5C 270.293,59.0945 261.293,38.0945 251.5,17.5C 249.562,11.3544 247.229,5.35443 244.5,-0.5 Z"/></g>
<g><path style="opacity:0.999" fill="#944caf" d="M 251.5,17.5 C 261.293,38.0945 270.293,59.0945 278.5,80.5C 274.154,80.3343 269.821,80.501 265.5,81C 268.051,84.0444 270.384,87.2111 272.5,90.5C 272.5,205.5 272.5,320.5 272.5,435.5C 265.383,434.304 258.383,432.637 251.5,430.5C 251.5,292.833 251.5,155.167 251.5,17.5 Z"/></g>
<g><path style="opacity:0.997" fill="#9045a8" d="M 211.5,31.5 C 211.5,160.833 211.5,290.167 211.5,419.5C 209.139,419.326 206.806,418.993 204.5,418.5C 204.5,291.833 204.5,165.167 204.5,38.5C 206.5,35.8333 208.833,33.5 211.5,31.5 Z"/></g>
<g><path style="opacity:0.997" fill="#9043a6" d="M 204.5,38.5 C 204.5,165.167 204.5,291.833 204.5,418.5C 198.99,417.127 193.656,415.461 188.5,413.5C 188.5,293.5 188.5,173.5 188.5,53.5C 193.792,48.5091 199.125,43.5091 204.5,38.5 Z"/></g>
<g><path style="opacity:0.991" fill="#9e5dc2" d="M 396.5,48.5 C 401.206,60.2506 406.206,71.9172 411.5,83.5C 405.811,88.3566 399.978,93.0233 394,97.5C 393.415,98.9976 393.915,99.9976 395.5,100.5C 395.5,123.833 395.5,147.167 395.5,170.5C 391.895,168.528 388.895,165.861 386.5,162.5C 387.498,129.338 387.832,96.0042 387.5,62.5C 389.307,58.8864 391.14,55.2198 393,51.5C 393.759,49.9371 394.926,48.9371 396.5,48.5 Z"/></g>
<g><path style="opacity:0.985" fill="#c582ec" d="M 396.5,48.5 C 439.455,74.8052 482.122,101.472 524.5,128.5C 530.5,134.167 536.5,139.833 542.5,145.5C 522.121,146.67 501.788,148.337 481.5,150.5C 481.158,149.662 480.492,149.328 479.5,149.5C 469.833,140.5 460.5,131.167 451.5,121.5C 444.946,118.32 437.946,116.32 430.5,115.5C 423.614,113.595 416.614,112.095 409.5,111C 404.673,107.668 400.007,104.168 395.5,100.5C 393.915,99.9976 393.415,98.9976 394,97.5C 399.978,93.0233 405.811,88.3566 411.5,83.5C 406.206,71.9172 401.206,60.2506 396.5,48.5 Z"/></g>
<g><path style="opacity:0.997" fill="#8e41a3" d="M 188.5,53.5 C 188.5,173.5 188.5,293.5 188.5,413.5C 181.859,412.591 175.526,410.924 169.5,408.5C 169.5,295.5 169.5,182.5 169.5,69.5C 176.389,64.8798 182.723,59.5465 188.5,53.5 Z"/></g>
<g><path style="opacity:0.99" fill="#9d5bc0" d="M 387.5,62.5 C 387.832,96.0042 387.498,129.338 386.5,162.5C 385.167,161.5 383.833,160.5 382.5,159.5C 378.14,154.473 373.473,149.806 368.5,145.5C 369.497,125.674 369.83,105.674 369.5,85.5C 372.796,81.7024 376.296,78.0357 380,74.5C 382.275,70.2676 384.775,66.2676 387.5,62.5 Z"/></g>
<g><path style="opacity:0.996" fill="#8d3fa1" d="M 169.5,69.5 C 169.5,182.5 169.5,295.5 169.5,408.5C 166.37,408.3 163.37,407.634 160.5,406.5C 160.5,296.833 160.5,187.167 160.5,77.5C 163.271,74.6082 166.271,71.9416 169.5,69.5 Z"/></g>
<g><path style="opacity:0.996" fill="#8c3c9e" d="M 160.5,77.5 C 160.5,187.167 160.5,296.833 160.5,406.5C 149.27,403.945 138.27,400.945 127.5,397.5C 127.5,301.5 127.5,205.5 127.5,109.5C 129.429,105.145 131.762,100.979 134.5,97C 143.062,90.2589 151.729,83.7589 160.5,77.5 Z"/></g>
<g><path style="opacity:0.987" fill="#9b58bd" d="M 369.5,85.5 C 369.83,105.674 369.497,125.674 368.5,145.5C 355.425,133.092 342.758,120.425 330.5,107.5C 339.254,104.625 347.921,101.459 356.5,98C 360.702,93.6298 365.036,89.4632 369.5,85.5 Z"/></g>
<g><path style="opacity:0.998" fill="#964fb3" d="M 272.5,90.5 C 282.134,101.801 292.467,112.468 303.5,122.5C 303.5,229.833 303.5,337.167 303.5,444.5C 293.039,441.638 282.705,438.638 272.5,435.5C 272.5,320.5 272.5,205.5 272.5,90.5 Z"/></g>
<g><path style="opacity:0.997" fill="#ac75dc" d="M 588.5,98.5 C 589.857,106.26 591.69,113.927 594,121.5C 601.66,126.999 609.16,132.666 616.5,138.5C 627.11,145.774 637.443,153.441 647.5,161.5C 652.566,166.881 657.899,172.047 663.5,177C 653.96,174.745 644.627,171.578 635.5,167.5C 635.167,167.833 634.833,168.167 634.5,168.5C 637.041,173.082 639.707,177.582 642.5,182C 657.976,189.236 672.976,197.236 687.5,206C 691.503,206.835 694.836,205.669 697.5,202.5C 705.191,206.341 712.524,210.674 719.5,215.5C 726.659,220.917 734.325,225.583 742.5,229.5C 756.87,238.355 770.87,247.855 784.5,258C 786.684,260.016 788.684,262.183 790.5,264.5C 789.277,265.614 787.944,265.781 786.5,265C 772.167,259.333 757.833,253.667 743.5,248C 741.527,247.505 739.527,247.338 737.5,247.5C 731.824,247.334 726.157,247.501 720.5,248C 721.693,249.095 723.027,249.928 724.5,250.5C 740.959,263.442 757.626,276.275 774.5,289C 780.897,293.727 787.564,298.06 794.5,302C 806.425,304.439 818.258,307.273 830,310.5C 831.257,310.15 831.591,309.483 831,308.5C 826.601,303.264 823.101,297.93 820.5,292.5C 835.5,299.333 850.5,306.167 865.5,313C 884.942,332.115 905.275,350.115 926.5,367C 908.805,365.58 891.138,363.913 873.5,362C 877.457,367.413 881.29,372.913 885,378.5C 912.287,395.231 940.454,410.564 969.5,424.5C 992.681,418.789 1015.68,412.622 1038.5,406C 992.167,372.333 945.833,338.667 899.5,305C 888.758,299.531 877.425,295.864 865.5,294C 856.15,289.328 847.483,283.662 839.5,277C 825.333,268.082 811,259.415 796.5,251C 795.748,250.329 795.414,249.496 795.5,248.5C 799.964,244.537 804.298,240.37 808.5,236C 809.577,235.53 810.577,235.697 811.5,236.5C 833.936,250.559 856.603,264.392 879.5,278C 891.088,282.878 902.922,287.045 915,290.5C 915.833,290.167 916.667,289.833 917.5,289.5C 913.021,283.853 908.354,278.353 903.5,273C 914.271,274.138 924.938,276.138 935.5,279C 971.249,304.214 1005.92,330.88 1039.5,359C 1030.08,356.975 1020.75,354.308 1011.5,351C 1006.5,350.333 1001.5,350.333 996.5,351C 1015.17,362.333 1033.83,373.667 1052.5,385C 1061.39,389.532 1070.56,393.365 1080,396.5C 1079.96,394.721 1079.29,393.055 1078,391.5C 1074.7,387.2 1071.04,383.2 1067,379.5C 1065.17,374.667 1063.33,369.833 1061.5,365C 1061.83,364.5 1062.17,364 1062.5,363.5C 1074.68,369.417 1086.01,376.584 1096.5,385C 1121.04,407.919 1147.04,428.919 1174.5,448C 1177.01,453.182 1179.35,458.349 1181.5,463.5C 1182.41,467.131 1182.58,470.797 1182,474.5C 1181.25,475.126 1180.42,475.626 1179.5,476C 1126.69,478.345 1074.02,480.178 1021.5,481.5C 989.833,481.5 958.167,481.5 926.5,481.5C 806.691,475.686 686.691,470.686 566.5,466.5C 566.5,407.833 566.5,349.167 566.5,290.5C 578.594,300.423 590.261,310.923 601.5,322C 618.267,333.801 634.767,345.967 651,358.5C 637.855,337.427 624.022,316.594 609.5,296C 620.456,297.857 631.456,299.857 642.5,302C 652.201,313.369 662.868,323.702 674.5,333C 697.327,345.163 720.494,356.663 744,367.5C 746.372,365.79 748.038,363.456 749,360.5C 752.539,352.129 754.539,343.462 755,334.5C 747.461,323.924 740.294,313.091 733.5,302C 713.654,288.304 693.987,274.47 674.5,260.5C 672.302,258.902 669.969,257.569 667.5,256.5C 661.523,252.199 655.523,247.865 649.5,243.5C 642.045,237.933 634.379,232.599 626.5,227.5C 615.732,219.244 605.066,210.744 594.5,202C 586.666,192.003 578.666,182.169 570.5,172.5C 568.833,170.5 567.167,168.5 565.5,166.5C 566.497,150.008 566.83,133.342 566.5,116.5C 573.688,110.302 580.855,103.968 588,97.5C 588.399,97.7284 588.565,98.0618 588.5,98.5 Z"/></g>
<g><path style="opacity:0.955" fill="#c582ec" d="M 588.5,98.5 C 605.785,110.453 622.785,122.787 639.5,135.5C 632.003,136.793 624.336,137.793 616.5,138.5C 609.16,132.666 601.66,126.999 594,121.5C 591.69,113.927 589.857,106.26 588.5,98.5 Z"/></g>
<g><path style="opacity:1" fill="#9f60c5" d="M 395.5,100.5 C 400.007,104.168 404.673,107.668 409.5,111C 416.614,112.095 423.614,113.595 430.5,115.5C 430.832,159.337 430.499,203.003 429.5,246.5C 421.01,234.196 412.51,221.862 404,209.5C 402.633,205.3 402.133,200.967 402.5,196.5C 402.666,190.158 402.5,183.825 402,177.5C 399.628,175.297 397.461,172.963 395.5,170.5C 395.5,147.167 395.5,123.833 395.5,100.5 Z"/></g>
<g><path style="opacity:0.996" fill="#8a399b" d="M 127.5,109.5 C 127.5,205.5 127.5,301.5 127.5,397.5C 122.761,396.815 118.095,395.815 113.5,394.5C 113.5,303.167 113.5,211.833 113.5,120.5C 118.128,116.844 122.794,113.178 127.5,109.5 Z"/></g>
<g><path style="opacity:0.985" fill="#aa72d8" d="M 566.5,116.5 C 566.83,133.342 566.497,150.008 565.5,166.5C 557.534,159.869 549.867,152.869 542.5,145.5C 536.5,139.833 530.5,134.167 524.5,128.5C 538.601,124.809 552.601,120.809 566.5,116.5 Z"/></g>
<g><path style="opacity:1" fill="#a163c9" d="M 430.5,115.5 C 437.946,116.32 444.946,118.32 451.5,121.5C 451.832,173.669 451.499,225.669 450.5,277.5C 450.5,276.833 450.167,276.5 449.5,276.5C 444.341,267.52 438.675,258.853 432.5,250.5C 431.5,249.167 430.5,247.833 429.5,246.5C 430.499,203.003 430.832,159.337 430.5,115.5 Z"/></g>
<g><path style="opacity:0.996" fill="#89389a" d="M 113.5,120.5 C 113.5,211.833 113.5,303.167 113.5,394.5C 111.228,393.681 108.894,393.015 106.5,392.5C 106.5,303.5 106.5,214.5 106.5,125.5C 108.55,123.453 110.883,121.786 113.5,120.5 Z"/></g>
<g><path style="opacity:1" fill="#a366cc" d="M 451.5,121.5 C 460.5,131.167 469.833,140.5 479.5,149.5C 479.829,162.677 479.495,175.677 478.5,188.5C 473.821,188.334 469.155,188.501 464.5,189C 470.076,194.071 475.076,199.571 479.5,205.5C 479.832,243.004 479.498,280.337 478.5,317.5C 469.179,304.204 459.846,290.871 450.5,277.5C 451.499,225.669 451.832,173.669 451.5,121.5 Z"/></g>
<g><path style="opacity:0.998" fill="#9954b8" d="M 303.5,122.5 C 312.004,129.5 320.671,136.333 329.5,143C 335.481,148.806 340.481,155.306 344.5,162.5C 344.557,163.609 344.89,164.609 345.5,165.5C 346.139,175.227 345.472,184.56 343.5,193.5C 339.129,192.535 334.796,191.701 330.5,191C 333.151,195.824 336.151,200.324 339.5,204.5C 341.5,208.5 343.5,212.5 345.5,216.5C 345.5,296.167 345.5,375.833 345.5,455.5C 331.602,451.525 317.602,447.859 303.5,444.5C 303.5,337.167 303.5,229.833 303.5,122.5 Z"/></g>
<g><path style="opacity:0.995" fill="#883597" d="M 106.5,125.5 C 106.5,214.5 106.5,303.5 106.5,392.5C 97.166,390.166 87.8326,387.833 78.5,385.5C 78.5,308.5 78.5,231.5 78.5,154.5C 83.1691,148.324 87.6691,141.99 92,135.5C 96.6302,131.777 101.464,128.443 106.5,125.5 Z"/></g>
<g><path style="opacity:0.979" fill="#cc8dee" d="M 639.5,135.5 C 649.804,142.479 659.804,149.812 669.5,157.5C 662.306,159.103 654.973,160.436 647.5,161.5C 637.443,153.441 627.11,145.774 616.5,138.5C 624.336,137.793 632.003,136.793 639.5,135.5 Z"/></g>
<g><path style="opacity:0.998" fill="#cc8dee" d="M 542.5,145.5 C 549.867,152.869 557.534,159.869 565.5,166.5C 567.167,168.5 568.833,170.5 570.5,172.5C 555.446,174.127 540.446,176.127 525.5,178.5C 524.167,177.833 522.833,177.167 521.5,176.5C 512.833,171.167 504.167,165.833 495.5,160.5C 490.443,157.645 485.777,154.312 481.5,150.5C 501.788,148.337 522.121,146.67 542.5,145.5 Z"/></g>
<g><path style="opacity:1" fill="#a569cf" d="M 479.5,149.5 C 480.492,149.328 481.158,149.662 481.5,150.5C 485.777,154.312 490.443,157.645 495.5,160.5C 495.5,170.167 495.5,179.833 495.5,189.5C 494.5,189.5 493.5,189.5 492.5,189.5C 487.637,189.819 482.97,189.486 478.5,188.5C 479.495,175.677 479.829,162.677 479.5,149.5 Z"/></g>
<g><path style="opacity:0.994" fill="#863294" d="M 78.5,154.5 C 78.5,231.5 78.5,308.5 78.5,385.5C 72.8788,383.678 67.2121,382.011 61.5,380.5C 61.5,312.167 61.5,243.833 61.5,175.5C 66.9377,168.277 72.6043,161.277 78.5,154.5 Z"/></g>
<g><path style="opacity:0.98" fill="#c582ec" d="M 669.5,157.5 C 694.786,175.454 719.786,193.788 744.5,212.5C 736.178,213.582 727.845,214.582 719.5,215.5C 712.524,210.674 705.191,206.341 697.5,202.5C 694.836,205.669 691.503,206.835 687.5,206C 672.976,197.236 657.976,189.236 642.5,182C 639.707,177.582 637.041,173.082 634.5,168.5C 634.833,168.167 635.167,167.833 635.5,167.5C 644.627,171.578 653.96,174.745 663.5,177C 657.899,172.047 652.566,166.881 647.5,161.5C 654.973,160.436 662.306,159.103 669.5,157.5 Z"/></g>
<g><path style="opacity:0.998" fill="#cc8dee" d="M 382.5,159.5 C 383.833,160.5 385.167,161.5 386.5,162.5C 388.895,165.861 391.895,168.528 395.5,170.5C 397.461,172.963 399.628,175.297 402,177.5C 402.5,183.825 402.666,190.158 402.5,196.5C 392.501,197.5 382.501,198.5 372.5,199.5C 362.739,188.743 353.739,177.409 345.5,165.5C 344.89,164.609 344.557,163.609 344.5,162.5C 357.167,161.5 369.833,160.5 382.5,159.5 Z"/></g>
<g><path style="opacity:1" fill="#a66cd2" d="M 495.5,160.5 C 504.167,165.833 512.833,171.167 521.5,176.5C 521.5,189.5 521.5,202.5 521.5,215.5C 515.07,207.897 508.403,200.397 501.5,193C 498.65,191.209 495.65,190.042 492.5,189.5C 493.5,189.5 494.5,189.5 495.5,189.5C 495.5,179.833 495.5,170.167 495.5,160.5 Z"/></g>
<g><path style="opacity:1" fill="#c582ec" d="M 570.5,172.5 C 578.666,182.169 586.666,192.003 594.5,202C 605.066,210.744 615.732,219.244 626.5,227.5C 605.772,229.341 585.106,231.674 564.5,234.5C 560.835,228.503 557.668,222.17 555,215.5C 550.303,209.312 545.469,203.312 540.5,197.5C 535.881,190.879 530.881,184.546 525.5,178.5C 540.446,176.127 555.446,174.127 570.5,172.5 Z"/></g>
<g><path style="opacity:1" fill="#9c59be" d="M 345.5,165.5 C 353.739,177.409 362.739,188.743 372.5,199.5C 374.515,202.838 377.015,205.838 380,208.5C 380.667,214.833 380.667,221.167 380,227.5C 371.818,219.091 363.651,210.758 355.5,202.5C 353.169,197.156 349.169,194.156 343.5,193.5C 345.472,184.56 346.139,175.227 345.5,165.5 Z"/></g>
<g><path style="opacity:0.993" fill="#852f91" d="M 61.5,175.5 C 61.5,243.833 61.5,312.167 61.5,380.5C 52.6481,378.456 43.9814,376.122 35.5,373.5C 35.5,317.833 35.5,262.167 35.5,206.5C 44.1963,196.142 52.8629,185.808 61.5,175.5 Z"/></g>
<g><path style="opacity:1" fill="#a86fd5" d="M 521.5,176.5 C 522.833,177.167 524.167,177.833 525.5,178.5C 530.881,184.546 535.881,190.879 540.5,197.5C 540.5,210.5 540.5,223.5 540.5,236.5C 532.403,231.071 526.07,224.071 521.5,215.5C 521.5,202.5 521.5,189.5 521.5,176.5 Z"/></g>
<g><path style="opacity:1" fill="#c582ec" d="M 478.5,188.5 C 482.97,189.486 487.637,189.819 492.5,189.5C 495.65,190.042 498.65,191.209 501.5,193C 508.403,200.397 515.07,207.897 521.5,215.5C 526.07,224.071 532.403,231.071 540.5,236.5C 540.5,236.833 540.5,237.167 540.5,237.5C 529.145,238.669 517.812,240.003 506.5,241.5C 503.305,236.431 499.638,231.765 495.5,227.5C 490.546,219.881 485.213,212.548 479.5,205.5C 475.076,199.571 470.076,194.071 464.5,189C 469.155,188.501 473.821,188.334 478.5,188.5 Z"/></g>
<g><path style="opacity:0.996" fill="#cb8ced" d="M 343.5,193.5 C 349.169,194.156 353.169,197.156 355.5,202.5C 350.18,203.26 344.847,203.927 339.5,204.5C 336.151,200.324 333.151,195.824 330.5,191C 334.796,191.701 339.129,192.535 343.5,193.5 Z"/></g>
<g><path style="opacity:0.999" fill="#c582ec" d="M 402.5,196.5 C 402.133,200.967 402.633,205.3 404,209.5C 412.51,221.862 421.01,234.196 429.5,246.5C 430.5,247.833 431.5,249.167 432.5,250.5C 411.977,252.773 391.644,255.44 371.5,258.5C 370.833,257.833 370.167,257.167 369.5,256.5C 363.667,245.495 357.334,234.828 350.5,224.5C 349.32,221.46 347.653,218.794 345.5,216.5C 343.5,212.5 341.5,208.5 339.5,204.5C 344.847,203.927 350.18,203.26 355.5,202.5C 363.651,210.758 371.818,219.091 380,227.5C 380.667,221.167 380.667,214.833 380,208.5C 377.015,205.838 374.515,202.838 372.5,199.5C 382.501,198.5 392.501,197.5 402.5,196.5 Z"/></g>
<g><path style="opacity:0.999" fill="#aa72d9" d="M 540.5,197.5 C 545.469,203.312 550.303,209.312 555,215.5C 557.668,222.17 560.835,228.503 564.5,234.5C 567.745,241.996 571.745,248.996 576.5,255.5C 578.377,258.81 579.877,262.143 581,265.5C 576.672,262.268 572.506,258.934 568.5,255.5C 559.478,248.991 550.145,242.991 540.5,237.5C 540.5,237.167 540.5,236.833 540.5,236.5C 540.5,223.5 540.5,210.5 540.5,197.5 Z"/></g>
<g><path style="opacity:0.992" fill="#832d8e" d="M 35.5,206.5 C 35.5,262.167 35.5,317.833 35.5,373.5C 28.4657,371.991 21.4657,370.325 14.5,368.5C 14.5,322.833 14.5,277.167 14.5,231.5C 21.1535,222.849 28.1535,214.516 35.5,206.5 Z"/></g>
<g><path style="opacity:0.999" fill="#a569cf" d="M 479.5,205.5 C 485.213,212.548 490.546,219.881 495.5,227.5C 495.5,306.167 495.5,384.833 495.5,463.5C 490.167,463.5 484.833,463.5 479.5,463.5C 479.5,419.167 479.5,374.833 479.5,330.5C 481.277,329.4 483.277,328.566 485.5,328C 483.28,324.385 480.947,320.885 478.5,317.5C 479.498,280.337 479.832,243.004 479.5,205.5 Z"/></g>
<g><path style="opacity:0.969" fill="#cc8dee" d="M 744.5,212.5 C 751.064,216.066 757.064,220.399 762.5,225.5C 755.965,227.037 749.298,228.37 742.5,229.5C 734.325,225.583 726.659,220.917 719.5,215.5C 727.845,214.582 736.178,213.582 744.5,212.5 Z"/></g>
<g><path style="opacity:0.998" fill="#9b57bc" d="M 345.5,216.5 C 347.653,218.794 349.32,221.46 350.5,224.5C 350.5,301.833 350.5,379.167 350.5,456.5C 348.883,455.962 347.216,455.629 345.5,455.5C 345.5,375.833 345.5,296.167 345.5,216.5 Z"/></g>
<g><path style="opacity:0.998" fill="#9b58bd" d="M 350.5,224.5 C 357.334,234.828 363.667,245.495 369.5,256.5C 369.5,324.167 369.5,391.833 369.5,459.5C 363.049,459.15 356.716,458.15 350.5,456.5C 350.5,379.167 350.5,301.833 350.5,224.5 Z"/></g>
<g><path style="opacity:0.998" fill="#a66cd2" d="M 495.5,227.5 C 499.638,231.765 503.305,236.431 506.5,241.5C 511.755,248.353 516.755,255.353 521.5,262.5C 521.5,329.833 521.5,397.167 521.5,464.5C 512.8,464.711 504.133,464.377 495.5,463.5C 495.5,384.833 495.5,306.167 495.5,227.5 Z"/></g>
<g><path style="opacity:0.997" fill="#cc8dee" d="M 626.5,227.5 C 634.379,232.599 642.045,237.933 649.5,243.5C 625.382,248.019 601.049,252.019 576.5,255.5C 571.745,248.996 567.745,241.996 564.5,234.5C 585.106,231.674 605.772,229.341 626.5,227.5 Z"/></g>
<g><path style="opacity:0.975" fill="#822a8b" d="M 14.5,231.5 C 14.5,277.167 14.5,322.833 14.5,368.5C 9.54346,367.011 4.54346,365.678 -0.5,364.5C -0.5,325.833 -0.5,287.167 -0.5,248.5C 4.26479,242.646 9.26479,236.979 14.5,231.5 Z"/></g>
<g><path style="opacity:0.997" fill="#cc8dee" d="M 540.5,237.5 C 550.145,242.991 559.478,248.991 568.5,255.5C 568.03,256.693 567.03,257.36 565.5,257.5C 551.641,259.531 537.974,261.865 524.5,264.5C 523.5,263.833 522.5,263.167 521.5,262.5C 516.755,255.353 511.755,248.353 506.5,241.5C 517.812,240.003 529.145,238.669 540.5,237.5 Z"/></g>
<g><path style="opacity:0.98" fill="#c582ec" d="M 811.5,236.5 C 839.784,246.095 868.117,255.595 896.5,265C 934.963,269.685 973.297,275.019 1011.5,281C 1068.71,331.042 1126.04,380.876 1183.5,430.5C 1183.5,433.833 1183.5,437.167 1183.5,440.5C 1182.7,448.012 1182.03,455.679 1181.5,463.5C 1179.35,458.349 1177.01,453.182 1174.5,448C 1147.04,428.919 1121.04,407.919 1096.5,385C 1086.01,376.584 1074.68,369.417 1062.5,363.5C 1062.17,364 1061.83,364.5 1061.5,365C 1063.33,369.833 1065.17,374.667 1067,379.5C 1071.04,383.2 1074.7,387.2 1078,391.5C 1079.29,393.055 1079.96,394.721 1080,396.5C 1070.56,393.365 1061.39,389.532 1052.5,385C 1033.83,373.667 1015.17,362.333 996.5,351C 1001.5,350.333 1006.5,350.333 1011.5,351C 1020.75,354.308 1030.08,356.975 1039.5,359C 1005.92,330.88 971.249,304.214 935.5,279C 924.938,276.138 914.271,274.138 903.5,273C 908.354,278.353 913.021,283.853 917.5,289.5C 916.667,289.833 915.833,290.167 915,290.5C 902.922,287.045 891.088,282.878 879.5,278C 856.603,264.392 833.936,250.559 811.5,236.5 Z"/></g>
<g><path style="opacity:0.999" fill="#c582ec" d="M 762.5,225.5 C 773.646,232.911 784.646,240.577 795.5,248.5C 795.414,249.496 795.748,250.329 796.5,251C 811,259.415 825.333,268.082 839.5,277C 847.483,283.662 856.15,289.328 865.5,294C 877.425,295.864 888.758,299.531 899.5,305C 945.833,338.667 992.167,372.333 1038.5,406C 1015.68,412.622 992.681,418.789 969.5,424.5C 940.454,410.564 912.287,395.231 885,378.5C 881.29,372.913 877.457,367.413 873.5,362C 891.138,363.913 908.805,365.58 926.5,367C 905.275,350.115 884.942,332.115 865.5,313C 850.5,306.167 835.5,299.333 820.5,292.5C 823.101,297.93 826.601,303.264 831,308.5C 831.591,309.483 831.257,310.15 830,310.5C 818.258,307.273 806.425,304.439 794.5,302C 787.564,298.06 780.897,293.727 774.5,289C 757.626,276.275 740.959,263.442 724.5,250.5C 729.052,249.943 733.385,248.943 737.5,247.5C 739.527,247.338 741.527,247.505 743.5,248C 757.833,253.667 772.167,259.333 786.5,265C 787.944,265.781 789.277,265.614 790.5,264.5C 788.684,262.183 786.684,260.016 784.5,258C 770.87,247.855 756.87,238.355 742.5,229.5C 749.298,228.37 755.965,227.037 762.5,225.5 Z"/></g>
<g><path style="opacity:1" fill="#c683ec" d="M 649.5,243.5 C 655.523,247.865 661.523,252.199 667.5,256.5C 626.52,263.941 585.52,271.275 544.5,278.5C 543.167,277.833 541.833,277.167 540.5,276.5C 534.413,273.461 529.079,269.461 524.5,264.5C 537.974,261.865 551.641,259.531 565.5,257.5C 567.03,257.36 568.03,256.693 568.5,255.5C 572.506,258.934 576.672,262.268 581,265.5C 579.877,262.143 578.377,258.81 576.5,255.5C 601.049,252.019 625.382,248.019 649.5,243.5 Z"/></g>
<g><path style="opacity:0.977" fill="#ca8bed" d="M 737.5,247.5 C 733.385,248.943 729.052,249.943 724.5,250.5C 723.027,249.928 721.693,249.095 720.5,248C 726.157,247.501 731.824,247.334 737.5,247.5 Z"/></g>
<g><path style="opacity:0.997" fill="#cc8dee" d="M 432.5,250.5 C 438.675,258.853 444.341,267.52 449.5,276.5C 430.603,278.872 411.937,281.872 393.5,285.5C 391.304,284.162 389.304,282.495 387.5,280.5C 383.879,275.707 380.046,271.04 376,266.5C 374.235,263.968 372.735,261.301 371.5,258.5C 391.644,255.44 411.977,252.773 432.5,250.5 Z"/></g>
<g><path style="opacity:0.998" fill="#9d5bc0" d="M 369.5,256.5 C 370.167,257.167 370.833,257.833 371.5,258.5C 372.735,261.301 374.235,263.968 376,266.5C 380.046,271.04 383.879,275.707 387.5,280.5C 387.5,340.167 387.5,399.833 387.5,459.5C 381.5,459.5 375.5,459.5 369.5,459.5C 369.5,391.833 369.5,324.167 369.5,256.5 Z"/></g>
<g><path style="opacity:0.992" fill="#cc8dee" d="M 667.5,256.5 C 669.969,257.569 672.302,258.902 674.5,260.5C 673.77,262.045 672.437,262.878 670.5,263C 634.3,270.87 598.3,279.037 562.5,287.5C 556.224,285.029 550.224,282.029 544.5,278.5C 585.52,271.275 626.52,263.941 667.5,256.5 Z"/></g>
<g><path style="opacity:1" fill="#c582ec" d="M 674.5,260.5 C 693.987,274.47 713.654,288.304 733.5,302C 740.294,313.091 747.461,323.924 755,334.5C 754.539,343.462 752.539,352.129 749,360.5C 748.038,363.456 746.372,365.79 744,367.5C 720.494,356.663 697.327,345.163 674.5,333C 662.868,323.702 652.201,313.369 642.5,302C 631.456,299.857 620.456,297.857 609.5,296C 624.022,316.594 637.855,337.427 651,358.5C 634.767,345.967 618.267,333.801 601.5,322C 590.261,310.923 578.594,300.423 566.5,290.5C 565.167,289.5 563.833,288.5 562.5,287.5C 598.3,279.037 634.3,270.87 670.5,263C 672.437,262.878 673.77,262.045 674.5,260.5 Z"/></g>
<g><path style="opacity:0.997" fill="#a86ed5" d="M 521.5,262.5 C 522.5,263.167 523.5,263.833 524.5,264.5C 529.079,269.461 534.413,273.461 540.5,276.5C 540.5,339.5 540.5,402.5 540.5,465.5C 534.131,465.653 527.797,465.32 521.5,464.5C 521.5,397.167 521.5,329.833 521.5,262.5 Z"/></g>
<g><path style="opacity:1" fill="#c582ec" d="M 449.5,276.5 C 450.167,276.5 450.5,276.833 450.5,277.5C 459.846,290.871 469.179,304.204 478.5,317.5C 480.947,320.885 483.28,324.385 485.5,328C 483.277,328.566 481.277,329.4 479.5,330.5C 469.878,332.899 460.544,335.899 451.5,339.5C 448.06,340.091 444.727,341.091 441.5,342.5C 437.599,338.994 433.932,335.327 430.5,331.5C 419.58,316.91 407.913,302.91 395.5,289.5C 394.4,288.395 393.733,287.062 393.5,285.5C 411.937,281.872 430.603,278.872 449.5,276.5 Z"/></g>
<g><path style="opacity:0.998" fill="#a972d8" d="M 540.5,276.5 C 541.833,277.167 543.167,277.833 544.5,278.5C 550.224,282.029 556.224,285.029 562.5,287.5C 563.833,288.5 565.167,289.5 566.5,290.5C 566.5,349.167 566.5,407.833 566.5,466.5C 557.829,466.262 549.162,465.928 540.5,465.5C 540.5,402.5 540.5,339.5 540.5,276.5 Z"/></g>
<g><path style="opacity:0.997" fill="#9e5dc2" d="M 387.5,280.5 C 389.304,282.495 391.304,284.162 393.5,285.5C 393.733,287.062 394.4,288.395 395.5,289.5C 395.5,346.5 395.5,403.5 395.5,460.5C 392.794,460.425 390.127,460.092 387.5,459.5C 387.5,399.833 387.5,340.167 387.5,280.5 Z"/></g>
<g><path style="opacity:0.997" fill="#9f5fc4" d="M 395.5,289.5 C 407.913,302.91 419.58,316.91 430.5,331.5C 430.5,374.833 430.5,418.167 430.5,461.5C 418.843,460.894 407.176,460.561 395.5,460.5C 395.5,403.5 395.5,346.5 395.5,289.5 Z"/></g>
<g><path style="opacity:0.997" fill="#a366cc" d="M 479.5,330.5 C 479.5,374.833 479.5,419.167 479.5,463.5C 470.188,462.723 460.854,462.39 451.5,462.5C 451.5,421.5 451.5,380.5 451.5,339.5C 460.544,335.899 469.878,332.899 479.5,330.5 Z"/></g>
<g><path style="opacity:0.996" fill="#a163c9" d="M 430.5,331.5 C 433.932,335.327 437.599,338.994 441.5,342.5C 444.727,341.091 448.06,340.091 451.5,339.5C 451.5,380.5 451.5,421.5 451.5,462.5C 444.524,461.768 437.524,461.435 430.5,461.5C 430.5,418.167 430.5,374.833 430.5,331.5 Z"/></g>
</svg>
