<?xml version="1.0" encoding="UTF-8"?>
<!DOCTYPE svg PUBLIC "-//W3C//DTD SVG 1.1//EN" "http://www.w3.org/Graphics/SVG/1.1/DTD/svg11.dtd">
<svg xmlns="http://www.w3.org/2000/svg" version="1.1" width="138px" height="138px" style="shape-rendering:geometricPrecision; text-rendering:geometricPrecision; image-rendering:optimizeQuality; fill-rule:evenodd; clip-rule:evenodd" xmlns:xlink="http://www.w3.org/1999/xlink">
<g><path style="opacity:0.104" fill="#8b3eaa" d="M 126.5,33.5 C 124.999,32.2485 123.332,31.2485 121.5,30.5C 121.191,27.6545 119.525,26.1545 116.5,26C 114.513,24.6811 113.346,22.8477 113,20.5C 107.987,16.138 102.487,12.638 96.5,10C 91.9769,8.20254 87.3102,7.03588 82.5,6.5C 82.3893,5.88258 82.056,5.38258 81.5,5C 74.1667,4.33333 66.8333,4.33333 59.5,5C 52.7308,6.76087 46.0642,8.5942 39.5,10.5C 71.2993,-3.8913 99.1326,1.77536 123,27.5C 124.421,29.4048 125.588,31.4048 126.5,33.5 Z"/></g>
<g><path style="opacity:0.29" fill="#a3319f" d="M 82.5,6.5 C 87.3102,7.03588 91.9769,8.20254 96.5,10C 102.487,12.638 107.987,16.138 113,20.5C 113.346,22.8477 114.513,24.6811 116.5,26C 119.525,26.1545 121.191,27.6545 121.5,30.5C 124.231,35.8353 127.064,41.1686 130,46.5C 130.879,51.6869 132.212,56.6869 134,61.5C 134.667,67.1667 134.667,72.8333 134,78.5C 133.148,79.5707 132.315,80.5707 131.5,81.5C 133.353,67.988 131.519,54.988 126,42.5C 124.301,39.079 122.135,36.079 119.5,33.5C 118.928,31.7446 118.094,30.0779 117,28.5C 108.963,21.4268 100.463,15.2601 91.5,10C 79.5689,7.11675 67.5689,6.78341 55.5,9C 49.0397,11.0867 42.7064,13.42 36.5,16C 33.3443,18.157 30.511,20.657 28,23.5C 27.5357,24.0944 27.369,24.7611 27.5,25.5C 23.4471,30.2192 19.7804,35.2192 16.5,40.5C 15.2652,40.7214 14.2652,41.3881 13.5,42.5C 12.3854,46.5506 10.7187,50.2172 8.5,53.5C 8.47744,47.9182 10.1441,42.9182 13.5,38.5C 19.2672,30.2309 25.9339,22.7309 33.5,16C 48.7278,7.27784 65.0611,4.11118 82.5,6.5 Z"/></g>
<g><path style="opacity:1" fill="#fb3de3" d="M 47.5,20.5 C 48.552,20.3505 49.552,20.5172 50.5,21C 42.0881,24.9165 35.4215,30.7498 30.5,38.5C 28.8333,41.1667 27.1667,43.8333 25.5,46.5C 23.0882,46.3059 22.0882,44.9726 22.5,42.5C 28.333,32.3341 36.6664,25.0008 47.5,20.5 Z"/></g>
<g><path style="opacity:1" fill="#984ce5" d="M 74.5,17.5 C 80.3529,18.0969 86.0195,19.4302 91.5,21.5C 91.5,20.5 91.5,19.5 91.5,18.5C 91.8333,18.5 92.1667,18.5 92.5,18.5C 92.2786,21.2788 92.612,23.9455 93.5,26.5C 90.1352,30.8522 86.9685,35.5189 84,40.5C 79.5745,43.7856 75.0745,46.7856 70.5,49.5C 70.1667,49.5 69.8333,49.5 69.5,49.5C 68.8734,45.5799 67.2067,42.2466 64.5,39.5C 61.7811,35.1113 61.9478,30.7779 65,26.5C 68.0359,23.2956 71.2026,20.2956 74.5,17.5 Z"/></g>
<g><path style="opacity:1" fill="#e67ce1" d="M 92.5,14.5 C 98.0671,17.0823 103.067,20.4156 107.5,24.5C 107.5,25.1667 107.5,25.8333 107.5,26.5C 102.945,23.055 97.9448,20.3883 92.5,18.5C 92.5,17.1667 92.5,15.8333 92.5,14.5 Z"/></g>
<g><path style="opacity:1" fill="#fa72e2" d="M 77.5,10.5 C 77.6085,12.5138 76.9418,14.1805 75.5,15.5C 65.5193,14.358 56.186,16.0246 47.5,20.5C 36.6664,25.0008 28.333,32.3341 22.5,42.5C 20.5,45.8333 18.5,49.1667 16.5,52.5C 15.5,51.1667 14.5,49.8333 13.5,48.5C 14.1084,45.6733 15.1084,43.0067 16.5,40.5C 19.7804,35.2192 23.4471,30.2192 27.5,25.5C 41.8388,12.8323 58.5055,7.83226 77.5,10.5 Z"/></g>
<g><path style="opacity:0.389" fill="#af2d9b" d="M 119.5,33.5 C 117.871,32.3747 116.371,31.0414 115,29.5C 114.601,29.7284 114.435,30.0618 114.5,30.5C 112.167,28.5 109.833,26.5 107.5,24.5C 103.067,20.4156 98.0671,17.0823 92.5,14.5C 87.8008,12.3339 82.8008,11.0006 77.5,10.5C 58.5055,7.83226 41.8388,12.8323 27.5,25.5C 27.369,24.7611 27.5357,24.0944 28,23.5C 30.511,20.657 33.3443,18.157 36.5,16C 42.7064,13.42 49.0397,11.0867 55.5,9C 67.5689,6.78341 79.5689,7.11675 91.5,10C 100.463,15.2601 108.963,21.4268 117,28.5C 118.094,30.0779 118.928,31.7446 119.5,33.5 Z"/></g>
<g><path style="opacity:1" fill="#7b3acd" d="M 75.5,15.5 C 81.1534,15.0506 86.4867,16.0506 91.5,18.5C 91.5,19.5 91.5,20.5 91.5,21.5C 86.0195,19.4302 80.3529,18.0969 74.5,17.5C 74.8333,16.8333 75.1667,16.1667 75.5,15.5 Z"/></g>
<g><path style="opacity:1" fill="#af6dc8" d="M 77.5,10.5 C 82.8008,11.0006 87.8008,12.3339 92.5,14.5C 92.5,15.8333 92.5,17.1667 92.5,18.5C 92.1667,18.5 91.8333,18.5 91.5,18.5C 86.4867,16.0506 81.1534,15.0506 75.5,15.5C 76.9418,14.1805 77.6085,12.5138 77.5,10.5 Z"/></g>
<g><path style="opacity:1" fill="#fb51f1" d="M 75.5,15.5 C 75.1667,16.1667 74.8333,16.8333 74.5,17.5C 71.2026,20.2956 68.0359,23.2956 65,26.5C 61.9478,30.7779 61.7811,35.1113 64.5,39.5C 62.6982,44.7713 59.0316,48.2713 53.5,50C 49.5382,51.6961 45.5382,51.8628 41.5,50.5C 44.9101,46.4368 46.4101,41.7701 46,36.5C 44.8176,34.6431 43.151,33.6431 41,33.5C 37.1517,34.5082 33.6517,36.1748 30.5,38.5C 35.4215,30.7498 42.0881,24.9165 50.5,21C 49.552,20.5172 48.552,20.3505 47.5,20.5C 56.186,16.0246 65.5193,14.358 75.5,15.5 Z"/></g>
<g><path style="opacity:1" fill="#fe85f4" d="M 54.5,22.5 C 60.1132,21.079 62.2799,23.079 61,28.5C 57.6046,32.187 53.4379,33.687 48.5,33C 46.7888,31.8668 46.2888,30.3668 47,28.5C 49.1337,25.8474 51.6337,23.8474 54.5,22.5 Z"/></g>
<g><path style="opacity:0.196" fill="#923aa7" d="M 82.5,6.5 C 65.0611,4.11118 48.7278,7.27784 33.5,16C 25.9339,22.7309 19.2672,30.2309 13.5,38.5C 10.1441,42.9182 8.47744,47.9182 8.5,53.5C 8.5,53.8333 8.5,54.1667 8.5,54.5C 7.67802,56.3885 6.84468,58.3885 6,60.5C 5.50051,66.4908 5.33385,72.4908 5.5,78.5C 4.83493,75.3509 4.5016,72.0175 4.5,68.5C 4.47021,62.0657 5.13688,55.7324 6.5,49.5C 10.5636,35.8771 18.2302,24.7104 29.5,16C 32.7271,13.8882 36.0604,12.0549 39.5,10.5C 46.0642,8.5942 52.7308,6.76087 59.5,5C 66.8333,4.33333 74.1667,4.33333 81.5,5C 82.056,5.38258 82.3893,5.88258 82.5,6.5 Z"/></g>
<g><path style="opacity:1" fill="#c26fc0" d="M 107.5,24.5 C 109.833,26.5 112.167,28.5 114.5,30.5C 115.6,31.6049 116.267,32.9382 116.5,34.5C 113.833,32.1667 111.167,29.8333 108.5,27.5C 107.833,27.5 107.5,27.1667 107.5,26.5C 107.5,25.8333 107.5,25.1667 107.5,24.5 Z"/></g>
<g><path style="opacity:1" fill="#da59ec" d="M 92.5,18.5 C 97.9448,20.3883 102.945,23.055 107.5,26.5C 107.5,27.1667 107.833,27.5 108.5,27.5C 108.5,31.5 108.5,35.5 108.5,39.5C 107.263,40.9649 106.263,42.6316 105.5,44.5C 102.374,46.2107 99.3737,47.2107 96.5,47.5C 98.3054,45.5514 99.3054,43.2181 99.5,40.5C 98.0653,35.6264 96.0653,30.9597 93.5,26.5C 92.612,23.9455 92.2786,21.2788 92.5,18.5 Z"/></g>
<g><path style="opacity:1" fill="#fc7dee" d="M 41.5,50.5 C 38.801,54.1834 35.1344,56.1834 30.5,56.5C 25.1746,56.494 23.1746,53.8273 24.5,48.5C 24.8333,47.8333 25.1667,47.1667 25.5,46.5C 27.1667,43.8333 28.8333,41.1667 30.5,38.5C 33.6517,36.1748 37.1517,34.5082 41,33.5C 43.151,33.6431 44.8176,34.6431 46,36.5C 46.4101,41.7701 44.9101,46.4368 41.5,50.5 Z"/></g>
<g><path style="opacity:1" fill="#9844c3" d="M 108.5,27.5 C 111.167,29.8333 113.833,32.1667 116.5,34.5C 118.068,42.9759 120.235,51.3092 123,59.5C 123.497,61.8098 123.663,64.1432 123.5,66.5C 122.292,67.2341 120.959,67.5674 119.5,67.5C 113.42,66.8133 107.42,66.8133 101.5,67.5C 105.611,58.6111 107.944,49.2778 108.5,39.5C 108.5,35.5 108.5,31.5 108.5,27.5 Z"/></g>
<g><path style="opacity:1" fill="#8943dc" d="M 93.5,26.5 C 96.0653,30.9597 98.0653,35.6264 99.5,40.5C 99.3054,43.2181 98.3054,45.5514 96.5,47.5C 95.8333,47.8333 95.1667,48.1667 94.5,48.5C 86.4583,48.264 78.4583,48.5973 70.5,49.5C 75.0745,46.7856 79.5745,43.7856 84,40.5C 86.9685,35.5189 90.1352,30.8522 93.5,26.5 Z"/></g>
<g><path style="opacity:0.389" fill="#b52797" d="M 119.5,33.5 C 122.135,36.079 124.301,39.079 126,42.5C 131.519,54.988 133.353,67.988 131.5,81.5C 131.5,81.8333 131.5,82.1667 131.5,82.5C 130.233,87.9564 128.4,93.2897 126,98.5C 124.634,100.362 123.134,102.028 121.5,103.5C 122.621,99.2005 124.454,95.2005 127,91.5C 129.24,81.2685 129.907,70.9352 129,60.5C 128.95,58.256 128.117,56.5893 126.5,55.5C 125.013,47.5285 121.679,40.5285 116.5,34.5C 116.267,32.9382 115.6,31.6049 114.5,30.5C 114.435,30.0618 114.601,29.7284 115,29.5C 116.371,31.0414 117.871,32.3747 119.5,33.5 Z"/></g>
<g><path style="opacity:1" fill="#f349ea" d="M 64.5,39.5 C 67.2067,42.2466 68.8734,45.5799 69.5,49.5C 69.651,55.0152 66.9843,58.0152 61.5,58.5C 58.2184,57.5123 54.8851,56.8457 51.5,56.5C 45.9634,57.7002 42.2967,61.0336 40.5,66.5C 36.5898,66.7372 32.9231,65.9039 29.5,64C 26.8324,61.3367 23.8324,59.17 20.5,57.5C 21.4629,54.2558 22.7962,51.2558 24.5,48.5C 23.1746,53.8273 25.1746,56.494 30.5,56.5C 35.1344,56.1834 38.801,54.1834 41.5,50.5C 45.5382,51.8628 49.5382,51.6961 53.5,50C 59.0316,48.2713 62.6982,44.7713 64.5,39.5 Z"/></g>
<g><path style="opacity:1" fill="#6b31bf" d="M 94.5,48.5 C 94.5,48.8333 94.5,49.1667 94.5,49.5C 87.3757,51.8924 81.0424,55.559 75.5,60.5C 67.049,61.6355 58.3823,61.6355 49.5,60.5C 49.7329,58.9382 50.3995,57.6049 51.5,56.5C 54.8851,56.8457 58.2184,57.5123 61.5,58.5C 66.9843,58.0152 69.651,55.0152 69.5,49.5C 69.8333,49.5 70.1667,49.5 70.5,49.5C 78.4583,48.5973 86.4583,48.264 94.5,48.5 Z"/></g>
<g><path style="opacity:1" fill="#ea3edb" d="M 22.5,42.5 C 22.0882,44.9726 23.0882,46.3059 25.5,46.5C 25.1667,47.1667 24.8333,47.8333 24.5,48.5C 22.7962,51.2558 21.4629,54.2558 20.5,57.5C 19.5139,61.1128 18.6805,64.7795 18,68.5C 17.3103,66.6498 16.1436,65.3164 14.5,64.5C 15.0381,60.4764 15.7048,56.4764 16.5,52.5C 18.5,49.1667 20.5,45.8333 22.5,42.5 Z"/></g>
<g><path style="opacity:1" fill="#8645bc" d="M 116.5,34.5 C 121.679,40.5285 125.013,47.5285 126.5,55.5C 127.324,58.7644 127.658,62.0977 127.5,65.5C 126.041,65.4326 124.708,65.7659 123.5,66.5C 123.663,64.1432 123.497,61.8098 123,59.5C 120.235,51.3092 118.068,42.9759 116.5,34.5 Z"/></g>
<g><path style="opacity:1" fill="#ec73d8" d="M 13.5,48.5 C 14.5,49.8333 15.5,51.1667 16.5,52.5C 15.7048,56.4764 15.0381,60.4764 14.5,64.5C 13.5318,66.6074 13.1984,68.9407 13.5,71.5C 11.9382,71.2671 10.6049,70.6005 9.5,69.5C 9.11709,62.0571 10.4504,55.0571 13.5,48.5 Z"/></g>
<g><path style="opacity:1" fill="#d14bdf" d="M 105.5,44.5 C 100.848,59.6968 91.8483,70.6968 78.5,77.5C 76.847,77.3404 75.5137,76.6737 74.5,75.5C 77.5622,74.3078 80.5622,72.8078 83.5,71C 85.9032,68.3176 88.4032,65.8176 91,63.5C 91.6172,62.5509 91.4506,61.7175 90.5,61C 93.7804,57.6536 95.1138,53.8203 94.5,49.5C 94.5,49.1667 94.5,48.8333 94.5,48.5C 95.1667,48.1667 95.8333,47.8333 96.5,47.5C 99.3737,47.2107 102.374,46.2107 105.5,44.5 Z"/></g>
<g><path style="opacity:1" fill="#c84ede" d="M 108.5,39.5 C 107.944,49.2778 105.611,58.6111 101.5,67.5C 98.1518,70.8514 95.1518,74.5181 92.5,78.5C 88.2201,79.5396 83.8868,79.7062 79.5,79C 78.944,78.6174 78.6107,78.1174 78.5,77.5C 91.8483,70.6968 100.848,59.6968 105.5,44.5C 106.263,42.6316 107.263,40.9649 108.5,39.5 Z"/></g>
<g><path style="opacity:0.189" fill="#9a36a3" d="M 121.5,30.5 C 123.332,31.2485 124.999,32.2485 126.5,33.5C 126.003,37.1623 127.169,40.1623 130,42.5C 136.889,59.7128 137.222,77.0462 131,94.5C 130.617,95.056 130.117,95.3893 129.5,95.5C 130.681,91.2574 131.348,86.924 131.5,82.5C 131.5,82.1667 131.5,81.8333 131.5,81.5C 132.315,80.5707 133.148,79.5707 134,78.5C 134.667,72.8333 134.667,67.1667 134,61.5C 132.212,56.6869 130.879,51.6869 130,46.5C 127.064,41.1686 124.231,35.8353 121.5,30.5 Z"/></g>
<g><path style="opacity:0.386" fill="#ae2b99" d="M 16.5,40.5 C 15.1084,43.0067 14.1084,45.6733 13.5,48.5C 10.4504,55.0571 9.11709,62.0571 9.5,69.5C 9.40327,81.8768 13.0699,92.8768 20.5,102.5C 23.7803,109.114 28.7803,114.114 35.5,117.5C 36.1667,118.167 36.8333,118.833 37.5,119.5C 38.8968,121.379 40.5635,123.046 42.5,124.5C 37.8333,122.167 33.1667,119.833 28.5,117.5C 25.5912,113.379 22.4245,109.379 19,105.5C 15.9844,99.4689 12.9844,93.4689 10,87.5C 7.27731,76.6039 6.77731,65.6039 8.5,54.5C 8.5,54.1667 8.5,53.8333 8.5,53.5C 10.7187,50.2172 12.3854,46.5506 13.5,42.5C 14.2652,41.3881 15.2652,40.7214 16.5,40.5 Z"/></g>
<g><path style="opacity:0.102" fill="#8f3ca8" d="M 126.5,33.5 C 131.823,41.4785 135.49,50.1451 137.5,59.5C 137.5,66.5 137.5,73.5 137.5,80.5C 129.811,112.524 109.811,131.524 77.5,137.5C 72.5,137.5 67.5,137.5 62.5,137.5C 31.2174,131.764 11.7174,113.43 4,82.5C 1.80189,71.1518 2.63522,60.1518 6.5,49.5C 5.13688,55.7324 4.47021,62.0657 4.5,68.5C 4.5016,72.0175 4.83493,75.3509 5.5,78.5C 5.62434,83.2888 6.45767,87.9555 8,92.5C 11.082,96.1631 13.2486,100.33 14.5,105C 18.0928,110.429 22.7595,114.596 28.5,117.5C 32.1388,121.127 36.1388,124.461 40.5,127.5C 45.1065,128.313 49.4398,129.813 53.5,132C 68.0532,135.83 82.3865,135.163 96.5,130C 101.762,125.462 107.428,121.462 113.5,118C 116.669,114.156 120.169,110.656 124,107.5C 126.122,103.592 127.955,99.592 129.5,95.5C 130.117,95.3893 130.617,95.056 131,94.5C 137.222,77.0462 136.889,59.7128 130,42.5C 127.169,40.1623 126.003,37.1623 126.5,33.5 Z"/></g>
<g><path style="opacity:0.285" fill="#a3319f" d="M 131.5,82.5 C 131.348,86.924 130.681,91.2574 129.5,95.5C 127.955,99.592 126.122,103.592 124,107.5C 120.169,110.656 116.669,114.156 113.5,118C 107.428,121.462 101.762,125.462 96.5,130C 82.3865,135.163 68.0532,135.83 53.5,132C 49.4398,129.813 45.1065,128.313 40.5,127.5C 36.1388,124.461 32.1388,121.127 28.5,117.5C 33.1667,119.833 37.8333,122.167 42.5,124.5C 42.5774,125.75 43.244,126.583 44.5,127C 69.3737,136.037 92.0403,132.371 112.5,116C 116.131,112.215 119.131,108.049 121.5,103.5C 123.134,102.028 124.634,100.362 126,98.5C 128.4,93.2897 130.233,87.9564 131.5,82.5 Z"/></g>
<g><path style="opacity:1" fill="#2f1370" d="M 37.5,115.5 C 43.5473,118.516 49.8806,121.016 56.5,123C 62.6807,123.172 68.6807,123.672 74.5,124.5C 74.5,125.5 74.5,126.5 74.5,127.5C 61.2801,128.777 48.9468,126.111 37.5,119.5C 36.8333,118.833 36.1667,118.167 35.5,117.5C 36.5,117.167 37.1667,116.5 37.5,115.5 Z"/></g>
<g><path style="opacity:1" fill="#631f8f" d="M 109.5,95.5 C 109.78,98.2724 109.113,100.772 107.5,103C 99.6516,108.427 91.3183,113.094 82.5,117C 79.6688,118.666 77.3355,120.832 75.5,123.5C 75.5,124.167 75.1667,124.5 74.5,124.5C 68.6807,123.672 62.6807,123.172 56.5,123C 49.8806,121.016 43.5473,118.516 37.5,115.5C 37.5,115.167 37.5,114.833 37.5,114.5C 38.8333,113.5 40.1667,112.5 41.5,111.5C 41.8333,111.5 42.1667,111.5 42.5,111.5C 68.4259,121.182 90.7592,115.848 109.5,95.5 Z"/></g>
<g><path style="opacity:1" fill="#7f41b4" d="M 16.5,91.5 C 17.1667,91.5 17.8333,91.5 18.5,91.5C 22.7083,100.913 29.0416,108.58 37.5,114.5C 37.5,114.833 37.5,115.167 37.5,115.5C 37.1667,116.5 36.5,117.167 35.5,117.5C 28.7803,114.114 23.7803,109.114 20.5,102.5C 18.8815,98.931 17.5481,95.2644 16.5,91.5 Z"/></g>
<g><path style="opacity:1" fill="#7a3fb0" d="M 122.5,75.5 C 122.833,75.5 123.167,75.5 123.5,75.5C 124.833,75.5 126.167,75.5 127.5,75.5C 122.373,105.627 104.706,122.961 74.5,127.5C 74.5,126.5 74.5,125.5 74.5,124.5C 75.1667,124.5 75.5,124.167 75.5,123.5C 102.695,118.64 118.362,102.64 122.5,75.5 Z"/></g>
<g><path style="opacity:0.39" fill="#b22999" d="M 121.5,103.5 C 119.131,108.049 116.131,112.215 112.5,116C 92.0403,132.371 69.3737,136.037 44.5,127C 43.244,126.583 42.5774,125.75 42.5,124.5C 59.6811,131.99 77.0145,132.323 94.5,125.5C 99.6622,121.751 104.996,118.251 110.5,115C 114.061,110.942 117.728,107.108 121.5,103.5 Z"/></g>
<g><path style="opacity:1" fill="#a247c4" d="M 18.5,91.5 C 19.1667,91.5 19.8333,91.5 20.5,91.5C 22.7094,96.3813 26.0427,100.381 30.5,103.5C 33.9895,106.411 37.6562,109.078 41.5,111.5C 40.1667,112.5 38.8333,113.5 37.5,114.5C 29.0416,108.58 22.7083,100.913 18.5,91.5 Z"/></g>
<g><path style="opacity:1" fill="#8442ba" d="M 93.5,91.5 C 92.5,92.8333 91.5,94.1667 90.5,95.5C 86.8792,99.3177 82.5459,102.151 77.5,104C 67.6238,106.318 57.6238,107.985 47.5,109C 45.5087,109.374 43.842,110.207 42.5,111.5C 42.1667,111.5 41.8333,111.5 41.5,111.5C 37.6562,109.078 33.9895,106.411 30.5,103.5C 30.7352,102.903 31.2352,102.57 32,102.5C 52.4518,106.076 71.6184,102.576 89.5,92C 90.7932,91.51 92.1266,91.3433 93.5,91.5 Z"/></g>
<g><path style="opacity:1" fill="#32177c" d="M 109.5,87.5 C 109.5,89.5 109.5,91.5 109.5,93.5C 109.5,94.1667 109.5,94.8333 109.5,95.5C 90.7592,115.848 68.4259,121.182 42.5,111.5C 43.842,110.207 45.5087,109.374 47.5,109C 57.6238,107.985 67.6238,106.318 77.5,104C 82.5459,102.151 86.8792,99.3177 90.5,95.5C 96.9367,93.4023 102.937,90.4023 108.5,86.5C 109.107,86.6236 109.44,86.9569 109.5,87.5 Z"/></g>
<g><path style="opacity:1" fill="#8e3fba" d="M 93.5,91.5 C 92.1266,91.3433 90.7932,91.51 89.5,92C 71.6184,102.576 52.4518,106.076 32,102.5C 31.2352,102.57 30.7352,102.903 30.5,103.5C 26.0427,100.381 22.7094,96.3813 20.5,91.5C 22.5648,91.4828 24.5648,91.1495 26.5,90.5C 26.3893,91.1174 26.056,91.6174 25.5,92C 35.2808,96.3028 45.2808,97.4695 55.5,95.5C 56.1667,95.8333 56.8333,96.1667 57.5,96.5C 60.1368,98.4274 63.1368,98.9274 66.5,98C 70.894,96.4182 74.5607,93.9182 77.5,90.5C 80.0316,89.4043 82.3649,88.0709 84.5,86.5C 87.1128,85.5651 89.7795,85.3985 92.5,86C 94.8305,87.4875 95.1638,89.3209 93.5,91.5 Z"/></g>
<g><path style="opacity:0.204" fill="#9e34a1" d="M 8.5,54.5 C 6.77731,65.6039 7.27731,76.6039 10,87.5C 12.9844,93.4689 15.9844,99.4689 19,105.5C 22.4245,109.379 25.5912,113.379 28.5,117.5C 22.7595,114.596 18.0928,110.429 14.5,105C 13.2486,100.33 11.082,96.1631 8,92.5C 6.45767,87.9555 5.62434,83.2888 5.5,78.5C 5.33385,72.4908 5.50051,66.4908 6,60.5C 6.84468,58.3885 7.67802,56.3885 8.5,54.5 Z"/></g>
<g><path style="opacity:1" fill="#401d8b" d="M 77.5,90.5 C 74.5607,93.9182 70.894,96.4182 66.5,98C 63.1368,98.9274 60.1368,98.4274 57.5,96.5C 64.3543,95.1198 71.021,93.1198 77.5,90.5 Z"/></g>
<g><path style="opacity:1" fill="#bf4ad8" d="M 34.5,88.5 C 34.3893,89.1174 34.056,89.6174 33.5,90C 40.1117,91.2104 46.7783,91.7104 53.5,91.5C 54.3446,92.6715 55.0113,94.0048 55.5,95.5C 45.2808,97.4695 35.2808,96.3028 25.5,92C 26.056,91.6174 26.3893,91.1174 26.5,90.5C 26.8333,90.5 27.1667,90.5 27.5,90.5C 29.8333,89.8333 32.1667,89.1667 34.5,88.5 Z"/></g>
<g><path style="opacity:1" fill="#9c4ac4" d="M 122.5,75.5 C 118.362,102.64 102.695,118.64 75.5,123.5C 77.3355,120.832 79.6688,118.666 82.5,117C 91.3183,113.094 99.6516,108.427 107.5,103C 109.113,100.772 109.78,98.2724 109.5,95.5C 109.5,94.8333 109.5,94.1667 109.5,93.5C 113.784,88.602 116.784,82.9353 118.5,76.5C 119.959,76.5674 121.292,76.2341 122.5,75.5 Z"/></g>
<g><path style="opacity:1" fill="#ca46d9" d="M 53.5,91.5 C 46.7783,91.7104 40.1117,91.2104 33.5,90C 34.056,89.6174 34.3893,89.1174 34.5,88.5C 39.4534,86.0457 44.2867,83.379 49,80.5C 50.2613,80.7591 51.2613,81.4258 52,82.5C 52.9533,85.4318 53.4533,88.4318 53.5,91.5 Z"/></g>
<g><path style="opacity:0.495" fill="#be2292" d="M 126.5,55.5 C 128.117,56.5893 128.95,58.256 129,60.5C 129.907,70.9352 129.24,81.2685 127,91.5C 124.454,95.2005 122.621,99.2005 121.5,103.5C 117.728,107.108 114.061,110.942 110.5,115C 104.996,118.251 99.6622,121.751 94.5,125.5C 77.0145,132.323 59.6811,131.99 42.5,124.5C 40.5635,123.046 38.8968,121.379 37.5,119.5C 48.9468,126.111 61.2801,128.777 74.5,127.5C 104.706,122.961 122.373,105.627 127.5,75.5C 127.5,72.1667 127.5,68.8333 127.5,65.5C 127.658,62.0977 127.324,58.7644 126.5,55.5 Z"/></g>
<g><path style="opacity:1" fill="#4b229a" d="M 13.5,71.5 C 14.7079,72.2341 16.0413,72.5674 17.5,72.5C 16.4484,78.2572 18.1151,82.9238 22.5,86.5C 23.8273,88.1816 25.4939,89.5149 27.5,90.5C 27.1667,90.5 26.8333,90.5 26.5,90.5C 24.5648,91.1495 22.5648,91.4828 20.5,91.5C 19.8333,91.5 19.1667,91.5 18.5,91.5C 17.8333,91.5 17.1667,91.5 16.5,91.5C 14.2224,85.1557 13.2224,78.489 13.5,71.5 Z"/></g>
<g><path style="opacity:1" fill="#8045bb" d="M 118.5,76.5 C 116.784,82.9353 113.784,88.602 109.5,93.5C 109.5,91.5 109.5,89.5 109.5,87.5C 110.602,82.3871 113.602,78.7204 118.5,76.5 Z"/></g>
<g><path style="opacity:1" fill="#5527a9" d="M 73.5,74.5 C 73.5,75.1667 73.8333,75.5 74.5,75.5C 75.5137,76.6737 76.847,77.3404 78.5,77.5C 78.6107,78.1174 78.944,78.6174 79.5,79C 83.8868,79.7062 88.2201,79.5396 92.5,78.5C 89.8333,81.1667 87.1667,83.8333 84.5,86.5C 82.3649,88.0709 80.0316,89.4043 77.5,90.5C 71.021,93.1198 64.3543,95.1198 57.5,96.5C 56.8333,96.1667 56.1667,95.8333 55.5,95.5C 55.0113,94.0048 54.3446,92.6715 53.5,91.5C 53.4533,88.4318 52.9533,85.4318 52,82.5C 51.2613,81.4258 50.2613,80.7591 49,80.5C 44.2867,83.379 39.4534,86.0457 34.5,88.5C 32.1667,89.1667 29.8333,89.8333 27.5,90.5C 25.4939,89.5149 23.8273,88.1816 22.5,86.5C 27.8142,88.0488 32.8142,87.2154 37.5,84C 38.8228,83.1841 39.4894,82.0174 39.5,80.5C 41.316,78.8816 42.6493,76.8816 43.5,74.5C 53.364,75.6587 63.364,75.6587 73.5,74.5 Z"/></g>
<g><path style="opacity:1" fill="#7639ce" d="M 51.5,56.5 C 50.3995,57.6049 49.7329,58.9382 49.5,60.5C 46.9346,64.8435 44.9346,69.5102 43.5,74.5C 42.6493,76.8816 41.316,78.8816 39.5,80.5C 37.0075,79.2264 34.3408,78.5597 31.5,78.5C 35.9355,75.6516 38.9355,71.6516 40.5,66.5C 42.2967,61.0336 45.9634,57.7002 51.5,56.5 Z"/></g>
<g><path style="opacity:1" fill="#6631c2" d="M 17.5,72.5 C 20.2446,73.7372 22.5779,75.5705 24.5,78C 26.8098,78.4966 29.1432,78.6633 31.5,78.5C 34.3408,78.5597 37.0075,79.2264 39.5,80.5C 39.4894,82.0174 38.8228,83.1841 37.5,84C 32.8142,87.2154 27.8142,88.0488 22.5,86.5C 18.1151,82.9238 16.4484,78.2572 17.5,72.5 Z"/></g>
<g><path style="opacity:1" fill="#70239c" d="M 123.5,66.5 C 123.5,69.5 123.5,72.5 123.5,75.5C 123.167,75.5 122.833,75.5 122.5,75.5C 121.292,76.2341 119.959,76.5674 118.5,76.5C 119.159,73.5448 119.492,70.5448 119.5,67.5C 120.959,67.5674 122.292,67.2341 123.5,66.5 Z"/></g>
<g><path style="opacity:1" fill="#391983" d="M 127.5,65.5 C 127.5,68.8333 127.5,72.1667 127.5,75.5C 126.167,75.5 124.833,75.5 123.5,75.5C 123.5,72.5 123.5,69.5 123.5,66.5C 124.708,65.7659 126.041,65.4326 127.5,65.5 Z"/></g>
<g><path style="opacity:1" fill="#975d9c" d="M 9.5,69.5 C 10.6049,70.6005 11.9382,71.2671 13.5,71.5C 13.2224,78.489 14.2224,85.1557 16.5,91.5C 17.5481,95.2644 18.8815,98.931 20.5,102.5C 13.0699,92.8768 9.40327,81.8768 9.5,69.5 Z"/></g>
<g><path style="opacity:1" fill="#3d1c8a" d="M 119.5,67.5 C 119.492,70.5448 119.159,73.5448 118.5,76.5C 113.602,78.7204 110.602,82.3871 109.5,87.5C 109.44,86.9569 109.107,86.6236 108.5,86.5C 102.937,90.4023 96.9367,93.4023 90.5,95.5C 91.5,94.1667 92.5,92.8333 93.5,91.5C 95.1638,89.3209 94.8305,87.4875 92.5,86C 89.7795,85.3985 87.1128,85.5651 84.5,86.5C 87.1667,83.8333 89.8333,81.1667 92.5,78.5C 95.1518,74.5181 98.1518,70.8514 101.5,67.5C 107.42,66.8133 113.42,66.8133 119.5,67.5 Z"/></g>
<g><path style="opacity:1" fill="#612db5" d="M 75.5,60.5 C 71.1434,64.6398 70.4767,69.3065 73.5,74.5C 63.364,75.6587 53.364,75.6587 43.5,74.5C 44.9346,69.5102 46.9346,64.8435 49.5,60.5C 58.3823,61.6355 67.049,61.6355 75.5,60.5 Z"/></g>
<g><path style="opacity:1" fill="#e34ae5" d="M 20.5,57.5 C 23.8324,59.17 26.8324,61.3367 29.5,64C 32.9231,65.9039 36.5898,66.7372 40.5,66.5C 38.9355,71.6516 35.9355,75.6516 31.5,78.5C 29.1432,78.6633 26.8098,78.4966 24.5,78C 22.5779,75.5705 20.2446,73.7372 17.5,72.5C 16.0413,72.5674 14.7079,72.2341 13.5,71.5C 13.1984,68.9407 13.5318,66.6074 14.5,64.5C 16.1436,65.3164 17.3103,66.6498 18,68.5C 18.6805,64.7795 19.5139,61.1128 20.5,57.5 Z"/></g>
<g><path style="opacity:1" fill="#d946de" d="M 94.5,49.5 C 95.1138,53.8203 93.7804,57.6536 90.5,61C 91.4506,61.7175 91.6172,62.5509 91,63.5C 88.4032,65.8176 85.9032,68.3176 83.5,71C 80.5622,72.8078 77.5622,74.3078 74.5,75.5C 73.8333,75.5 73.5,75.1667 73.5,74.5C 70.4767,69.3065 71.1434,64.6398 75.5,60.5C 81.0424,55.559 87.3757,51.8924 94.5,49.5 Z"/></g>
</svg>
