<?xml version="1.0" encoding="UTF-8"?>
<!DOCTYPE svg PUBLIC "-//W3C//DTD SVG 1.1//EN" "http://www.w3.org/Graphics/SVG/1.1/DTD/svg11.dtd">
<svg xmlns="http://www.w3.org/2000/svg" version="1.1" width="294px" height="294px" style="shape-rendering:geometricPrecision; text-rendering:geometricPrecision; image-rendering:optimizeQuality; fill-rule:evenodd; clip-rule:evenodd" xmlns:xlink="http://www.w3.org/1999/xlink">
<g><path style="opacity:0.972" fill="#0d0d0d" d="M 138.5,-0.5 C 144.167,-0.5 149.833,-0.5 155.5,-0.5C 165.803,0.663138 176.136,2.49647 186.5,5C 193.21,6.84169 199.544,9.34169 205.5,12.5C 261.138,44.0887 287.305,92.0887 284,156.5C 276.253,211.239 247.42,250.406 197.5,274C 143.643,294.3 93.9768,286.967 48.5,252C 39.5683,243.573 31.2349,234.74 23.5,225.5C 14.9531,213.398 8.78643,200.065 5,185.5C 2.16951,173.839 0.336178,162.172 -0.5,150.5C -0.5,148.167 -0.5,145.833 -0.5,143.5C 0.18464,132.872 1.68464,122.205 4,111.5C 5.97444,103.399 8.80778,95.7321 12.5,88.5C -8.26847,148.919 4.06487,201.419 49.5,246C 97.9932,284.32 150.327,290.32 206.5,264C 253.085,236.855 277.419,196.189 279.5,142C 276.853,80.0059 247.187,36.6726 190.5,12C 149.932,-1.74696 110.598,1.08638 72.5,20.5C 83.2397,13.52 94.9064,8.3533 107.5,5C 117.837,2.36147 128.17,0.528135 138.5,-0.5 Z"/></g>
<g><path style="opacity:0.999" fill="#151515" d="M 12.5,88.5 C 24.3431,58.6557 44.3431,35.989 72.5,20.5C 110.598,1.08638 149.932,-1.74696 190.5,12C 247.187,36.6726 276.853,80.0059 279.5,142C 277.419,196.189 253.085,236.855 206.5,264C 150.327,290.32 97.9932,284.32 49.5,246C 4.06487,201.419 -8.26847,148.919 12.5,88.5 Z"/></g>
<g><path style="opacity:1" fill="#1c1c1c" d="M 135.5,5.5 C 204.289,7.28915 249.789,40.6225 272,105.5C 285.004,165.165 267.837,213.998 220.5,252C 172.596,283.205 123.262,285.539 72.5,259C 29.5236,232.071 7.19024,193.071 5.5,142C 6.64644,95.0349 25.9798,57.7016 63.5,30C 85.3629,15.3239 109.363,7.15726 135.5,5.5 Z"/></g>
<g><path style="opacity:1" fill="#262626" d="M 132.5,8.5 C 186.071,7.86169 227.238,29.8617 256,74.5C 276.643,113.423 278.976,153.423 263,194.5C 235.746,249.558 191.246,276.058 129.5,274C 78.0134,267.689 41.18,241.189 19,194.5C -2.05338,137.568 8.44662,87.401 50.5,44C 73.9469,23.108 101.28,11.2746 132.5,8.5 Z"/></g>
<g><path style="opacity:0.934" fill="#010101" d="M 205.5,12.5 C 242.934,28.4358 269.1,55.4358 284,93.5C 288.456,105.989 291.622,118.656 293.5,131.5C 293.5,141.5 293.5,151.5 293.5,161.5C 285.62,217.76 255.954,257.927 204.5,282C 189.89,287.902 174.89,291.735 159.5,293.5C 151.167,293.5 142.833,293.5 134.5,293.5C 95.0306,288.848 61.8639,271.848 35,242.5C 30.5282,237.208 26.6948,231.541 23.5,225.5C 31.2349,234.74 39.5683,243.573 48.5,252C 93.9768,286.967 143.643,294.3 197.5,274C 247.42,250.406 276.253,211.239 284,156.5C 287.305,92.0887 261.138,44.0887 205.5,12.5 Z"/></g>
<g><path style="opacity:1" fill="#2e2e2e" d="M 136.5,13.5 C 193.751,14.8492 234.585,41.1825 259,92.5C 277.244,142.603 269.244,187.936 235,228.5C 193.337,268.954 145.17,279.121 90.5,259C 41.4027,235.366 15.736,196.2 13.5,141.5C 15.6866,88.8481 40.0199,50.3481 86.5,26C 102.594,18.9765 119.26,14.8099 136.5,13.5 Z"/></g>
<g><path style="opacity:1" fill="#343434" d="M 133.5,16.5 C 195.541,16.9148 237.708,45.9148 260,103.5C 274.329,157.165 260.829,202.332 219.5,239C 175.67,270.934 129.337,274.934 80.5,251C 27.3519,217.272 7.51855,169.438 21,107.5C 35.2359,63.5976 64.4026,34.7643 108.5,21C 116.898,19.0466 125.231,17.5466 133.5,16.5 Z"/></g>
<g><path style="opacity:1" fill="#3b3b3b" d="M 131.5,19.5 C 186.507,18.4045 226.674,42.0712 252,90.5C 271.807,139.989 264.474,184.989 230,225.5C 194.457,260.178 152.624,271.012 104.5,258C 56.3573,240.853 28.1906,207.019 20,156.5C 16.2551,103.488 36.7551,62.9876 81.5,35C 97.3242,26.6668 113.991,21.5001 131.5,19.5 Z"/></g>
<g><path style="opacity:1" fill="#414141" d="M 130.5,22.5 C 186.572,20.9388 226.739,45.2722 251,95.5C 267.352,138.981 261.686,179.315 234,216.5C 199.924,254.967 157.757,268.134 107.5,256C 53.7851,236.769 25.1184,198.602 21.5,141.5C 24.6006,89.6032 49.6006,52.7699 96.5,31C 107.656,26.8777 118.989,24.0444 130.5,22.5 Z"/></g>
<g><path style="opacity:1" fill="#474747" d="M 129.5,25.5 C 188.102,23.6969 228.602,49.6969 251,103.5C 265.484,154.084 253.317,196.917 214.5,232C 175.64,260.694 133.973,265.36 89.5,246C 36.8848,215.536 16.7182,170.37 29,110.5C 45.2439,61.6451 78.7439,33.3118 129.5,25.5 Z"/></g>
<g><path style="opacity:1" fill="#4d4d4d" d="M 128.5,28.5 C 183.226,26.0995 222.392,49.4328 246,98.5C 263.675,149.789 252.508,193.622 212.5,230C 180.854,253.728 145.854,260.395 107.5,250C 57.1223,231.444 30.4557,195.277 27.5,141.5C 29.5404,97.6794 49.2071,64.5128 86.5,42C 99.8749,35.1514 113.875,30.6514 128.5,28.5 Z"/></g>
<g><path style="opacity:1" fill="#545454" d="M 132.5,31.5 C 188.143,31.218 225.977,56.8846 246,108.5C 259.57,166.178 241.07,210.012 190.5,240C 138.974,261.696 94.1406,252.196 56,211.5C 28.2306,174.152 23.8973,134.152 43,91.5C 62.7139,56.3939 92.5472,36.3939 132.5,31.5 Z"/></g>
<g><path style="opacity:1" fill="#5d5c5e" d="M 131.5,34.5 C 182.052,33.1795 218.219,55.1795 240,100.5C 255.485,143.604 248.151,182.271 218,216.5C 187.02,245.62 150.853,254.787 109.5,244C 67.7496,229.249 42.9163,200.082 35,156.5C 30.8542,108.289 49.3542,71.7893 90.5,47C 103.584,40.4856 117.25,36.319 131.5,34.5 Z"/></g>
<g><path style="opacity:1" fill="#6b6a6e" d="M 240.5,135.5 C 234.499,95.0183 212.499,67.5183 174.5,53C 165.315,50.5293 155.981,49.0293 146.5,48.5C 141.5,48.5 136.5,48.5 131.5,48.5C 122.74,49.4391 114.406,51.7724 106.5,55.5C 98.0495,58.5556 90.3828,62.8889 83.5,68.5C 81.8333,69.8333 80.1667,71.1667 78.5,72.5C 75.5,74.8333 72.8333,77.5 70.5,80.5C 65.4382,86.2754 61.1049,92.6087 57.5,99.5C 50.6872,111.536 47.0205,124.536 46.5,138.5C 45.3773,140.688 45.3773,143.021 46.5,145.5C 45.7218,166.162 51.3885,184.829 63.5,201.5C 65.2733,204.06 67.2733,206.393 69.5,208.5C 69.3284,209.492 69.6618,210.158 70.5,210.5C 74.1938,214.86 78.1938,218.86 82.5,222.5C 58.6657,205.766 44.8323,182.766 41,153.5C 37.8616,111.949 53.3616,79.4486 87.5,56C 128.036,33.8894 167.036,36.2228 204.5,63C 227.058,81.9485 239.058,106.115 240.5,135.5 Z"/></g>
<g><path style="opacity:1" fill="#9d53f1" d="M 131.5,48.5 C 129.925,50.1137 129.259,52.1137 129.5,54.5C 131.099,54.2322 132.432,54.5655 133.5,55.5C 132.5,55.5 131.5,55.5 130.5,55.5C 126.511,55.1164 122.845,55.783 119.5,57.5C 115.863,58.2635 112.53,59.5968 109.5,61.5C 108.391,61.5569 107.391,61.8902 106.5,62.5C 105.244,60.2743 105.244,57.941 106.5,55.5C 114.406,51.7724 122.74,49.4391 131.5,48.5 Z"/></g>
<g><path style="opacity:1" fill="#c772f4" d="M 130.5,55.5 C 131.5,55.5 132.5,55.5 133.5,55.5C 138.716,56.5483 141.049,59.715 140.5,65C 140.025,72.7706 137.359,79.604 132.5,85.5C 131.878,75.4963 131.211,65.4963 130.5,55.5 Z"/></g>
<g><path style="opacity:1" fill="#8101f1" d="M 147.5,50.5 C 153.751,53.7454 157.751,58.7454 159.5,65.5C 159.662,67.5273 159.495,69.5273 159,71.5C 155.142,64.4458 151.309,57.4458 147.5,50.5 Z"/></g>
<g><path style="opacity:1" fill="#c689f4" d="M 130.5,55.5 C 131.211,65.4963 131.878,75.4963 132.5,85.5C 131.079,88.0094 129.412,90.3428 127.5,92.5C 125.589,93.075 123.922,94.075 122.5,95.5C 121.762,82.7613 120.762,70.0946 119.5,57.5C 122.845,55.783 126.511,55.1164 130.5,55.5 Z"/></g>
<g><path style="opacity:1" fill="#c5a4f5" d="M 119.5,57.5 C 120.762,70.0946 121.762,82.7613 122.5,95.5C 119.634,97.4325 116.634,99.0991 113.5,100.5C 112.517,87.3686 111.184,74.3686 109.5,61.5C 112.53,59.5968 115.863,58.2635 119.5,57.5 Z"/></g>
<g><path style="opacity:1" fill="#9672f4" d="M 106.5,55.5 C 105.244,57.941 105.244,60.2743 106.5,62.5C 103.991,63.9213 101.657,65.5879 99.5,67.5C 94.0126,70.0788 89.0126,73.4121 84.5,77.5C 83.5233,74.7131 83.19,71.7131 83.5,68.5C 90.3828,62.8889 98.0495,58.5556 106.5,55.5 Z"/></g>
<g><path style="opacity:1" fill="#a62ff2" d="M 131.5,48.5 C 136.5,48.5 141.5,48.5 146.5,48.5C 146.328,49.4916 146.662,50.1583 147.5,50.5C 151.309,57.4458 155.142,64.4458 159,71.5C 159.495,69.5273 159.662,67.5273 159.5,65.5C 160.681,68.3623 160.681,71.3623 159.5,74.5C 158.695,76.9154 157.695,79.2487 156.5,81.5C 153.046,86.2936 148.713,89.9603 143.5,92.5C 141.181,92.9925 139.181,93.9925 137.5,95.5C 135.566,96.1103 133.899,97.1103 132.5,98.5C 130.668,99.2485 129.001,100.248 127.5,101.5C 126.449,98.6558 126.449,95.6558 127.5,92.5C 129.412,90.3428 131.079,88.0094 132.5,85.5C 137.359,79.604 140.025,72.7706 140.5,65C 141.049,59.715 138.716,56.5483 133.5,55.5C 132.432,54.5655 131.099,54.2322 129.5,54.5C 129.259,52.1137 129.925,50.1137 131.5,48.5 Z"/></g>
<g><path style="opacity:1" fill="#c854f3" d="M 146.5,58.5 C 149.48,58.2411 151.313,59.5744 152,62.5C 152.769,65.0991 152.602,67.5991 151.5,70C 148.702,70.5608 146.869,69.3941 146,66.5C 145.278,63.7395 145.445,61.0728 146.5,58.5 Z"/></g>
<g><path style="opacity:1" fill="#c4bbf5" d="M 109.5,61.5 C 111.184,74.3686 112.517,87.3686 113.5,100.5C 112.329,101.345 110.995,102.011 109.5,102.5C 107.254,103.455 104.921,104.122 102.5,104.5C 102.067,91.9728 101.067,79.6394 99.5,67.5C 101.657,65.5879 103.991,63.9213 106.5,62.5C 107.391,61.8902 108.391,61.5569 109.5,61.5 Z"/></g>
<g><path style="opacity:1" fill="#c1cdf6" d="M 99.5,67.5 C 101.067,79.6394 102.067,91.9728 102.5,104.5C 98.6841,105.51 95.8507,107.843 94,111.5C 90.6511,116.839 88.4844,122.506 87.5,128.5C 86.5318,126.393 86.1984,124.059 86.5,121.5C 85.6891,108.837 84.8558,96.1704 84,83.5C 83.79,81.9419 83.29,80.6085 82.5,79.5C 83.1667,78.8333 83.8333,78.1667 84.5,77.5C 89.0126,73.4121 94.0126,70.0788 99.5,67.5 Z"/></g>
<g><path style="opacity:1" fill="#909cf6" d="M 83.5,68.5 C 83.19,71.7131 83.5233,74.7131 84.5,77.5C 83.8333,78.1667 83.1667,78.8333 82.5,79.5C 81.1667,80.1667 80.1667,81.1667 79.5,82.5C 78.5206,79.3752 78.1872,76.0419 78.5,72.5C 80.1667,71.1667 81.8333,69.8333 83.5,68.5 Z"/></g>
<g><path style="opacity:1" fill="#c941f2" d="M 159.5,74.5 C 165.391,85.1644 169.725,96.4977 172.5,108.5C 172.5,108.833 172.5,109.167 172.5,109.5C 168.038,112.719 164.038,116.386 160.5,120.5C 159.692,107.308 158.359,94.3077 156.5,81.5C 157.695,79.2487 158.695,76.9154 159.5,74.5 Z"/></g>
<g><path style="opacity:1" fill="#8cbdf3" d="M 78.5,72.5 C 78.1872,76.0419 78.5206,79.3752 79.5,82.5C 77.5,85.1667 75.1667,87.5 72.5,89.5C 72.0104,86.3447 71.3438,83.3447 70.5,80.5C 72.8333,77.5 75.5,74.8333 78.5,72.5 Z"/></g>
<g><path style="opacity:1" fill="#bfddf7" d="M 82.5,79.5 C 83.29,80.6085 83.79,81.9419 84,83.5C 84.8558,96.1704 85.6891,108.837 86.5,121.5C 84.7324,119.492 83.0657,117.326 81.5,115C 78.3117,113.684 74.9783,113.184 71.5,113.5C 70.905,107.438 69.905,101.438 68.5,95.5C 70.2255,93.7721 71.5589,91.7721 72.5,89.5C 75.1667,87.5 77.5,85.1667 79.5,82.5C 80.1667,81.1667 81.1667,80.1667 82.5,79.5 Z"/></g>
<g><path style="opacity:1" fill="#b801f0" d="M 146.5,48.5 C 155.981,49.0293 165.315,50.5293 174.5,53C 212.499,67.5183 234.499,95.0183 240.5,135.5C 242.525,168.61 231.525,196.443 207.5,219C 205.595,220.421 203.595,221.588 201.5,222.5C 210.627,214.21 218.46,204.877 225,194.5C 229.307,186.56 232.474,178.227 234.5,169.5C 238.622,152.611 238.456,135.611 234,118.5C 232.684,113.027 230.518,108.027 227.5,103.5C 223.421,93.6828 217.588,85.0161 210,77.5C 213.727,83.9792 216.727,90.9792 219,98.5C 219.499,102.152 219.665,105.818 219.5,109.5C 208.797,127.367 193.797,140.367 174.5,148.5C 174.5,145.833 174.5,143.167 174.5,140.5C 175.791,140.737 176.791,140.404 177.5,139.5C 185.388,138.778 190.888,134.778 194,127.5C 193.968,121.491 193.468,115.491 192.5,109.5C 194.201,96.5416 194.701,83.5416 194,70.5C 192.198,62.5097 187.365,58.5097 179.5,58.5C 187.216,72.3389 187.382,86.3389 180,100.5C 178,103.666 175.5,106.332 172.5,108.5C 169.725,96.4977 165.391,85.1644 159.5,74.5C 160.681,71.3623 160.681,68.3623 159.5,65.5C 157.751,58.7454 153.751,53.7454 147.5,50.5C 146.662,50.1583 146.328,49.4916 146.5,48.5 Z"/></g>
<g><path style="opacity:1" fill="#c85af3" d="M 156.5,81.5 C 158.359,94.3077 159.692,107.308 160.5,120.5C 156.921,126.447 154.088,132.781 152,139.5C 151.051,141.093 149.885,142.426 148.5,143.5C 147.135,127.532 145.969,111.532 145,95.5C 144.768,94.2625 144.268,93.2625 143.5,92.5C 148.713,89.9603 153.046,86.2936 156.5,81.5 Z"/></g>
<g><path style="opacity:1" fill="#c76af4" d="M 143.5,92.5 C 144.268,93.2625 144.768,94.2625 145,95.5C 145.969,111.532 147.135,127.532 148.5,143.5C 147.109,145.89 145.109,147.557 142.5,148.5C 141.227,130.698 139.56,113.031 137.5,95.5C 139.181,93.9925 141.181,92.9925 143.5,92.5 Z"/></g>
<g><path style="opacity:1" fill="#86e0f7" d="M 70.5,80.5 C 71.3438,83.3447 72.0104,86.3447 72.5,89.5C 71.5589,91.7721 70.2255,93.7721 68.5,95.5C 65.2338,100.37 62.2338,105.37 59.5,110.5C 58.9736,106.688 58.3069,103.021 57.5,99.5C 61.1049,92.6087 65.4382,86.2754 70.5,80.5 Z"/></g>
<g><path style="opacity:1" fill="#c776f4" d="M 137.5,95.5 C 139.56,113.031 141.227,130.698 142.5,148.5C 140.853,150.326 138.853,151.66 136.5,152.5C 136.087,134.282 134.753,116.282 132.5,98.5C 133.899,97.1103 135.566,96.1103 137.5,95.5 Z"/></g>
<g><path style="opacity:1" fill="#7e00ef" d="M 177.5,139.5 C 176.235,138.486 175.569,136.986 175.5,135C 175.667,133.5 175.833,132 176,130.5C 181.078,127.759 184.244,123.593 185.5,118C 183.041,111.706 179.208,110.873 174,115.5C 173.187,113.564 172.687,111.564 172.5,109.5C 172.5,109.167 172.5,108.833 172.5,108.5C 175.5,106.332 178,103.666 180,100.5C 187.382,86.3389 187.216,72.3389 179.5,58.5C 187.365,58.5097 192.198,62.5097 194,70.5C 194.701,83.5416 194.201,96.5416 192.5,109.5C 193.468,115.491 193.968,121.491 194,127.5C 190.888,134.778 185.388,138.778 177.5,139.5 Z"/></g>
<g><path style="opacity:1" fill="#a156f4" d="M 127.5,92.5 C 126.449,95.6558 126.449,98.6558 127.5,101.5C 125.445,103.555 123.779,105.888 122.5,108.5C 121.686,114.771 121.519,121.105 122,127.5C 120.975,129.687 119.475,131.354 117.5,132.5C 115.214,132.595 113.214,133.262 111.5,134.5C 111.167,134.5 110.833,134.5 110.5,134.5C 108.155,132.643 107.822,130.31 109.5,127.5C 114.921,124.315 116.754,119.649 115,113.5C 114.329,112.748 113.496,112.414 112.5,112.5C 111.432,111.566 110.099,111.232 108.5,111.5C 108.264,108.391 108.597,105.391 109.5,102.5C 110.995,102.011 112.329,101.345 113.5,100.5C 116.634,99.0991 119.634,97.4325 122.5,95.5C 123.922,94.075 125.589,93.075 127.5,92.5 Z"/></g>
<g><path style="opacity:1" fill="#b8eff8" d="M 68.5,95.5 C 69.905,101.438 70.905,107.438 71.5,113.5C 67.3954,116.27 64.3954,119.937 62.5,124.5C 59.9097,120.262 58.9097,115.595 59.5,110.5C 62.2338,105.37 65.2338,100.37 68.5,95.5 Z"/></g>
<g><path style="opacity:1" fill="#c68af4" d="M 132.5,98.5 C 134.753,116.282 136.087,134.282 136.5,152.5C 133.417,153.993 130.083,154.993 126.5,155.5C 125.69,139.642 124.357,123.975 122.5,108.5C 123.779,105.888 125.445,103.555 127.5,101.5C 129.001,100.248 130.668,99.2485 132.5,98.5 Z"/></g>
<g><path style="opacity:1" fill="#996ff6" d="M 109.5,102.5 C 108.597,105.391 108.264,108.391 108.5,111.5C 110.099,111.232 111.432,111.566 112.5,112.5C 104.297,113.546 100.797,118.213 102,126.5C 104.194,128.837 106.694,129.17 109.5,127.5C 107.822,130.31 108.155,132.643 110.5,134.5C 105.084,140.253 99.0841,145.253 92.5,149.5C 91.8333,149.5 91.1667,149.5 90.5,149.5C 88.5864,146.316 87.9197,142.649 88.5,138.5C 92.7471,138.882 95.4138,137.049 96.5,133C 93.7617,129.914 90.7617,129.747 87.5,132.5C 87.5,131.167 87.5,129.833 87.5,128.5C 88.4844,122.506 90.6511,116.839 94,111.5C 95.8507,107.843 98.6841,105.51 102.5,104.5C 104.921,104.122 107.254,103.455 109.5,102.5 Z"/></g>
<g><path style="opacity:1" fill="#fefefe" d="M 71.5,113.5 C 74.9783,113.184 78.3117,113.684 81.5,115C 83.0657,117.326 84.7324,119.492 86.5,121.5C 86.1984,124.059 86.5318,126.393 87.5,128.5C 87.5,129.833 87.5,131.167 87.5,132.5C 87.634,134.292 87.3007,135.958 86.5,137.5C 85.9232,141.983 84.2565,145.983 81.5,149.5C 80.1667,150.167 79.1667,151.167 78.5,152.5C 69.9953,155.162 64.4953,152.162 62,143.5C 61.501,139.179 61.3343,134.846 61.5,130.5C 61.8333,128.5 62.1667,126.5 62.5,124.5C 64.3954,119.937 67.3954,116.27 71.5,113.5 Z"/></g>
<g><path style="opacity:1" fill="#c3b9f5" d="M 112.5,112.5 C 113.496,112.414 114.329,112.748 115,113.5C 116.754,119.649 114.921,124.315 109.5,127.5C 106.694,129.17 104.194,128.837 102,126.5C 100.797,118.213 104.297,113.546 112.5,112.5 Z"/></g>
<g><path style="opacity:1" fill="#b225f2" d="M 172.5,109.5 C 172.687,111.564 173.187,113.564 174,115.5C 179.208,110.873 183.041,111.706 185.5,118C 184.244,123.593 181.078,127.759 176,130.5C 175.833,132 175.667,133.5 175.5,135C 175.569,136.986 176.235,138.486 177.5,139.5C 176.791,140.404 175.791,140.737 174.5,140.5C 164.007,142.573 155.674,147.906 149.5,156.5C 139.896,157.954 130.23,158.621 120.5,158.5C 122.033,156.755 124.033,155.755 126.5,155.5C 130.083,154.993 133.417,153.993 136.5,152.5C 138.853,151.66 140.853,150.326 142.5,148.5C 145.109,147.557 147.109,145.89 148.5,143.5C 149.885,142.426 151.051,141.093 152,139.5C 154.088,132.781 156.921,126.447 160.5,120.5C 164.038,116.386 168.038,112.719 172.5,109.5 Z"/></g>
<g><path style="opacity:1" fill="#84f3f8" d="M 57.5,99.5 C 58.3069,103.021 58.9736,106.688 59.5,110.5C 58.9097,115.595 59.9097,120.262 62.5,124.5C 62.1667,126.5 61.8333,128.5 61.5,130.5C 59.85,127.175 57.1834,125.675 53.5,126C 52.1235,128.54 52.7902,130.54 55.5,132C 57.1124,132.72 58.6124,132.554 60,131.5C 60.6667,133.5 60.6667,135.5 60,137.5C 55.4054,140.736 50.9054,141.069 46.5,138.5C 47.0205,124.536 50.6872,111.536 57.5,99.5 Z"/></g>
<g><path style="opacity:1" fill="#c59df5" d="M 122.5,108.5 C 124.357,123.975 125.69,139.642 126.5,155.5C 124.033,155.755 122.033,156.755 120.5,158.5C 120.167,158.5 119.833,158.5 119.5,158.5C 118.525,149.88 117.858,141.214 117.5,132.5C 119.475,131.354 120.975,129.687 122,127.5C 121.519,121.105 121.686,114.771 122.5,108.5 Z"/></g>
<g><path style="opacity:1" fill="#7700e2" d="M 227.5,103.5 C 230.518,108.027 232.684,113.027 234,118.5C 238.456,135.611 238.622,152.611 234.5,169.5C 231.648,176.526 227.314,182.526 221.5,187.5C 219.008,179.357 216.341,171.357 213.5,163.5C 212.341,154.867 211.841,146.2 212,137.5C 214.167,131.333 218.333,127.167 224.5,125C 228.989,121.529 230.822,117.029 230,111.5C 228.293,109.091 227.46,106.425 227.5,103.5 Z"/></g>
<g><path style="opacity:1" fill="#beccf7" d="M 88.5,138.5 C 88.1583,137.662 87.4916,137.328 86.5,137.5C 87.3007,135.958 87.634,134.292 87.5,132.5C 90.7617,129.747 93.7617,129.914 96.5,133C 95.4138,137.049 92.7471,138.882 88.5,138.5 Z"/></g>
<g><path style="opacity:1" fill="#c4aff5" d="M 117.5,132.5 C 117.858,141.214 118.525,149.88 119.5,158.5C 119.167,158.5 118.833,158.5 118.5,158.5C 117.167,158.5 115.833,158.5 114.5,158.5C 113.94,150.325 112.94,142.325 111.5,134.5C 113.214,133.262 115.214,132.595 117.5,132.5 Z"/></g>
<g><path style="opacity:1" fill="#7d04e5" d="M 219.5,109.5 C 219.558,115.268 218.058,120.601 215,125.5C 208.292,130.541 202.625,136.541 198,143.5C 197.051,149.53 196.051,155.53 195,161.5C 193.314,163.919 190.981,164.919 188,164.5C 183.318,163.942 178.652,163.275 174,162.5C 172.833,162.833 171.667,163.167 170.5,163.5C 170.006,165.026 169.339,166.359 168.5,167.5C 167.373,166.878 166.373,166.045 165.5,165C 164.167,164.333 162.833,164.333 161.5,165C 156.551,170.111 155.384,175.944 158,182.5C 158.718,183.451 159.551,183.617 160.5,183C 163.319,178.519 165.986,174.019 168.5,169.5C 169.007,174.121 168.174,178.454 166,182.5C 163.757,183.971 161.257,184.971 158.5,185.5C 156.815,187.571 155.148,189.571 153.5,191.5C 152.483,184.195 152.317,176.861 153,169.5C 156.285,161.274 162.119,158.608 170.5,161.5C 172.128,157.655 173.128,153.655 173.5,149.5C 174.167,149.5 174.5,149.167 174.5,148.5C 193.797,140.367 208.797,127.367 219.5,109.5 Z"/></g>
<g><path style="opacity:1" fill="#c3bff6" d="M 110.5,134.5 C 110.833,134.5 111.167,134.5 111.5,134.5C 112.94,142.325 113.94,150.325 114.5,158.5C 110.4,158.237 106.4,158.57 102.5,159.5C 103.725,152.433 101.392,150.433 95.5,153.5C 94.8571,151.924 93.8571,150.59 92.5,149.5C 99.0841,145.253 105.084,140.253 110.5,134.5 Z"/></g>
<g><path style="opacity:1" fill="#b6f4f9" d="M 61.5,130.5 C 61.3343,134.846 61.501,139.179 62,143.5C 64.4953,152.162 69.9953,155.162 78.5,152.5C 79.388,155.054 79.7214,157.721 79.5,160.5C 77.2986,161.566 74.9653,162.233 72.5,162.5C 69.4262,163.302 66.4262,164.302 63.5,165.5C 56.8946,159.617 51.2279,152.95 46.5,145.5C 45.3773,143.021 45.3773,140.688 46.5,138.5C 50.9054,141.069 55.4054,140.736 60,137.5C 60.6667,135.5 60.6667,133.5 60,131.5C 58.6124,132.554 57.1124,132.72 55.5,132C 52.7902,130.54 52.1235,128.54 53.5,126C 57.1834,125.675 59.85,127.175 61.5,130.5 Z"/></g>
<g><path style="opacity:1" fill="#9495f7" d="M 86.5,137.5 C 87.4916,137.328 88.1583,137.662 88.5,138.5C 87.9197,142.649 88.5864,146.316 90.5,149.5C 87.5,150.833 84.5,150.833 81.5,149.5C 84.2565,145.983 85.9232,141.983 86.5,137.5 Z"/></g>
<g><path style="opacity:1" fill="#7ff2f5" d="M 46.5,145.5 C 51.2279,152.95 56.8946,159.617 63.5,165.5C 62.3483,170.985 62.1816,176.651 63,182.5C 67.3066,186.701 68.4733,191.701 66.5,197.5C 65.914,197.291 65.414,196.957 65,196.5C 64.8019,198.382 64.3019,200.048 63.5,201.5C 51.3885,184.829 45.7218,166.162 46.5,145.5 Z"/></g>
<g><path style="opacity:1" fill="#c84bf3" d="M 174.5,140.5 C 174.5,143.167 174.5,145.833 174.5,148.5C 174.5,149.167 174.167,149.5 173.5,149.5C 165.692,152.452 157.692,154.786 149.5,156.5C 155.674,147.906 164.007,142.573 174.5,140.5 Z"/></g>
<g><path style="opacity:1" fill="#c0d7f7" d="M 81.5,149.5 C 84.5,150.833 87.5,150.833 90.5,149.5C 91.1667,149.5 91.8333,149.5 92.5,149.5C 93.8571,150.59 94.8571,151.924 95.5,153.5C 94.6373,155.421 93.9707,157.421 93.5,159.5C 90.1194,159.46 86.7861,159.793 83.5,160.5C 82.1667,160.5 80.8333,160.5 79.5,160.5C 79.7214,157.721 79.388,155.054 78.5,152.5C 79.1667,151.167 80.1667,150.167 81.5,149.5 Z"/></g>
<g><path style="opacity:1" fill="#fbfcfe" d="M 102.5,159.5 C 102.308,163.102 100.974,166.102 98.5,168.5C 97.1779,168.67 96.0113,168.337 95,167.5C 93.7475,164.986 93.2475,162.32 93.5,159.5C 93.9707,157.421 94.6373,155.421 95.5,153.5C 101.392,150.433 103.725,152.433 102.5,159.5 Z"/></g>
<g><path style="opacity:1" fill="#6e33ea" d="M 149.5,156.5 C 147.5,160.833 145.5,165.167 143.5,169.5C 139.588,173.395 134.922,176.062 129.5,177.5C 121.868,178.358 114.201,178.691 106.5,178.5C 106.5,175.167 106.5,171.833 106.5,168.5C 111.401,166.267 115.401,162.934 118.5,158.5C 118.833,158.5 119.167,158.5 119.5,158.5C 119.833,158.5 120.167,158.5 120.5,158.5C 130.23,158.621 139.896,157.954 149.5,156.5 Z"/></g>
<g><path style="opacity:1" fill="#903ee8" d="M 173.5,149.5 C 173.128,153.655 172.128,157.655 170.5,161.5C 162.119,158.608 156.285,161.274 153,169.5C 152.317,176.861 152.483,184.195 153.5,191.5C 153.855,202.352 148.522,207.352 137.5,206.5C 140.144,204.031 142.977,201.698 146,199.5C 146.244,190.16 145.911,180.826 145,171.5C 144.722,170.584 144.222,169.918 143.5,169.5C 145.5,165.167 147.5,160.833 149.5,156.5C 157.692,154.786 165.692,152.452 173.5,149.5 Z"/></g>
<g><path style="opacity:1" fill="#83b0ef" d="M 93.5,159.5 C 93.2475,162.32 93.7475,164.986 95,167.5C 96.0113,168.337 97.1779,168.67 98.5,168.5C 97.0998,169.1 96.0998,170.1 95.5,171.5C 92.2356,172.324 88.9023,172.658 85.5,172.5C 83.2646,172.795 81.2646,172.461 79.5,171.5C 81.1992,171.66 82.8659,171.494 84.5,171C 83.5442,167.606 83.2108,164.106 83.5,160.5C 86.7861,159.793 90.1194,159.46 93.5,159.5 Z"/></g>
<g><path style="opacity:1" fill="#79c5f1" d="M 79.5,160.5 C 80.8333,160.5 82.1667,160.5 83.5,160.5C 83.2108,164.106 83.5442,167.606 84.5,171C 82.8659,171.494 81.1992,171.66 79.5,171.5C 76.4331,171.121 75.4331,172.121 76.5,174.5C 74.1667,174.5 71.8333,174.5 69.5,174.5C 68.7691,172.401 68.7691,170.401 69.5,168.5C 70.7362,169.246 72.0695,169.579 73.5,169.5C 73.552,167.097 73.2186,164.764 72.5,162.5C 74.9653,162.233 77.2986,161.566 79.5,160.5 Z"/></g>
<g><path style="opacity:1" fill="#8969eb" d="M 122.5,161.5 C 124.635,161.147 125.968,161.98 126.5,164C 125.714,165.988 124.214,167.154 122,167.5C 120.72,167.387 119.887,166.72 119.5,165.5C 120.524,164.148 121.524,162.815 122.5,161.5 Z"/></g>
<g><path style="opacity:1" fill="#9234e8" d="M 168.5,167.5 C 168.5,168.167 168.5,168.833 168.5,169.5C 165.986,174.019 163.319,178.519 160.5,183C 159.551,183.617 158.718,183.451 158,182.5C 155.384,175.944 156.551,170.111 161.5,165C 162.833,164.333 164.167,164.333 165.5,165C 166.373,166.045 167.373,166.878 168.5,167.5 Z"/></g>
<g><path style="opacity:1" fill="#6fd0f2" d="M 72.5,162.5 C 73.2186,164.764 73.552,167.097 73.5,169.5C 72.0695,169.579 70.7362,169.246 69.5,168.5C 68.7691,170.401 68.7691,172.401 69.5,174.5C 71.8333,174.5 74.1667,174.5 76.5,174.5C 83.1493,175.293 85.4827,178.793 83.5,185C 80.7536,186.75 77.7536,187.75 74.5,188C 75.0659,188.995 75.7326,189.828 76.5,190.5C 77.5676,191.434 78.901,191.768 80.5,191.5C 80.6123,198.18 80.9457,204.847 81.5,211.5C 79.2459,210.585 77.2459,209.252 75.5,207.5C 71.5922,200.812 69.5922,201.145 69.5,208.5C 67.2733,206.393 65.2733,204.06 63.5,201.5C 64.3019,200.048 64.8019,198.382 65,196.5C 65.414,196.957 65.914,197.291 66.5,197.5C 68.4733,191.701 67.3066,186.701 63,182.5C 62.1816,176.651 62.3483,170.985 63.5,165.5C 66.4262,164.302 69.4262,163.302 72.5,162.5 Z"/></g>
<g><path style="opacity:1" fill="#8a8fee" d="M 114.5,158.5 C 115.833,158.5 117.167,158.5 118.5,158.5C 115.401,162.934 111.401,166.267 106.5,168.5C 102.981,169.964 99.3139,170.964 95.5,171.5C 96.0998,170.1 97.0998,169.1 98.5,168.5C 100.974,166.102 102.308,163.102 102.5,159.5C 106.4,158.57 110.4,158.237 114.5,158.5 Z"/></g>
<g><path style="opacity:1" fill="#6554ee" d="M 106.5,168.5 C 106.5,171.833 106.5,175.167 106.5,178.5C 106.5,178.833 106.5,179.167 106.5,179.5C 104.901,179.232 103.568,179.566 102.5,180.5C 98.7029,180.872 95.3695,182.206 92.5,184.5C 90.6316,185.263 88.9649,186.263 87.5,187.5C 87.1667,187.5 86.8333,187.5 86.5,187.5C 85.5128,182.695 85.1795,177.695 85.5,172.5C 88.9023,172.658 92.2356,172.324 95.5,171.5C 99.3139,170.964 102.981,169.964 106.5,168.5 Z"/></g>
<g><path style="opacity:1" fill="#6182f0" d="M 79.5,171.5 C 81.2646,172.461 83.2646,172.795 85.5,172.5C 85.1795,177.695 85.5128,182.695 86.5,187.5C 83.7118,189.976 80.3785,190.976 76.5,190.5C 75.7326,189.828 75.0659,188.995 74.5,188C 77.7536,187.75 80.7536,186.75 83.5,185C 85.4827,178.793 83.1493,175.293 76.5,174.5C 75.4331,172.121 76.4331,171.121 79.5,171.5 Z"/></g>
<g><path style="opacity:1" fill="#8e55ea" d="M 143.5,169.5 C 144.222,169.918 144.722,170.584 145,171.5C 145.911,180.826 146.244,190.16 146,199.5C 142.977,201.698 140.144,204.031 137.5,206.5C 137.167,206.5 136.833,206.5 136.5,206.5C 133.287,206.81 130.287,206.477 127.5,205.5C 128.5,205.5 129.5,205.5 130.5,205.5C 130.255,196.163 129.922,186.829 129.5,177.5C 134.922,176.062 139.588,173.395 143.5,169.5 Z"/></g>
<g><path style="opacity:1" fill="#8404e5" d="M 213.5,163.5 C 216.341,171.357 219.008,179.357 221.5,187.5C 217.969,191.94 213.636,195.44 208.5,198C 203.711,199.363 199.044,201.029 194.5,203C 185.833,212.333 177.167,221.667 168.5,231C 165.714,233.06 162.714,234.56 159.5,235.5C 158.809,226.607 157.475,217.94 155.5,209.5C 156.752,205.498 159.419,202.998 163.5,202C 168.869,201.838 174.202,202.338 179.5,203.5C 188.568,204.002 191.068,200.335 187,192.5C 183.667,189.167 180.333,185.833 177,182.5C 176.205,179.617 177.371,178.117 180.5,178C 186.5,177.667 192.5,177.333 198.5,177C 206.237,175.424 211.237,170.924 213.5,163.5 Z"/></g>
<g><path style="opacity:1" fill="#8886ed" d="M 106.5,179.5 C 109.5,179.5 112.5,179.5 115.5,179.5C 115.612,187.844 115.945,196.178 116.5,204.5C 114.097,204.448 111.764,204.781 109.5,205.5C 107.716,205.893 106.05,206.559 104.5,207.5C 103.394,198.585 102.728,189.585 102.5,180.5C 103.568,179.566 104.901,179.232 106.5,179.5 Z"/></g>
<g><path style="opacity:1" fill="#8a71eb" d="M 129.5,177.5 C 129.922,186.829 130.255,196.163 130.5,205.5C 129.5,205.5 128.5,205.5 127.5,205.5C 123.881,204.756 120.215,204.423 116.5,204.5C 115.945,196.178 115.612,187.844 115.5,179.5C 112.5,179.5 109.5,179.5 106.5,179.5C 106.5,179.167 106.5,178.833 106.5,178.5C 114.201,178.691 121.868,178.358 129.5,177.5 Z"/></g>
<g><path style="opacity:1" fill="#849dee" d="M 102.5,180.5 C 102.728,189.585 103.394,198.585 104.5,207.5C 101.833,209.167 99.1667,210.833 96.5,212.5C 96.0225,204.837 95.5225,197.17 95,189.5C 94.9504,187.256 94.1171,185.589 92.5,184.5C 95.3695,182.206 98.7029,180.872 102.5,180.5 Z"/></g>
<g><path style="opacity:1" fill="#81aeef" d="M 92.5,184.5 C 94.1171,185.589 94.9504,187.256 95,189.5C 95.5225,197.17 96.0225,204.837 96.5,212.5C 94.3549,213.989 92.0215,214.989 89.5,215.5C 89.0541,206.144 88.3874,196.81 87.5,187.5C 88.9649,186.263 90.6316,185.263 92.5,184.5 Z"/></g>
<g><path style="opacity:1" fill="#7fbdf0" d="M 86.5,187.5 C 86.8333,187.5 87.1667,187.5 87.5,187.5C 88.3874,196.81 89.0541,206.144 89.5,215.5C 87.7085,215.634 86.0418,215.301 84.5,214.5C 83.3065,213.728 82.3065,212.728 81.5,211.5C 80.9457,204.847 80.6123,198.18 80.5,191.5C 78.901,191.768 77.5676,191.434 76.5,190.5C 80.3785,190.976 83.7118,189.976 86.5,187.5 Z"/></g>
<g><path style="opacity:1" fill="#6601e3" d="M 234.5,169.5 C 232.474,178.227 229.307,186.56 225,194.5C 218.46,204.877 210.627,214.21 201.5,222.5C 191.279,230.944 179.613,236.777 166.5,240C 152.645,244.084 138.645,244.584 124.5,241.5C 125.209,240.596 126.209,240.263 127.5,240.5C 133.857,240.524 140.19,240.19 146.5,239.5C 151.073,238.612 155.406,237.279 159.5,235.5C 162.714,234.56 165.714,233.06 168.5,231C 177.167,221.667 185.833,212.333 194.5,203C 199.044,201.029 203.711,199.363 208.5,198C 213.636,195.44 217.969,191.94 221.5,187.5C 227.314,182.526 231.648,176.526 234.5,169.5 Z"/></g>
<g><path style="opacity:1" fill="#56abf0" d="M 75.5,207.5 C 74.5655,208.568 74.2322,209.901 74.5,211.5C 73.1667,211.167 71.8333,210.833 70.5,210.5C 69.6618,210.158 69.3284,209.492 69.5,208.5C 69.5922,201.145 71.5922,200.812 75.5,207.5 Z"/></g>
<g><path style="opacity:1" fill="#5a01e5" d="M 227.5,103.5 C 227.46,106.425 228.293,109.091 230,111.5C 230.822,117.029 228.989,121.529 224.5,125C 218.333,127.167 214.167,131.333 212,137.5C 211.841,146.2 212.341,154.867 213.5,163.5C 211.237,170.924 206.237,175.424 198.5,177C 192.5,177.333 186.5,177.667 180.5,178C 177.371,178.117 176.205,179.617 177,182.5C 180.333,185.833 183.667,189.167 187,192.5C 191.068,200.335 188.568,204.002 179.5,203.5C 174.202,202.338 168.869,201.838 163.5,202C 159.419,202.998 156.752,205.498 155.5,209.5C 154.107,215.559 150.774,220.225 145.5,223.5C 142.622,225.105 139.622,226.439 136.5,227.5C 135.262,225.786 134.595,223.786 134.5,221.5C 136.582,220.415 136.916,218.915 135.5,217C 133.115,216.444 130.782,216.61 128.5,217.5C 127.782,215.863 127.616,214.197 128,212.5C 130.988,210.601 133.821,208.601 136.5,206.5C 136.833,206.5 137.167,206.5 137.5,206.5C 148.522,207.352 153.855,202.352 153.5,191.5C 155.148,189.571 156.815,187.571 158.5,185.5C 161.257,184.971 163.757,183.971 166,182.5C 168.174,178.454 169.007,174.121 168.5,169.5C 168.5,168.833 168.5,168.167 168.5,167.5C 169.339,166.359 170.006,165.026 170.5,163.5C 171.667,163.167 172.833,162.833 174,162.5C 178.652,163.275 183.318,163.942 188,164.5C 190.981,164.919 193.314,163.919 195,161.5C 196.051,155.53 197.051,149.53 198,143.5C 202.625,136.541 208.292,130.541 215,125.5C 218.058,120.601 219.558,115.268 219.5,109.5C 219.665,105.818 219.499,102.152 219,98.5C 216.727,90.9792 213.727,83.9792 210,77.5C 217.588,85.0161 223.421,93.6828 227.5,103.5 Z"/></g>
<g><path style="opacity:1" fill="#8928e8" d="M 155.5,209.5 C 157.475,217.94 158.809,226.607 159.5,235.5C 155.406,237.279 151.073,238.612 146.5,239.5C 147.336,234.046 147.003,228.712 145.5,223.5C 150.774,220.225 154.107,215.559 155.5,209.5 Z"/></g>
<g><path style="opacity:1" fill="#5d41ee" d="M 109.5,205.5 C 108.167,207.5 108.167,209.5 109.5,211.5C 108.508,211.328 107.842,211.662 107.5,212.5C 103.095,212.077 100.095,213.91 98.5,218C 99.1536,219.987 100.487,221.32 102.5,222C 104.81,222.497 107.143,222.663 109.5,222.5C 109.833,222.5 110.167,222.5 110.5,222.5C 104.398,222.703 103.065,225.369 106.5,230.5C 102.937,229.718 99.6035,228.384 96.5,226.5C 92.5,223.833 88.5,221.167 84.5,218.5C 84.0742,216.861 84.0742,215.528 84.5,214.5C 86.0418,215.301 87.7085,215.634 89.5,215.5C 92.0215,214.989 94.3549,213.989 96.5,212.5C 99.1667,210.833 101.833,209.167 104.5,207.5C 106.05,206.559 107.716,205.893 109.5,205.5 Z"/></g>
<g><path style="opacity:1" fill="#867eed" d="M 107.5,212.5 C 107.842,211.662 108.508,211.328 109.5,211.5C 113.747,211.404 116.747,213.238 118.5,217C 117.045,220.547 114.378,222.381 110.5,222.5C 110.167,222.5 109.833,222.5 109.5,222.5C 110.414,219.272 110.747,215.939 110.5,212.5C 109.5,212.5 108.5,212.5 107.5,212.5 Z"/></g>
<g><path style="opacity:1" fill="#8594ee" d="M 107.5,212.5 C 108.5,212.5 109.5,212.5 110.5,212.5C 110.747,215.939 110.414,219.272 109.5,222.5C 107.143,222.663 104.81,222.497 102.5,222C 100.487,221.32 99.1536,219.987 98.5,218C 100.095,213.91 103.095,212.077 107.5,212.5 Z"/></g>
<g><path style="opacity:1" fill="#6020ea" d="M 116.5,204.5 C 120.215,204.423 123.881,204.756 127.5,205.5C 130.287,206.477 133.287,206.81 136.5,206.5C 133.821,208.601 130.988,210.601 128,212.5C 127.616,214.197 127.782,215.863 128.5,217.5C 127.272,219.01 127.272,220.51 128.5,222C 130.545,222.49 132.545,222.323 134.5,221.5C 134.595,223.786 135.262,225.786 136.5,227.5C 133.167,228.833 129.833,230.167 126.5,231.5C 122.833,231.5 119.167,231.5 115.5,231.5C 112.43,231.632 109.43,231.299 106.5,230.5C 103.065,225.369 104.398,222.703 110.5,222.5C 114.378,222.381 117.045,220.547 118.5,217C 116.747,213.238 113.747,211.404 109.5,211.5C 108.167,209.5 108.167,207.5 109.5,205.5C 111.764,204.781 114.097,204.448 116.5,204.5 Z"/></g>
<g><path style="opacity:1" fill="#5982f0" d="M 75.5,207.5 C 77.2459,209.252 79.2459,210.585 81.5,211.5C 82.3065,212.728 83.3065,213.728 84.5,214.5C 84.0742,215.528 84.0742,216.861 84.5,218.5C 81.1292,216.154 77.7959,213.821 74.5,211.5C 74.2322,209.901 74.5655,208.568 75.5,207.5 Z"/></g>
<g><path style="opacity:1" fill="#8651ea" d="M 134.5,221.5 C 132.545,222.323 130.545,222.49 128.5,222C 127.272,220.51 127.272,219.01 128.5,217.5C 130.782,216.61 133.115,216.444 135.5,217C 136.916,218.915 136.582,220.415 134.5,221.5 Z"/></g>
<g><path style="opacity:1" fill="#7fb5eb" d="M 70.5,210.5 C 71.8333,210.833 73.1667,211.167 74.5,211.5C 77.7959,213.821 81.1292,216.154 84.5,218.5C 88.5,221.167 92.5,223.833 96.5,226.5C 95.7659,227.708 95.4326,229.041 95.5,230.5C 91.1667,227.833 86.8333,225.167 82.5,222.5C 78.1938,218.86 74.1938,214.86 70.5,210.5 Z"/></g>
<g><path style="opacity:1" fill="#884ae9" d="M 145.5,223.5 C 147.003,228.712 147.336,234.046 146.5,239.5C 140.19,240.19 133.857,240.524 127.5,240.5C 127.492,237.455 127.159,234.455 126.5,231.5C 129.833,230.167 133.167,228.833 136.5,227.5C 139.622,226.439 142.622,225.105 145.5,223.5 Z"/></g>
<g><path style="opacity:1" fill="#858ae9" d="M 96.5,226.5 C 99.6035,228.384 102.937,229.718 106.5,230.5C 109.43,231.299 112.43,231.632 115.5,231.5C 115.279,234.279 115.612,236.946 116.5,239.5C 109.117,237.306 102.117,234.306 95.5,230.5C 95.4326,229.041 95.7659,227.708 96.5,226.5 Z"/></g>
<g><path style="opacity:1" fill="#866bea" d="M 115.5,231.5 C 119.167,231.5 122.833,231.5 126.5,231.5C 127.159,234.455 127.492,237.455 127.5,240.5C 126.209,240.263 125.209,240.596 124.5,241.5C 121.833,240.833 119.167,240.167 116.5,239.5C 115.612,236.946 115.279,234.279 115.5,231.5 Z"/></g>
</svg>
