<?xml version="1.0" encoding="UTF-8"?>
<!DOCTYPE svg PUBLIC "-//W3C//DTD SVG 1.1//EN" "http://www.w3.org/Graphics/SVG/1.1/DTD/svg11.dtd">
<svg xmlns="http://www.w3.org/2000/svg" version="1.1" width="77px" height="54px" style="shape-rendering:geometricPrecision; text-rendering:geometricPrecision; image-rendering:optimizeQuality; fill-rule:evenodd; clip-rule:evenodd" xmlns:xlink="http://www.w3.org/1999/xlink">
<g><path style="opacity:0.302" fill="#ed4391" d="M 33.5,-0.5 C 37.5,-0.5 41.5,-0.5 45.5,-0.5C 49.5655,0.746048 53.2322,2.74605 56.5,5.5C 56.1667,5.5 55.8333,5.5 55.5,5.5C 51.9693,3.9622 48.3027,2.9622 44.5,2.5C 38.9845,1.34858 33.3178,1.34858 27.5,2.5C 29.3713,1.20278 31.3713,0.202776 33.5,-0.5 Z"/></g>
<g><path style="opacity:0.548" fill="#f06d55" d="M 44.5,2.5 C 48.3027,2.9622 51.9693,3.9622 55.5,5.5C 54.0697,6.53747 52.403,7.20414 50.5,7.5C 34.705,0.978626 23.5383,5.64529 17,21.5C 17.1449,18.4857 17.6449,15.4857 18.5,12.5C 25.3358,4.6619 34.0024,1.32857 44.5,2.5 Z"/></g>
<g><path style="opacity:0.353" fill="#ee5576" d="M 44.5,2.5 C 34.0024,1.32857 25.3358,4.6619 18.5,12.5C 20.7946,8.53841 23.7946,5.20507 27.5,2.5C 33.3178,1.34858 38.9845,1.34858 44.5,2.5 Z"/></g>
<g><path style="opacity:0.176" fill="#ed399f" d="M 27.5,2.5 C 23.7946,5.20507 20.7946,8.53841 18.5,12.5C 16.8828,14.1209 15.7162,16.1209 15,18.5C 14.5017,21.8168 14.335,25.1501 14.5,28.5C 14.1667,29.5 13.5,30.1667 12.5,30.5C 11.2697,17.6169 16.2697,8.28357 27.5,2.5 Z"/></g>
<g><path style="opacity:1" fill="#f2787c" d="M 50.5,7.5 C 50.8333,8.5 51.5,9.16667 52.5,9.5C 56.6783,12.0195 59.345,15.6861 60.5,20.5C 60.5,21.1667 60.1667,21.5 59.5,21.5C 56.4457,13.7821 50.779,9.44874 42.5,8.5C 37.0993,7.96637 32.0993,9.13304 27.5,12C 25.5359,13.451 24.2026,15.2843 23.5,17.5C 20.6402,21.6615 19.8068,26.3282 21,31.5C 22.0386,35.472 23.5386,39.1386 25.5,42.5C 23.9582,43.3007 22.2915,43.634 20.5,43.5C 18.3998,40.2071 17.0664,36.5404 16.5,32.5C 18.3606,28.9853 17.6939,27.652 14.5,28.5C 14.335,25.1501 14.5017,21.8168 15,18.5C 15.7162,16.1209 16.8828,14.1209 18.5,12.5C 17.6449,15.4857 17.1449,18.4857 17,21.5C 23.5383,5.64529 34.705,0.978626 50.5,7.5 Z"/></g>
<g><path style="opacity:0.294" fill="#ee4988" d="M 57.5,8.5 C 58.5,8.5 59.5,8.5 60.5,8.5C 61.5839,11.0041 62.9172,13.3374 64.5,15.5C 64.0679,16.7095 63.4013,17.7095 62.5,18.5C 61.3661,14.8988 59.6994,11.5655 57.5,8.5 Z"/></g>
<g><path style="opacity:1" fill="#fdbb77" d="M 48.5,18.5 C 47.5,18.5 46.5,18.5 45.5,18.5C 42.4453,19.0362 39.4453,19.8695 36.5,21C 33.1715,23.4954 30.1715,26.3287 27.5,29.5C 26.7132,28.7579 26.0465,27.9246 25.5,27C 26.3802,25.6439 26.7135,24.1439 26.5,22.5C 24.8212,22.7148 23.8212,22.0481 23.5,20.5C 26.4488,19.3859 28.6155,17.3859 30,14.5C 30.6667,15.1667 31.3333,15.8333 32,16.5C 38.1864,10.2058 44.0198,10.3725 49.5,17C 48.944,17.3826 48.6107,17.8826 48.5,18.5 Z"/></g>
<g><path style="opacity:1" fill="#fbb178" d="M 42.5,8.5 C 44.1462,10.7514 46.3129,12.418 49,13.5C 50.6945,15.2396 51.8611,17.2396 52.5,19.5C 51.1667,19.1667 49.8333,18.8333 48.5,18.5C 48.6107,17.8826 48.944,17.3826 49.5,17C 44.0198,10.3725 38.1864,10.2058 32,16.5C 31.3333,15.8333 30.6667,15.1667 30,14.5C 28.6155,17.3859 26.4488,19.3859 23.5,20.5C 23.5,19.5 23.5,18.5 23.5,17.5C 24.2026,15.2843 25.5359,13.451 27.5,12C 32.0993,9.13304 37.0993,7.96637 42.5,8.5 Z"/></g>
<g><path style="opacity:1" fill="#f39c6d" d="M 42.5,8.5 C 50.779,9.44874 56.4457,13.7821 59.5,21.5C 55.7465,25.5484 51.4131,28.8817 46.5,31.5C 49.0139,27.8056 51.0139,23.8056 52.5,19.5C 51.8611,17.2396 50.6945,15.2396 49,13.5C 46.3129,12.418 44.1462,10.7514 42.5,8.5 Z"/></g>
<g><path style="opacity:0.612" fill="#ef6f51" d="M 57.5,8.5 C 59.6994,11.5655 61.3661,14.8988 62.5,18.5C 62.1667,19.5 61.5,20.1667 60.5,20.5C 59.345,15.6861 56.6783,12.0195 52.5,9.5C 54.2915,9.63404 55.9582,9.30071 57.5,8.5 Z"/></g>
<g><path style="opacity:1" fill="#fba77c" d="M 23.5,17.5 C 23.5,18.5 23.5,19.5 23.5,20.5C 23.8212,22.0481 24.8212,22.7148 26.5,22.5C 26.7135,24.1439 26.3802,25.6439 25.5,27C 26.0465,27.9246 26.7132,28.7579 27.5,29.5C 30.1715,26.3287 33.1715,23.4954 36.5,21C 39.4453,19.8695 42.4453,19.0362 45.5,18.5C 45.3784,22.1473 43.7118,24.9806 40.5,27C 36.7158,28.9469 32.7158,30.2802 28.5,31C 27.6198,32.3561 27.2865,33.8561 27.5,35.5C 31.8814,35.6282 36.2147,35.2949 40.5,34.5C 38.6508,35.593 36.9842,36.9263 35.5,38.5C 33.1815,38.9925 31.1815,39.9925 29.5,41.5C 28.0413,41.4326 26.7079,41.7659 25.5,42.5C 23.5386,39.1386 22.0386,35.472 21,31.5C 19.8068,26.3282 20.6402,21.6615 23.5,17.5 Z"/></g>
<g><path style="opacity:1" fill="#fda986" d="M 45.5,18.5 C 46.5,18.5 47.5,18.5 48.5,18.5C 49.8333,18.8333 51.1667,19.1667 52.5,19.5C 51.0139,23.8056 49.0139,27.8056 46.5,31.5C 44.4832,32.5294 42.4832,33.5294 40.5,34.5C 36.2147,35.2949 31.8814,35.6282 27.5,35.5C 27.2865,33.8561 27.6198,32.3561 28.5,31C 32.7158,30.2802 36.7158,28.9469 40.5,27C 43.7118,24.9806 45.3784,22.1473 45.5,18.5 Z"/></g>
<g><path style="opacity:1" fill="#ee8b09" d="M 61.5,7.5 C 64.6248,6.52056 67.9581,6.18723 71.5,6.5C 71.4535,9.92779 70.2868,12.9278 68,15.5C 63.6046,20.0643 59.1046,24.3977 54.5,28.5C 54.0269,29.9063 53.0269,30.573 51.5,30.5C 46.4118,33.5712 41.0784,36.2378 35.5,38.5C 36.9842,36.9263 38.6508,35.593 40.5,34.5C 42.4832,33.5294 44.4832,32.5294 46.5,31.5C 51.4131,28.8817 55.7465,25.5484 59.5,21.5C 60.1667,21.5 60.5,21.1667 60.5,20.5C 61.5,20.1667 62.1667,19.5 62.5,18.5C 63.4013,17.7095 64.0679,16.7095 64.5,15.5C 70.3374,10.4951 69.3374,7.8284 61.5,7.5 Z"/></g>
<g><path style="opacity:1" fill="#f3a306" d="M 76.5,4.5 C 76.5,5.83333 76.5,7.16667 76.5,8.5C 73.2383,13.1017 69.5717,17.435 65.5,21.5C 64.8333,21.5 64.5,21.8333 64.5,22.5C 62.9731,22.427 61.9731,23.0937 61.5,24.5C 60.8333,24.8333 60.1667,25.1667 59.5,25.5C 58.1667,26.5 56.8333,27.5 55.5,28.5C 55.1667,28.5 54.8333,28.5 54.5,28.5C 59.1046,24.3977 63.6046,20.0643 68,15.5C 70.2868,12.9278 71.4535,9.92779 71.5,6.5C 67.9581,6.18723 64.6248,6.52056 61.5,7.5C 61.5,8.16667 61.1667,8.5 60.5,8.5C 59.5,8.5 58.5,8.5 57.5,8.5C 55.9582,9.30071 54.2915,9.63404 52.5,9.5C 51.5,9.16667 50.8333,8.5 50.5,7.5C 52.403,7.20414 54.0697,6.53747 55.5,5.5C 55.8333,5.5 56.1667,5.5 56.5,5.5C 63.1331,2.13485 69.7998,1.80152 76.5,4.5 Z"/></g>
<g><path style="opacity:1" fill="#f49f69" d="M 54.5,28.5 C 54.8333,28.5 55.1667,28.5 55.5,28.5C 53.6939,35.9791 49.0272,40.9791 41.5,43.5C 39.484,42.8224 37.484,42.1557 35.5,41.5C 41.181,38.3272 46.5144,34.6605 51.5,30.5C 53.0269,30.573 54.0269,29.9063 54.5,28.5 Z"/></g>
<g><path style="opacity:0.243" fill="#ed4491" d="M 16.5,32.5 C 17.0664,36.5404 18.3998,40.2071 20.5,43.5C 20.5,44.1667 20.1667,44.5 19.5,44.5C 16.7758,41.7183 15.1092,38.385 14.5,34.5C 14.8333,33.5 15.5,32.8333 16.5,32.5 Z"/></g>
<g><path style="opacity:1" fill="#ee8a02" d="M 16.5,32.5 C 15.5,32.8333 14.8333,33.5 14.5,34.5C 3.87619,43.9191 5.54285,47.2524 19.5,44.5C 20.1667,44.5 20.5,44.1667 20.5,43.5C 22.2915,43.634 23.9582,43.3007 25.5,42.5C 26.7079,41.7659 28.0413,41.4326 29.5,41.5C 23.0331,46.4501 15.6998,48.2835 7.5,47C 5.63681,45.5822 5.13681,43.7489 6,41.5C 7.4578,39.04 9.29113,36.8734 11.5,35C 10.2312,35.1085 9.23116,34.9418 8.5,34.5C 9.83333,33.1667 11.1667,31.8333 12.5,30.5C 13.5,30.1667 14.1667,29.5 14.5,28.5C 17.6939,27.652 18.3606,28.9853 16.5,32.5 Z"/></g>
<g><path style="opacity:0.584" fill="#ef685d" d="M 64.5,22.5 C 65.3411,39.5135 57.3411,48.8468 40.5,50.5C 34.7391,50.5516 29.4057,49.2183 24.5,46.5C 25.2905,45.5987 26.2905,44.9321 27.5,44.5C 40.2631,51.647 50.7631,48.9803 59,36.5C 60.772,32.687 61.6053,28.687 61.5,24.5C 61.9731,23.0937 62.9731,22.427 64.5,22.5 Z"/></g>
<g><path style="opacity:0.732" fill="#f2a205" d="M 51.5,30.5 C 46.5144,34.6605 41.181,38.3272 35.5,41.5C 33.1815,41.9925 31.1815,42.9925 29.5,44.5C 28.8333,44.5 28.1667,44.5 27.5,44.5C 26.2905,44.9321 25.2905,45.5987 24.5,46.5C 23.5084,46.3284 22.8417,46.6618 22.5,47.5C 16.096,50.2689 9.42935,51.4356 2.5,51C 1.30943,50.3021 0.309426,49.4687 -0.5,48.5C -0.5,47.5 -0.5,46.5 -0.5,45.5C 2.1218,41.5428 5.1218,37.8761 8.5,34.5C 9.23116,34.9418 10.2312,35.1085 11.5,35C 9.29113,36.8734 7.4578,39.04 6,41.5C 5.13681,43.7489 5.63681,45.5822 7.5,47C 15.6998,48.2835 23.0331,46.4501 29.5,41.5C 31.1815,39.9925 33.1815,38.9925 35.5,38.5C 41.0784,36.2378 46.4118,33.5712 51.5,30.5 Z M 14.5,34.5 C 15.1092,38.385 16.7758,41.7183 19.5,44.5C 5.54285,47.2524 3.87619,43.9191 14.5,34.5 Z"/></g>
<g><path style="opacity:1" fill="#e48571" d="M 59.5,25.5 C 57.6058,42.2946 48.2725,49.1279 31.5,46C 30.5842,45.7216 29.9175,45.2216 29.5,44.5C 31.1815,42.9925 33.1815,41.9925 35.5,41.5C 37.484,42.1557 39.484,42.8224 41.5,43.5C 49.0272,40.9791 53.6939,35.9791 55.5,28.5C 56.8333,27.5 58.1667,26.5 59.5,25.5 Z"/></g>
<g><path style="opacity:0.953" fill="#d8708d" d="M 61.5,24.5 C 61.6053,28.687 60.772,32.687 59,36.5C 50.7631,48.9803 40.2631,51.647 27.5,44.5C 28.1667,44.5 28.8333,44.5 29.5,44.5C 29.9175,45.2216 30.5842,45.7216 31.5,46C 48.2725,49.1279 57.6058,42.2946 59.5,25.5C 60.1667,25.1667 60.8333,24.8333 61.5,24.5 Z"/></g>
<g><path style="opacity:0.098" fill="#ed4195" d="M 65.5,21.5 C 67.1631,38.8411 59.4965,49.5078 42.5,53.5C 40.5,53.5 38.5,53.5 36.5,53.5C 31.4888,52.49 26.8221,50.49 22.5,47.5C 22.8417,46.6618 23.5084,46.3284 24.5,46.5C 29.4057,49.2183 34.7391,50.5516 40.5,50.5C 57.3411,48.8468 65.3411,39.5135 64.5,22.5C 64.5,21.8333 64.8333,21.5 65.5,21.5 Z"/></g>
</svg>
