<?xml version="1.0" encoding="UTF-8"?>
<!DOCTYPE svg PUBLIC "-//W3C//DTD SVG 1.1//EN" "http://www.w3.org/Graphics/SVG/1.1/DTD/svg11.dtd">
<svg xmlns="http://www.w3.org/2000/svg" version="1.1" width="130px" height="130px" style="shape-rendering:geometricPrecision; text-rendering:geometricPrecision; image-rendering:optimizeQuality; fill-rule:evenodd; clip-rule:evenodd" xmlns:xlink="http://www.w3.org/1999/xlink">
<g><path style="opacity:0.137" fill="#ec38a1" d="M 75.5,2.5 C 77.2608,3.31271 78.9275,4.31271 80.5,5.5C 71.194,4.44585 61.8606,4.27919 52.5,5C 47.5469,6.14308 43.2136,8.30975 39.5,11.5C 38.8333,11.5 38.1667,11.5 37.5,11.5C 36.1266,11.3433 34.7932,11.51 33.5,12C 24.0969,19.2209 16.4303,27.7209 10.5,37.5C 7.63426,41.8982 5.30092,46.5648 3.5,51.5C 11.9221,19.7522 32.5887,3.08553 65.5,1.5C 69.0175,1.5016 72.3509,1.83493 75.5,2.5 Z"/></g>
<g><path style="opacity:0.278" fill="#ee4c83" d="M 80.5,5.5 C 87.295,7.23461 93.295,10.5679 98.5,15.5C 94.3571,14.7619 90.6904,12.9286 87.5,10C 71.351,5.06232 55.351,5.56232 39.5,11.5C 43.2136,8.30975 47.5469,6.14308 52.5,5C 61.8606,4.27919 71.194,4.44585 80.5,5.5 Z"/></g>
<g><path style="opacity:0.141" fill="#ed3c9c" d="M 75.5,2.5 C 96.4353,5.77908 111.769,16.7791 121.5,35.5C 122.966,41.7911 124.466,48.1245 126,54.5C 126.667,62.8333 126.667,71.1667 126,79.5C 124.476,83.9593 122.309,87.9593 119.5,91.5C 119.5,90.1667 119.5,88.8333 119.5,87.5C 122.347,84.5096 123.847,80.8429 124,76.5C 126.501,59.3435 123.501,43.3435 115,28.5C 110.928,24.5502 106.762,20.7169 102.5,17C 101.255,16.2086 99.9217,15.7086 98.5,15.5C 93.295,10.5679 87.295,7.23461 80.5,5.5C 78.9275,4.31271 77.2608,3.31271 75.5,2.5 Z"/></g>
<g><path style="opacity:1" fill="#ffcab5" d="M 60.5,16.5 C 59.8913,18.9433 58.3913,20.61 56,21.5C 53.2487,27.5672 54.7487,32.2339 60.5,35.5C 59.0001,36.6252 57.6668,37.9586 56.5,39.5C 52.6194,38.5589 49.9527,36.2256 48.5,32.5C 44.3482,21.2993 48.3482,15.966 60.5,16.5 Z"/></g>
<g><path style="opacity:0.451" fill="#ee5d6c" d="M 98.5,15.5 C 98.8588,17.371 99.8588,18.871 101.5,20C 104.927,21.796 108.094,23.9627 111,26.5C 112.577,29.7511 114.577,32.7511 117,35.5C 118.43,38.3527 119.263,41.3527 119.5,44.5C 118.196,43.0131 117.03,41.3464 116,39.5C 115.31,38.2617 114.81,38.2617 114.5,39.5C 111.596,34.2594 107.929,29.5927 103.5,25.5C 92.2163,13.8534 78.5496,8.52011 62.5,9.5C 55.665,9.06559 49.3316,10.3989 43.5,13.5C 33.5454,16.7743 25.5454,22.7743 19.5,31.5C 18.9569,31.44 18.6236,31.1067 18.5,30.5C 23.2155,22.4511 29.5488,16.1178 37.5,11.5C 38.1667,11.5 38.8333,11.5 39.5,11.5C 55.351,5.56232 71.351,5.06232 87.5,10C 90.6904,12.9286 94.3571,14.7619 98.5,15.5 Z"/></g>
<g><path style="opacity:1" fill="#fc77b4" d="M 60.5,16.5 C 65.1806,17.3133 69.8472,18.3133 74.5,19.5C 78.1488,20.2667 81.4822,21.6001 84.5,23.5C 81.1416,25.6997 78.6416,28.6997 77,32.5C 76.0853,31.6721 75.4186,30.6721 75,29.5C 73.3602,31.579 72.1936,33.9124 71.5,36.5C 70.4231,37.7051 69.0898,38.3718 67.5,38.5C 65.0462,37.7729 62.7128,36.7729 60.5,35.5C 54.7487,32.2339 53.2487,27.5672 56,21.5C 58.3913,20.61 59.8913,18.9433 60.5,16.5 Z"/></g>
<g><path style="opacity:1" fill="#ea25a1" d="M 103.5,25.5 C 101.473,25.6621 99.4727,25.4955 97.5,25C 95.6066,22.9784 93.2733,21.8118 90.5,21.5C 86.3126,19.2405 81.9793,17.2405 77.5,15.5C 75.7118,16.2826 74.7118,17.6159 74.5,19.5C 69.8472,18.3133 65.1806,17.3133 60.5,16.5C 60.767,14.0347 61.4336,11.7014 62.5,9.5C 78.5496,8.52011 92.2163,13.8534 103.5,25.5 Z"/></g>
<g><path style="opacity:1" fill="#fca691" d="M 62.5,9.5 C 61.4336,11.7014 60.767,14.0347 60.5,16.5C 48.3482,15.966 44.3482,21.2993 48.5,32.5C 47.596,33.209 47.2627,34.209 47.5,35.5C 45.6454,32.4456 44.3121,29.1122 43.5,25.5C 42.3216,21.4522 42.3216,17.4522 43.5,13.5C 49.3316,10.3989 55.665,9.06559 62.5,9.5 Z"/></g>
<g><path style="opacity:1" fill="#f9209d" d="M 90.5,21.5 C 93.2733,21.8118 95.6066,22.9784 97.5,25C 99.4727,25.4955 101.473,25.6621 103.5,25.5C 107.929,29.5927 111.596,34.2594 114.5,39.5C 117.908,47.4675 119.908,55.8008 120.5,64.5C 120.482,67.7507 119.482,70.4173 117.5,72.5C 116.391,72.4431 115.391,72.1098 114.5,71.5C 114.5,71.1667 114.5,70.8333 114.5,70.5C 115.546,57.1415 112.046,45.1415 104,34.5C 99.6046,29.9357 95.1046,25.6023 90.5,21.5 Z"/></g>
<g><path style="opacity:1" fill="#fe979e" d="M 89.5,26.5 C 91.4113,27.075 93.078,28.075 94.5,29.5C 96.3037,33.2625 96.8037,37.2625 96,41.5C 93.1737,43.3398 90.0071,44.0065 86.5,43.5C 85.841,49.9064 86.5077,56.2397 88.5,62.5C 87.5637,63.9744 86.2303,64.9744 84.5,65.5C 83.8333,65.5 83.1667,65.5 82.5,65.5C 82.395,61.6811 81.5617,58.0145 80,54.5C 78.9525,52.2925 77.4525,50.6258 75.5,49.5C 75.5,48.8333 75.5,48.1667 75.5,47.5C 75.5,47.1667 75.5,46.8333 75.5,46.5C 76.9987,43.9527 78.4987,41.286 80,38.5C 78.902,31.1 82.0686,27.1 89.5,26.5 Z"/></g>
<g><path style="opacity:1" fill="#88378f" d="M 47.5,87.5 C 47.5,88.1667 47.1667,88.5 46.5,88.5C 39.7355,87.077 35.0689,83.077 32.5,76.5C 31.0647,73.2887 29.8981,69.9553 29,66.5C 28.1884,57.6363 26.6884,48.9696 24.5,40.5C 24.5,40.1667 24.5,39.8333 24.5,39.5C 26.1671,34.8323 28.8337,30.8323 32.5,27.5C 29.3576,49.4326 34.3576,69.4326 47.5,87.5 Z"/></g>
<g><path style="opacity:1" fill="#f5147d" d="M 90.5,21.5 C 95.1046,25.6023 99.6046,29.9357 104,34.5C 112.046,45.1415 115.546,57.1415 114.5,70.5C 113.5,70.1667 112.833,69.5 112.5,68.5C 113.165,59.4941 111.165,51.1608 106.5,43.5C 103.594,37.925 99.594,33.2583 94.5,29.5C 93.078,28.075 91.4113,27.075 89.5,26.5C 88.3406,24.7497 86.674,23.7497 84.5,23.5C 81.4822,21.6001 78.1488,20.2667 74.5,19.5C 74.7118,17.6159 75.7118,16.2826 77.5,15.5C 81.9793,17.2405 86.3126,19.2405 90.5,21.5 Z"/></g>
<g><path style="opacity:1" fill="#b12e99" d="M 43.5,25.5 C 44.3121,29.1122 45.6454,32.4456 47.5,35.5C 49.4433,39.1327 51.4433,42.7994 53.5,46.5C 52.91,47.7989 51.91,48.6322 50.5,49C 48.4144,49.3153 46.4144,49.8153 44.5,50.5C 42.2972,50.6036 40.2972,51.2702 38.5,52.5C 36.9572,44.1022 37.7906,35.7689 41,27.5C 41.4169,26.244 42.2502,25.5774 43.5,25.5 Z"/></g>
<g><path style="opacity:1" fill="#fd83a3" d="M 84.5,23.5 C 86.674,23.7497 88.3406,24.7497 89.5,26.5C 82.0686,27.1 78.902,31.1 80,38.5C 78.4987,41.286 76.9987,43.9527 75.5,46.5C 73.8054,42.8053 71.1387,40.1387 67.5,38.5C 69.0898,38.3718 70.4231,37.7051 71.5,36.5C 72.1936,33.9124 73.3602,31.579 75,29.5C 75.4186,30.6721 76.0853,31.6721 77,32.5C 78.6416,28.6997 81.1416,25.6997 84.5,23.5 Z"/></g>
<g><path style="opacity:1" fill="#fdb379" d="M 48.5,32.5 C 49.9527,36.2256 52.6194,38.5589 56.5,39.5C 57.1667,40.1667 57.8333,40.8333 58.5,41.5C 54.9378,50.6212 54.6044,59.9545 57.5,69.5C 56.8333,71.1667 56.1667,72.8333 55.5,74.5C 53.8255,77.5072 53.1588,80.8405 53.5,84.5C 49.314,80.8055 46.6473,76.1389 45.5,70.5C 44.6195,63.864 44.2861,57.1973 44.5,50.5C 46.4144,49.8153 48.4144,49.3153 50.5,49C 51.91,48.6322 52.91,47.7989 53.5,46.5C 51.4433,42.7994 49.4433,39.1327 47.5,35.5C 47.2627,34.209 47.596,33.209 48.5,32.5 Z"/></g>
<g><path style="opacity:1" fill="#ffd88e" d="M 60.5,35.5 C 62.7128,36.7729 65.0462,37.7729 67.5,38.5C 71.1387,40.1387 73.8054,42.8053 75.5,46.5C 75.5,46.8333 75.5,47.1667 75.5,47.5C 69.9727,45.102 64.306,43.102 58.5,41.5C 57.8333,40.8333 57.1667,40.1667 56.5,39.5C 57.6668,37.9586 59.0001,36.6252 60.5,35.5 Z"/></g>
<g><path style="opacity:1" fill="#fa86a0" d="M 17.5,34.5 C 20.1117,35.7787 22.4451,37.4453 24.5,39.5C 24.5,39.8333 24.5,40.1667 24.5,40.5C 14.75,64.1224 19.4167,84.6224 38.5,102C 39.448,102.483 40.448,102.649 41.5,102.5C 43.099,102.232 44.4324,102.566 45.5,103.5C 41.8183,103.665 38.1516,103.499 34.5,103C 31.9598,100.795 29.7932,98.2953 28,95.5C 24.5226,87.8783 20.5226,80.5449 16,73.5C 15.1841,72.1772 14.0174,71.5106 12.5,71.5C 11.0527,70.1148 10.0527,70.4482 9.5,72.5C 7.66391,59.0196 10.3306,46.353 17.5,34.5 Z"/></g>
<g><path style="opacity:0.349" fill="#ee507d" d="M 37.5,11.5 C 29.5488,16.1178 23.2155,22.4511 18.5,30.5C 18.6236,31.1067 18.9569,31.44 19.5,31.5C 19.1667,32.5 18.5,33.1667 17.5,33.5C 16.6715,32.6676 15.8382,33.001 15,34.5C 7.90727,46.8726 5.57393,60.2059 8,74.5C 8.81192,80.7508 10.3119,86.7508 12.5,92.5C 6.25011,81.3968 4.08344,69.3968 6,56.5C 7.4066,50.1202 8.9066,43.7869 10.5,37.5C 16.4303,27.7209 24.0969,19.2209 33.5,12C 34.7932,11.51 36.1266,11.3433 37.5,11.5 Z"/></g>
<g><path style="opacity:1" fill="#fdc05c" d="M 58.5,41.5 C 64.306,43.102 69.9727,45.102 75.5,47.5C 75.5,48.1667 75.5,48.8333 75.5,49.5C 74.6594,53.1634 74.1594,56.8301 74,60.5C 75.6742,64.0886 78.5075,65.7553 82.5,65.5C 82.264,73.5417 82.5973,81.5417 83.5,89.5C 80.6812,81.4955 76.0145,74.6622 69.5,69C 65.3874,66.9464 61.3874,67.1131 57.5,69.5C 54.6044,59.9545 54.9378,50.6212 58.5,41.5 Z"/></g>
<g><path style="opacity:1" fill="#f88389" d="M 24.5,40.5 C 26.6884,48.9696 28.1884,57.6363 29,66.5C 29.8981,69.9553 31.0647,73.2887 32.5,76.5C 33.637,85.52 36.637,94.1866 41.5,102.5C 40.448,102.649 39.448,102.483 38.5,102C 19.4167,84.6224 14.75,64.1224 24.5,40.5 Z"/></g>
<g><path style="opacity:1" fill="#fe968c" d="M 94.5,29.5 C 99.594,33.2583 103.594,37.925 106.5,43.5C 102.971,44.0297 102.638,45.3631 105.5,47.5C 100.806,47.9664 99.473,50.2997 101.5,54.5C 103.674,55.8932 105.507,55.5598 107,53.5C 106.812,59.451 104.478,60.1176 100,55.5C 99.5172,56.448 99.3505,57.448 99.5,58.5C 96.3511,58.4152 93.6845,59.4152 91.5,61.5C 90.609,62.1098 89.609,62.4431 88.5,62.5C 86.5077,56.2397 85.841,49.9064 86.5,43.5C 90.0071,44.0065 93.1737,43.3398 96,41.5C 96.8037,37.2625 96.3037,33.2625 94.5,29.5 Z"/></g>
<g><path style="opacity:1" fill="#e82580" d="M 75.5,49.5 C 77.4525,50.6258 78.9525,52.2925 80,54.5C 81.5617,58.0145 82.395,61.6811 82.5,65.5C 78.5075,65.7553 75.6742,64.0886 74,60.5C 74.1594,56.8301 74.6594,53.1634 75.5,49.5 Z"/></g>
<g><path style="opacity:1" fill="#fea481" d="M 106.5,43.5 C 111.165,51.1608 113.165,59.4941 112.5,68.5C 108.691,64.3413 104.357,61.008 99.5,58.5C 99.3505,57.448 99.5172,56.448 100,55.5C 104.478,60.1176 106.812,59.451 107,53.5C 105.507,55.5598 103.674,55.8932 101.5,54.5C 99.473,50.2997 100.806,47.9664 105.5,47.5C 102.638,45.3631 102.971,44.0297 106.5,43.5 Z"/></g>
<g><path style="opacity:0.506" fill="#ee6560" d="M 119.5,44.5 C 121.509,55.0514 122.009,65.7181 121,76.5C 118.855,80.9338 117.522,85.6005 117,90.5C 113.176,94.8145 109.843,99.4812 107,104.5C 102.92,107.457 98.7533,110.29 94.5,113C 93.6634,114.011 93.33,115.178 93.5,116.5C 86.8926,118.423 80.2259,120.256 73.5,122C 68.1667,122.667 62.8333,122.667 57.5,122C 55.0261,121.963 53.0261,121.13 51.5,119.5C 53.1667,119.5 54.8333,119.5 56.5,119.5C 61.8333,120.833 67.1667,120.833 72.5,119.5C 82.1994,117.976 90.8661,114.309 98.5,108.5C 106.293,102.899 111.626,95.5655 114.5,86.5C 117.106,83.3867 118.772,79.72 119.5,75.5C 119.058,74.2613 118.391,73.2613 117.5,72.5C 119.482,70.4173 120.482,67.7507 120.5,64.5C 119.908,55.8008 117.908,47.4675 114.5,39.5C 114.81,38.2617 115.31,38.2617 116,39.5C 117.03,41.3464 118.196,43.0131 119.5,44.5 Z"/></g>
<g><path style="opacity:1" fill="#fee835" d="M 99.5,58.5 C 104.357,61.008 108.691,64.3413 112.5,68.5C 112.833,69.5 113.5,70.1667 114.5,70.5C 114.5,70.8333 114.5,71.1667 114.5,71.5C 114.88,76.8073 113.88,81.8073 111.5,86.5C 110.5,86.5 109.5,86.5 108.5,86.5C 109.059,84.3208 109.726,82.1542 110.5,80C 110.167,79.5 109.833,79 109.5,78.5C 100.554,76.0149 94.5539,70.3482 91.5,61.5C 93.6845,59.4152 96.3511,58.4152 99.5,58.5 Z"/></g>
<g><path style="opacity:0.43" fill="#ed5c6d" d="M 17.5,33.5 C 17.5,33.8333 17.5,34.1667 17.5,34.5C 10.3306,46.353 7.66391,59.0196 9.5,72.5C 14.0728,96.6779 28.0728,112.345 51.5,119.5C 53.0261,121.13 55.0261,121.963 57.5,122C 62.8333,122.667 68.1667,122.667 73.5,122C 80.2259,120.256 86.8926,118.423 93.5,116.5C 87.6982,119.843 81.3649,122.01 74.5,123C 66.103,123.87 57.7697,123.537 49.5,122C 45.2299,120.182 40.8966,118.515 36.5,117C 27.6798,109.679 19.6798,101.513 12.5,92.5C 10.3119,86.7508 8.81192,80.7508 8,74.5C 5.57393,60.2059 7.90727,46.8726 15,34.5C 15.8382,33.001 16.6715,32.6676 17.5,33.5 Z"/></g>
<g><path style="opacity:0.188" fill="#ed3d9a" d="M 10.5,37.5 C 8.9066,43.7869 7.4066,50.1202 6,56.5C 4.08344,69.3968 6.25011,81.3968 12.5,92.5C 14.4312,97.0853 16.7645,101.419 19.5,105.5C 17.6675,104.752 16.0009,103.752 14.5,102.5C 5.93273,91.6377 1.5994,79.1377 1.5,65C 1.43871,60.2543 2.10537,55.7543 3.5,51.5C 5.30092,46.5648 7.63426,41.8982 10.5,37.5 Z"/></g>
<g><path style="opacity:0.357" fill="#ee507c" d="M 98.5,15.5 C 99.9217,15.7086 101.255,16.2086 102.5,17C 106.762,20.7169 110.928,24.5502 115,28.5C 123.501,43.3435 126.501,59.3435 124,76.5C 123.847,80.8429 122.347,84.5096 119.5,87.5C 123.617,75.0584 124.451,62.3917 122,49.5C 121.626,47.5087 120.793,45.842 119.5,44.5C 119.263,41.3527 118.43,38.3527 117,35.5C 114.577,32.7511 112.577,29.7511 111,26.5C 108.094,23.9627 104.927,21.796 101.5,20C 99.8588,18.871 98.8588,17.371 98.5,15.5 Z"/></g>
<g><path style="opacity:1" fill="#ffe855" d="M 91.5,61.5 C 94.5539,70.3482 100.554,76.0149 109.5,78.5C 109.833,79 110.167,79.5 110.5,80C 109.726,82.1542 109.059,84.3208 108.5,86.5C 108.167,86.5 107.833,86.5 107.5,86.5C 96.3338,83.3338 88.6671,76.3338 84.5,65.5C 86.2303,64.9744 87.5637,63.9744 88.5,62.5C 89.609,62.4431 90.609,62.1098 91.5,61.5 Z"/></g>
<g><path style="opacity:1" fill="#ffe36d" d="M 82.5,65.5 C 83.1667,65.5 83.8333,65.5 84.5,65.5C 88.6671,76.3338 96.3338,83.3338 107.5,86.5C 107.5,86.8333 107.5,87.1667 107.5,87.5C 102.102,89.6083 96.6018,91.6083 91,93.5C 88.078,93.4524 85.578,92.4524 83.5,90.5C 83.5,90.1667 83.5,89.8333 83.5,89.5C 82.5973,81.5417 82.264,73.5417 82.5,65.5 Z"/></g>
<g><path style="opacity:1" fill="#863d97" d="M 12.5,71.5 C 16.2909,92.1266 27.9576,106.293 47.5,114C 50.7568,115.043 54.0901,115.543 57.5,115.5C 57.7678,117.099 57.4345,118.432 56.5,119.5C 54.8333,119.5 53.1667,119.5 51.5,119.5C 28.0728,112.345 14.0728,96.6779 9.5,72.5C 10.0527,70.4482 11.0527,70.1148 12.5,71.5 Z"/></g>
<g><path style="opacity:1" fill="#bf2493" d="M 83.5,89.5 C 83.5,89.8333 83.5,90.1667 83.5,90.5C 84.1667,92.5 84.8333,94.5 85.5,96.5C 73.3268,92.0849 63.3268,84.7516 55.5,74.5C 56.1667,72.8333 56.8333,71.1667 57.5,69.5C 61.3874,67.1131 65.3874,66.9464 69.5,69C 76.0145,74.6622 80.6812,81.4955 83.5,89.5 Z"/></g>
<g><path style="opacity:1" fill="#99378d" d="M 43.5,13.5 C 42.3216,17.4522 42.3216,21.4522 43.5,25.5C 42.2502,25.5774 41.4169,26.244 41,27.5C 37.7906,35.7689 36.9572,44.1022 38.5,52.5C 36.6122,55.9312 36.1122,59.5979 37,63.5C 40.6667,69.1667 44.3333,74.8333 48,80.5C 48.7958,83.0385 48.6291,85.3718 47.5,87.5C 34.3576,69.4326 29.3576,49.4326 32.5,27.5C 28.8337,30.8323 26.1671,34.8323 24.5,39.5C 22.4451,37.4453 20.1117,35.7787 17.5,34.5C 17.5,34.1667 17.5,33.8333 17.5,33.5C 18.5,33.1667 19.1667,32.5 19.5,31.5C 25.5454,22.7743 33.5454,16.7743 43.5,13.5 Z"/></g>
<g><path style="opacity:1" fill="#ad2e9a" d="M 55.5,74.5 C 63.3268,84.7516 73.3268,92.0849 85.5,96.5C 86.4725,98.1392 87.8058,99.4726 89.5,100.5C 88.7261,101.147 87.7261,101.48 86.5,101.5C 83.5,101 80.5,100.5 77.5,100C 73.578,98.2019 69.578,96.7019 65.5,95.5C 61.0794,92.2901 57.0794,88.6235 53.5,84.5C 53.1588,80.8405 53.8255,77.5072 55.5,74.5 Z"/></g>
<g><path style="opacity:1" fill="#fdd561" d="M 114.5,71.5 C 115.391,72.1098 116.391,72.4431 117.5,72.5C 118.391,73.2613 119.058,74.2613 119.5,75.5C 118.772,79.72 117.106,83.3867 114.5,86.5C 113.5,86.5 112.5,86.5 111.5,86.5C 113.88,81.8073 114.88,76.8073 114.5,71.5 Z"/></g>
<g><path style="opacity:1" fill="#f99872" d="M 44.5,50.5 C 44.2861,57.1973 44.6195,63.864 45.5,70.5C 46.6473,76.1389 49.314,80.8055 53.5,84.5C 57.0794,88.6235 61.0794,92.2901 65.5,95.5C 66.4043,101.097 66.4043,106.764 65.5,112.5C 63.3453,112.628 61.3453,112.128 59.5,111C 55.6569,106.326 51.6569,101.826 47.5,97.5C 46.3632,95.3932 45.3632,93.2265 44.5,91C 45.0556,89.9889 45.7222,89.1556 46.5,88.5C 47.1667,88.5 47.5,88.1667 47.5,87.5C 48.6291,85.3718 48.7958,83.0385 48,80.5C 44.3333,74.8333 40.6667,69.1667 37,63.5C 36.1122,59.5979 36.6122,55.9312 38.5,52.5C 40.2972,51.2702 42.2972,50.6036 44.5,50.5 Z"/></g>
<g><path style="opacity:1" fill="#f68c7d" d="M 32.5,76.5 C 35.0689,83.077 39.7355,87.077 46.5,88.5C 45.7222,89.1556 45.0556,89.9889 44.5,91C 45.3632,93.2265 46.3632,95.3932 47.5,97.5C 51.6569,101.826 55.6569,106.326 59.5,111C 61.3453,112.128 63.3453,112.628 65.5,112.5C 65.4178,117.377 67.7511,119.71 72.5,119.5C 67.1667,120.833 61.8333,120.833 56.5,119.5C 57.4345,118.432 57.7678,117.099 57.5,115.5C 56.515,108.515 52.515,104.515 45.5,103.5C 44.4324,102.566 43.099,102.232 41.5,102.5C 36.637,94.1866 33.637,85.52 32.5,76.5 Z"/></g>
<g><path style="opacity:1" fill="#f983b4" d="M 107.5,87.5 C 105.623,93.2703 102.29,97.937 97.5,101.5C 94.7212,101.721 92.0545,101.388 89.5,100.5C 87.8058,99.4726 86.4725,98.1392 85.5,96.5C 84.8333,94.5 84.1667,92.5 83.5,90.5C 85.578,92.4524 88.078,93.4524 91,93.5C 96.6018,91.6083 102.102,89.6083 107.5,87.5 Z"/></g>
<g><path style="opacity:1" fill="#c932a0" d="M 107.5,86.5 C 107.833,86.5 108.167,86.5 108.5,86.5C 109.5,86.5 110.5,86.5 111.5,86.5C 112.5,86.5 113.5,86.5 114.5,86.5C 111.626,95.5655 106.293,102.899 98.5,108.5C 99.5434,105.944 101.21,103.777 103.5,102C 101.527,101.505 99.5273,101.338 97.5,101.5C 102.29,97.937 105.623,93.2703 107.5,87.5C 107.5,87.1667 107.5,86.8333 107.5,86.5 Z"/></g>
<g><path style="opacity:0.4" fill="#ee5b6d" d="M 119.5,44.5 C 120.793,45.842 121.626,47.5087 122,49.5C 124.451,62.3917 123.617,75.0584 119.5,87.5C 119.5,88.8333 119.5,90.1667 119.5,91.5C 117.355,94.4328 115.188,97.4328 113,100.5C 108.543,104.325 104.376,108.491 100.5,113C 98.1401,114.18 95.8068,115.347 93.5,116.5C 93.33,115.178 93.6634,114.011 94.5,113C 98.7533,110.29 102.92,107.457 107,104.5C 109.843,99.4812 113.176,94.8145 117,90.5C 117.522,85.6005 118.855,80.9338 121,76.5C 122.009,65.7181 121.509,55.0514 119.5,44.5 Z"/></g>
<g><path style="opacity:1" fill="#a2509f" d="M 12.5,71.5 C 14.0174,71.5106 15.1841,72.1772 16,73.5C 20.5226,80.5449 24.5226,87.8783 28,95.5C 29.7932,98.2953 31.9598,100.795 34.5,103C 38.1516,103.499 41.8183,103.665 45.5,103.5C 52.515,104.515 56.515,108.515 57.5,115.5C 54.0901,115.543 50.7568,115.043 47.5,114C 27.9576,106.293 16.2909,92.1266 12.5,71.5 Z"/></g>
<g><path style="opacity:0.169" fill="#ec38a2" d="M 121.5,35.5 C 125.782,43.3441 128.448,51.6774 129.5,60.5C 129.5,63.5 129.5,66.5 129.5,69.5C 127.56,87.212 119.893,102.045 106.5,114C 103.108,116.694 99.4409,118.86 95.5,120.5C 93.1667,121.167 90.8333,121.833 88.5,122.5C 93.755,118.195 99.4217,114.361 105.5,111C 110.344,106.154 114.844,100.988 119,95.5C 119.49,94.2068 119.657,92.8734 119.5,91.5C 122.309,87.9593 124.476,83.9593 126,79.5C 126.667,71.1667 126.667,62.8333 126,54.5C 124.466,48.1245 122.966,41.7911 121.5,35.5 Z"/></g>
<g><path style="opacity:0.118" fill="#ec38a1" d="M 14.5,102.5 C 16.0009,103.752 17.6675,104.752 19.5,105.5C 39.0747,124.421 62.0747,130.088 88.5,122.5C 90.8333,121.833 93.1667,121.167 95.5,120.5C 89.5883,124.642 82.9217,127.142 75.5,128C 57.5358,130.425 41.2024,126.425 26.5,116C 21.8983,111.906 17.8983,107.406 14.5,102.5 Z"/></g>
<g><path style="opacity:0.308" fill="#ee4e80" d="M 119.5,91.5 C 119.657,92.8734 119.49,94.2068 119,95.5C 114.844,100.988 110.344,106.154 105.5,111C 99.4217,114.361 93.755,118.195 88.5,122.5C 62.0747,130.088 39.0747,124.421 19.5,105.5C 16.7645,101.419 14.4312,97.0853 12.5,92.5C 19.6798,101.513 27.6798,109.679 36.5,117C 40.8966,118.515 45.2299,120.182 49.5,122C 57.7697,123.537 66.103,123.87 74.5,123C 81.3649,122.01 87.6982,119.843 93.5,116.5C 95.8068,115.347 98.1401,114.18 100.5,113C 104.376,108.491 108.543,104.325 113,100.5C 115.188,97.4328 117.355,94.4328 119.5,91.5 Z"/></g>
<g><path style="opacity:1" fill="#973689" d="M 65.5,95.5 C 69.578,96.7019 73.578,98.2019 77.5,100C 80.5,100.5 83.5,101 86.5,101.5C 87.7261,101.48 88.7261,101.147 89.5,100.5C 92.0545,101.388 94.7212,101.721 97.5,101.5C 99.5273,101.338 101.527,101.505 103.5,102C 101.21,103.777 99.5434,105.944 98.5,108.5C 90.8661,114.309 82.1994,117.976 72.5,119.5C 67.7511,119.71 65.4178,117.377 65.5,112.5C 66.4043,106.764 66.4043,101.097 65.5,95.5 Z"/></g>
</svg>
