<?xml version="1.0" encoding="UTF-8"?>
<!DOCTYPE svg PUBLIC "-//W3C//DTD SVG 1.1//EN" "http://www.w3.org/Graphics/SVG/1.1/DTD/svg11.dtd">
<svg xmlns="http://www.w3.org/2000/svg" version="1.1" width="372px" height="398px" style="shape-rendering:geometricPrecision; text-rendering:geometricPrecision; image-rendering:optimizeQuality; fill-rule:evenodd; clip-rule:evenodd" xmlns:xlink="http://www.w3.org/1999/xlink">
<g><path style="opacity:1" fill="#2f283b" d="M 321.5,0.5 C 321.5,14.5 321.5,28.5 321.5,42.5C 312.995,45.0857 304.495,47.7524 296,50.5C 289.366,47.6838 283.033,44.3505 277,40.5C 277.063,37.5133 277.897,34.68 279.5,32C 277.505,31.3872 275.838,31.8872 274.5,33.5C 283.801,19.3236 296.468,9.15695 312.5,3C 315.432,1.85513 318.432,1.0218 321.5,0.5 Z"/></g>
<g><path style="opacity:1" fill="#3e2854" d="M 271.5,38.5 C 273.311,38.572 274.644,39.4053 275.5,41C 273.066,50.0005 272.066,59.1671 272.5,68.5C 271.542,68.0472 270.708,67.3805 270,66.5C 266.666,68.0422 263.166,69.0422 259.5,69.5C 263.129,58.934 267.129,48.6007 271.5,38.5 Z"/></g>
<g><path style="opacity:1" fill="#372a42" d="M 321.5,42.5 C 321.5,56.1667 321.5,69.8333 321.5,83.5C 312.166,82.5 302.833,81.5 293.5,80.5C 281.3,85.567 274.3,81.567 272.5,68.5C 272.066,59.1671 273.066,50.0005 275.5,41C 274.644,39.4053 273.311,38.572 271.5,38.5C 271.75,36.326 272.75,34.6594 274.5,33.5C 275.838,31.8872 277.505,31.3872 279.5,32C 277.897,34.68 277.063,37.5133 277,40.5C 283.033,44.3505 289.366,47.6838 296,50.5C 304.495,47.7524 312.995,45.0857 321.5,42.5 Z"/></g>
<g><path style="opacity:1" fill="#2c1328" d="M 321.5,-0.5 C 321.833,-0.5 322.167,-0.5 322.5,-0.5C 326.962,25.1454 331.296,50.812 335.5,76.5C 335.739,78.4672 335.406,80.3005 334.5,82C 317.333,88.1667 300.167,94.3333 283,100.5C 282.235,100.43 281.735,100.097 281.5,99.5C 283.5,96.1667 285.5,92.8333 287.5,89.5C 289.735,86.7089 291.735,83.7089 293.5,80.5C 302.833,81.5 312.166,82.5 321.5,83.5C 321.5,69.8333 321.5,56.1667 321.5,42.5C 321.5,28.5 321.5,14.5 321.5,0.5C 321.5,0.166667 321.5,-0.166667 321.5,-0.5 Z"/></g>
<g><path style="opacity:1" fill="#4c2a68" d="M 272.5,68.5 C 274.3,81.567 281.3,85.567 293.5,80.5C 291.735,83.7089 289.735,86.7089 287.5,89.5C 285.444,88.7839 283.277,88.1172 281,87.5C 277.704,89.3042 274.204,89.8042 270.5,89C 268.101,83.1393 263.767,80.9726 257.5,82.5C 257.244,84.7925 257.577,86.9592 258.5,89C 256.08,89.2904 253.746,89.7904 251.5,90.5C 253.775,83.339 256.442,76.339 259.5,69.5C 263.166,69.0422 266.666,68.0422 270,66.5C 270.708,67.3805 271.542,68.0472 272.5,68.5 Z"/></g>
<g><path style="opacity:0.987" fill="#3f2a48" d="M 336.5,82.5 C 344.068,87.7919 351.068,93.7919 357.5,100.5C 342.297,101.916 327.297,104.916 312.5,109.5C 312.062,109.565 311.728,109.399 311.5,109C 316,102.5 320.5,96 325,89.5C 328.762,86.8747 332.595,84.5413 336.5,82.5 Z"/></g>
<g><path style="opacity:0.973" fill="#30283b" d="M 102.5,122.5 C 96.071,125.2 89.4043,127.534 82.5,129.5C 79.0607,127.697 75.5607,126.03 72,124.5C 70.3771,125.921 69.2105,127.588 68.5,129.5C 66.8758,116.566 66.2091,103.566 66.5,90.5C 77.042,91.6893 86.2086,96.3559 94,104.5C 97.1179,110.401 99.9512,116.401 102.5,122.5 Z"/></g>
<g><path style="opacity:1" fill="#552b76" d="M 287.5,89.5 C 285.5,92.8333 283.5,96.1667 281.5,99.5C 279.5,102.167 277.5,104.833 275.5,107.5C 275.874,104.028 274.874,101.028 272.5,98.5C 270.538,97.3655 268.538,97.3655 266.5,98.5C 264.541,98.1252 262.707,97.4585 261,96.5C 261.198,99.2348 261.031,101.901 260.5,104.5C 255.381,103.143 250.381,103.476 245.5,105.5C 247.264,100.32 249.264,95.3198 251.5,90.5C 253.746,89.7904 256.08,89.2904 258.5,89C 257.577,86.9592 257.244,84.7925 257.5,82.5C 263.767,80.9726 268.101,83.1393 270.5,89C 274.204,89.8042 277.704,89.3042 281,87.5C 283.277,88.1172 285.444,88.7839 287.5,89.5 Z"/></g>
<g><path style="opacity:1" fill="#1b0a18" d="M 66.5,90.5 C 66.2091,103.566 66.8758,116.566 68.5,129.5C 70.1725,136.928 71.8391,144.261 73.5,151.5C 73.6761,154.727 74.3428,157.727 75.5,160.5C 75.5,161.167 75.5,161.833 75.5,162.5C 74.3778,163.947 72.8778,164.947 71,165.5C 67.4088,157.98 64.0755,150.314 61,142.5C 59.1178,137.956 56.4511,133.956 53,130.5C 52.5172,129.552 52.3505,128.552 52.5,127.5C 56.4028,114.78 61.0695,102.447 66.5,90.5 Z"/></g>
<g><path style="opacity:1" fill="#33162f" d="M 335.5,76.5 C 336.461,78.2646 336.795,80.2646 336.5,82.5C 332.595,84.5413 328.762,86.8747 325,89.5C 320.5,96 316,102.5 311.5,109C 311.728,109.399 312.062,109.565 312.5,109.5C 296.81,115.134 282.476,123.301 269.5,134C 268.833,134.667 268.167,134.667 267.5,134C 282.463,117.356 299.463,103.356 318.5,92C 298.581,99.2293 281.747,111.063 268,127.5C 265.97,131.009 263.804,134.342 261.5,137.5C 259.559,137.869 257.725,138.536 256,139.5C 255.809,137.292 255.309,135.292 254.5,133.5C 253.6,129.419 251.6,125.919 248.5,123C 244.983,120.674 241.317,118.84 237.5,117.5C 238.899,116.11 240.566,115.11 242.5,114.5C 248.279,118.897 254.613,122.564 261.5,125.5C 267.131,120.232 271.797,114.232 275.5,107.5C 277.5,104.833 279.5,102.167 281.5,99.5C 281.735,100.097 282.235,100.43 283,100.5C 300.167,94.3333 317.333,88.1667 334.5,82C 335.406,80.3005 335.739,78.4672 335.5,76.5 Z"/></g>
<g><path style="opacity:1" fill="#2b1127" d="M 312.5,109.5 C 327.297,104.916 342.297,101.916 357.5,100.5C 358.167,100.5 358.5,100.833 358.5,101.5C 358.756,103.792 358.423,105.959 357.5,108C 325.575,118.808 293.575,129.308 261.5,139.5C 261.5,138.833 261.5,138.167 261.5,137.5C 263.804,134.342 265.97,131.009 268,127.5C 281.747,111.063 298.581,99.2293 318.5,92C 299.463,103.356 282.463,117.356 267.5,134C 268.167,134.667 268.833,134.667 269.5,134C 282.476,123.301 296.81,115.134 312.5,109.5 Z"/></g>
<g><path style="opacity:1" fill="#5f2a83" d="M 275.5,107.5 C 271.797,114.232 267.131,120.232 261.5,125.5C 254.613,122.564 248.279,118.897 242.5,114.5C 243.216,111.402 244.216,108.402 245.5,105.5C 250.381,103.476 255.381,103.143 260.5,104.5C 261.031,101.901 261.198,99.2348 261,96.5C 262.707,97.4585 264.541,98.1252 266.5,98.5C 268.538,97.3655 270.538,97.3655 272.5,98.5C 274.874,101.028 275.874,104.028 275.5,107.5 Z"/></g>
<g><path style="opacity:1" fill="#2f142d" d="M 358.5,101.5 C 359.482,104.962 359.815,108.629 359.5,112.5C 360.044,116.673 359.377,120.506 357.5,124C 323.243,135.308 289.076,146.808 255,158.5C 254.333,157.167 254.333,155.833 255,154.5C 256.713,149.158 258.879,144.158 261.5,139.5C 293.575,129.308 325.575,118.808 357.5,108C 358.423,105.959 358.756,103.792 358.5,101.5 Z"/></g>
<g><path style="opacity:1" fill="#351734" d="M 359.5,112.5 C 360.486,116.97 360.819,121.637 360.5,126.5C 360.789,130.106 360.456,133.606 359.5,137C 331.336,146.273 304.169,155.44 278,164.5C 275.849,171.772 274.015,179.105 272.5,186.5C 270.295,193.781 268.295,201.114 266.5,208.5C 265.778,204.153 265.112,199.82 264.5,195.5C 263.833,195.167 263.167,194.833 262.5,194.5C 258.934,196.3 255.267,197.466 251.5,198C 252.956,196.255 254.289,194.422 255.5,192.5C 255,192.167 254.5,191.833 254,191.5C 249.923,192.684 245.923,194.017 242,195.5C 243.736,187.11 246.236,178.777 249.5,170.5C 247.519,169.911 245.519,170.245 243.5,171.5C 247.27,162.958 250.77,154.291 254,145.5C 254.497,142.854 254.664,140.187 254.5,137.5C 254.5,136.167 254.5,134.833 254.5,133.5C 255.309,135.292 255.809,137.292 256,139.5C 257.725,138.536 259.559,137.869 261.5,137.5C 261.5,138.167 261.5,138.833 261.5,139.5C 258.879,144.158 256.713,149.158 255,154.5C 254.333,155.833 254.333,157.167 255,158.5C 289.076,146.808 323.243,135.308 357.5,124C 359.377,120.506 360.044,116.673 359.5,112.5 Z"/></g>
<g><path style="opacity:1" fill="#392a44" d="M 102.5,122.5 C 107.403,131.975 112.07,141.642 116.5,151.5C 114.392,150.763 112.225,150.096 110,149.5C 104.825,158.116 97.9916,159.616 89.5,154C 84.5835,149.184 79.2502,148.35 73.5,151.5C 71.8391,144.261 70.1725,136.928 68.5,129.5C 69.2105,127.588 70.3771,125.921 72,124.5C 75.5607,126.03 79.0607,127.697 82.5,129.5C 89.4043,127.534 96.071,125.2 102.5,122.5 Z"/></g>
<g><path style="opacity:0.974" fill="#422b4b" d="M 237.5,117.5 C 241.317,118.84 244.983,120.674 248.5,123C 251.6,125.919 253.6,129.419 254.5,133.5C 254.5,134.833 254.5,136.167 254.5,137.5C 241.632,144.767 228.632,151.767 215.5,158.5C 222.595,144.64 229.928,130.973 237.5,117.5 Z"/></g>
<g><path style="opacity:1" fill="#3c1b3a" d="M 360.5,126.5 C 361.865,135.969 362.532,145.635 362.5,155.5C 343.256,162.916 323.589,169.582 303.5,175.5C 296.917,171.592 290.583,167.259 284.5,162.5C 284.167,162.833 283.833,163.167 283.5,163.5C 286.421,168.341 289.088,173.341 291.5,178.5C 285.138,181.174 278.804,183.841 272.5,186.5C 274.015,179.105 275.849,171.772 278,164.5C 304.169,155.44 331.336,146.273 359.5,137C 360.456,133.606 360.789,130.106 360.5,126.5 Z"/></g>
<g><path style="opacity:1" fill="#4f2a69" d="M 116.5,151.5 C 119.008,155.182 121.008,159.182 122.5,163.5C 119.576,162.963 116.909,161.797 114.5,160C 106.323,159.404 98.3229,159.571 90.5,160.5C 85.8333,159.833 81.1667,159.167 76.5,158.5C 75.7025,158.957 75.3691,159.624 75.5,160.5C 74.3428,157.727 73.6761,154.727 73.5,151.5C 79.2502,148.35 84.5835,149.184 89.5,154C 97.9916,159.616 104.825,158.116 110,149.5C 112.225,150.096 114.392,150.763 116.5,151.5 Z"/></g>
<g><path style="opacity:1" fill="#5c2c7e" d="M 122.5,163.5 C 124.065,165.509 125.065,167.843 125.5,170.5C 115.238,169.228 104.904,168.228 94.5,167.5C 88.8772,168.711 83.2106,168.045 77.5,165.5C 76.8333,164.5 76.1667,163.5 75.5,162.5C 75.5,161.833 75.5,161.167 75.5,160.5C 75.3691,159.624 75.7025,158.957 76.5,158.5C 81.1667,159.167 85.8333,159.833 90.5,160.5C 98.3229,159.571 106.323,159.404 114.5,160C 116.909,161.797 119.576,162.963 122.5,163.5 Z"/></g>
<g><path style="opacity:1" fill="#682b91" d="M 77.5,165.5 C 83.2106,168.045 88.8772,168.711 94.5,167.5C 104.904,168.228 115.238,169.228 125.5,170.5C 127.674,173.515 129.341,176.849 130.5,180.5C 130.5,180.833 130.5,181.167 130.5,181.5C 129.833,181.5 129.167,181.5 128.5,181.5C 127.194,180.533 126.527,179.199 126.5,177.5C 111.452,176.85 96.4521,175.85 81.5,174.5C 80.7025,174.957 80.3691,175.624 80.5,176.5C 78.9257,173.093 77.9257,169.427 77.5,165.5 Z"/></g>
<g><path style="opacity:1" fill="#4d2f55" d="M 254.5,137.5 C 254.664,140.187 254.497,142.854 254,145.5C 250.77,154.291 247.27,162.958 243.5,171.5C 240.167,177.167 236.833,182.833 233.5,188.5C 233.631,187.761 233.464,187.094 233,186.5C 230.665,188.4 228.498,190.4 226.5,192.5C 217.271,198.205 210.605,196.205 206.5,186.5C 205.252,185.96 204.085,185.293 203,184.5C 202.292,185.381 201.458,186.047 200.5,186.5C 204.995,176.841 209.995,167.508 215.5,158.5C 228.632,151.767 241.632,144.767 254.5,137.5 Z"/></g>
<g><path style="opacity:1" fill="#351730" d="M 81.5,200.5 C 79.9317,199.527 78.265,199.36 76.5,200C 62.6428,204.423 48.8095,208.923 35,213.5C 32.4253,209.354 30.0919,205.021 28,200.5C 27.5045,198.527 27.3379,196.527 27.5,194.5C 27.7959,192.597 28.4625,190.93 29.5,189.5C 29.3691,190.376 29.7025,191.043 30.5,191.5C 44.5,186.5 58.5,181.5 72.5,176.5C 76.6124,184.063 79.6124,192.063 81.5,200.5 Z"/></g>
<g><path style="opacity:1" fill="#7c2cac" d="M 128.5,181.5 C 115.116,185.457 101.449,188.457 87.5,190.5C 86.5,190.167 85.5,189.833 84.5,189.5C 82.7581,185.275 81.4247,180.942 80.5,176.5C 80.3691,175.624 80.7025,174.957 81.5,174.5C 96.4521,175.85 111.452,176.85 126.5,177.5C 126.527,179.199 127.194,180.533 128.5,181.5 Z"/></g>
<g><path style="opacity:1" fill="#2d122a" d="M 52.5,127.5 C 52.3505,128.552 52.5172,129.552 53,130.5C 56.4511,133.956 59.1178,137.956 61,142.5C 64.0755,150.314 67.4088,157.98 71,165.5C 72.8778,164.947 74.3778,163.947 75.5,162.5C 76.1667,163.5 76.8333,164.5 77.5,165.5C 77.9257,169.427 78.9257,173.093 80.5,176.5C 81.4247,180.942 82.7581,185.275 84.5,189.5C 85.5,189.833 86.5,190.167 87.5,190.5C 101.449,188.457 115.116,185.457 128.5,181.5C 129.167,181.5 129.833,181.5 130.5,181.5C 129.162,183.696 127.495,185.696 125.5,187.5C 123.938,187.733 122.605,188.4 121.5,189.5C 117.83,193.187 116.83,197.52 118.5,202.5C 105.583,207.028 92.5832,211.361 79.5,215.5C 79.1667,215.167 78.8333,214.833 78.5,214.5C 81.966,210.276 82.966,205.61 81.5,200.5C 79.6124,192.063 76.6124,184.063 72.5,176.5C 58.5,181.5 44.5,186.5 30.5,191.5C 29.7025,191.043 29.3691,190.376 29.5,189.5C 36.6466,168.559 44.3133,147.892 52.5,127.5 Z"/></g>
<g><path style="opacity:1" fill="#482c51" d="M 170.5,194.5 C 164.915,193.712 159.248,193.212 153.5,193C 152.667,192.167 151.833,191.333 151,190.5C 148.936,191.591 146.769,191.758 144.5,191C 141.956,189.245 139.623,187.245 137.5,185C 135.527,184.505 133.527,184.338 131.5,184.5C 131.5,185.5 131.5,186.5 131.5,187.5C 129.309,188.291 127.309,188.291 125.5,187.5C 127.495,185.696 129.162,183.696 130.5,181.5C 130.5,181.167 130.5,180.833 130.5,180.5C 138.392,179.908 146.225,178.242 154,175.5C 159.732,181.725 165.232,188.058 170.5,194.5 Z"/></g>
<g><path style="opacity:1" fill="#4e254e" d="M 363.5,169.5 C 364.486,173.97 364.819,178.637 364.5,183.5C 364.5,188.167 364.5,192.833 364.5,197.5C 354.056,200.426 343.723,203.759 333.5,207.5C 329.942,204.065 327.109,200.065 325,195.5C 318.714,198.206 312.214,200.206 305.5,201.5C 306.941,205.714 308.941,209.714 311.5,213.5C 311.291,214.086 310.957,214.586 310.5,215C 299.101,218.744 287.768,222.577 276.5,226.5C 274.066,223.303 271.399,220.303 268.5,217.5C 264.287,218.911 259.954,219.578 255.5,219.5C 270.74,213.14 286.407,207.64 302.5,203C 302.957,202.586 303.291,202.086 303.5,201.5C 300.303,195.533 297.97,189.533 296.5,183.5C 299.754,181.971 303.087,180.638 306.5,179.5C 312.857,184.198 319.19,188.865 325.5,193.5C 337.991,188.892 350.657,184.892 363.5,181.5C 363.5,177.5 363.5,173.5 363.5,169.5 Z"/></g>
<g><path style="opacity:1" fill="#462045" d="M 362.5,155.5 C 363.486,159.97 363.819,164.637 363.5,169.5C 363.5,173.5 363.5,177.5 363.5,181.5C 350.657,184.892 337.991,188.892 325.5,193.5C 319.19,188.865 312.857,184.198 306.5,179.5C 303.087,180.638 299.754,181.971 296.5,183.5C 297.97,189.533 300.303,195.533 303.5,201.5C 303.291,202.086 302.957,202.586 302.5,203C 286.407,207.64 270.74,213.14 255.5,219.5C 254.833,219.5 254.5,219.833 254.5,220.5C 246.078,221.885 237.745,223.718 229.5,226C 221.812,229.512 214.145,233.012 206.5,236.5C 202.17,237.332 198.004,238.665 194,240.5C 194.592,235.532 195.426,230.532 196.5,225.5C 195.904,221.414 194.571,217.748 192.5,214.5C 192.5,213.833 192.5,213.167 192.5,212.5C 191.351,209.578 190.351,206.578 189.5,203.5C 190.602,202.824 191.602,202.158 192.5,201.5C 194.985,207.732 198.152,213.732 202,219.5C 204.112,222.284 206.779,224.284 210,225.5C 218.809,213.904 226.643,201.571 233.5,188.5C 236.833,182.833 240.167,177.167 243.5,171.5C 245.519,170.245 247.519,169.911 249.5,170.5C 246.236,178.777 243.736,187.11 242,195.5C 245.923,194.017 249.923,192.684 254,191.5C 254.5,191.833 255,192.167 255.5,192.5C 254.289,194.422 252.956,196.255 251.5,198C 255.267,197.466 258.934,196.3 262.5,194.5C 263.167,194.833 263.833,195.167 264.5,195.5C 265.112,199.82 265.778,204.153 266.5,208.5C 268.295,201.114 270.295,193.781 272.5,186.5C 278.804,183.841 285.138,181.174 291.5,178.5C 289.088,173.341 286.421,168.341 283.5,163.5C 283.833,163.167 284.167,162.833 284.5,162.5C 290.583,167.259 296.917,171.592 303.5,175.5C 323.589,169.582 343.256,162.916 362.5,155.5 Z"/></g>
<g><path style="opacity:1" fill="#532d62" d="M 170.5,194.5 C 171.833,195.167 172.833,196.167 173.5,197.5C 169.09,196.623 165.757,198.123 163.5,202C 162.667,202.167 161.833,202.333 161,202.5C 158.448,201.629 156.114,200.295 154,198.5C 152.989,199.337 151.822,199.67 150.5,199.5C 150.5,200.5 150.5,201.5 150.5,202.5C 146.151,203.423 142.817,202.09 140.5,198.5C 138.298,199.78 136.132,199.78 134,198.5C 133.768,199.737 133.268,200.737 132.5,201.5C 131.554,197.273 129.221,195.94 125.5,197.5C 123.638,195.109 122.304,192.442 121.5,189.5C 122.605,188.4 123.938,187.733 125.5,187.5C 127.309,188.291 129.309,188.291 131.5,187.5C 131.5,186.5 131.5,185.5 131.5,184.5C 133.527,184.338 135.527,184.505 137.5,185C 139.623,187.245 141.956,189.245 144.5,191C 146.769,191.758 148.936,191.591 151,190.5C 151.833,191.333 152.667,192.167 153.5,193C 159.248,193.212 164.915,193.712 170.5,194.5 Z"/></g>
<g><path style="opacity:1" fill="#5a2f69" d="M 226.5,192.5 C 222.943,199.275 219.11,205.942 215,212.5C 213.987,214.846 212.321,216.513 210,217.5C 202.202,212.578 197.369,205.578 195.5,196.5C 196.659,192.849 198.326,189.515 200.5,186.5C 201.458,186.047 202.292,185.381 203,184.5C 204.085,185.293 205.252,185.96 206.5,186.5C 210.605,196.205 217.271,198.205 226.5,192.5 Z"/></g>
<g><path style="opacity:0.988" fill="#512e57" d="M 176.5,198.5 C 181.767,199.816 187.1,200.816 192.5,201.5C 191.602,202.158 190.602,202.824 189.5,203.5C 190.351,206.578 191.351,209.578 192.5,212.5C 190.72,213.755 188.887,213.755 187,212.5C 184.845,213.244 182.845,214.244 181,215.5C 180.5,215.167 180,214.833 179.5,214.5C 178.107,209.208 177.107,203.874 176.5,198.5 Z"/></g>
<g><path style="opacity:1" fill="#572958" d="M 364.5,183.5 C 365.487,188.305 365.821,193.305 365.5,198.5C 365.666,203.511 365.499,208.511 365,213.5C 364.5,214 364,214.5 363.5,215C 356.14,217.398 348.807,219.898 341.5,222.5C 339.803,221.636 338.637,220.303 338,218.5C 332.03,220.544 326.197,222.878 320.5,225.5C 321.167,226.5 321.833,227.5 322.5,228.5C 310.791,233.126 298.958,237.459 287,241.5C 283.306,236.639 279.806,231.639 276.5,226.5C 287.768,222.577 299.101,218.744 310.5,215C 310.957,214.586 311.291,214.086 311.5,213.5C 308.941,209.714 306.941,205.714 305.5,201.5C 312.214,200.206 318.714,198.206 325,195.5C 327.109,200.065 329.942,204.065 333.5,207.5C 343.723,203.759 354.056,200.426 364.5,197.5C 364.5,192.833 364.5,188.167 364.5,183.5 Z"/></g>
<g><path style="opacity:1" fill="#602e73" d="M 173.5,197.5 C 170.179,202.152 166.513,206.485 162.5,210.5C 162.778,208.654 162.111,207.32 160.5,206.5C 148.558,218.622 139.225,216.956 132.5,201.5C 133.268,200.737 133.768,199.737 134,198.5C 136.132,199.78 138.298,199.78 140.5,198.5C 142.817,202.09 146.151,203.423 150.5,202.5C 150.5,201.5 150.5,200.5 150.5,199.5C 151.822,199.67 152.989,199.337 154,198.5C 156.114,200.295 158.448,201.629 161,202.5C 161.833,202.333 162.667,202.167 163.5,202C 165.757,198.123 169.09,196.623 173.5,197.5 Z"/></g>
<g><path style="opacity:1" fill="#7a2e8c" d="M 132.5,201.5 C 139.225,216.956 148.558,218.622 160.5,206.5C 162.111,207.32 162.778,208.654 162.5,210.5C 158.858,217.475 153.191,221.808 145.5,223.5C 143.701,223.423 142.034,222.923 140.5,222C 137.449,218.701 134.782,215.201 132.5,211.5C 130.196,206.85 127.863,202.183 125.5,197.5C 129.221,195.94 131.554,197.273 132.5,201.5 Z"/></g>
<g><path style="opacity:1" fill="#682e71" d="M 176.5,198.5 C 177.107,203.874 178.107,209.208 179.5,214.5C 180,214.833 180.5,215.167 181,215.5C 182.845,214.244 184.845,213.244 187,212.5C 188.887,213.755 190.72,213.755 192.5,212.5C 192.5,213.167 192.5,213.833 192.5,214.5C 192.739,216.467 192.406,218.301 191.5,220C 189.08,220.29 186.746,220.79 184.5,221.5C 182.854,219.854 181.188,218.188 179.5,216.5C 177.135,217.822 174.802,217.822 172.5,216.5C 172.743,210.816 173.243,205.149 174,199.5C 174.671,198.748 175.504,198.414 176.5,198.5 Z"/></g>
<g><path style="opacity:1" fill="#3c1b39" d="M 121.5,189.5 C 122.304,192.442 123.638,195.109 125.5,197.5C 127.863,202.183 130.196,206.85 132.5,211.5C 130.135,212.008 127.801,212.675 125.5,213.5C 125.659,221.143 125.326,228.81 124.5,236.5C 117.928,238.19 111.428,240.19 105,242.5C 104.055,242.095 103.388,241.428 103,240.5C 102.811,235.749 102.145,231.083 101,226.5C 96.985,222.318 92.8183,218.318 88.5,214.5C 84.0027,221.493 79.5027,228.493 75,235.5C 73.1284,236.068 71.2951,236.735 69.5,237.5C 69.2448,235.657 69.0781,233.657 69,231.5C 61.7898,234.435 54.4564,237.102 47,239.5C 46.228,239.355 45.5613,239.022 45,238.5C 41.6361,230.223 37.8028,222.223 33.5,214.5C 30.5544,215.306 27.8877,216.639 25.5,218.5C 29.8218,226.806 33.8218,235.139 37.5,243.5C 34.1922,244.026 32.0255,242.693 31,239.5C 30.5038,241.035 30.6705,242.535 31.5,244C 30.9019,245.301 29.9019,246.135 28.5,246.5C 26.6553,244.769 24.822,243.102 23,241.5C 19.6498,242.838 16.3165,244.171 13,245.5C 10.524,252.737 8.3573,260.07 6.5,267.5C 8.18384,272.281 9.85051,276.948 11.5,281.5C 13.4576,286.227 11.791,288.561 6.5,288.5C 4.35997,283.415 2.02663,278.415 -0.5,273.5C -0.5,271.5 -0.5,269.5 -0.5,267.5C 8.83333,243.167 18.1667,218.833 27.5,194.5C 27.3379,196.527 27.5045,198.527 28,200.5C 30.0919,205.021 32.4253,209.354 35,213.5C 48.8095,208.923 62.6428,204.423 76.5,200C 78.265,199.36 79.9317,199.527 81.5,200.5C 82.966,205.61 81.966,210.276 78.5,214.5C 78.8333,214.833 79.1667,215.167 79.5,215.5C 92.5832,211.361 105.583,207.028 118.5,202.5C 116.83,197.52 117.83,193.187 121.5,189.5 Z"/></g>
<g><path style="opacity:1" fill="#7e2d8d" d="M 172.5,216.5 C 174.802,217.822 177.135,217.822 179.5,216.5C 181.188,218.188 182.854,219.854 184.5,221.5C 181.179,224.351 177.512,225.684 173.5,225.5C 172.523,222.713 172.19,219.713 172.5,216.5 Z"/></g>
<g><path style="opacity:1" fill="#5f4a83" d="M 233.5,188.5 C 226.643,201.571 218.809,213.904 210,225.5C 206.779,224.284 204.112,222.284 202,219.5C 198.152,213.732 194.985,207.732 192.5,201.5C 193.11,199.566 194.11,197.899 195.5,196.5C 197.369,205.578 202.202,212.578 210,217.5C 212.321,216.513 213.987,214.846 215,212.5C 219.11,205.942 222.943,199.275 226.5,192.5C 228.498,190.4 230.665,188.4 233,186.5C 233.464,187.094 233.631,187.761 233.5,188.5 Z"/></g>
<g><path style="opacity:1" fill="#5f2f62" d="M 365.5,198.5 C 366.678,206.644 367.345,214.978 367.5,223.5C 366.839,224.718 366.172,226.051 365.5,227.5C 361.251,229.158 360.584,228.324 363.5,225C 362.407,223.635 361.074,223.301 359.5,224C 357.257,226.488 355.257,229.154 353.5,232C 351.863,232.601 350.197,233.101 348.5,233.5C 346.997,232.477 345.497,231.477 344,230.5C 340,231.833 336,233.167 332,234.5C 329.804,233.91 327.638,233.243 325.5,232.5C 322.18,236.091 318.847,240.258 315.5,245C 305.314,249.128 294.98,251.795 284.5,253C 267.435,258.411 250.435,263.911 233.5,269.5C 225.142,266.814 220.475,261.147 219.5,252.5C 220.959,246.196 223.959,240.696 228.5,236C 236.436,229.535 245.103,224.368 254.5,220.5C 254.5,219.833 254.833,219.5 255.5,219.5C 259.954,219.578 264.287,218.911 268.5,217.5C 271.399,220.303 274.066,223.303 276.5,226.5C 279.806,231.639 283.306,236.639 287,241.5C 298.958,237.459 310.791,233.126 322.5,228.5C 321.833,227.5 321.167,226.5 320.5,225.5C 326.197,222.878 332.03,220.544 338,218.5C 338.637,220.303 339.803,221.636 341.5,222.5C 348.807,219.898 356.14,217.398 363.5,215C 364,214.5 364.5,214 365,213.5C 365.499,208.511 365.666,203.511 365.5,198.5 Z"/></g>
<g><path style="opacity:1" fill="#68326c" d="M 367.5,223.5 C 368.707,238.981 370.04,254.314 371.5,269.5C 371.5,274.5 371.5,279.5 371.5,284.5C 371.167,284.5 370.833,284.5 370.5,284.5C 370.666,279.821 370.499,275.155 370,270.5C 368.801,275.265 367.301,279.931 365.5,284.5C 364.667,284.833 363.833,285.167 363,285.5C 359.176,284.436 355.343,283.436 351.5,282.5C 348.841,285.329 346.341,288.329 344,291.5C 336.667,281.5 329.333,271.5 322,261.5C 323.304,267.585 325.138,273.585 327.5,279.5C 324.188,284.113 321.354,289.113 319,294.5C 315.667,303.167 312.333,311.833 309,320.5C 302.382,329.776 293.549,335.943 282.5,339C 261.007,343.994 239.34,344.827 217.5,341.5C 215.709,336.35 214.209,331.016 213,325.5C 213.428,337.494 213.761,349.494 214,361.5C 210.63,364.535 207.63,367.868 205,371.5C 202.508,345.56 201.008,319.56 200.5,293.5C 207.394,289.559 214.727,286.392 222.5,284C 235.746,280.053 249.079,276.553 262.5,273.5C 273.413,270.698 284.413,268.198 295.5,266C 296.45,263.568 296.45,261.068 295.5,258.5C 276.723,261.446 258.39,265.779 240.5,271.5C 239.167,271.5 237.833,271.5 236.5,271.5C 235.5,270.833 234.5,270.167 233.5,269.5C 250.435,263.911 267.435,258.411 284.5,253C 294.98,251.795 305.314,249.128 315.5,245C 318.847,240.258 322.18,236.091 325.5,232.5C 327.638,233.243 329.804,233.91 332,234.5C 336,233.167 340,231.833 344,230.5C 345.497,231.477 346.997,232.477 348.5,233.5C 350.197,233.101 351.863,232.601 353.5,232C 355.257,229.154 357.257,226.488 359.5,224C 361.074,223.301 362.407,223.635 363.5,225C 360.584,228.324 361.251,229.158 365.5,227.5C 366.172,226.051 366.839,224.718 367.5,223.5 Z"/></g>
<g><path style="opacity:1" fill="#4f254f" d="M 192.5,214.5 C 194.571,217.748 195.904,221.414 196.5,225.5C 195.426,230.532 194.592,235.532 194,240.5C 198.004,238.665 202.17,237.332 206.5,236.5C 205.739,237.391 204.739,238.058 203.5,238.5C 202.636,242.816 201.969,247.149 201.5,251.5C 198.45,252.295 195.45,253.295 192.5,254.5C 191.281,253.737 190.281,252.737 189.5,251.5C 183.634,254.232 177.634,256.566 171.5,258.5C 171.527,251.814 171.861,245.148 172.5,238.5C 173.485,234.366 173.818,230.032 173.5,225.5C 177.512,225.684 181.179,224.351 184.5,221.5C 186.746,220.79 189.08,220.29 191.5,220C 192.406,218.301 192.739,216.467 192.5,214.5 Z"/></g>
<g><path style="opacity:1" fill="#762f94" d="M 254.5,220.5 C 245.103,224.368 236.436,229.535 228.5,236C 223.959,240.696 220.959,246.196 219.5,252.5C 213.869,253.412 208.202,254.079 202.5,254.5C 202.737,255.791 202.404,256.791 201.5,257.5C 201.5,255.5 201.5,253.5 201.5,251.5C 201.969,247.149 202.636,242.816 203.5,238.5C 204.739,238.058 205.739,237.391 206.5,236.5C 214.145,233.012 221.812,229.512 229.5,226C 237.745,223.718 246.078,221.885 254.5,220.5 Z"/></g>
<g><path style="opacity:1" fill="#452043" d="M 173.5,197.5 C 174.791,197.263 175.791,197.596 176.5,198.5C 175.504,198.414 174.671,198.748 174,199.5C 173.243,205.149 172.743,210.816 172.5,216.5C 172.19,219.713 172.523,222.713 173.5,225.5C 173.818,230.032 173.485,234.366 172.5,238.5C 172.5,237.833 172.167,237.5 171.5,237.5C 171.53,236.503 171.03,235.836 170,235.5C 165.923,236.684 161.923,238.017 158,239.5C 158.88,237.017 159.713,234.351 160.5,231.5C 160.167,230.833 159.833,230.167 159.5,229.5C 148.839,232.999 138.172,236.499 127.5,240C 126.376,240.839 125.709,242.006 125.5,243.5C 124.676,249.951 123.343,256.285 121.5,262.5C 116.11,265.297 110.443,267.297 104.5,268.5C 103.884,261.823 103.217,255.157 102.5,248.5C 93.6648,250.556 84.9982,253.222 76.5,256.5C 75.0413,251.876 73.708,247.209 72.5,242.5C 66.3167,255.667 59.3167,268.333 51.5,280.5C 50.2794,281.028 49.1127,281.695 48,282.5C 47.8333,282.167 47.6667,281.833 47.5,281.5C 50.3286,275.349 52.9953,269.182 55.5,263C 53.1937,256.895 50.5271,251.062 47.5,245.5C 45.2046,246.432 42.8713,247.265 40.5,248C 43,253.167 45.5,258.333 48,263.5C 48.7494,264.635 48.5827,265.635 47.5,266.5C 44.9433,267.407 42.4433,268.407 40,269.5C 36.8276,265.159 34.1609,260.492 32,255.5C 31.4387,254.978 30.772,254.645 30,254.5C 23.7579,256.469 17.5912,258.636 11.5,261C 14.7556,265.513 17.7556,270.18 20.5,275C 18.2866,277.081 15.6199,278.415 12.5,279C 11.7476,279.671 11.4142,280.504 11.5,281.5C 9.85051,276.948 8.18384,272.281 6.5,267.5C 8.3573,260.07 10.524,252.737 13,245.5C 16.3165,244.171 19.6498,242.838 23,241.5C 24.822,243.102 26.6553,244.769 28.5,246.5C 29.9019,246.135 30.9019,245.301 31.5,244C 30.6705,242.535 30.5038,241.035 31,239.5C 32.0255,242.693 34.1922,244.026 37.5,243.5C 33.8218,235.139 29.8218,226.806 25.5,218.5C 27.8877,216.639 30.5544,215.306 33.5,214.5C 37.8028,222.223 41.6361,230.223 45,238.5C 45.5613,239.022 46.228,239.355 47,239.5C 54.4564,237.102 61.7898,234.435 69,231.5C 69.0781,233.657 69.2448,235.657 69.5,237.5C 71.2951,236.735 73.1284,236.068 75,235.5C 79.5027,228.493 84.0027,221.493 88.5,214.5C 92.8183,218.318 96.985,222.318 101,226.5C 102.145,231.083 102.811,235.749 103,240.5C 103.388,241.428 104.055,242.095 105,242.5C 111.428,240.19 117.928,238.19 124.5,236.5C 125.326,228.81 125.659,221.143 125.5,213.5C 127.801,212.675 130.135,212.008 132.5,211.5C 134.782,215.201 137.449,218.701 140.5,222C 142.034,222.923 143.701,223.423 145.5,223.5C 153.191,221.808 158.858,217.475 162.5,210.5C 166.513,206.485 170.179,202.152 173.5,197.5 Z"/></g>
<g><path style="opacity:1" fill="#4e244d" d="M 171.5,237.5 C 171.125,239.698 170.458,241.698 169.5,243.5C 166.128,249.927 163.128,256.593 160.5,263.5C 155.789,264.126 151.289,265.459 147,267.5C 146.758,264.12 147.592,260.954 149.5,258C 149.167,257.5 148.833,257 148.5,256.5C 137.455,260.392 126.789,263.892 116.5,267C 112.885,270.619 110.051,274.786 108,279.5C 107,280.167 106,280.833 105,281.5C 104.088,276.536 103.588,271.536 103.5,266.5C 97.4612,268.291 91.4612,270.291 85.5,272.5C 84.086,271.376 82.586,270.376 81,269.5C 77.8159,271.004 74.6493,272.504 71.5,274C 73.1667,275.667 74.8333,277.333 76.5,279C 69.8711,282.434 62.8711,284.434 55.5,285C 54.2668,283.333 52.9335,281.833 51.5,280.5C 59.3167,268.333 66.3167,255.667 72.5,242.5C 73.708,247.209 75.0413,251.876 76.5,256.5C 84.9982,253.222 93.6648,250.556 102.5,248.5C 103.217,255.157 103.884,261.823 104.5,268.5C 110.443,267.297 116.11,265.297 121.5,262.5C 123.343,256.285 124.676,249.951 125.5,243.5C 125.709,242.006 126.376,240.839 127.5,240C 138.172,236.499 148.839,232.999 159.5,229.5C 159.833,230.167 160.167,230.833 160.5,231.5C 159.713,234.351 158.88,237.017 158,239.5C 161.923,238.017 165.923,236.684 170,235.5C 171.03,235.836 171.53,236.503 171.5,237.5 Z"/></g>
<g><path style="opacity:1" fill="#310f24" d="M 171.5,237.5 C 172.167,237.5 172.5,237.833 172.5,238.5C 171.861,245.148 171.527,251.814 171.5,258.5C 169.65,269.642 168.317,280.975 167.5,292.5C 165.952,308.656 164.285,324.656 162.5,340.5C 161.574,321.829 160.574,303.162 159.5,284.5C 159.335,280.818 159.501,277.152 160,273.5C 163.476,263.573 166.643,253.573 169.5,243.5C 170.458,241.698 171.125,239.698 171.5,237.5 Z"/></g>
<g><path style="opacity:1" fill="#8130a3" d="M 219.5,252.5 C 220.475,261.147 225.142,266.814 233.5,269.5C 234.5,270.167 235.5,270.833 236.5,271.5C 224.211,275.041 212.211,279.374 200.5,284.5C 200.448,275.482 200.782,266.482 201.5,257.5C 202.404,256.791 202.737,255.791 202.5,254.5C 208.202,254.079 213.869,253.412 219.5,252.5 Z"/></g>
<g><path style="opacity:1" fill="#9a319b" d="M 262.5,273.5 C 255.167,272.833 247.833,272.167 240.5,271.5C 258.39,265.779 276.723,261.446 295.5,258.5C 296.45,261.068 296.45,263.568 295.5,266C 284.413,268.198 273.413,270.698 262.5,273.5 Z"/></g>
<g><path style="opacity:1" fill="#4d244d" d="M 51.5,280.5 C 50.9447,282.729 49.6114,284.395 47.5,285.5C 45.4327,281.13 43.4327,276.796 41.5,272.5C 38.1794,273.163 34.8461,273.83 31.5,274.5C 28.2565,272.518 24.9231,272.851 21.5,275.5C 25.2881,280.907 28.9548,286.407 32.5,292C 32.3552,292.772 32.0219,293.439 31.5,294C 26.4059,295.245 21.7393,297.245 17.5,300C 20.1869,308.542 23.0202,317.042 26,325.5C 32.6667,313.5 39.3333,301.5 46,289.5C 46.6543,288.304 47.1543,288.304 47.5,289.5C 41.7476,303.582 36.0809,317.749 30.5,332C 31.9852,334.317 33.6519,336.484 35.5,338.5C 33.064,339.871 30.3973,340.871 27.5,341.5C 19.9298,324.135 12.9298,306.469 6.5,288.5C 11.791,288.561 13.4576,286.227 11.5,281.5C 11.4142,280.504 11.7476,279.671 12.5,279C 15.6199,278.415 18.2866,277.081 20.5,275C 17.7556,270.18 14.7556,265.513 11.5,261C 17.5912,258.636 23.7579,256.469 30,254.5C 30.772,254.645 31.4387,254.978 32,255.5C 34.1609,260.492 36.8276,265.159 40,269.5C 42.4433,268.407 44.9433,267.407 47.5,266.5C 48.5827,265.635 48.7494,264.635 48,263.5C 45.5,258.333 43,253.167 40.5,248C 42.8713,247.265 45.2046,246.432 47.5,245.5C 50.5271,251.062 53.1937,256.895 55.5,263C 52.9953,269.182 50.3286,275.349 47.5,281.5C 47.6667,281.833 47.8333,282.167 48,282.5C 49.1127,281.695 50.2794,281.028 51.5,280.5 Z"/></g>
<g><path style="opacity:1" fill="#58295b" d="M 201.5,251.5 C 201.5,253.5 201.5,255.5 201.5,257.5C 200.782,266.482 200.448,275.482 200.5,284.5C 199.225,287.604 199.225,290.604 200.5,293.5C 201.008,319.56 202.508,345.56 205,371.5C 207.63,367.868 210.63,364.535 214,361.5C 213.761,349.494 213.428,337.494 213,325.5C 214.209,331.016 215.709,336.35 217.5,341.5C 217.602,347.882 219.269,353.716 222.5,359C 253.789,362.796 285.122,365.796 316.5,368C 325.839,354.316 335.173,340.65 344.5,327C 339.12,311.024 333.453,295.191 327.5,279.5C 325.138,273.585 323.304,267.585 322,261.5C 329.333,271.5 336.667,281.5 344,291.5C 346.341,288.329 348.841,285.329 351.5,282.5C 355.343,283.436 359.176,284.436 363,285.5C 363.833,285.167 364.667,284.833 365.5,284.5C 367.301,279.931 368.801,275.265 370,270.5C 370.499,275.155 370.666,279.821 370.5,284.5C 366.863,299.106 361.03,312.773 353,325.5C 342.073,342.841 329.573,359.007 315.5,374C 282.833,373.697 250.166,373.364 217.5,373C 213.885,375.629 210.052,377.796 206,379.5C 197.679,375.84 189.346,372.174 181,368.5C 157.862,377.704 135.029,387.371 112.5,397.5C 111.833,397.5 111.167,397.5 110.5,397.5C 83.4024,379.442 56.0691,361.608 28.5,344C 27.7476,343.329 27.4142,342.496 27.5,341.5C 30.3973,340.871 33.064,339.871 35.5,338.5C 36.8235,339.85 37.8235,339.683 38.5,338C 40.9053,332.232 43.572,326.732 46.5,321.5C 46.5,324.5 46.5,327.5 46.5,330.5C 47.1472,336.668 47.8138,342.835 48.5,349C 67.4359,361.382 86.2693,373.882 105,386.5C 118.618,375.219 131.951,363.552 145,351.5C 143.518,355.476 141.685,359.476 139.5,363.5C 144.474,364.395 149.474,364.395 154.5,363.5C 154.999,359.51 155.499,355.51 156,351.5C 159.167,355.333 162.333,359.167 165.5,363C 170.61,363.57 175.61,363.07 180.5,361.5C 182.955,337.767 185.955,314.1 189.5,290.5C 189.167,288.833 188.833,287.167 188.5,285.5C 186.261,287.12 184.427,286.787 183,284.5C 178.45,288.359 173.283,291.025 167.5,292.5C 168.317,280.975 169.65,269.642 171.5,258.5C 177.634,256.566 183.634,254.232 189.5,251.5C 190.281,252.737 191.281,253.737 192.5,254.5C 195.45,253.295 198.45,252.295 201.5,251.5 Z"/></g>
<g><path style="opacity:1" fill="#6a2482" d="M 169.5,243.5 C 166.643,253.573 163.476,263.573 160,273.5C 159.501,277.152 159.335,280.818 159.5,284.5C 158.835,282.631 158.169,280.631 157.5,278.5C 156.702,278.957 156.369,279.624 156.5,280.5C 155.378,278.712 155.211,276.712 156,274.5C 157.513,270.812 159.013,267.145 160.5,263.5C 163.128,256.593 166.128,249.927 169.5,243.5 Z"/></g>
<g><path style="opacity:1" fill="#b631c9" d="M 236.5,271.5 C 237.833,271.5 239.167,271.5 240.5,271.5C 247.833,272.167 255.167,272.833 262.5,273.5C 249.079,276.553 235.746,280.053 222.5,284C 214.727,286.392 207.394,289.559 200.5,293.5C 199.225,290.604 199.225,287.604 200.5,284.5C 212.211,279.374 224.211,275.041 236.5,271.5 Z"/></g>
<g><path style="opacity:1" fill="#69326c" d="M 327.5,279.5 C 333.453,295.191 339.12,311.024 344.5,327C 335.173,340.65 325.839,354.316 316.5,368C 285.122,365.796 253.789,362.796 222.5,359C 219.269,353.716 217.602,347.882 217.5,341.5C 239.34,344.827 261.007,343.994 282.5,339C 293.549,335.943 302.382,329.776 309,320.5C 312.333,311.833 315.667,303.167 319,294.5C 321.354,289.113 324.188,284.113 327.5,279.5 Z"/></g>
<g><path style="opacity:1" fill="#572958" d="M 160.5,263.5 C 159.013,267.145 157.513,270.812 156,274.5C 155.211,276.712 155.378,278.712 156.5,280.5C 156.5,283.5 156.5,286.5 156.5,289.5C 154.208,291.267 151.542,292.267 148.5,292.5C 148.769,290.571 148.269,288.905 147,287.5C 138.519,290.157 130.353,293.49 122.5,297.5C 126.484,312.919 130.151,328.419 133.5,344C 131.946,349.273 129.446,354.107 126,358.5C 124.27,342.848 122.77,327.181 121.5,311.5C 121.268,304.997 120.435,298.663 119,292.5C 110.402,295.709 101.568,298.209 92.5,300C 85.0546,300.91 77.7212,300.41 70.5,298.5C 62.0231,300.492 53.6898,302.992 45.5,306C 48.3294,308.827 51.6628,310.827 55.5,312C 61.8333,312.333 68.1667,312.667 74.5,313C 65.1783,315.941 55.845,318.774 46.5,321.5C 43.572,326.732 40.9053,332.232 38.5,338C 37.8235,339.683 36.8235,339.85 35.5,338.5C 33.6519,336.484 31.9852,334.317 30.5,332C 36.0809,317.749 41.7476,303.582 47.5,289.5C 47.1543,288.304 46.6543,288.304 46,289.5C 39.3333,301.5 32.6667,313.5 26,325.5C 23.0202,317.042 20.1869,308.542 17.5,300C 21.7393,297.245 26.4059,295.245 31.5,294C 32.0219,293.439 32.3552,292.772 32.5,292C 28.9548,286.407 25.2881,280.907 21.5,275.5C 24.9231,272.851 28.2565,272.518 31.5,274.5C 34.8461,273.83 38.1794,273.163 41.5,272.5C 43.4327,276.796 45.4327,281.13 47.5,285.5C 49.6114,284.395 50.9447,282.729 51.5,280.5C 52.9335,281.833 54.2668,283.333 55.5,285C 62.8711,284.434 69.8711,282.434 76.5,279C 74.8333,277.333 73.1667,275.667 71.5,274C 74.6493,272.504 77.8159,271.004 81,269.5C 82.586,270.376 84.086,271.376 85.5,272.5C 91.4612,270.291 97.4612,268.291 103.5,266.5C 103.588,271.536 104.088,276.536 105,281.5C 106,280.833 107,280.167 108,279.5C 110.051,274.786 112.885,270.619 116.5,267C 126.789,263.892 137.455,260.392 148.5,256.5C 148.833,257 149.167,257.5 149.5,258C 147.592,260.954 146.758,264.12 147,267.5C 151.289,265.459 155.789,264.126 160.5,263.5 Z"/></g>
<g><path style="opacity:1" fill="#872ab1" d="M 159.5,284.5 C 160.574,303.162 161.574,321.829 162.5,340.5C 160.302,323.524 158.302,306.524 156.5,289.5C 156.5,286.5 156.5,283.5 156.5,280.5C 156.369,279.624 156.702,278.957 157.5,278.5C 158.169,280.631 158.835,282.631 159.5,284.5 Z"/></g>
<g><path style="opacity:1" fill="#5f2d61" d="M 121.5,311.5 C 120.778,311.082 120.278,310.416 120,309.5C 115,311.5 110,313.5 105,315.5C 104.751,314.376 104.251,313.376 103.5,312.5C 84.6095,318.908 65.6095,324.908 46.5,330.5C 46.5,327.5 46.5,324.5 46.5,321.5C 55.845,318.774 65.1783,315.941 74.5,313C 68.1667,312.667 61.8333,312.333 55.5,312C 51.6628,310.827 48.3294,308.827 45.5,306C 53.6898,302.992 62.0231,300.492 70.5,298.5C 77.7212,300.41 85.0546,300.91 92.5,300C 101.568,298.209 110.402,295.709 119,292.5C 120.435,298.663 121.268,304.997 121.5,311.5 Z"/></g>
<g><path style="opacity:1" fill="#67316a" d="M 46.5,330.5 C 65.6095,324.908 84.6095,318.908 103.5,312.5C 104.251,313.376 104.751,314.376 105,315.5C 110,313.5 115,311.5 120,309.5C 120.278,310.416 120.778,311.082 121.5,311.5C 122.77,327.181 124.27,342.848 126,358.5C 129.446,354.107 131.946,349.273 133.5,344C 130.151,328.419 126.484,312.919 122.5,297.5C 130.353,293.49 138.519,290.157 147,287.5C 148.269,288.905 148.769,290.571 148.5,292.5C 151.542,292.267 154.208,291.267 156.5,289.5C 158.302,306.524 160.302,323.524 162.5,340.5C 164.285,324.656 165.952,308.656 167.5,292.5C 173.283,291.025 178.45,288.359 183,284.5C 184.427,286.787 186.261,287.12 188.5,285.5C 188.833,287.167 189.167,288.833 189.5,290.5C 185.955,314.1 182.955,337.767 180.5,361.5C 175.61,363.07 170.61,363.57 165.5,363C 162.333,359.167 159.167,355.333 156,351.5C 155.499,355.51 154.999,359.51 154.5,363.5C 149.474,364.395 144.474,364.395 139.5,363.5C 141.685,359.476 143.518,355.476 145,351.5C 131.951,363.552 118.618,375.219 105,386.5C 86.2693,373.882 67.4359,361.382 48.5,349C 47.8138,342.835 47.1472,336.668 46.5,330.5 Z"/></g>
</svg>
