<?xml version="1.0" encoding="UTF-8"?>
<!DOCTYPE svg PUBLIC "-//W3C//DTD SVG 1.1//EN" "http://www.w3.org/Graphics/SVG/1.1/DTD/svg11.dtd">
<svg xmlns="http://www.w3.org/2000/svg" version="1.1" width="582px" height="428px" style="shape-rendering:geometricPrecision; text-rendering:geometricPrecision; image-rendering:optimizeQuality; fill-rule:evenodd; clip-rule:evenodd" xmlns:xlink="http://www.w3.org/1999/xlink">
<g><path style="opacity:0.994" fill="#2f273a" d="M 414.5,-0.5 C 423.833,-0.5 433.167,-0.5 442.5,-0.5C 444.888,0.348502 447.221,1.3485 449.5,2.5C 429.495,8.05736 410.161,15.3907 391.5,24.5C 385.246,26.583 378.912,28.4164 372.5,30C 366.276,36.9606 359.942,43.794 353.5,50.5C 347.738,51.3568 342.072,52.6902 336.5,54.5C 336.167,54.1667 335.833,53.8333 335.5,53.5C 342.813,44.3863 350.479,35.553 358.5,27C 374.895,18.4706 391.228,9.97059 407.5,1.5C 409.833,0.833333 412.167,0.166667 414.5,-0.5 Z"/></g>
<g><path style="opacity:0.999" fill="#3a2f4b" d="M 407.5,1.5 C 391.228,9.97059 374.895,18.4706 358.5,27C 350.479,35.553 342.813,44.3863 335.5,53.5C 335.833,53.8333 336.167,54.1667 336.5,54.5C 342.072,52.6902 347.738,51.3568 353.5,50.5C 348.5,55.8333 343.5,61.1667 338.5,66.5C 332.447,68.5612 326.281,70.5612 320,72.5C 320.027,70.5826 320.861,68.916 322.5,67.5C 318.596,67.0619 314.929,68.0619 311.5,70.5C 317.004,60.8188 323.004,51.4855 329.5,42.5C 338.284,36.598 346.951,30.4313 355.5,24C 367.228,17.8043 378.895,11.6376 390.5,5.5C 395.874,3.40811 401.54,2.07478 407.5,1.5 Z"/></g>
<g><path style="opacity:0.922" fill="#2e2739" d="M 390.5,5.5 C 378.895,11.6376 367.228,17.8043 355.5,24C 346.951,30.4313 338.284,36.598 329.5,42.5C 333.325,35.5207 337.658,28.854 342.5,22.5C 357.915,15.1234 373.915,9.45669 390.5,5.5 Z"/></g>
<g><path style="opacity:1" fill="#160713" d="M 449.5,2.5 C 466.565,22.5673 482.898,43.234 498.5,64.5C 482.969,70.0676 467.302,75.5676 451.5,81C 452.962,84.094 454.296,87.2606 455.5,90.5C 454.758,91.2868 453.925,91.9535 453,92.5C 451.595,88.7834 450.095,85.1168 448.5,81.5C 440.204,84.4321 431.871,87.2654 423.5,90C 422.549,90.7175 422.383,91.5509 423,92.5C 428.033,98.3623 433.199,104.029 438.5,109.5C 441.088,112.988 443.922,116.321 447,119.5C 447.483,120.448 447.649,121.448 447.5,122.5C 443.508,123.671 439.508,124.505 435.5,125C 428.932,114.014 422.265,103.181 415.5,92.5C 397.278,98.9074 378.945,104.907 360.5,110.5C 361.275,105.516 361.942,100.516 362.5,95.5C 364.283,87.7047 365.617,79.7047 366.5,71.5C 368.451,65.0773 369.785,58.4107 370.5,51.5C 372.233,46.0689 374.4,40.7356 377,35.5C 381.632,31.4487 386.466,27.782 391.5,24.5C 410.161,15.3907 429.495,8.05736 449.5,2.5 Z"/></g>
<g><path style="opacity:1" fill="#403255" d="M 391.5,24.5 C 386.466,27.782 381.632,31.4487 377,35.5C 374.4,40.7356 372.233,46.0689 370.5,51.5C 369.292,50.218 367.958,50.218 366.5,51.5C 364.868,54.9912 363.868,58.6578 363.5,62.5C 362.85,62.1961 362.183,61.8627 361.5,61.5C 354.054,64.205 346.387,65.8717 338.5,66.5C 343.5,61.1667 348.5,55.8333 353.5,50.5C 359.942,43.794 366.276,36.9606 372.5,30C 378.912,28.4164 385.246,26.583 391.5,24.5 Z"/></g>
<g><path style="opacity:1" fill="#472864" d="M 370.5,51.5 C 369.785,58.4107 368.451,65.0773 366.5,71.5C 365.749,70.4265 364.749,70.2599 363.5,71C 362.934,71.9947 362.267,72.828 361.5,73.5C 361.911,69.7785 362.578,66.1119 363.5,62.5C 363.868,58.6578 364.868,54.9912 366.5,51.5C 367.958,50.218 369.292,50.218 370.5,51.5 Z"/></g>
<g><path style="opacity:1" fill="#402b57" d="M 363.5,62.5 C 362.578,66.1119 361.911,69.7785 361.5,73.5C 361.326,75.861 360.993,78.1944 360.5,80.5C 349.939,83.9726 339.273,86.8059 328.5,89C 334.54,83.2908 340.874,77.9575 347.5,73C 347,72.8333 346.5,72.6667 346,72.5C 339.431,73.7095 333.265,75.8762 327.5,79C 320.971,86.1164 312.971,89.6164 303.5,89.5C 305.672,86.3701 304.672,85.7034 300.5,87.5C 303.422,81.3143 307.089,75.6476 311.5,70.5C 314.929,68.0619 318.596,67.0619 322.5,67.5C 320.861,68.916 320.027,70.5826 320,72.5C 326.281,70.5612 332.447,68.5612 338.5,66.5C 346.387,65.8717 354.054,64.205 361.5,61.5C 362.183,61.8627 362.85,62.1961 363.5,62.5 Z"/></g>
<g><path style="opacity:1" fill="#1e0b1a" d="M 506.5,74.5 C 510.557,78.2837 513.891,82.617 516.5,87.5C 516.38,88.5862 515.713,89.2528 514.5,89.5C 509.443,90.8471 504.443,92.3471 499.5,94C 495.582,99.8332 491.916,105.833 488.5,112C 482.273,114.465 475.94,116.631 469.5,118.5C 468.287,118.747 467.62,119.414 467.5,120.5C 464.9,114.886 462.567,109.053 460.5,103C 460.833,102.5 461.167,102 461.5,101.5C 474.796,96.9012 488.13,92.4012 501.5,88C 505.103,84.0063 506.77,79.5063 506.5,74.5 Z"/></g>
<g><path style="opacity:1" fill="#532479" d="M 366.5,71.5 C 365.617,79.7047 364.283,87.7047 362.5,95.5C 363.128,91.5089 361.795,90.1755 358.5,91.5C 359.167,87.8333 359.833,84.1667 360.5,80.5C 360.993,78.1944 361.326,75.861 361.5,73.5C 362.267,72.828 362.934,71.9947 363.5,71C 364.749,70.2599 365.749,70.4265 366.5,71.5 Z"/></g>
<g><path style="opacity:1" fill="#190916" d="M 498.5,64.5 C 501.516,67.5203 504.183,70.8536 506.5,74.5C 506.77,79.5063 505.103,84.0063 501.5,88C 488.13,92.4012 474.796,96.9012 461.5,101.5C 461.167,102 460.833,102.5 460.5,103C 462.567,109.053 464.9,114.886 467.5,120.5C 468.74,123.835 469.574,127.168 470,130.5C 466.964,127.296 463.797,124.296 460.5,121.5C 459.122,115.249 457.122,109.249 454.5,103.5C 448.99,105.332 443.657,107.332 438.5,109.5C 433.199,104.029 428.033,98.3623 423,92.5C 422.383,91.5509 422.549,90.7175 423.5,90C 431.871,87.2654 440.204,84.4321 448.5,81.5C 450.095,85.1168 451.595,88.7834 453,92.5C 453.925,91.9535 454.758,91.2868 455.5,90.5C 454.296,87.2606 452.962,84.094 451.5,81C 467.302,75.5676 482.969,70.0676 498.5,64.5 Z"/></g>
<g><path style="opacity:1" fill="#210c1d" d="M 516.5,87.5 C 521.561,92.2288 525.894,97.5622 529.5,103.5C 529.631,104.239 529.464,104.906 529,105.5C 522.865,110.634 517.031,116.134 511.5,122C 507.523,122.785 503.689,123.951 500,125.5C 499.333,124.833 499.333,124.167 500,123.5C 504.167,118.667 508.333,113.833 512.5,109C 504.343,109.88 496.343,111.713 488.5,114.5C 482.151,123.867 476.317,133.534 471,143.5C 470.775,148.883 471.275,154.217 472.5,159.5C 466.824,159.666 461.157,159.499 455.5,159C 452.428,154.353 449.762,149.52 447.5,144.5C 454.836,144.988 462.169,145.155 469.5,145C 463.647,138.648 457.98,132.148 452.5,125.5C 454.824,123.606 457.491,122.273 460.5,121.5C 463.797,124.296 466.964,127.296 470,130.5C 469.574,127.168 468.74,123.835 467.5,120.5C 467.62,119.414 468.287,118.747 469.5,118.5C 475.94,116.631 482.273,114.465 488.5,112C 491.916,105.833 495.582,99.8332 499.5,94C 504.443,92.3471 509.443,90.8471 514.5,89.5C 515.713,89.2528 516.38,88.5862 516.5,87.5 Z"/></g>
<g><path style="opacity:1" fill="#4d2a6e" d="M 354.5,95.5 C 349.403,99.2249 344.07,102.725 338.5,106C 327.616,109.637 316.616,112.804 305.5,115.5C 302.45,113.451 300.117,110.784 298.5,107.5C 301.899,105.612 304.899,103.112 307.5,100C 310.935,99.1157 314.268,97.949 317.5,96.5C 315.566,99.9889 312.733,103.322 309,106.5C 308.409,107.483 308.743,108.15 310,108.5C 324.651,103.449 339.484,99.1153 354.5,95.5 Z"/></g>
<g><path style="opacity:1" fill="#572d7c" d="M 358.5,93.5 C 357.209,99.4574 356.209,105.457 355.5,111.5C 355.5,112.167 355.5,112.833 355.5,113.5C 346.041,116.24 336.541,118.907 327,121.5C 326.228,121.355 325.561,121.022 325,120.5C 322.522,122.82 319.689,124.486 316.5,125.5C 312.209,122.877 308.543,119.544 305.5,115.5C 316.616,112.804 327.616,109.637 338.5,106C 344.07,102.725 349.403,99.2249 354.5,95.5C 355.833,94.8333 357.167,94.1667 358.5,93.5 Z"/></g>
<g><path style="opacity:1" fill="#472a63" d="M 360.5,80.5 C 359.833,84.1667 359.167,87.8333 358.5,91.5C 358.5,92.1667 358.5,92.8333 358.5,93.5C 357.167,94.1667 355.833,94.8333 354.5,95.5C 339.484,99.1153 324.651,103.449 310,108.5C 308.743,108.15 308.409,107.483 309,106.5C 312.733,103.322 315.566,99.9889 317.5,96.5C 314.268,97.949 310.935,99.1157 307.5,100C 304.899,103.112 301.899,105.612 298.5,107.5C 298.068,106.29 297.401,105.29 296.5,104.5C 296.118,99.6383 296.784,94.9716 298.5,90.5C 298.427,88.9731 299.094,87.9731 300.5,87.5C 304.672,85.7034 305.672,86.3701 303.5,89.5C 312.971,89.6164 320.971,86.1164 327.5,79C 333.265,75.8762 339.431,73.7095 346,72.5C 346.5,72.6667 347,72.8333 347.5,73C 340.874,77.9575 334.54,83.2908 328.5,89C 339.273,86.8059 349.939,83.9726 360.5,80.5 Z"/></g>
<g><path style="opacity:0.986" fill="#2f283a" d="M 262.5,103.5 C 248.347,139.985 223.347,165.985 187.5,181.5C 186.374,177.914 184.707,174.581 182.5,171.5C 180.271,172.577 177.937,173.244 175.5,173.5C 174.321,166.439 172.821,159.439 171,152.5C 170.833,153.333 170.667,154.167 170.5,155C 172.162,165.466 173.495,175.966 174.5,186.5C 173.298,185.595 171.964,185.595 170.5,186.5C 146.26,191.773 122.593,190.106 99.5,181.5C 87.3951,175.939 76.3951,168.606 66.5,159.5C 52.4053,167.541 38.4053,175.541 24.5,183.5C 20.8333,175.5 17.1667,167.5 13.5,159.5C 13.3713,157.784 13.038,156.117 12.5,154.5C 21.3384,145.497 30.6717,136.997 40.5,129C 84.8552,127.146 128.022,133.313 170,147.5C 187.978,130.257 208.144,116.091 230.5,105C 234.592,102.914 238.925,101.747 243.5,101.5C 249.841,102.168 256.175,102.834 262.5,103.5 Z"/></g>
<g><path style="opacity:1" fill="#3c304b" d="M 262.5,103.5 C 267.01,103.884 271.343,104.551 275.5,105.5C 273.801,105.34 272.134,105.506 270.5,106C 275.139,107.653 279.472,109.819 283.5,112.5C 280.642,118.204 277.142,123.537 273,128.5C 265.559,136.098 258.726,144.098 252.5,152.5C 242.194,158.321 231.861,164.155 221.5,170C 218.119,175.26 215.119,180.76 212.5,186.5C 207.773,188.864 203.106,191.197 198.5,193.5C 197.432,194.434 196.099,194.768 194.5,194.5C 191.912,190.326 189.579,185.993 187.5,181.5C 223.347,165.985 248.347,139.985 262.5,103.5 Z"/></g>
<g><path style="opacity:1" fill="#6d299e" d="M 362.5,95.5 C 361.942,100.516 361.275,105.516 360.5,110.5C 360.737,111.791 360.404,112.791 359.5,113.5C 359.5,112.5 359.5,111.5 359.5,110.5C 358.041,110.433 356.708,110.766 355.5,111.5C 356.209,105.457 357.209,99.4574 358.5,93.5C 358.5,92.8333 358.5,92.1667 358.5,91.5C 361.795,90.1755 363.128,91.5089 362.5,95.5 Z"/></g>
<g><path style="opacity:1" fill="#5c2985" d="M 355.5,113.5 C 354.173,120.113 353.173,126.78 352.5,133.5C 352.5,135.5 352.5,137.5 352.5,139.5C 345.995,138.79 339.661,137.29 333.5,135C 327.78,132.14 322.114,129.307 316.5,126.5C 316.5,126.167 316.5,125.833 316.5,125.5C 319.689,124.486 322.522,122.82 325,120.5C 325.561,121.022 326.228,121.355 327,121.5C 336.541,118.907 346.041,116.24 355.5,113.5 Z"/></g>
<g><path style="opacity:1" fill="#1b0918" d="M 438.5,109.5 C 443.657,107.332 448.99,105.332 454.5,103.5C 457.122,109.249 459.122,115.249 460.5,121.5C 457.491,122.273 454.824,123.606 452.5,125.5C 457.98,132.148 463.647,138.648 469.5,145C 462.169,145.155 454.836,144.988 447.5,144.5C 446.833,144.167 446.167,143.833 445.5,143.5C 443.359,138.553 440.692,133.887 437.5,129.5C 422.686,135.105 407.686,140.105 392.5,144.5C 390.5,141.833 388.5,139.167 386.5,136.5C 379.827,128.161 373.16,119.828 366.5,111.5C 364.24,119.053 362.407,126.72 361,134.5C 359.708,135.791 358.542,135.791 357.5,134.5C 357.791,127.462 358.458,120.462 359.5,113.5C 360.404,112.791 360.737,111.791 360.5,110.5C 378.945,104.907 397.278,98.9074 415.5,92.5C 422.265,103.181 428.932,114.014 435.5,125C 439.508,124.505 443.508,123.671 447.5,122.5C 447.649,121.448 447.483,120.448 447,119.5C 443.922,116.321 441.088,112.988 438.5,109.5 Z"/></g>
<g><path style="opacity:1" fill="#7e26b6" d="M 359.5,113.5 C 358.458,120.462 357.791,127.462 357.5,134.5C 357.167,134.5 356.833,134.5 356.5,134.5C 356.724,129.855 355.39,129.522 352.5,133.5C 353.173,126.78 354.173,120.113 355.5,113.5C 355.5,112.833 355.5,112.167 355.5,111.5C 356.708,110.766 358.041,110.433 359.5,110.5C 359.5,111.5 359.5,112.5 359.5,113.5 Z"/></g>
<g><path style="opacity:1" fill="#7129a3" d="M 296.5,104.5 C 297.401,105.29 298.068,106.29 298.5,107.5C 300.117,110.784 302.45,113.451 305.5,115.5C 308.543,119.544 312.209,122.877 316.5,125.5C 316.5,125.833 316.5,126.167 316.5,126.5C 314.246,127.124 312.579,128.457 311.5,130.5C 310.5,129.833 309.5,129.167 308.5,128.5C 305.497,124.657 302.664,120.657 300,116.5C 297.901,112.769 296.734,108.769 296.5,104.5 Z"/></g>
<g><path style="opacity:1" fill="#140316" d="M 298.5,90.5 C 296.784,94.9716 296.118,99.6383 296.5,104.5C 296.734,108.769 297.901,112.769 300,116.5C 302.664,120.657 305.497,124.657 308.5,128.5C 307.833,128.5 307.167,128.5 306.5,128.5C 303.379,126.552 300.379,124.385 297.5,122C 296.833,121.333 296.167,121.333 295.5,122C 291.281,128.946 286.948,135.779 282.5,142.5C 275.833,146.833 269.167,151.167 262.5,155.5C 255.213,159.472 248.213,163.805 241.5,168.5C 236.643,170.514 232.143,173.181 228,176.5C 223.279,183.048 218.779,189.715 214.5,196.5C 211.833,200.167 209.167,203.833 206.5,207.5C 205.041,207.567 203.708,207.234 202.5,206.5C 202.5,205.833 202.5,205.167 202.5,204.5C 204.863,201.451 206.863,198.118 208.5,194.5C 210.137,192.876 209.803,191.876 207.5,191.5C 204.521,192.328 201.521,192.995 198.5,193.5C 203.106,191.197 207.773,188.864 212.5,186.5C 215.119,180.76 218.119,175.26 221.5,170C 231.861,164.155 242.194,158.321 252.5,152.5C 268.151,144.694 281.984,134.36 294,121.5C 294.507,120.004 294.007,118.837 292.5,118C 289.472,116.156 286.472,114.322 283.5,112.5C 279.472,109.819 275.139,107.653 270.5,106C 272.134,105.506 273.801,105.34 275.5,105.5C 279.559,105.566 283.559,105.733 287.5,106C 290.82,100.503 294.487,95.3362 298.5,90.5 Z"/></g>
<g><path style="opacity:1" fill="#342a41" d="M 283.5,112.5 C 286.472,114.322 289.472,116.156 292.5,118C 294.007,118.837 294.507,120.004 294,121.5C 281.984,134.36 268.151,144.694 252.5,152.5C 258.726,144.098 265.559,136.098 273,128.5C 277.142,123.537 280.642,118.204 283.5,112.5 Z"/></g>
<g><path style="opacity:1" fill="#402f4e" d="M 306.5,129.5 C 307.167,129.833 307.833,130.167 308.5,130.5C 300.716,137.012 292.883,143.679 285,150.5C 273.588,165.914 260.755,180.081 246.5,193C 252.115,191.634 257.782,190.134 263.5,188.5C 261.527,189.806 259.861,191.473 258.5,193.5C 247.838,202.333 235.838,208.833 222.5,213C 218.973,213.808 215.64,213.641 212.5,212.5C 216.127,211.72 219.46,210.22 222.5,208C 241.333,194.5 257.5,178.333 271,159.5C 281.846,148.14 293.679,138.14 306.5,129.5 Z"/></g>
<g><path style="opacity:1" fill="#200c1d" d="M 445.5,143.5 C 431.771,149.02 417.771,154.02 403.5,158.5C 399.833,153.833 396.167,149.167 392.5,144.5C 407.686,140.105 422.686,135.105 437.5,129.5C 440.692,133.887 443.359,138.553 445.5,143.5 Z"/></g>
<g><path style="opacity:1" fill="#372941" d="M 308.5,130.5 C 310.5,131.833 312.167,133.5 313.5,135.5C 310.783,136.563 307.949,137.563 305,138.5C 302.661,143.852 299.828,148.852 296.5,153.5C 292.927,157.644 289.594,161.978 286.5,166.5C 282.833,169.5 279.5,172.833 276.5,176.5C 272.167,180.5 267.833,184.5 263.5,188.5C 257.782,190.134 252.115,191.634 246.5,193C 260.755,180.081 273.588,165.914 285,150.5C 292.883,143.679 300.716,137.012 308.5,130.5 Z"/></g>
<g><path style="opacity:1" fill="#8c27c7" d="M 316.5,126.5 C 322.114,129.307 327.78,132.14 333.5,135C 339.661,137.29 345.995,138.79 352.5,139.5C 352.5,137.5 352.5,135.5 352.5,133.5C 355.39,129.522 356.724,129.855 356.5,134.5C 356.477,140.039 355.643,145.372 354,150.5C 337.938,147.717 323.771,141.051 311.5,130.5C 312.579,128.457 314.246,127.124 316.5,126.5 Z"/></g>
<g><path style="opacity:1" fill="#402853" d="M 313.5,135.5 C 318.152,138.821 322.485,142.487 326.5,146.5C 316.5,148.833 306.5,151.167 296.5,153.5C 299.828,148.852 302.661,143.852 305,138.5C 307.949,137.563 310.783,136.563 313.5,135.5 Z"/></g>
<g><path style="opacity:1" fill="#2e1329" d="M 386.5,136.5 C 388.5,139.167 390.5,141.833 392.5,144.5C 396.167,149.167 399.833,153.833 403.5,158.5C 405.885,160.884 407.885,163.55 409.5,166.5C 395.448,170.295 381.448,174.295 367.5,178.5C 362.748,167.277 361.415,155.61 363.5,143.5C 371.119,140.96 378.786,138.626 386.5,136.5 Z"/></g>
<g><path style="opacity:1" fill="#4a2964" d="M 326.5,146.5 C 329.167,148.5 331.5,150.833 333.5,153.5C 318.021,158.436 302.354,162.77 286.5,166.5C 289.594,161.978 292.927,157.644 296.5,153.5C 306.5,151.167 316.5,148.833 326.5,146.5 Z"/></g>
<g><path style="opacity:1" fill="#4d2b6a" d="M 282.5,142.5 C 284.981,143.696 284.981,145.196 282.5,147C 277.097,149.692 272.097,152.858 267.5,156.5C 266.833,156.5 266.167,156.5 265.5,156.5C 264.791,155.596 263.791,155.263 262.5,155.5C 269.167,151.167 275.833,146.833 282.5,142.5 Z"/></g>
<g><path style="opacity:1" fill="#522970" d="M 333.5,153.5 C 335.833,155.167 337.833,157.167 339.5,159.5C 318.537,165.324 297.537,170.991 276.5,176.5C 279.5,172.833 282.833,169.5 286.5,166.5C 302.354,162.77 318.021,158.436 333.5,153.5 Z"/></g>
<g><path style="opacity:1" fill="#2c1128" d="M 555.5,136.5 C 560.542,142.208 565.209,148.208 569.5,154.5C 553.589,160.139 537.589,165.806 521.5,171.5C 517.694,182.92 513.694,194.253 509.5,205.5C 508.135,206.456 506.635,207.122 505,207.5C 503.97,207.164 503.47,206.497 503.5,205.5C 504.363,203.579 505.029,201.579 505.5,199.5C 509.862,191.272 513.862,182.772 517.5,174C 517.167,173.5 516.833,173 516.5,172.5C 504.204,176.765 491.87,180.932 479.5,185C 478.748,185.671 478.414,186.504 478.5,187.5C 476.041,177.738 474.541,167.738 474,157.5C 480.855,151.643 487.355,145.476 493.5,139C 498.506,137.555 503.339,135.721 508,133.5C 508.167,133.833 508.333,134.167 508.5,134.5C 497.352,143.813 486.352,153.313 475.5,163C 502.4,154.867 529.067,146.033 555.5,136.5 Z"/></g>
<g><path style="opacity:1" fill="#260e22" d="M 529.5,103.5 C 538.397,114.279 547.063,125.279 555.5,136.5C 529.067,146.033 502.4,154.867 475.5,163C 486.352,153.313 497.352,143.813 508.5,134.5C 508.333,134.167 508.167,133.833 508,133.5C 503.339,135.721 498.506,137.555 493.5,139C 487.355,145.476 480.855,151.643 474,157.5C 474.541,167.738 476.041,177.738 478.5,187.5C 479.416,191.822 479.916,196.155 480,200.5C 471.968,187.146 463.968,173.813 456,160.5C 455.457,163.868 455.624,167.201 456.5,170.5C 454.173,170.665 452.007,171.331 450,172.5C 449.501,166.509 449.334,160.509 449.5,154.5C 447.029,154.233 445.362,155.233 444.5,157.5C 443.119,163.121 441.952,168.788 441,174.5C 438.121,176.573 434.954,177.407 431.5,177C 427.215,172.26 423.048,167.427 419,162.5C 423.375,171.062 428.208,179.562 433.5,188C 431.482,188.505 429.482,189.005 427.5,189.5C 421.469,181.809 415.469,174.142 409.5,166.5C 407.885,163.55 405.885,160.884 403.5,158.5C 417.771,154.02 431.771,149.02 445.5,143.5C 446.167,143.833 446.833,144.167 447.5,144.5C 449.762,149.52 452.428,154.353 455.5,159C 461.157,159.499 466.824,159.666 472.5,159.5C 471.275,154.217 470.775,148.883 471,143.5C 476.317,133.534 482.151,123.867 488.5,114.5C 496.343,111.713 504.343,109.88 512.5,109C 508.333,113.833 504.167,118.667 500,123.5C 499.333,124.167 499.333,124.833 500,125.5C 503.689,123.951 507.523,122.785 511.5,122C 517.031,116.134 522.865,110.634 529,105.5C 529.464,104.906 529.631,104.239 529.5,103.5 Z"/></g>
<g><path style="opacity:1" fill="#362d44" d="M 99.5,181.5 C 97.302,181.12 95.6354,181.787 94.5,183.5C 84.4101,178.955 74.7434,173.621 65.5,167.5C 53.4815,176.524 41.4815,185.524 29.5,194.5C 27.5617,190.957 25.8951,187.29 24.5,183.5C 38.4053,175.541 52.4053,167.541 66.5,159.5C 76.3951,168.606 87.3951,175.939 99.5,181.5 Z"/></g>
<g><path style="opacity:1" fill="#642f91" d="M 262.5,155.5 C 263.791,155.263 264.791,155.596 265.5,156.5C 258.041,161.735 250.374,166.735 242.5,171.5C 242.443,170.391 242.11,169.391 241.5,168.5C 248.213,163.805 255.213,159.472 262.5,155.5 Z"/></g>
<g><path style="opacity:1" fill="#230d20" d="M 386.5,136.5 C 378.786,138.626 371.119,140.96 363.5,143.5C 361.415,155.61 362.748,167.277 367.5,178.5C 369.896,185.886 373.896,192.219 379.5,197.5C 377.235,198.647 374.902,198.814 372.5,198C 363.265,190.762 353.098,185.262 342,181.5C 311.909,192.463 282.742,205.463 254.5,220.5C 245.786,222.96 237.119,225.627 228.5,228.5C 227.893,228.376 227.56,228.043 227.5,227.5C 231.5,225.167 235.5,222.833 239.5,220.5C 249.677,214.911 260.01,209.578 270.5,204.5C 289.805,195.063 309.472,186.396 329.5,178.5C 336.474,175.682 343.474,172.849 350.5,170C 347.631,166.962 344.631,164.129 341.5,161.5C 341.167,160.5 340.5,159.833 339.5,159.5C 337.833,157.167 335.833,155.167 333.5,153.5C 331.5,150.833 329.167,148.5 326.5,146.5C 322.485,142.487 318.152,138.821 313.5,135.5C 312.167,133.5 310.5,131.833 308.5,130.5C 307.833,130.167 307.167,129.833 306.5,129.5C 306.5,129.167 306.5,128.833 306.5,128.5C 307.167,128.5 307.833,128.5 308.5,128.5C 309.5,129.167 310.5,129.833 311.5,130.5C 323.771,141.051 337.938,147.717 354,150.5C 355.643,145.372 356.477,140.039 356.5,134.5C 356.833,134.5 357.167,134.5 357.5,134.5C 358.542,135.791 359.708,135.791 361,134.5C 362.407,126.72 364.24,119.053 366.5,111.5C 373.16,119.828 379.827,128.161 386.5,136.5 Z"/></g>
<g><path style="opacity:1" fill="#30283b" d="M 94.5,183.5 C 103.904,187.357 113.571,190.523 123.5,193C 113.693,196.785 103.693,199.952 93.5,202.5C 86.5505,199.697 79.5505,196.864 72.5,194C 56.7743,190.538 45.1077,195.705 37.5,209.5C 34.595,204.693 31.9283,199.693 29.5,194.5C 41.4815,185.524 53.4815,176.524 65.5,167.5C 74.7434,173.621 84.4101,178.955 94.5,183.5 Z"/></g>
<g><path style="opacity:1" fill="#331631" d="M 569.5,154.5 C 573.874,158.872 577.874,163.539 581.5,168.5C 581.5,169.5 581.5,170.5 581.5,171.5C 574.695,188.581 567.695,205.581 560.5,222.5C 560.44,221.957 560.107,221.624 559.5,221.5C 555.687,223.588 551.687,224.755 547.5,225C 552.874,215.75 558.374,206.584 564,197.5C 564.688,196.668 564.521,196.002 563.5,195.5C 552.128,199.568 540.795,203.735 529.5,208C 527.819,214.687 527.152,221.52 527.5,228.5C 531.514,228.334 535.514,228.501 539.5,229C 521.87,234.932 504.203,240.766 486.5,246.5C 485.386,245.277 485.219,243.944 486,242.5C 491.572,229.901 497.406,217.567 503.5,205.5C 503.47,206.497 503.97,207.164 505,207.5C 506.635,207.122 508.135,206.456 509.5,205.5C 513.694,194.253 517.694,182.92 521.5,171.5C 537.589,165.806 553.589,160.139 569.5,154.5 Z"/></g>
<g><path style="opacity:1" fill="#5a2a7f" d="M 339.5,159.5 C 340.5,159.833 341.167,160.5 341.5,161.5C 319.753,169.861 298.419,179.195 277.5,189.5C 276.167,189.833 274.833,190.167 273.5,190.5C 268.462,191.343 263.462,192.343 258.5,193.5C 259.861,191.473 261.527,189.806 263.5,188.5C 267.833,184.5 272.167,180.5 276.5,176.5C 297.537,170.991 318.537,165.324 339.5,159.5 Z"/></g>
<g><path style="opacity:1" fill="#7329a1" d="M 341.5,161.5 C 344.631,164.129 347.631,166.962 350.5,170C 343.474,172.849 336.474,175.682 329.5,178.5C 329.083,177.876 328.416,177.543 327.5,177.5C 310.746,181.189 294.08,185.189 277.5,189.5C 298.419,179.195 319.753,169.861 341.5,161.5 Z"/></g>
<g><path style="opacity:1" fill="#3b284c" d="M 187.5,181.5 C 184.598,182.578 181.598,183.244 178.5,183.5C 178.5,184.833 178.5,186.167 178.5,187.5C 176.898,183.079 175.898,178.412 175.5,173.5C 177.937,173.244 180.271,172.577 182.5,171.5C 184.707,174.581 186.374,177.914 187.5,181.5 Z"/></g>
<g><path style="opacity:1" fill="#392943" d="M 306.5,128.5 C 306.5,128.833 306.5,129.167 306.5,129.5C 293.679,138.14 281.846,148.14 271,159.5C 257.5,178.333 241.333,194.5 222.5,208C 219.46,210.22 216.127,211.72 212.5,212.5C 210.716,212.107 209.05,211.441 207.5,210.5C 208.075,208.589 209.075,206.922 210.5,205.5C 233.436,193.908 252.436,177.575 267.5,156.5C 272.097,152.858 277.097,149.692 282.5,147C 284.981,145.196 284.981,143.696 282.5,142.5C 286.948,135.779 291.281,128.946 295.5,122C 296.167,121.333 296.833,121.333 297.5,122C 300.379,124.385 303.379,126.552 306.5,128.5 Z"/></g>
<g><path style="opacity:1" fill="#762fb0" d="M 241.5,168.5 C 242.11,169.391 242.443,170.391 242.5,171.5C 238.861,173.655 235.194,175.822 231.5,178C 226.268,184.993 220.934,191.826 215.5,198.5C 215.672,197.508 215.338,196.842 214.5,196.5C 218.779,189.715 223.279,183.048 228,176.5C 232.143,173.181 236.643,170.514 241.5,168.5 Z"/></g>
<g><path style="opacity:1" fill="#433152" d="M 265.5,156.5 C 266.167,156.5 266.833,156.5 267.5,156.5C 252.436,177.575 233.436,193.908 210.5,205.5C 212.412,203.343 214.079,201.009 215.5,198.5C 220.934,191.826 226.268,184.993 231.5,178C 235.194,175.822 238.861,173.655 242.5,171.5C 250.374,166.735 258.041,161.735 265.5,156.5 Z"/></g>
<g><path style="opacity:1" fill="#33162e" d="M 409.5,166.5 C 415.469,174.142 421.469,181.809 427.5,189.5C 411.821,192.151 396.154,194.984 380.5,198C 384.682,202.349 389.015,206.515 393.5,210.5C 392.675,211.386 391.675,211.719 390.5,211.5C 390.167,211.5 389.833,211.5 389.5,211.5C 385.088,207.446 380.421,203.613 375.5,200C 373.5,199.333 371.5,199.333 369.5,200C 322.897,213.66 277.23,229.493 232.5,247.5C 231.15,244.048 230.65,240.381 231,236.5C 238.466,230.525 246.299,225.192 254.5,220.5C 282.742,205.463 311.909,192.463 342,181.5C 353.098,185.262 363.265,190.762 372.5,198C 374.902,198.814 377.235,198.647 379.5,197.5C 373.896,192.219 369.896,185.886 367.5,178.5C 381.448,174.295 395.448,170.295 409.5,166.5 Z"/></g>
<g><path style="opacity:1" fill="#7c29ae" d="M 329.5,178.5 C 309.472,186.396 289.805,195.063 270.5,204.5C 270.265,203.903 269.765,203.57 269,203.5C 256.292,207.385 243.458,210.719 230.5,213.5C 244.674,205.579 259.008,197.912 273.5,190.5C 274.833,190.167 276.167,189.833 277.5,189.5C 294.08,185.189 310.746,181.189 327.5,177.5C 328.416,177.543 329.083,177.876 329.5,178.5 Z"/></g>
<g><path style="opacity:1" fill="#4e2d6a" d="M 187.5,181.5 C 189.579,185.993 191.912,190.326 194.5,194.5C 190.405,196.279 186.072,197.612 181.5,198.5C 181.5,199.833 181.5,201.167 181.5,202.5C 179.882,197.744 178.882,192.744 178.5,187.5C 178.5,186.167 178.5,184.833 178.5,183.5C 181.598,183.244 184.598,182.578 187.5,181.5 Z"/></g>
<g><path style="opacity:1" fill="#30142d" d="M 478.5,187.5 C 478.414,186.504 478.748,185.671 479.5,185C 491.87,180.932 504.204,176.765 516.5,172.5C 516.833,173 517.167,173.5 517.5,174C 513.862,182.772 509.862,191.272 505.5,199.5C 495.102,202.016 484.602,205.349 474,209.5C 471.273,203.321 468.94,196.987 467,190.5C 464.902,188.364 462.568,188.364 460,190.5C 459.911,198.014 459.744,205.348 459.5,212.5C 453.046,204.207 446.379,196.041 439.5,188C 437.866,187.506 436.199,187.34 434.5,187.5C 438.953,196.395 443.953,205.062 449.5,213.5C 448.192,214.626 446.858,214.626 445.5,213.5C 439.885,205.217 433.885,197.217 427.5,189.5C 429.482,189.005 431.482,188.505 433.5,188C 428.208,179.562 423.375,171.062 419,162.5C 423.048,167.427 427.215,172.26 431.5,177C 434.954,177.407 438.121,176.573 441,174.5C 441.952,168.788 443.119,163.121 444.5,157.5C 445.362,155.233 447.029,154.233 449.5,154.5C 449.334,160.509 449.501,166.509 450,172.5C 452.007,171.331 454.173,170.665 456.5,170.5C 455.624,167.201 455.457,163.868 456,160.5C 463.968,173.813 471.968,187.146 480,200.5C 479.916,196.155 479.416,191.822 478.5,187.5 Z"/></g>
<g><path style="opacity:1" fill="#382b44" d="M 99.5,181.5 C 122.593,190.106 146.26,191.773 170.5,186.5C 170.451,193.849 170.118,201.183 169.5,208.5C 169.5,209.167 169.167,209.5 168.5,209.5C 145.675,215.548 123.175,214.548 101,206.5C 99.8315,207.009 98.9981,207.842 98.5,209C 88.6127,212.353 78.6127,215.186 68.5,217.5C 66.2543,216.545 63.921,215.878 61.5,215.5C 58.2765,213.058 54.6098,211.391 50.5,210.5C 46.9664,211.922 43.2998,212.589 39.5,212.5C 38.5987,211.71 37.9321,210.71 37.5,209.5C 45.1077,195.705 56.7743,190.538 72.5,194C 79.5505,196.864 86.5505,199.697 93.5,202.5C 103.693,199.952 113.693,196.785 123.5,193C 113.571,190.523 103.904,187.357 94.5,183.5C 95.6354,181.787 97.302,181.12 99.5,181.5 Z"/></g>
<g><path style="opacity:1" fill="#402f4e" d="M 208.5,194.5 C 206.863,198.118 204.863,201.451 202.5,204.5C 199.385,202.572 197.552,199.906 197,196.5C 200.767,195.632 204.601,194.965 208.5,194.5 Z"/></g>
<g><path style="opacity:1" fill="#5c2e80" d="M 208.5,194.5 C 204.601,194.965 200.767,195.632 197,196.5C 197.552,199.906 199.385,202.572 202.5,204.5C 202.5,205.167 202.5,205.833 202.5,206.5C 202.167,207.5 201.5,208.167 200.5,208.5C 199.07,208.421 197.736,208.754 196.5,209.5C 195.719,208.263 194.719,207.263 193.5,206.5C 190.548,207.654 187.548,208.654 184.5,209.5C 183.614,210.325 183.281,211.325 183.5,212.5C 182.215,209.411 181.549,206.078 181.5,202.5C 181.5,201.167 181.5,199.833 181.5,198.5C 186.072,197.612 190.405,196.279 194.5,194.5C 196.099,194.768 197.432,194.434 198.5,193.5C 201.521,192.995 204.521,192.328 207.5,191.5C 209.803,191.876 210.137,192.876 208.5,194.5 Z"/></g>
<g><path style="opacity:1" fill="#852bc5" d="M 214.5,196.5 C 215.338,196.842 215.672,197.508 215.5,198.5C 214.079,201.009 212.412,203.343 210.5,205.5C 209.075,206.922 208.075,208.589 207.5,210.5C 204.5,213.833 201.5,217.167 198.5,220.5C 200.905,216.027 203.571,211.694 206.5,207.5C 209.167,203.833 211.833,200.167 214.5,196.5 Z"/></g>
<g><path style="opacity:1" fill="#522971" d="M 174.5,186.5 C 175.499,194.484 176.499,202.484 177.5,210.5C 176.833,209.5 176.167,208.5 175.5,207.5C 173.621,208.341 171.621,208.675 169.5,208.5C 170.118,201.183 170.451,193.849 170.5,186.5C 171.964,185.595 173.298,185.595 174.5,186.5 Z"/></g>
<g><path style="opacity:1" fill="#3d2d4a" d="M 168.5,209.5 C 168.962,215.232 166.962,219.732 162.5,223C 147.576,227.974 132.243,229.807 116.5,228.5C 107.539,226.982 98.5392,225.648 89.5,224.5C 83.9831,222.7 78.3164,221.033 72.5,219.5C 71.1667,218.833 69.8333,218.167 68.5,217.5C 78.6127,215.186 88.6127,212.353 98.5,209C 98.9981,207.842 99.8315,207.009 101,206.5C 123.175,214.548 145.675,215.548 168.5,209.5 Z"/></g>
<g><path style="opacity:1" fill="#8829bf" d="M 270.5,204.5 C 260.01,209.578 249.677,214.911 239.5,220.5C 239.189,219.522 238.522,218.855 237.5,218.5C 225.546,222.041 213.546,225.374 201.5,228.5C 201.833,227.833 202.167,227.167 202.5,226.5C 204.841,222.639 208.175,221.639 212.5,223.5C 218.527,220.155 224.527,216.821 230.5,213.5C 243.458,210.719 256.292,207.385 269,203.5C 269.765,203.57 270.265,203.903 270.5,204.5 Z"/></g>
<g><path style="opacity:1" fill="#432e58" d="M 61.5,215.5 C 56.8534,215.786 52.3534,216.786 48,218.5C 46.2341,217.767 44.4008,217.433 42.5,217.5C 40.7497,216.341 39.7497,214.674 39.5,212.5C 43.2998,212.589 46.9664,211.922 50.5,210.5C 54.6098,211.391 58.2765,213.058 61.5,215.5 Z"/></g>
<g><path style="opacity:1" fill="#6a2c99" d="M 273.5,190.5 C 259.008,197.912 244.674,205.579 230.5,213.5C 224.527,216.821 218.527,220.155 212.5,223.5C 208.175,221.639 204.841,222.639 202.5,226.5C 199.786,226.75 197.119,226.917 194.5,227C 195.823,226.184 196.489,225.017 196.5,223.5C 196.427,221.973 197.094,220.973 198.5,220.5C 201.5,217.167 204.5,213.833 207.5,210.5C 209.05,211.441 210.716,212.107 212.5,212.5C 215.64,213.641 218.973,213.808 222.5,213C 235.838,208.833 247.838,202.333 258.5,193.5C 263.462,192.343 268.462,191.343 273.5,190.5 Z"/></g>
<g><path style="opacity:1" fill="#210c1e" d="M 175.5,173.5 C 175.898,178.412 176.898,183.079 178.5,187.5C 178.882,192.744 179.882,197.744 181.5,202.5C 181.549,206.078 182.215,209.411 183.5,212.5C 184.678,221.384 186.344,230.05 188.5,238.5C 188.5,239.833 188.5,241.167 188.5,242.5C 185.911,244.157 183.244,244.491 180.5,243.5C 180.5,242.833 180.5,242.167 180.5,241.5C 180.354,237.481 180.021,233.481 179.5,229.5C 178.833,223.167 178.167,216.833 177.5,210.5C 176.499,202.484 175.499,194.484 174.5,186.5C 173.495,175.966 172.162,165.466 170.5,155C 170.667,154.167 170.833,153.333 171,152.5C 172.821,159.439 174.321,166.439 175.5,173.5 Z"/></g>
<g><path style="opacity:1" fill="#652b91" d="M 200.5,208.5 C 197.09,216.319 193.423,223.986 189.5,231.5C 188.781,233.764 188.448,236.097 188.5,238.5C 186.344,230.05 184.678,221.384 183.5,212.5C 183.281,211.325 183.614,210.325 184.5,209.5C 187.548,208.654 190.548,207.654 193.5,206.5C 194.719,207.263 195.719,208.263 196.5,209.5C 197.736,208.754 199.07,208.421 200.5,208.5 Z"/></g>
<g><path style="opacity:1" fill="#210531" d="M 202.5,206.5 C 203.708,207.234 205.041,207.567 206.5,207.5C 203.571,211.694 200.905,216.027 198.5,220.5C 197.094,220.973 196.427,221.973 196.5,223.5C 194.167,226.167 191.833,228.833 189.5,231.5C 193.423,223.986 197.09,216.319 200.5,208.5C 201.5,208.167 202.167,207.5 202.5,206.5 Z"/></g>
<g><path style="opacity:1" fill="#1b0918" d="M 13.5,159.5 C 17.1667,167.5 20.8333,175.5 24.5,183.5C 25.8951,187.29 27.5617,190.957 29.5,194.5C 31.9283,199.693 34.595,204.693 37.5,209.5C 37.9321,210.71 38.5987,211.71 39.5,212.5C 39.7497,214.674 40.7497,216.341 42.5,217.5C 43.3833,220.704 45.0499,223.371 47.5,225.5C 48.3403,227.853 49.6736,229.853 51.5,231.5C 53.0252,234.563 55.0252,237.23 57.5,239.5C 59.8171,243.146 62.4838,246.48 65.5,249.5C 65.8333,250.167 66.1667,250.833 66.5,251.5C 64.3193,253.018 61.8193,254.018 59,254.5C 57.0198,253.685 55.5198,252.352 54.5,250.5C 36.7833,222.061 23.1167,191.728 13.5,159.5 Z"/></g>
<g><path style="opacity:1" fill="#4b2e64" d="M 61.5,215.5 C 63.921,215.878 66.2543,216.545 68.5,217.5C 69.8333,218.167 71.1667,218.833 72.5,219.5C 66.1847,221.993 59.6847,223.993 53,225.5C 51.6667,224.833 50.3333,224.167 49,223.5C 47.9701,223.836 47.4701,224.503 47.5,225.5C 45.0499,223.371 43.3833,220.704 42.5,217.5C 44.4008,217.433 46.2341,217.767 48,218.5C 52.3534,216.786 56.8534,215.786 61.5,215.5 Z"/></g>
<g><path style="opacity:1" fill="#9328cb" d="M 239.5,220.5 C 235.5,222.833 231.5,225.167 227.5,227.5C 223.72,229.44 220.054,231.607 216.5,234C 213.454,233.686 210.454,233.853 207.5,234.5C 202.583,242.67 197.416,250.67 192,258.5C 190.957,255.243 190.457,251.91 190.5,248.5C 193.291,241.37 196.957,234.703 201.5,228.5C 213.546,225.374 225.546,222.041 237.5,218.5C 238.522,218.855 239.189,219.522 239.5,220.5 Z"/></g>
<g><path style="opacity:1" fill="#3a1938" d="M 505.5,199.5 C 505.029,201.579 504.363,203.579 503.5,205.5C 497.406,217.567 491.572,229.901 486,242.5C 485.219,243.944 485.386,245.277 486.5,246.5C 504.203,240.766 521.87,234.932 539.5,229C 535.514,228.501 531.514,228.334 527.5,228.5C 527.152,221.52 527.819,214.687 529.5,208C 540.795,203.735 552.128,199.568 563.5,195.5C 564.521,196.002 564.688,196.668 564,197.5C 558.374,206.584 552.874,215.75 547.5,225C 551.687,224.755 555.687,223.588 559.5,221.5C 560.107,221.624 560.44,221.957 560.5,222.5C 558.329,229.512 555.662,236.345 552.5,243C 533.51,244.466 514.51,245.799 495.5,247C 489.5,256.667 483.5,266.333 477.5,276C 468.55,277.18 459.55,277.847 450.5,278C 446.968,282.36 443.301,286.527 439.5,290.5C 439.44,289.957 439.107,289.624 438.5,289.5C 435.273,290.909 431.94,291.909 428.5,292.5C 428.744,289.737 430.077,287.571 432.5,286C 437.621,282.547 442.454,278.714 447,274.5C 446.835,269.482 446.168,264.482 445,259.5C 443.629,257.959 442.129,256.625 440.5,255.5C 424.13,240.461 407.463,225.795 390.5,211.5C 391.675,211.719 392.675,211.386 393.5,210.5C 389.015,206.515 384.682,202.349 380.5,198C 396.154,194.984 411.821,192.151 427.5,189.5C 433.885,197.217 439.885,205.217 445.5,213.5C 428.841,212.476 412.175,211.976 395.5,212C 419.257,232.704 443.924,252.204 469.5,270.5C 475.079,262.402 480.079,253.902 484.5,245C 482.463,239.058 480.13,233.225 477.5,227.5C 475.866,227.968 474.7,228.968 474,230.5C 469.333,224.336 464.5,218.336 459.5,212.5C 459.744,205.348 459.911,198.014 460,190.5C 462.568,188.364 464.902,188.364 467,190.5C 468.94,196.987 471.273,203.321 474,209.5C 484.602,205.349 495.102,202.016 505.5,199.5 Z"/></g>
<g><path style="opacity:1" fill="#4f2a6c" d="M 72.5,219.5 C 78.3164,221.033 83.9831,222.7 89.5,224.5C 79.6153,227.472 69.6153,230.138 59.5,232.5C 57.3233,231.754 55.3233,230.754 53.5,229.5C 52.2867,229.747 51.62,230.414 51.5,231.5C 49.6736,229.853 48.3403,227.853 47.5,225.5C 47.4701,224.503 47.9701,223.836 49,223.5C 50.3333,224.167 51.6667,224.833 53,225.5C 59.6847,223.993 66.1847,221.993 72.5,219.5 Z"/></g>
<g><path style="opacity:1" fill="#270f22" d="M 12.5,154.5 C 13.038,156.117 13.3713,157.784 13.5,159.5C 23.1167,191.728 36.7833,222.061 54.5,250.5C 38.04,256.431 21.3734,261.764 4.5,266.5C 4.5,264.167 4.5,261.833 4.5,259.5C 6.27665,224.284 8.94332,189.284 12.5,154.5 Z"/></g>
<g><path style="opacity:1" fill="#431f41" d="M 459.5,212.5 C 464.5,218.336 469.333,224.336 474,230.5C 474.7,228.968 475.866,227.968 477.5,227.5C 480.13,233.225 482.463,239.058 484.5,245C 480.079,253.902 475.079,262.402 469.5,270.5C 443.924,252.204 419.257,232.704 395.5,212C 412.175,211.976 428.841,212.476 445.5,213.5C 446.858,214.626 448.192,214.626 449.5,213.5C 443.953,205.062 438.953,196.395 434.5,187.5C 436.199,187.34 437.866,187.506 439.5,188C 446.379,196.041 453.046,204.207 459.5,212.5 Z"/></g>
<g><path style="opacity:1" fill="#58297c" d="M 89.5,224.5 C 98.5392,225.648 107.539,226.982 116.5,228.5C 100.509,233.919 84.1752,238.585 67.5,242.5C 64.8779,241.05 62.3779,239.383 60,237.5C 58.699,237.639 57.8656,238.305 57.5,239.5C 55.0252,237.23 53.0252,234.563 51.5,231.5C 51.62,230.414 52.2867,229.747 53.5,229.5C 55.3233,230.754 57.3233,231.754 59.5,232.5C 69.6153,230.138 79.6153,227.472 89.5,224.5 Z"/></g>
<g><path style="opacity:1" fill="#6c2e9b" d="M 175.5,207.5 C 176.167,208.5 176.833,209.5 177.5,210.5C 178.167,216.833 178.833,223.167 179.5,229.5C 178.999,227.754 178.332,226.754 177.5,226.5C 176.549,227.919 176.216,229.585 176.5,231.5C 170.579,232.793 164.579,233.626 158.5,234C 132.449,241.178 106.449,248.345 80.5,255.5C 77.2157,253.883 74.5491,251.55 72.5,248.5C 89.5584,243.982 106.558,239.149 123.5,234C 140.95,232.286 158.117,229.12 175,224.5C 175.5,224.167 176,223.833 176.5,223.5C 175.549,218.23 175.215,212.897 175.5,207.5 Z"/></g>
<g><path style="opacity:1" fill="#7429aa" d="M 196.5,223.5 C 196.489,225.017 195.823,226.184 194.5,227C 197.119,226.917 199.786,226.75 202.5,226.5C 202.167,227.167 201.833,227.833 201.5,228.5C 196.957,234.703 193.291,241.37 190.5,248.5C 189.715,246.626 189.048,244.626 188.5,242.5C 188.5,241.167 188.5,239.833 188.5,238.5C 188.448,236.097 188.781,233.764 189.5,231.5C 191.833,228.833 194.167,226.167 196.5,223.5 Z"/></g>
<g><path style="opacity:1" fill="#622a8c" d="M 175.5,207.5 C 175.215,212.897 175.549,218.23 176.5,223.5C 176,223.833 175.5,224.167 175,224.5C 158.117,229.12 140.95,232.286 123.5,234C 106.558,239.149 89.5584,243.982 72.5,248.5C 69.7837,246.914 67.4503,247.247 65.5,249.5C 62.4838,246.48 59.8171,243.146 57.5,239.5C 57.8656,238.305 58.699,237.639 60,237.5C 62.3779,239.383 64.8779,241.05 67.5,242.5C 84.1752,238.585 100.509,233.919 116.5,228.5C 132.243,229.807 147.576,227.974 162.5,223C 166.962,219.732 168.962,215.232 168.5,209.5C 169.167,209.5 169.5,209.167 169.5,208.5C 171.621,208.675 173.621,208.341 175.5,207.5 Z"/></g>
<g><path style="opacity:1" fill="#702ba4" d="M 177.5,226.5 C 177.82,229.898 177.487,233.232 176.5,236.5C 146.697,245.063 117.197,253.396 88,261.5C 84.8088,260.326 82.3088,258.326 80.5,255.5C 106.449,248.345 132.449,241.178 158.5,234C 164.579,233.626 170.579,232.793 176.5,231.5C 176.216,229.585 176.549,227.919 177.5,226.5 Z"/></g>
<g><path style="opacity:1" fill="#441f41" d="M 389.5,211.5 C 389.833,211.5 390.167,211.5 390.5,211.5C 407.463,225.795 424.13,240.461 440.5,255.5C 414.479,262.784 388.646,270.784 363,279.5C 361.97,279.164 361.47,278.497 361.5,277.5C 366.721,271.418 371.721,265.084 376.5,258.5C 369.573,258.532 363.073,260.532 357,264.5C 353.283,271.306 349.116,277.64 344.5,283.5C 347.908,271.717 350.242,259.717 351.5,247.5C 353.354,243.947 355.021,240.28 356.5,236.5C 362.702,231.898 364.535,232.898 362,239.5C 358.632,246.243 355.798,253.243 353.5,260.5C 353.833,260.833 354.167,261.167 354.5,261.5C 356.51,260.498 358.51,259.498 360.5,258.5C 370.428,242.973 380.095,227.306 389.5,211.5 Z"/></g>
<g><path style="opacity:1" fill="#792ab2" d="M 179.5,229.5 C 180.021,233.481 180.354,237.481 180.5,241.5C 178.837,243.438 178.171,245.772 178.5,248.5C 159.174,254.495 139.841,260.161 120.5,265.5C 111.161,265.666 101.827,265.5 92.5,265C 88.6062,261.573 85.2728,262.073 82.5,266.5C 77.1667,261.5 71.8333,256.5 66.5,251.5C 66.1667,250.833 65.8333,250.167 65.5,249.5C 67.4503,247.247 69.7837,246.914 72.5,248.5C 74.5491,251.55 77.2157,253.883 80.5,255.5C 82.3088,258.326 84.8088,260.326 88,261.5C 117.197,253.396 146.697,245.063 176.5,236.5C 177.487,233.232 177.82,229.898 177.5,226.5C 178.332,226.754 178.999,227.754 179.5,229.5 Z"/></g>
<g><path style="opacity:1" fill="#812bc0" d="M 178.5,248.5 C 179.159,251.455 179.492,254.455 179.5,257.5C 169.603,259.722 159.936,262.388 150.5,265.5C 149.833,265.5 149.167,265.5 148.5,265.5C 139.167,265.5 129.833,265.5 120.5,265.5C 139.841,260.161 159.174,254.495 178.5,248.5 Z"/></g>
<g><path style="opacity:1" fill="#3c1a3b" d="M 351.5,247.5 C 350.242,259.717 347.908,271.717 344.5,283.5C 344.249,285.17 343.582,286.67 342.5,288C 334.47,290.953 326.47,293.786 318.5,296.5C 327.717,281.732 335.05,266.065 340.5,249.5C 339.167,249.5 337.833,249.5 336.5,249.5C 341.398,248.787 346.398,248.121 351.5,247.5 Z"/></g>
<g><path style="opacity:1" fill="#482146" d="M 440.5,255.5 C 442.129,256.625 443.629,257.959 445,259.5C 446.168,264.482 446.835,269.482 447,274.5C 442.454,278.714 437.621,282.547 432.5,286C 430.077,287.571 428.744,289.737 428.5,292.5C 431.94,291.909 435.273,290.909 438.5,289.5C 439.107,289.624 439.44,289.957 439.5,290.5C 427.824,304.841 415.158,318.174 401.5,330.5C 400.957,330.44 400.624,330.107 400.5,329.5C 401.648,327.851 402.981,326.351 404.5,325C 399.885,326.032 395.218,327.198 390.5,328.5C 391.441,324.675 392.774,321.009 394.5,317.5C 399.029,308.076 402.862,298.409 406,288.5C 382.153,297.561 358.153,306.227 334,314.5C 333.685,313.092 334.018,311.759 335,310.5C 344.077,299.601 352.91,288.601 361.5,277.5C 361.47,278.497 361.97,279.164 363,279.5C 388.646,270.784 414.479,262.784 440.5,255.5 Z"/></g>
<g><path style="opacity:1" fill="#8a2acc" d="M 180.5,241.5 C 180.5,242.167 180.5,242.833 180.5,243.5C 181.54,249.116 182.207,254.783 182.5,260.5C 180.744,261.552 180.077,263.219 180.5,265.5C 170.5,265.5 160.5,265.5 150.5,265.5C 159.936,262.388 169.603,259.722 179.5,257.5C 179.492,254.455 179.159,251.455 178.5,248.5C 178.171,245.772 178.837,243.438 180.5,241.5 Z"/></g>
<g><path style="opacity:1" fill="#381834" d="M 389.5,211.5 C 380.095,227.306 370.428,242.973 360.5,258.5C 358.51,259.498 356.51,260.498 354.5,261.5C 354.167,261.167 353.833,260.833 353.5,260.5C 355.798,253.243 358.632,246.243 362,239.5C 364.535,232.898 362.702,231.898 356.5,236.5C 355.021,240.28 353.354,243.947 351.5,247.5C 346.398,248.121 341.398,248.787 336.5,249.5C 303.156,253.334 269.823,257.501 236.5,262C 235.409,264.064 235.242,266.231 236,268.5C 239.092,280.372 241.758,292.372 244,304.5C 248.258,295.648 252.258,286.648 256,277.5C 257.831,288.811 259.665,300.144 261.5,311.5C 261.415,313.333 260.748,314.666 259.5,315.5C 259.122,310.188 257.289,305.522 254,301.5C 250.828,304.846 248.995,308.846 248.5,313.5C 246.194,313.007 243.861,312.674 241.5,312.5C 238.402,300.544 234.735,288.878 230.5,277.5C 230.265,276.903 229.765,276.57 229,276.5C 217.179,280.274 205.345,283.941 193.5,287.5C 192.167,286.167 190.833,284.833 189.5,283.5C 193.223,266.428 202.223,252.762 216.5,242.5C 218.821,245.13 220.654,248.13 222,251.5C 224.469,259.242 227.136,266.908 230,274.5C 232.121,270.266 233.621,265.766 234.5,261C 233.378,256.559 232.711,252.059 232.5,247.5C 277.23,229.493 322.897,213.66 369.5,200C 371.5,199.333 373.5,199.333 375.5,200C 380.421,203.613 385.088,207.446 389.5,211.5 Z"/></g>
<g><path style="opacity:1" fill="#2b1127" d="M 254.5,220.5 C 246.299,225.192 238.466,230.525 231,236.5C 230.65,240.381 231.15,244.048 232.5,247.5C 232.711,252.059 233.378,256.559 234.5,261C 233.621,265.766 232.121,270.266 230,274.5C 227.136,266.908 224.469,259.242 222,251.5C 220.654,248.13 218.821,245.13 216.5,242.5C 202.223,252.762 193.223,266.428 189.5,283.5C 169.939,290.129 150.606,297.129 131.5,304.5C 112.161,306.398 94.6612,313.064 79,324.5C 80.0475,314.729 80.8808,304.895 81.5,295C 81.3333,291.833 81.1667,288.667 81,285.5C 80.586,285.043 80.086,284.709 79.5,284.5C 71.1196,292.549 62.7863,300.549 54.5,308.5C 47.3847,309.865 40.3847,311.365 33.5,313C 46.2204,308.563 57.387,301.73 67,292.5C 71.2813,287.027 72.6147,281.027 71,274.5C 48.6152,282.128 26.1152,289.461 3.5,296.5C 2.51298,293.232 2.17964,289.898 2.5,286.5C 2.46627,277.299 3.13293,268.299 4.5,259.5C 4.5,261.833 4.5,264.167 4.5,266.5C 21.3734,261.764 38.04,256.431 54.5,250.5C 55.5198,252.352 57.0198,253.685 59,254.5C 61.8193,254.018 64.3193,253.018 66.5,251.5C 71.8333,256.5 77.1667,261.5 82.5,266.5C 86.8883,270.221 91.5549,273.555 96.5,276.5C 125.833,276.5 155.167,276.5 184.5,276.5C 183.906,271.154 183.239,265.82 182.5,260.5C 182.207,254.783 181.54,249.116 180.5,243.5C 183.244,244.491 185.911,244.157 188.5,242.5C 189.048,244.626 189.715,246.626 190.5,248.5C 190.457,251.91 190.957,255.243 192,258.5C 197.416,250.67 202.583,242.67 207.5,234.5C 210.454,233.853 213.454,233.686 216.5,234C 220.054,231.607 223.72,229.44 227.5,227.5C 227.56,228.043 227.893,228.376 228.5,228.5C 237.119,225.627 245.786,222.96 254.5,220.5 Z"/></g>
<g><path style="opacity:1" fill="#972ad3" d="M 120.5,265.5 C 129.833,265.5 139.167,265.5 148.5,265.5C 130.539,265.989 113.206,269.655 96.5,276.5C 91.5549,273.555 86.8883,270.221 82.5,266.5C 85.2728,262.073 88.6062,261.573 92.5,265C 101.827,265.5 111.161,265.666 120.5,265.5 Z"/></g>
<g><path style="opacity:1" fill="#a42ae1" d="M 182.5,260.5 C 183.239,265.82 183.906,271.154 184.5,276.5C 155.167,276.5 125.833,276.5 96.5,276.5C 113.206,269.655 130.539,265.989 148.5,265.5C 149.167,265.5 149.833,265.5 150.5,265.5C 160.5,265.5 170.5,265.5 180.5,265.5C 180.077,263.219 180.744,261.552 182.5,260.5 Z"/></g>
<g><path style="opacity:1" fill="#33152e" d="M 54.5,308.5 C 52.1667,311.5 49.5,314.167 46.5,316.5C 32.138,318.123 17.8047,320.123 3.5,322.5C 2.28665,322.747 1.61998,323.414 1.5,324.5C 0.833333,324.5 0.166667,324.5 -0.5,324.5C -0.5,320.833 -0.5,317.167 -0.5,313.5C 0.452728,304.496 1.45273,295.496 2.5,286.5C 2.17964,289.898 2.51298,293.232 3.5,296.5C 26.1152,289.461 48.6152,282.128 71,274.5C 72.6147,281.027 71.2813,287.027 67,292.5C 57.387,301.73 46.2204,308.563 33.5,313C 40.3847,311.365 47.3847,309.865 54.5,308.5 Z"/></g>
<g><path style="opacity:1" fill="#30132d" d="M 189.5,283.5 C 190.833,284.833 192.167,286.167 193.5,287.5C 195.566,291.966 197.9,296.299 200.5,300.5C 192.764,303.134 184.93,305.467 177,307.5C 162.032,303.756 146.866,302.756 131.5,304.5C 150.606,297.129 169.939,290.129 189.5,283.5 Z"/></g>
<g><path style="opacity:1" fill="#441f42" d="M 336.5,249.5 C 337.833,249.5 339.167,249.5 340.5,249.5C 335.05,266.065 327.717,281.732 318.5,296.5C 299.975,303.231 281.308,309.564 262.5,315.5C 262.205,317.735 262.539,319.735 263.5,321.5C 264.057,326.011 264.724,330.511 265.5,335C 265.37,336.059 264.87,336.892 264,337.5C 262.05,330.251 260.55,322.917 259.5,315.5C 260.748,314.666 261.415,313.333 261.5,311.5C 259.665,300.144 257.831,288.811 256,277.5C 252.258,286.648 248.258,295.648 244,304.5C 241.758,292.372 239.092,280.372 236,268.5C 235.242,266.231 235.409,264.064 236.5,262C 269.823,257.501 303.156,253.334 336.5,249.5 Z"/></g>
<g><path style="opacity:1" fill="#3e1b3c" d="M 230.5,277.5 C 225.314,293.059 220.647,308.892 216.5,325C 216.796,326.888 217.296,328.722 218,330.5C 221.584,333.663 223.417,337.329 223.5,341.5C 219.26,339.952 214.927,339.118 210.5,339C 215.769,353.547 220.769,368.213 225.5,383C 225.333,383.5 225.167,384 225,384.5C 222.886,381.268 221.053,377.935 219.5,374.5C 216.404,368.633 213.071,362.967 209.5,357.5C 207.872,352.91 205.705,348.577 203,344.5C 202.503,341.854 202.336,339.187 202.5,336.5C 204.717,337.369 207.05,337.702 209.5,337.5C 208.143,331.928 206.477,326.428 204.5,321C 204.833,320.5 205.167,320 205.5,319.5C 208.751,321.375 211.918,323.375 215,325.5C 210.723,316.959 205.889,308.626 200.5,300.5C 197.9,296.299 195.566,291.966 193.5,287.5C 205.345,283.941 217.179,280.274 229,276.5C 229.765,276.57 230.265,276.903 230.5,277.5 Z"/></g>
<g><path style="opacity:1" fill="#361734" d="M 131.5,304.5 C 146.866,302.756 162.032,303.756 177,307.5C 184.93,305.467 192.764,303.134 200.5,300.5C 205.889,308.626 210.723,316.959 215,325.5C 211.918,323.375 208.751,321.375 205.5,319.5C 205.167,320 204.833,320.5 204.5,321C 206.477,326.428 208.143,331.928 209.5,337.5C 207.05,337.702 204.717,337.369 202.5,336.5C 200.621,335.659 198.621,335.325 196.5,335.5C 183.414,333.191 170.081,332.191 156.5,332.5C 127.393,331.608 100.726,339.108 76.5,355C 75,356.5 73.5,358 72,359.5C 71.5172,358.552 71.3505,357.552 71.5,356.5C 73.1813,348.922 75.0147,341.256 77,333.5C 77.8236,330.118 77.657,326.784 76.5,323.5C 69.4557,317.986 62.1224,312.986 54.5,308.5C 62.7863,300.549 71.1196,292.549 79.5,284.5C 80.086,284.709 80.586,285.043 81,285.5C 81.1667,288.667 81.3333,291.833 81.5,295C 80.8808,304.895 80.0475,314.729 79,324.5C 94.6612,313.064 112.161,306.398 131.5,304.5 Z"/></g>
<g><path style="opacity:1" fill="#482146" d="M 230.5,277.5 C 234.735,288.878 238.402,300.544 241.5,312.5C 243.861,312.674 246.194,313.007 248.5,313.5C 248.995,308.846 250.828,304.846 254,301.5C 257.289,305.522 259.122,310.188 259.5,315.5C 260.55,322.917 262.05,330.251 264,337.5C 264.87,336.892 265.37,336.059 265.5,335C 264.724,330.511 264.057,326.011 263.5,321.5C 285.794,319.208 308.127,317.708 330.5,317C 325.911,325.516 320.578,333.516 314.5,341C 304.075,343.864 293.742,347.03 283.5,350.5C 288.188,342.573 293.521,334.573 299.5,326.5C 288.681,328.211 278.015,331.211 267.5,335.5C 266.435,341.871 266.769,348.205 268.5,354.5C 268.66,356.355 267.993,357.688 266.5,358.5C 265.444,351.83 264.277,345.163 263,338.5C 258.761,337.517 254.928,338.517 251.5,341.5C 248.266,334.603 245.933,327.27 244.5,319.5C 243.5,317.5 242.5,315.5 241.5,313.5C 235.767,322.576 230.433,331.909 225.5,341.5C 224.743,342.773 224.077,342.773 223.5,341.5C 223.417,337.329 221.584,333.663 218,330.5C 217.296,328.722 216.796,326.888 216.5,325C 220.647,308.892 225.314,293.059 230.5,277.5 Z"/></g>
<g><path style="opacity:1" fill="#291025" d="M 46.5,316.5 C 44.5389,318.963 42.3722,321.297 40,323.5C 39.7744,326.095 39.2744,328.595 38.5,331C 34.5701,332.477 30.5701,333.644 26.5,334.5C 17.7719,331.929 9.43859,328.596 1.5,324.5C 1.61998,323.414 2.28665,322.747 3.5,322.5C 17.8047,320.123 32.138,318.123 46.5,316.5 Z"/></g>
<g><path style="opacity:1" fill="#4e244d" d="M 361.5,277.5 C 352.91,288.601 344.077,299.601 335,310.5C 334.018,311.759 333.685,313.092 334,314.5C 358.153,306.227 382.153,297.561 406,288.5C 402.862,298.409 399.029,308.076 394.5,317.5C 394.53,316.503 394.03,315.836 393,315.5C 366.683,324.272 340.516,333.439 314.5,343C 306.225,352.277 297.558,361.277 288.5,370C 282.641,372.788 276.641,375.288 270.5,377.5C 268.064,371.418 266.73,365.085 266.5,358.5C 267.993,357.688 268.66,356.355 268.5,354.5C 266.769,348.205 266.435,341.871 267.5,335.5C 278.015,331.211 288.681,328.211 299.5,326.5C 293.521,334.573 288.188,342.573 283.5,350.5C 293.742,347.03 304.075,343.864 314.5,341C 320.578,333.516 325.911,325.516 330.5,317C 308.127,317.708 285.794,319.208 263.5,321.5C 262.539,319.735 262.205,317.735 262.5,315.5C 281.308,309.564 299.975,303.231 318.5,296.5C 326.47,293.786 334.47,290.953 342.5,288C 343.582,286.67 344.249,285.17 344.5,283.5C 349.116,277.64 353.283,271.306 357,264.5C 363.073,260.532 369.573,258.532 376.5,258.5C 371.721,265.084 366.721,271.418 361.5,277.5 Z"/></g>
<g><path style="opacity:1" fill="#401c40" d="M 196.5,335.5 C 194.143,335.337 191.81,335.503 189.5,336C 172.29,341.569 155.29,347.402 138.5,353.5C 121.171,348.819 104.171,349.652 87.5,356C 81.7086,358.961 76.0419,362.128 70.5,365.5C 70.6602,363.801 70.4935,362.134 70,360.5C 63.5849,366.755 56.7516,372.422 49.5,377.5C 48.3155,372.575 47.6488,367.575 47.5,362.5C 55.4264,360.136 63.2598,357.469 71,354.5C 71.4643,355.094 71.631,355.761 71.5,356.5C 71.3505,357.552 71.5172,358.552 72,359.5C 73.5,358 75,356.5 76.5,355C 100.726,339.108 127.393,331.608 156.5,332.5C 170.081,332.191 183.414,333.191 196.5,335.5 Z"/></g>
<g><path style="opacity:1" fill="#3e1b3a" d="M 54.5,308.5 C 62.1224,312.986 69.4557,317.986 76.5,323.5C 77.657,326.784 77.8236,330.118 77,333.5C 75.0147,341.256 73.1813,348.922 71.5,356.5C 71.631,355.761 71.4643,355.094 71,354.5C 63.2598,357.469 55.4264,360.136 47.5,362.5C 47.6488,367.575 48.3155,372.575 49.5,377.5C 49.1667,378.5 48.5,379.167 47.5,379.5C 45.0075,365.199 39.8408,351.865 32,339.5C 30.2703,337.598 28.437,335.931 26.5,334.5C 30.5701,333.644 34.5701,332.477 38.5,331C 39.2744,328.595 39.7744,326.095 40,323.5C 42.3722,321.297 44.5389,318.963 46.5,316.5C 49.5,314.167 52.1667,311.5 54.5,308.5 Z"/></g>
<g><path style="opacity:1" fill="#492249" d="M 196.5,335.5 C 198.621,335.325 200.621,335.659 202.5,336.5C 202.336,339.187 202.503,341.854 203,344.5C 205.705,348.577 207.872,352.91 209.5,357.5C 159.555,364.442 112.555,379.942 68.5,404C 64.9196,406.277 61.5863,408.777 58.5,411.5C 56.0038,412.58 53.6705,413.914 51.5,415.5C 50.388,403.492 49.0547,391.492 47.5,379.5C 48.5,379.167 49.1667,378.5 49.5,377.5C 56.7516,372.422 63.5849,366.755 70,360.5C 70.4935,362.134 70.6602,363.801 70.5,365.5C 66.9314,377.25 63.2647,389.083 59.5,401C 59.8333,401.5 60.1667,402 60.5,402.5C 90.5403,384.156 122.874,371.322 157.5,364C 151.745,359.403 145.412,355.903 138.5,353.5C 155.29,347.402 172.29,341.569 189.5,336C 191.81,335.503 194.143,335.337 196.5,335.5 Z"/></g>
<g><path style="opacity:1" fill="#3d1a3b" d="M 138.5,353.5 C 145.412,355.903 151.745,359.403 157.5,364C 122.874,371.322 90.5403,384.156 60.5,402.5C 60.1667,402 59.8333,401.5 59.5,401C 63.2647,389.083 66.9314,377.25 70.5,365.5C 76.0419,362.128 81.7086,358.961 87.5,356C 104.171,349.652 121.171,348.819 138.5,353.5 Z"/></g>
<g><path style="opacity:1" fill="#542754" d="M 394.5,317.5 C 392.774,321.009 391.441,324.675 390.5,328.5C 389.065,330.598 387.898,332.931 387,335.5C 382.406,339.54 377.573,343.206 372.5,346.5C 343.288,356.515 313.621,366.348 283.5,376C 279.311,379.69 274.978,383.19 270.5,386.5C 269.833,384.5 269.167,382.5 268.5,380.5C 262.808,382.231 257.141,384.064 251.5,386C 253.552,389.272 255.218,392.772 256.5,396.5C 244.881,400.762 233.214,404.929 221.5,409C 226.351,409.174 231.018,409.674 235.5,410.5C 213.164,410.667 190.831,410.5 168.5,410C 195.595,401.692 222.261,392.525 248.5,382.5C 246.667,378.833 244.833,375.167 243,371.5C 242.251,370.365 242.417,369.365 243.5,368.5C 247.296,367.068 251.129,365.735 255,364.5C 255.772,364.645 256.439,364.978 257,365.5C 257.471,367.246 258.138,368.913 259,370.5C 259.159,366.951 258.659,363.451 257.5,360C 260.303,356.755 263.303,356.255 266.5,358.5C 266.73,365.085 268.064,371.418 270.5,377.5C 276.641,375.288 282.641,372.788 288.5,370C 297.558,361.277 306.225,352.277 314.5,343C 340.516,333.439 366.683,324.272 393,315.5C 394.03,315.836 394.53,316.503 394.5,317.5 Z"/></g>
<g><path style="opacity:1" fill="#471f45" d="M 209.5,357.5 C 213.071,362.967 216.404,368.633 219.5,374.5C 200.772,380.298 182.106,386.298 163.5,392.5C 128.507,398.966 93.507,405.299 58.5,411.5C 61.5863,408.777 64.9196,406.277 68.5,404C 112.555,379.942 159.555,364.442 209.5,357.5 Z"/></g>
<g><path style="opacity:1" fill="#4e234d" d="M 266.5,358.5 C 263.303,356.255 260.303,356.755 257.5,360C 258.659,363.451 259.159,366.951 259,370.5C 258.138,368.913 257.471,367.246 257,365.5C 256.439,364.978 255.772,364.645 255,364.5C 251.129,365.735 247.296,367.068 243.5,368.5C 242.417,369.365 242.251,370.365 243,371.5C 244.833,375.167 246.667,378.833 248.5,382.5C 222.261,392.525 195.595,401.692 168.5,410C 190.831,410.5 213.164,410.667 235.5,410.5C 241.974,414.239 248.307,418.239 254.5,422.5C 258.167,419.667 261.833,416.833 265.5,414C 270.817,414.462 276.151,414.796 281.5,415C 311.71,391.95 342.044,369.117 372.5,346.5C 377.573,343.206 382.406,339.54 387,335.5C 387.898,332.931 389.065,330.598 390.5,328.5C 395.218,327.198 399.885,326.032 404.5,325C 402.981,326.351 401.648,327.851 400.5,329.5C 400.624,330.107 400.957,330.44 401.5,330.5C 364.122,368.567 322.455,400.901 276.5,427.5C 257.167,427.5 237.833,427.5 218.5,427.5C 193.598,426.824 168.598,426.158 143.5,425.5C 156.29,420.735 169.29,416.235 182.5,412C 152.163,411.678 121.829,411.678 91.5,412C 115.606,405.476 139.606,398.976 163.5,392.5C 182.106,386.298 200.772,380.298 219.5,374.5C 221.053,377.935 222.886,381.268 225,384.5C 225.167,384 225.333,383.5 225.5,383C 220.769,368.213 215.769,353.547 210.5,339C 214.927,339.118 219.26,339.952 223.5,341.5C 224.077,342.773 224.743,342.773 225.5,341.5C 230.433,331.909 235.767,322.576 241.5,313.5C 242.5,315.5 243.5,317.5 244.5,319.5C 245.933,327.27 248.266,334.603 251.5,341.5C 254.928,338.517 258.761,337.517 263,338.5C 264.277,345.163 265.444,351.83 266.5,358.5 Z"/></g>
<g><path style="opacity:1" fill="#5a2a5b" d="M 372.5,346.5 C 342.044,369.117 311.71,391.95 281.5,415C 276.151,414.796 270.817,414.462 265.5,414C 261.833,416.833 258.167,419.667 254.5,422.5C 248.307,418.239 241.974,414.239 235.5,410.5C 231.018,409.674 226.351,409.174 221.5,409C 233.214,404.929 244.881,400.762 256.5,396.5C 255.218,392.772 253.552,389.272 251.5,386C 257.141,384.064 262.808,382.231 268.5,380.5C 269.167,382.5 269.833,384.5 270.5,386.5C 274.978,383.19 279.311,379.69 283.5,376C 313.621,366.348 343.288,356.515 372.5,346.5 Z"/></g>
<g><path style="opacity:1" fill="#411c40" d="M 163.5,392.5 C 139.606,398.976 115.606,405.476 91.5,412C 121.829,411.678 152.163,411.678 182.5,412C 169.29,416.235 156.29,420.735 143.5,425.5C 112.825,425.671 82.1587,425.338 51.5,424.5C 51.5,421.5 51.5,418.5 51.5,415.5C 53.6705,413.914 56.0038,412.58 58.5,411.5C 93.507,405.299 128.507,398.966 163.5,392.5 Z"/></g>
</svg>
