<?xml version="1.0" encoding="UTF-8"?>
<!DOCTYPE svg PUBLIC "-//W3C//DTD SVG 1.1//EN" "http://www.w3.org/Graphics/SVG/1.1/DTD/svg11.dtd">
<svg xmlns="http://www.w3.org/2000/svg" version="1.1" width="617px" height="428px" style="shape-rendering:geometricPrecision; text-rendering:geometricPrecision; image-rendering:optimizeQuality; fill-rule:evenodd; clip-rule:evenodd" xmlns:xlink="http://www.w3.org/1999/xlink">
<g><path style="opacity:0.981" fill="#2f273a" d="M 142.5,-0.5 C 157.167,-0.5 171.833,-0.5 186.5,-0.5C 216.201,22.795 243.034,49.1283 267,78.5C 271.685,84.5479 275.851,90.8812 279.5,97.5C 249.722,84.7785 220.056,71.7785 190.5,58.5C 188.527,52.6127 186.861,46.6127 185.5,40.5C 168.652,36.7854 151.819,33.1187 135,29.5C 134.617,30.056 134.117,30.3893 133.5,30.5C 135.5,23.166 137.5,15.8327 139.5,8.5C 140.946,5.74577 141.946,2.74577 142.5,-0.5 Z"/></g>
<g><path style="opacity:1" fill="#280f22" d="M 141.5,-0.5 C 141.833,-0.5 142.167,-0.5 142.5,-0.5C 141.946,2.74577 140.946,5.74577 139.5,8.5C 129.947,31.31 122.947,54.9766 118.5,79.5C 105.434,74.5947 92.7672,68.928 80.5,62.5C 101.197,41.804 121.53,20.804 141.5,-0.5 Z"/></g>
<g><path style="opacity:1" fill="#1b0917" d="M 139.5,8.5 C 137.5,15.8327 135.5,23.166 133.5,30.5C 131.371,39.3979 129.704,48.3979 128.5,57.5C 127.619,61.4543 126.952,65.4543 126.5,69.5C 126.002,74.1522 125.669,78.8189 125.5,83.5C 125.5,86.8333 125.5,90.1667 125.5,93.5C 125.5,94.1667 125.5,94.8333 125.5,95.5C 122.838,94.5014 120.172,93.5014 117.5,92.5C 117.739,88.1578 118.073,83.8244 118.5,79.5C 122.947,54.9766 129.947,31.31 139.5,8.5 Z"/></g>
<g><path style="opacity:1" fill="#33283d" d="M 190.5,58.5 C 220.056,71.7785 249.722,84.7785 279.5,97.5C 280.167,97.5 280.5,97.8333 280.5,98.5C 308.648,111.124 336.981,123.791 365.5,136.5C 342.171,144.408 318.171,146.575 293.5,143C 287.002,141.627 280.668,139.793 274.5,137.5C 275.571,134.053 276.571,130.553 277.5,127C 275.293,124.729 272.626,123.229 269.5,122.5C 272.336,117.17 274.836,111.836 277,106.5C 275.723,108.747 274.223,110.747 272.5,112.5C 249.276,100.645 225.442,89.6447 201,79.5C 196.079,73.2567 192.579,66.2567 190.5,58.5 Z"/></g>
<g><path style="opacity:1" fill="#352940" d="M 190.5,58.5 C 192.579,66.2567 196.079,73.2567 201,79.5C 225.442,89.6447 249.276,100.645 272.5,112.5C 270.735,115.709 268.735,118.709 266.5,121.5C 265.749,120.427 264.749,120.26 263.5,121C 261.355,124.312 258.688,127.146 255.5,129.5C 239.662,121.501 225.662,111.001 213.5,98C 211.481,97.5503 209.648,96.717 208,95.5C 207.333,96.5 207.333,97.5 208,98.5C 211.67,103.002 215.503,107.335 219.5,111.5C 219.44,112.043 219.107,112.376 218.5,112.5C 206.928,107.212 195.261,102.212 183.5,97.5C 178.853,90.215 174.687,82.5483 171,74.5C 160.61,59.5338 146.443,53.8672 128.5,57.5C 129.704,48.3979 131.371,39.3979 133.5,30.5C 134.117,30.3893 134.617,30.056 135,29.5C 151.819,33.1187 168.652,36.7854 185.5,40.5C 186.861,46.6127 188.527,52.6127 190.5,58.5 Z"/></g>
<g><path style="opacity:1" fill="#402f4e" d="M 183.5,97.5 C 197.2,119.535 215.867,135.868 239.5,146.5C 239.5,146.833 239.5,147.167 239.5,147.5C 237.142,149.678 234.475,151.345 231.5,152.5C 224.733,147.579 218.067,142.413 211.5,137C 198.315,122.764 183.648,110.431 167.5,100C 163.884,98.1885 160.217,96.6885 156.5,95.5C 155.5,95.1667 154.833,94.5 154.5,93.5C 150.134,87.7898 146.134,81.7898 142.5,75.5C 137.406,73.3783 132.74,70.7117 128.5,67.5C 127.818,68.2427 127.151,68.9094 126.5,69.5C 126.952,65.4543 127.619,61.4543 128.5,57.5C 146.443,53.8672 160.61,59.5338 171,74.5C 174.687,82.5483 178.853,90.215 183.5,97.5 Z"/></g>
<g><path style="opacity:1" fill="#2f1229" d="M 80.5,62.5 C 92.7672,68.928 105.434,74.5947 118.5,79.5C 118.073,83.8244 117.739,88.1578 117.5,92.5C 115.775,99.3462 115.109,106.346 115.5,113.5C 96.1026,105.032 76.7692,96.3651 57.5,87.5C 58.9524,86.0603 59.9524,84.3936 60.5,82.5C 66.8333,75.5 73.5,68.8333 80.5,62.5 Z"/></g>
<g><path style="opacity:1" fill="#502f69" d="M 154.5,93.5 C 152.61,93.7035 151.11,93.0368 150,91.5C 148.853,92.4581 147.853,92.1247 147,90.5C 145.16,91.8331 144.66,91.6665 145.5,90C 140.248,87.5376 134.915,85.371 129.5,83.5C 129.539,81.6412 128.706,80.3079 127,79.5C 126.51,80.7932 126.343,82.1266 126.5,83.5C 126.167,83.5 125.833,83.5 125.5,83.5C 125.669,78.8189 126.002,74.1522 126.5,69.5C 127.151,68.9094 127.818,68.2427 128.5,67.5C 132.74,70.7117 137.406,73.3783 142.5,75.5C 146.134,81.7898 150.134,87.7898 154.5,93.5 Z"/></g>
<g><path style="opacity:1" fill="#34152f" d="M 60.5,82.5 C 59.9524,84.3936 58.9524,86.0603 57.5,87.5C 76.7692,96.3651 96.1026,105.032 115.5,113.5C 115.666,119.509 115.499,125.509 115,131.5C 114.303,133.584 113.136,135.251 111.5,136.5C 87.8931,125.699 64.2265,114.866 40.5,104C 42.1412,102.871 43.1412,101.371 43.5,99.5C 48.8333,93.5 54.5,87.8333 60.5,82.5 Z"/></g>
<g><path style="opacity:1" fill="#522b6f" d="M 154.5,93.5 C 154.833,94.5 155.5,95.1667 156.5,95.5C 159.013,99.8578 162.013,103.858 165.5,107.5C 153.97,103.405 142.637,98.7382 131.5,93.5C 130.185,90.6266 129.185,87.6266 128.5,84.5C 127.817,84.1373 127.15,83.8039 126.5,83.5C 126.343,82.1266 126.51,80.7932 127,79.5C 128.706,80.3079 129.539,81.6412 129.5,83.5C 134.915,85.371 140.248,87.5376 145.5,90C 144.66,91.6665 145.16,91.8331 147,90.5C 147.853,92.1247 148.853,92.4581 150,91.5C 151.11,93.0368 152.61,93.7035 154.5,93.5 Z"/></g>
<g><path style="opacity:1" fill="#5a297c" d="M 125.5,83.5 C 125.833,83.5 126.167,83.5 126.5,83.5C 127.15,83.8039 127.817,84.1373 128.5,84.5C 129.185,87.6266 130.185,90.6266 131.5,93.5C 142.637,98.7382 153.97,103.405 165.5,107.5C 170.5,112.833 175.5,118.167 180.5,123.5C 165.594,116.718 150.594,109.884 135.5,103C 133.866,102.506 132.199,102.34 130.5,102.5C 130.663,100.143 130.497,97.8098 130,95.5C 128.89,93.9632 127.39,93.2965 125.5,93.5C 125.5,90.1667 125.5,86.8333 125.5,83.5 Z"/></g>
<g><path style="opacity:1" fill="#402f4e" d="M 266.5,121.5 C 265,125.173 263,128.506 260.5,131.5C 259.054,130.387 257.387,130.22 255.5,131C 253.63,133.04 251.63,134.873 249.5,136.5C 238.941,128.95 228.941,120.617 219.5,111.5C 215.503,107.335 211.67,103.002 208,98.5C 207.333,97.5 207.333,96.5 208,95.5C 209.648,96.717 211.481,97.5503 213.5,98C 225.662,111.001 239.662,121.501 255.5,129.5C 258.688,127.146 261.355,124.312 263.5,121C 264.749,120.26 265.749,120.427 266.5,121.5 Z"/></g>
<g><path style="opacity:1" fill="#3a2a43" d="M 183.5,97.5 C 195.261,102.212 206.928,107.212 218.5,112.5C 219.107,112.376 219.44,112.043 219.5,111.5C 228.941,120.617 238.941,128.95 249.5,136.5C 247.167,140.833 243.833,144.167 239.5,146.5C 215.867,135.868 197.2,119.535 183.5,97.5 Z"/></g>
<g><path style="opacity:0.969" fill="#2f273a" d="M 280.5,98.5 C 298.127,99.3706 315.793,100.537 333.5,102C 347.324,103.456 360.658,106.789 373.5,112C 378.703,117.035 383.703,122.202 388.5,127.5C 381.236,131.29 373.569,134.29 365.5,136.5C 336.981,123.791 308.648,111.124 280.5,98.5 Z"/></g>
<g><path style="opacity:1" fill="#391834" d="M 43.5,99.5 C 43.1412,101.371 42.1412,102.871 40.5,104C 64.2265,114.866 87.8931,125.699 111.5,136.5C 108.367,140.067 104.367,142.067 99.5,142.5C 73.2908,141.824 48.4575,135.491 25,123.5C 23.9701,123.836 23.4701,124.503 23.5,125.5C 21.9014,124.201 21.4014,122.535 22,120.5C 29.0351,113.297 36.2018,106.297 43.5,99.5 Z"/></g>
<g><path style="opacity:1" fill="#3d2a46" d="M 156.5,95.5 C 160.217,96.6885 163.884,98.1885 167.5,100C 183.648,110.431 198.315,122.764 211.5,137C 218.067,142.413 224.733,147.579 231.5,152.5C 230.054,153.613 228.387,153.78 226.5,153C 216.819,149.659 207.819,144.993 199.5,139C 193.002,133.999 186.669,128.833 180.5,123.5C 175.5,118.167 170.5,112.833 165.5,107.5C 162.013,103.858 159.013,99.8578 156.5,95.5 Z"/></g>
<g><path style="opacity:0.923" fill="#2e2739" d="M 563.5,137.5 C 549.555,134.144 535.555,130.977 521.5,128C 508.846,126.895 496.18,126.062 483.5,125.5C 491.999,122.67 500.665,120.003 509.5,117.5C 528.223,122.542 546.223,129.208 563.5,137.5 Z"/></g>
<g><path style="opacity:0.999" fill="#3a304b" d="M 483.5,125.5 C 496.18,126.062 508.846,126.895 521.5,128C 535.555,130.977 549.555,134.144 563.5,137.5C 568.896,139.032 573.896,141.365 578.5,144.5C 578.44,145.043 578.107,145.376 577.5,145.5C 560.253,141.03 542.92,136.863 525.5,133C 513.092,132.823 500.758,133.823 488.5,136C 486.616,136.216 484.949,136.883 483.5,138C 489.942,140.971 496.442,143.804 503,146.5C 510.833,145.59 518.667,144.59 526.5,143.5C 533.9,145.406 540.9,148.073 547.5,151.5C 544.721,151.721 542.054,151.388 539.5,150.5C 535.47,148.403 531.303,146.403 527,144.5C 523.605,146.738 520.105,148.738 516.5,150.5C 514.726,150.113 513.059,149.447 511.5,148.5C 510.833,148.833 510.167,149.167 509.5,149.5C 502.29,147.868 494.956,147.035 487.5,147C 481.748,144.526 476.081,141.86 470.5,139C 473.789,138.118 477.123,137.452 480.5,137C 476.326,135.918 472.326,134.251 468.5,132C 466.527,131.505 464.527,131.338 462.5,131.5C 469.183,128.742 476.183,126.742 483.5,125.5 Z"/></g>
<g><path style="opacity:1" fill="#260e23" d="M 117.5,92.5 C 120.172,93.5014 122.838,94.5014 125.5,95.5C 125.179,100.695 125.513,105.695 126.5,110.5C 126.625,117.755 127.625,124.755 129.5,131.5C 130.528,137.278 132.028,142.944 134,148.5C 135.025,150.687 136.525,152.354 138.5,153.5C 131.614,151.425 124.614,148.592 117.5,145C 112.167,144.667 106.833,144.333 101.5,144C 100.584,143.722 99.9175,143.222 99.5,142.5C 104.367,142.067 108.367,140.067 111.5,136.5C 113.136,135.251 114.303,133.584 115,131.5C 115.499,125.509 115.666,119.509 115.5,113.5C 115.109,106.346 115.775,99.3462 117.5,92.5 Z"/></g>
<g><path style="opacity:1" fill="#402951" d="M 269.5,122.5 C 272.626,123.229 275.293,124.729 277.5,127C 276.571,130.553 275.571,134.053 274.5,137.5C 274.672,138.492 274.338,139.158 273.5,139.5C 273.631,138.624 273.298,137.957 272.5,137.5C 269.471,136.16 266.471,134.827 263.5,133.5C 265.234,129.7 267.234,126.034 269.5,122.5 Z"/></g>
<g><path style="opacity:0.994" fill="#2f2639" d="M 578.5,144.5 C 592.289,151.316 604.122,160.65 614,172.5C 614.5,190.497 614.667,208.497 614.5,226.5C 613.668,209.005 613.168,191.338 613,173.5C 591.702,164.234 569.869,156.901 547.5,151.5C 540.9,148.073 533.9,145.406 526.5,143.5C 518.667,144.59 510.833,145.59 503,146.5C 496.442,143.804 489.942,140.971 483.5,138C 484.949,136.883 486.616,136.216 488.5,136C 500.758,133.823 513.092,132.823 525.5,133C 542.92,136.863 560.253,141.03 577.5,145.5C 578.107,145.376 578.44,145.043 578.5,144.5 Z"/></g>
<g><path style="opacity:1" fill="#762baa" d="M 132.5,115.5 C 133.329,118.815 134.162,122.148 135,125.5C 167.257,140.125 199.59,154.791 232,169.5C 234.316,167.53 236.149,165.196 237.5,162.5C 238.298,162.957 238.631,163.624 238.5,164.5C 235.833,168.833 233.167,173.167 230.5,177.5C 230.167,177.5 229.833,177.5 229.5,177.5C 229.672,176.508 229.338,175.842 228.5,175.5C 198.288,161.894 167.955,148.561 137.5,135.5C 137.67,134.178 137.337,133.011 136.5,132C 134.385,131.443 132.385,130.609 130.5,129.5C 129.702,129.957 129.369,130.624 129.5,131.5C 127.625,124.755 126.625,117.755 126.5,110.5C 126.5,108.167 126.5,105.833 126.5,103.5C 127.822,103.33 128.989,103.663 130,104.5C 131.622,107.987 132.455,111.654 132.5,115.5 Z"/></g>
<g><path style="opacity:1" fill="#7a2bb1" d="M 137.5,135.5 C 167.955,148.561 198.288,161.894 228.5,175.5C 227.488,176.872 226.488,178.205 225.5,179.5C 199.061,167.28 172.395,155.613 145.5,144.5C 141.435,142.767 138.768,139.767 137.5,135.5 Z"/></g>
<g><path style="opacity:1" fill="#642b8d" d="M 125.5,93.5 C 127.39,93.2965 128.89,93.9632 130,95.5C 130.497,97.8098 130.663,100.143 130.5,102.5C 132.199,102.34 133.866,102.506 135.5,103C 150.594,109.884 165.594,116.718 180.5,123.5C 186.669,128.833 193.002,133.999 199.5,139C 207.819,144.993 216.819,149.659 226.5,153C 228.387,153.78 230.054,153.613 231.5,152.5C 234.475,151.345 237.142,149.678 239.5,147.5C 241.556,146.438 243.556,146.771 245.5,148.5C 247.692,147.141 249.359,145.308 250.5,143C 251.437,142.308 252.103,142.475 252.5,143.5C 249.402,148.709 246.068,153.709 242.5,158.5C 242.631,157.624 242.298,156.957 241.5,156.5C 240.5,157.833 239.5,159.167 238.5,160.5C 237.635,161.583 236.635,161.749 235.5,161C 227.284,157.059 218.951,153.392 210.5,150C 186.089,134.962 160.089,123.462 132.5,115.5C 132.455,111.654 131.622,107.987 130,104.5C 128.989,103.663 127.822,103.33 126.5,103.5C 126.5,105.833 126.5,108.167 126.5,110.5C 125.513,105.695 125.179,100.695 125.5,95.5C 125.5,94.8333 125.5,94.1667 125.5,93.5 Z"/></g>
<g><path style="opacity:1" fill="#532a70" d="M 260.5,131.5 C 258.192,135.795 255.526,139.795 252.5,143.5C 252.103,142.475 251.437,142.308 250.5,143C 249.359,145.308 247.692,147.141 245.5,148.5C 243.556,146.771 241.556,146.438 239.5,147.5C 239.5,147.167 239.5,146.833 239.5,146.5C 243.833,144.167 247.167,140.833 249.5,136.5C 251.63,134.873 253.63,133.04 255.5,131C 257.387,130.22 259.054,130.387 260.5,131.5 Z"/></g>
<g><path style="opacity:1" fill="#502c6c" d="M 263.5,133.5 C 266.471,134.827 269.471,136.16 272.5,137.5C 273.298,137.957 273.631,138.624 273.5,139.5C 273.112,143.993 272.112,148.327 270.5,152.5C 266.441,150.052 262.275,147.719 258,145.5C 257.617,146.056 257.117,146.389 256.5,146.5C 258.583,142 260.916,137.666 263.5,133.5 Z"/></g>
<g><path style="opacity:1" fill="#3e2954" d="M 451.5,134.5 C 456.416,134.29 460.749,135.79 464.5,139C 462.392,139.36 460.392,140.027 458.5,141C 464.712,143.608 470.712,146.442 476.5,149.5C 471.065,150.123 465.732,150.79 460.5,151.5C 450.338,152.262 441.005,149.762 432.5,144C 434.384,143.784 436.051,143.117 437.5,142C 436.5,141.667 435.5,141.333 434.5,141C 431.122,140.952 427.789,141.452 424.5,142.5C 423.833,142.5 423.167,142.5 422.5,142.5C 431.942,139.387 441.609,136.72 451.5,134.5 Z"/></g>
<g><path style="opacity:1" fill="#3e304d" d="M 388.5,127.5 C 389.833,128.167 390.833,129.167 391.5,130.5C 395.264,135.691 398.264,141.358 400.5,147.5C 398.731,149.397 396.398,150.564 393.5,151C 377.625,154.142 361.625,156.309 345.5,157.5C 333.527,155.502 321.527,153.502 309.5,151.5C 303.189,153.404 297.022,155.737 291,158.5C 285.397,156.908 279.897,155.241 274.5,153.5C 273.041,153.567 271.708,153.234 270.5,152.5C 272.112,148.327 273.112,143.993 273.5,139.5C 274.338,139.158 274.672,138.492 274.5,137.5C 280.668,139.793 287.002,141.627 293.5,143C 318.171,146.575 342.171,144.408 365.5,136.5C 373.569,134.29 381.236,131.29 388.5,127.5 Z"/></g>
<g><path style="opacity:1" fill="#6f2f9e" d="M 132.5,115.5 C 160.089,123.462 186.089,134.962 210.5,150C 218.951,153.392 227.284,157.059 235.5,161C 236.635,161.749 237.635,161.583 238.5,160.5C 239.5,159.167 240.5,157.833 241.5,156.5C 242.298,156.957 242.631,157.624 242.5,158.5C 241.525,160.795 240.192,162.795 238.5,164.5C 238.631,163.624 238.298,162.957 237.5,162.5C 236.149,165.196 234.316,167.53 232,169.5C 199.59,154.791 167.257,140.125 135,125.5C 134.162,122.148 133.329,118.815 132.5,115.5 Z"/></g>
<g><path style="opacity:1" fill="#3d2f51" d="M 462.5,131.5 C 464.527,131.338 466.527,131.505 468.5,132C 472.326,134.251 476.326,135.918 480.5,137C 477.123,137.452 473.789,138.118 470.5,139C 476.081,141.86 481.748,144.526 487.5,147C 494.956,147.035 502.29,147.868 509.5,149.5C 510.167,149.167 510.833,148.833 511.5,148.5C 513.059,149.447 514.726,150.113 516.5,150.5C 520.105,148.738 523.605,146.738 527,144.5C 531.303,146.403 535.47,148.403 539.5,150.5C 532.409,149.534 526.076,151.201 520.5,155.5C 517.773,151.769 514.773,151.603 511.5,155C 509.5,155.667 507.5,155.667 505.5,155C 501.251,152.806 496.918,150.806 492.5,149C 487.083,148.219 481.75,148.385 476.5,149.5C 470.712,146.442 464.712,143.608 458.5,141C 460.392,140.027 462.392,139.36 464.5,139C 460.749,135.79 456.416,134.29 451.5,134.5C 454.854,132.742 458.521,131.742 462.5,131.5 Z"/></g>
<g><path style="opacity:1" fill="#9d2ad7" d="M 137.5,135.5 C 138.768,139.767 141.435,142.767 145.5,144.5C 153.857,151.519 162.524,158.185 171.5,164.5C 174.833,167.5 178.167,170.5 181.5,173.5C 171.642,169.657 161.809,165.657 152,161.5C 151.235,161.57 150.735,161.903 150.5,162.5C 146.5,159.5 142.5,156.5 138.5,153.5C 136.525,152.354 135.025,150.687 134,148.5C 132.028,142.944 130.528,137.278 129.5,131.5C 129.369,130.624 129.702,129.957 130.5,129.5C 132.385,130.609 134.385,131.443 136.5,132C 137.337,133.011 137.67,134.178 137.5,135.5 Z"/></g>
<g><path style="opacity:1" fill="#562977" d="M 270.5,152.5 C 271.708,153.234 273.041,153.567 274.5,153.5C 276.635,155.071 278.968,156.404 281.5,157.5C 278.175,157.97 275.008,156.97 272,154.5C 271.501,158.152 271.335,161.818 271.5,165.5C 271.5,165.833 271.5,166.167 271.5,166.5C 271.167,166.5 270.833,166.5 270.5,166.5C 270.5,163.167 270.5,159.833 270.5,156.5C 264.792,155.042 259.125,153.376 253.5,151.5C 254.263,149.632 255.263,147.965 256.5,146.5C 257.117,146.389 257.617,146.056 258,145.5C 262.275,147.719 266.441,150.052 270.5,152.5 Z"/></g>
<g><path style="opacity:1" fill="#362a42" d="M 400.5,147.5 C 402.922,152.165 404.589,157.165 405.5,162.5C 385.105,163.688 365.105,162.021 345.5,157.5C 361.625,156.309 377.625,154.142 393.5,151C 396.398,150.564 398.731,149.397 400.5,147.5 Z"/></g>
<g><path style="opacity:1" fill="#45325e" d="M 520.5,155.5 C 517.523,157.467 514.523,159.467 511.5,161.5C 511.116,159.707 509.95,158.707 508,158.5C 505.306,159.882 502.639,161.215 500,162.5C 494.492,161.803 488.992,161.136 483.5,160.5C 478.937,158.186 474.271,155.853 469.5,153.5C 466.336,154.124 463.336,153.458 460.5,151.5C 465.732,150.79 471.065,150.123 476.5,149.5C 481.75,148.385 487.083,148.219 492.5,149C 496.918,150.806 501.251,152.806 505.5,155C 507.5,155.667 509.5,155.667 511.5,155C 514.773,151.603 517.773,151.769 520.5,155.5 Z"/></g>
<g><path style="opacity:1" fill="#220b1f" d="M 269.5,122.5 C 267.234,126.034 265.234,129.7 263.5,133.5C 260.916,137.666 258.583,142 256.5,146.5C 255.263,147.965 254.263,149.632 253.5,151.5C 251.82,154.86 250.153,158.193 248.5,161.5C 245.182,167.465 241.849,173.465 238.5,179.5C 235.779,179.037 233.112,178.371 230.5,177.5C 233.167,173.167 235.833,168.833 238.5,164.5C 240.192,162.795 241.525,160.795 242.5,158.5C 246.068,153.709 249.402,148.709 252.5,143.5C 255.526,139.795 258.192,135.795 260.5,131.5C 263,128.506 265,125.173 266.5,121.5C 268.735,118.709 270.735,115.709 272.5,112.5C 274.223,110.747 275.723,108.747 277,106.5C 274.836,111.836 272.336,117.17 269.5,122.5 Z"/></g>
<g><path style="opacity:1" fill="#472d62" d="M 460.5,151.5 C 463.336,153.458 466.336,154.124 469.5,153.5C 474.271,155.853 478.937,158.186 483.5,160.5C 474.829,160.262 466.162,159.928 457.5,159.5C 454.069,157.398 450.402,155.565 446.5,154C 436.829,153.637 427.162,153.804 417.5,154.5C 417.768,152.901 417.434,151.568 416.5,150.5C 418.86,147.473 421.527,144.806 424.5,142.5C 427.789,141.452 431.122,140.952 434.5,141C 435.5,141.333 436.5,141.667 437.5,142C 436.051,143.117 434.384,143.784 432.5,144C 441.005,149.762 450.338,152.262 460.5,151.5 Z"/></g>
<g><path style="opacity:1" fill="#130511" d="M 539.5,150.5 C 542.054,151.388 544.721,151.721 547.5,151.5C 569.869,156.901 591.702,164.234 613,173.5C 613.168,191.338 613.668,209.005 614.5,226.5C 614.5,230.167 614.5,233.833 614.5,237.5C 586.939,225.219 559.273,213.219 531.5,201.5C 531.584,213.02 532.251,224.354 533.5,235.5C 533.925,246.855 534.592,258.189 535.5,269.5C 535.167,270.167 534.833,270.833 534.5,271.5C 530.273,269.593 526.106,267.593 522,265.5C 522.426,255.158 523.259,244.825 524.5,234.5C 526.16,223.292 527.827,211.959 529.5,200.5C 515.746,193.623 501.746,187.29 487.5,181.5C 488.5,179.833 489.833,178.5 491.5,177.5C 495.39,174.729 499.057,171.729 502.5,168.5C 505.81,166.518 508.81,164.185 511.5,161.5C 514.523,159.467 517.523,157.467 520.5,155.5C 526.076,151.201 532.409,149.534 539.5,150.5 Z"/></g>
<g><path style="opacity:1" fill="#64308b" d="M 253.5,151.5 C 259.125,153.376 264.792,155.042 270.5,156.5C 270.5,159.833 270.5,163.167 270.5,166.5C 268.5,167.167 266.5,167.833 264.5,168.5C 259.445,165.642 254.111,163.308 248.5,161.5C 250.153,158.193 251.82,154.86 253.5,151.5 Z"/></g>
<g><path style="opacity:1" fill="#802bbc" d="M 145.5,144.5 C 172.395,155.613 199.061,167.28 225.5,179.5C 224.443,183.248 222.11,185.082 218.5,185C 203.046,177.604 187.379,170.771 171.5,164.5C 162.524,158.185 153.857,151.519 145.5,144.5 Z"/></g>
<g><path style="opacity:1" fill="#442f54" d="M 281.5,157.5 C 283.14,158.32 284.807,159.153 286.5,160C 281.489,161.841 276.489,163.674 271.5,165.5C 271.335,161.818 271.501,158.152 272,154.5C 275.008,156.97 278.175,157.97 281.5,157.5 Z"/></g>
<g><path style="opacity:1" fill="#482a66" d="M 457.5,159.5 C 456.127,159.343 454.793,159.51 453.5,160C 464.526,164.848 475.526,169.681 486.5,174.5C 486.5,174.833 486.5,175.167 486.5,175.5C 483.149,177.859 479.815,180.192 476.5,182.5C 461.311,175.407 445.977,168.573 430.5,162C 426.081,159.463 421.748,156.963 417.5,154.5C 427.162,153.804 436.829,153.637 446.5,154C 450.402,155.565 454.069,157.398 457.5,159.5 Z"/></g>
<g><path style="opacity:1" fill="#140316" d="M 391.5,130.5 C 397.262,134.757 402.595,139.59 407.5,145C 412.544,144.715 417.544,143.882 422.5,142.5C 423.167,142.5 423.833,142.5 424.5,142.5C 421.527,144.806 418.86,147.473 416.5,150.5C 416.167,151.167 415.833,151.833 415.5,152.5C 411.524,161.803 410.524,171.47 412.5,181.5C 411.833,181.167 411.167,180.833 410.5,180.5C 410.768,178.901 410.434,177.568 409.5,176.5C 409.5,176.167 409.5,175.833 409.5,175.5C 408.376,171.89 407.376,168.224 406.5,164.5C 402.21,163.574 398.21,164.241 394.5,166.5C 388.944,168.24 383.277,169.573 377.5,170.5C 373.082,170.074 368.748,169.407 364.5,168.5C 355.518,167.085 346.518,165.752 337.5,164.5C 329.74,162.848 321.906,161.515 314,160.5C 299.733,163.442 285.566,166.775 271.5,170.5C 271.5,169.167 271.5,167.833 271.5,166.5C 271.5,166.167 271.5,165.833 271.5,165.5C 276.489,163.674 281.489,161.841 286.5,160C 284.807,159.153 283.14,158.32 281.5,157.5C 278.968,156.404 276.635,155.071 274.5,153.5C 279.897,155.241 285.397,156.908 291,158.5C 297.022,155.737 303.189,153.404 309.5,151.5C 321.527,153.502 333.527,155.502 345.5,157.5C 365.105,162.021 385.105,163.688 405.5,162.5C 404.589,157.165 402.922,152.165 400.5,147.5C 398.264,141.358 395.264,135.691 391.5,130.5 Z"/></g>
<g><path style="opacity:1" fill="#4e296f" d="M 416.5,150.5 C 417.434,151.568 417.768,152.901 417.5,154.5C 421.748,156.963 426.081,159.463 430.5,162C 445.977,168.573 461.311,175.407 476.5,182.5C 476.5,183.167 476.167,183.5 475.5,183.5C 456.947,180.744 438.28,178.41 419.5,176.5C 417.322,168.537 415.988,160.537 415.5,152.5C 415.833,151.833 416.167,151.167 416.5,150.5 Z"/></g>
<g><path style="opacity:1" fill="#402858" d="M 511.5,161.5 C 508.81,164.185 505.81,166.518 502.5,168.5C 501.594,167.035 500.261,166.035 498.5,165.5C 494.482,168.524 490.482,171.524 486.5,174.5C 475.526,169.681 464.526,164.848 453.5,160C 454.793,159.51 456.127,159.343 457.5,159.5C 466.162,159.928 474.829,160.262 483.5,160.5C 488.992,161.136 494.492,161.803 500,162.5C 502.639,161.215 505.306,159.882 508,158.5C 509.95,158.707 511.116,159.707 511.5,161.5 Z"/></g>
<g><path style="opacity:1" fill="#411d3e" d="M 76.5,147.5 C 77.5,147.5 78.5,147.5 79.5,147.5C 81.6309,155.226 83.9642,162.893 86.5,170.5C 81.2848,168.31 76.1181,165.976 71,163.5C 70.8316,171.521 70.3316,179.521 69.5,187.5C 60.2431,183.304 50.9097,179.304 41.5,175.5C 40.8333,175.833 40.1667,176.167 39.5,176.5C 38.2533,179.329 36.7533,181.995 35,184.5C 33.9614,183.756 33.4614,182.756 33.5,181.5C 34.8915,176.156 36.3915,170.823 38,165.5C 38.7401,159.782 38.5735,154.115 37.5,148.5C 39.1573,149.575 40.9907,150.242 43,150.5C 54.1195,148.965 65.2862,147.965 76.5,147.5 Z"/></g>
<g><path style="opacity:1" fill="#2f122c" d="M 99.5,142.5 C 99.9175,143.222 100.584,143.722 101.5,144C 106.833,144.333 112.167,144.667 117.5,145C 124.614,148.592 131.614,151.425 138.5,153.5C 142.5,156.5 146.5,159.5 150.5,162.5C 170.125,177.619 189.625,192.952 209,208.5C 213.104,202.613 216.938,196.613 220.5,190.5C 223.857,186.465 226.857,182.132 229.5,177.5C 229.833,177.5 230.167,177.5 230.5,177.5C 233.112,178.371 235.779,179.037 238.5,179.5C 236.833,182.833 235.167,186.167 233.5,189.5C 231.526,192.77 229.526,196.103 227.5,199.5C 227.957,200.298 228.624,200.631 229.5,200.5C 231.703,202.1 234.036,203.433 236.5,204.5C 229.342,206.218 222.342,208.718 215.5,212C 211.199,213.785 209.199,216.952 209.5,221.5C 209.296,224.518 208.963,227.518 208.5,230.5C 196.162,225.44 183.829,220.273 171.5,215C 148.374,192.438 120.708,178.938 88.5,174.5C 96.7855,167.717 104.619,160.383 112,152.5C 113.879,150.473 115.046,148.14 115.5,145.5C 102.295,145.173 89.2947,145.839 76.5,147.5C 65.2862,147.965 54.1195,148.965 43,150.5C 40.9907,150.242 39.1573,149.575 37.5,148.5C 32.0832,141.341 27.4166,133.675 23.5,125.5C 23.4701,124.503 23.9701,123.836 25,123.5C 48.4575,135.491 73.2908,141.824 99.5,142.5 Z"/></g>
<g><path style="opacity:1" fill="#662992" d="M 248.5,161.5 C 254.111,163.308 259.445,165.642 264.5,168.5C 258.2,170.653 252.2,173.32 246.5,176.5C 244.064,177.871 241.397,178.871 238.5,179.5C 241.849,173.465 245.182,167.465 248.5,161.5 Z"/></g>
<g><path style="opacity:1" fill="#443153" d="M 332.5,166.5 C 340.904,168.638 349.57,169.971 358.5,170.5C 360.952,170.461 362.952,169.794 364.5,168.5C 368.748,169.407 373.082,170.074 377.5,170.5C 383.277,169.573 388.944,168.24 394.5,166.5C 389.715,170.735 383.549,173.069 376,173.5C 370.349,172.703 364.682,172.036 359,171.5C 335.29,175.673 311.456,176.506 287.5,174C 284.69,173.218 282.023,172.384 279.5,171.5C 289.141,169.404 298.808,167.237 308.5,165C 316.537,164.773 324.537,165.273 332.5,166.5 Z"/></g>
<g><path style="opacity:1" fill="#5e3084" d="M 337.5,164.5 C 346.518,165.752 355.518,167.085 364.5,168.5C 362.952,169.794 360.952,170.461 358.5,170.5C 349.57,169.971 340.904,168.638 332.5,166.5C 334.698,166.88 336.365,166.213 337.5,164.5 Z"/></g>
<g><path style="opacity:1" fill="#1f042d" d="M 270.5,166.5 C 270.833,166.5 271.167,166.5 271.5,166.5C 271.5,167.833 271.5,169.167 271.5,170.5C 263.263,172.912 254.93,174.912 246.5,176.5C 252.2,173.32 258.2,170.653 264.5,168.5C 266.5,167.833 268.5,167.167 270.5,166.5 Z"/></g>
<g><path style="opacity:1" fill="#6f27a0" d="M 415.5,152.5 C 415.988,160.537 417.322,168.537 419.5,176.5C 419.5,176.833 419.5,177.167 419.5,177.5C 417.621,176.659 415.621,176.325 413.5,176.5C 413.5,178.5 413.5,180.5 413.5,182.5C 412.833,182.5 412.5,182.167 412.5,181.5C 410.524,171.47 411.524,161.803 415.5,152.5 Z"/></g>
<g><path style="opacity:1" fill="#4f2572" d="M 502.5,168.5 C 499.057,171.729 495.39,174.729 491.5,177.5C 490.22,176.069 488.553,175.402 486.5,175.5C 486.5,175.167 486.5,174.833 486.5,174.5C 490.482,171.524 494.482,168.524 498.5,165.5C 500.261,166.035 501.594,167.035 502.5,168.5 Z"/></g>
<g><path style="opacity:1" fill="#3a2a43" d="M 409.5,175.5 C 394.163,175.333 378.83,175.5 363.5,176C 355.365,176.56 347.365,177.894 339.5,180C 318.46,183.473 297.46,183.306 276.5,179.5C 274.428,177.65 273.095,175.317 272.5,172.5C 274.806,172.007 277.139,171.674 279.5,171.5C 282.023,172.384 284.69,173.218 287.5,174C 311.456,176.506 335.29,175.673 359,171.5C 364.682,172.036 370.349,172.703 376,173.5C 383.549,173.069 389.715,170.735 394.5,166.5C 398.21,164.241 402.21,163.574 406.5,164.5C 407.376,168.224 408.376,171.89 409.5,175.5 Z"/></g>
<g><path style="opacity:1" fill="#a92ae5" d="M 150.5,162.5 C 150.735,161.903 151.235,161.57 152,161.5C 161.809,165.657 171.642,169.657 181.5,173.5C 192.137,181.491 202.804,189.491 213.5,197.5C 215.412,195.343 217.079,193.009 218.5,190.5C 219.257,189.227 219.923,189.227 220.5,190.5C 216.938,196.613 213.104,202.613 209,208.5C 189.625,192.952 170.125,177.619 150.5,162.5 Z"/></g>
<g><path style="opacity:1" fill="#892bca" d="M 171.5,164.5 C 187.379,170.771 203.046,177.604 218.5,185C 222.11,185.082 224.443,183.248 225.5,179.5C 226.488,178.205 227.488,176.872 228.5,175.5C 229.338,175.842 229.672,176.508 229.5,177.5C 226.857,182.132 223.857,186.465 220.5,190.5C 219.923,189.227 219.257,189.227 218.5,190.5C 217.079,193.009 215.412,195.343 213.5,197.5C 202.804,189.491 192.137,181.491 181.5,173.5C 178.167,170.5 174.833,167.5 171.5,164.5 Z"/></g>
<g><path style="opacity:1" fill="#443052" d="M 409.5,175.5 C 409.5,175.833 409.5,176.167 409.5,176.5C 409.5,177.5 409.5,178.5 409.5,179.5C 397.867,178.397 386.2,178.231 374.5,179C 350.756,183.916 326.756,186.249 302.5,186C 309.491,190.02 316.824,192.52 324.5,193.5C 322.833,193.5 321.167,193.5 319.5,193.5C 306.202,192.785 293.535,189.618 281.5,184C 279.382,182.951 277.716,181.451 276.5,179.5C 297.46,183.306 318.46,183.473 339.5,180C 347.365,177.894 355.365,176.56 363.5,176C 378.83,175.5 394.163,175.333 409.5,175.5 Z"/></g>
<g><path style="opacity:1" fill="#742ca8" d="M 337.5,164.5 C 336.365,166.213 334.698,166.88 332.5,166.5C 324.537,165.273 316.537,164.773 308.5,165C 298.808,167.237 289.141,169.404 279.5,171.5C 277.139,171.674 274.806,172.007 272.5,172.5C 267.917,172.895 263.584,174.062 259.5,176C 263.934,177.383 268.268,179.05 272.5,181C 277.972,184.645 283.639,187.812 289.5,190.5C 282.549,189.119 275.549,187.953 268.5,187C 266.571,184.562 264.238,182.728 261.5,181.5C 255.547,182.6 249.881,184.266 244.5,186.5C 240.691,187.035 237.024,188.035 233.5,189.5C 235.167,186.167 236.833,182.833 238.5,179.5C 241.397,178.871 244.064,177.871 246.5,176.5C 254.93,174.912 263.263,172.912 271.5,170.5C 285.566,166.775 299.733,163.442 314,160.5C 321.906,161.515 329.74,162.848 337.5,164.5 Z"/></g>
<g><path style="opacity:1" fill="#3a2943" d="M 409.5,176.5 C 410.434,177.568 410.768,178.901 410.5,180.5C 411.038,182.117 411.371,183.784 411.5,185.5C 408.738,184.036 405.905,182.703 403,181.5C 398.254,183.964 393.421,185.964 388.5,187.5C 383.609,188.01 378.942,189.01 374.5,190.5C 369.972,190.77 365.639,191.437 361.5,192.5C 354.313,192.175 347.313,192.509 340.5,193.5C 335.167,193.5 329.833,193.5 324.5,193.5C 316.824,192.52 309.491,190.02 302.5,186C 326.756,186.249 350.756,183.916 374.5,179C 386.2,178.231 397.867,178.397 409.5,179.5C 409.5,178.5 409.5,177.5 409.5,176.5 Z"/></g>
<g><path style="opacity:1" fill="#6a2c96" d="M 272.5,172.5 C 273.095,175.317 274.428,177.65 276.5,179.5C 277.716,181.451 279.382,182.951 281.5,184C 293.535,189.618 306.202,192.785 319.5,193.5C 322.964,195.317 326.298,197.317 329.5,199.5C 316.608,196.027 303.608,193.027 290.5,190.5C 290.167,190.5 289.833,190.5 289.5,190.5C 283.639,187.812 277.972,184.645 272.5,181C 268.268,179.05 263.934,177.383 259.5,176C 263.584,174.062 267.917,172.895 272.5,172.5 Z"/></g>
<g><path style="opacity:1" fill="#582b7d" d="M 419.5,176.5 C 438.28,178.41 456.947,180.744 475.5,183.5C 473.36,186.061 471.027,188.395 468.5,190.5C 464.208,193.457 460.208,196.79 456.5,200.5C 445.384,195.274 434.051,190.608 422.5,186.5C 421.304,183.579 420.304,180.579 419.5,177.5C 419.5,177.167 419.5,176.833 419.5,176.5 Z"/></g>
<g><path style="opacity:1" fill="#402951" d="M 411.5,185.5 C 412.803,189.382 413.47,193.382 413.5,197.5C 413.565,197.938 413.399,198.272 413,198.5C 404.588,195.202 396.421,191.535 388.5,187.5C 393.421,185.964 398.254,183.964 403,181.5C 405.905,182.703 408.738,184.036 411.5,185.5 Z"/></g>
<g><path style="opacity:1" fill="#5f2989" d="M 422.5,186.5 C 434.051,190.608 445.384,195.274 456.5,200.5C 452.833,203.833 449.167,207.167 445.5,210.5C 444.185,211.476 442.852,212.476 441.5,213.5C 438.812,211.479 436.479,209.146 434.5,206.5C 429.494,200.497 425.494,193.83 422.5,186.5 Z"/></g>
<g><path style="opacity:1" fill="#672b95" d="M 486.5,175.5 C 488.553,175.402 490.22,176.069 491.5,177.5C 489.833,178.5 488.5,179.833 487.5,181.5C 482.47,184.684 477.804,188.351 473.5,192.5C 472.07,191.463 470.403,190.796 468.5,190.5C 471.027,188.395 473.36,186.061 475.5,183.5C 476.167,183.5 476.5,183.167 476.5,182.5C 479.815,180.192 483.149,177.859 486.5,175.5 Z"/></g>
<g><path style="opacity:1" fill="#160614" d="M 487.5,181.5 C 501.746,187.29 515.746,193.623 529.5,200.5C 527.827,211.959 526.16,223.292 524.5,234.5C 524.67,233.178 524.337,232.011 523.5,231C 506.6,223.203 489.6,215.703 472.5,208.5C 472.663,206.143 472.497,203.81 472,201.5C 470.226,202.965 468.392,204.298 466.5,205.5C 464.95,204.559 463.284,203.893 461.5,203.5C 465.474,199.862 469.474,196.195 473.5,192.5C 477.804,188.351 482.47,184.684 487.5,181.5 Z"/></g>
<g><path style="opacity:1" fill="#47295e" d="M 388.5,187.5 C 396.421,191.535 404.588,195.202 413,198.5C 413.399,198.272 413.565,197.938 413.5,197.5C 415.118,201.575 416.118,205.908 416.5,210.5C 415.942,208.407 414.609,206.907 412.5,206C 402.715,201.941 393.048,197.608 383.5,193C 380.647,191.57 377.647,190.737 374.5,190.5C 378.942,189.01 383.609,188.01 388.5,187.5 Z"/></g>
<g><path style="opacity:1" fill="#9f29d8" d="M 244.5,186.5 C 247.075,187.787 249.741,189.121 252.5,190.5C 253.298,190.957 253.631,191.624 253.5,192.5C 245.215,194.595 237.215,197.262 229.5,200.5C 228.624,200.631 227.957,200.298 227.5,199.5C 229.526,196.103 231.526,192.77 233.5,189.5C 237.024,188.035 240.691,187.035 244.5,186.5 Z"/></g>
<g><path style="opacity:1" fill="#8b29c0" d="M 289.5,190.5 C 289.833,190.5 290.167,190.5 290.5,190.5C 301.856,196.003 313.523,201.337 325.5,206.5C 326.386,207.325 326.719,208.325 326.5,209.5C 313.244,206.449 299.911,203.782 286.5,201.5C 279.086,199.41 271.419,197.91 263.5,197C 261.833,195.333 260.167,193.667 258.5,192C 256.735,191.36 255.068,191.527 253.5,192.5C 253.631,191.624 253.298,190.957 252.5,190.5C 249.741,189.121 247.075,187.787 244.5,186.5C 249.881,184.266 255.547,182.6 261.5,181.5C 264.238,182.728 266.571,184.562 268.5,187C 275.549,187.953 282.549,189.119 289.5,190.5 Z"/></g>
<g><path style="opacity:1" fill="#290f26" d="M 286.5,201.5 C 294.955,205.227 303.288,209.227 311.5,213.5C 300.757,211.349 289.924,209.682 279,208.5C 277.5,208.667 276,208.833 274.5,209C 272.611,211.382 270.945,213.882 269.5,216.5C 266.579,221.341 263.912,226.341 261.5,231.5C 260.833,231.5 260.5,231.833 260.5,232.5C 256.811,234.097 253.311,236.097 250,238.5C 252.029,229.74 254.695,221.073 258,212.5C 258.953,209.568 259.453,206.568 259.5,203.5C 251.804,203.354 244.138,203.687 236.5,204.5C 234.036,203.433 231.703,202.1 229.5,200.5C 237.215,197.262 245.215,194.595 253.5,192.5C 255.068,191.527 256.735,191.36 258.5,192C 260.167,193.667 261.833,195.333 263.5,197C 271.419,197.91 279.086,199.41 286.5,201.5 Z"/></g>
<g><path style="opacity:1" fill="#4f296a" d="M 374.5,190.5 C 377.647,190.737 380.647,191.57 383.5,193C 393.048,197.608 402.715,201.941 412.5,206C 414.609,206.907 415.942,208.407 416.5,210.5C 417.15,212.435 417.483,214.435 417.5,216.5C 398.833,208.5 380.167,200.5 361.5,192.5C 365.639,191.437 369.972,190.77 374.5,190.5 Z"/></g>
<g><path style="opacity:1" fill="#5e2a82" d="M 319.5,193.5 C 321.167,193.5 322.833,193.5 324.5,193.5C 329.833,193.5 335.167,193.5 340.5,193.5C 343.187,193.336 345.854,193.503 348.5,194C 366.5,202 384.5,210 402.5,218C 404.584,218.697 406.251,219.864 407.5,221.5C 382.317,213.549 356.983,206.216 331.5,199.5C 330.833,199.5 330.167,199.5 329.5,199.5C 326.298,197.317 322.964,195.317 319.5,193.5 Z"/></g>
<g><path style="opacity:1" fill="#562977" d="M 340.5,193.5 C 347.313,192.509 354.313,192.175 361.5,192.5C 380.167,200.5 398.833,208.5 417.5,216.5C 418.265,219.096 418.599,221.763 418.5,224.5C 414.749,223.79 411.082,222.79 407.5,221.5C 406.251,219.864 404.584,218.697 402.5,218C 384.5,210 366.5,202 348.5,194C 345.854,193.503 343.187,193.336 340.5,193.5 Z"/></g>
<g><path style="opacity:1" fill="#8527bd" d="M 419.5,177.5 C 420.304,180.579 421.304,183.579 422.5,186.5C 425.494,193.83 429.494,200.497 434.5,206.5C 430.556,206.032 426.889,204.699 423.5,202.5C 422.614,203.325 422.281,204.325 422.5,205.5C 418.15,198.45 415.15,190.783 413.5,182.5C 413.5,180.5 413.5,178.5 413.5,176.5C 415.621,176.325 417.621,176.659 419.5,177.5 Z"/></g>
<g><path style="opacity:1" fill="#7e29b0" d="M 290.5,190.5 C 303.608,193.027 316.608,196.027 329.5,199.5C 330.167,199.5 330.833,199.5 331.5,199.5C 332.122,201.335 333.456,202.502 335.5,203C 349.951,209.059 364.284,215.392 378.5,222C 377.207,222.49 375.873,222.657 374.5,222.5C 358.31,218.455 342.31,214.121 326.5,209.5C 326.719,208.325 326.386,207.325 325.5,206.5C 313.523,201.337 301.856,196.003 290.5,190.5 Z"/></g>
<g><path style="opacity:1" fill="#441e43" d="M 86.5,170.5 C 88.0171,172.936 87.6838,175.102 85.5,177C 76.8333,183.667 68.1667,190.333 59.5,197C 81.8802,198.178 102.88,204.178 122.5,215C 146.549,228.368 167.549,245.535 185.5,266.5C 185.262,268.404 184.262,269.738 182.5,270.5C 163.62,261.147 144.454,252.147 125,243.5C 126.403,247.908 127.903,252.408 129.5,257C 129.167,257.5 128.833,258 128.5,258.5C 94.5042,240.557 58.5042,228.724 20.5,223C 33.3518,215.409 45.6851,207.076 57.5,198C 46.8385,197.5 36.1719,197.333 25.5,197.5C 27.6588,191.849 30.3255,186.516 33.5,181.5C 33.4614,182.756 33.9614,183.756 35,184.5C 36.7533,181.995 38.2533,179.329 39.5,176.5C 40.1667,176.167 40.8333,175.833 41.5,175.5C 50.9097,179.304 60.2431,183.304 69.5,187.5C 70.3316,179.521 70.8316,171.521 71,163.5C 76.1181,165.976 81.2848,168.31 86.5,170.5 Z"/></g>
<g><path style="opacity:1" fill="#7825ad" d="M 468.5,190.5 C 470.403,190.796 472.07,191.463 473.5,192.5C 469.474,196.195 465.474,199.862 461.5,203.5C 457.543,206.122 453.876,209.122 450.5,212.5C 449.22,211.069 447.553,210.402 445.5,210.5C 449.167,207.167 452.833,203.833 456.5,200.5C 460.208,196.79 464.208,193.457 468.5,190.5 Z"/></g>
<g><path style="opacity:1" fill="#7329a1" d="M 331.5,199.5 C 356.983,206.216 382.317,213.549 407.5,221.5C 411.082,222.79 414.749,223.79 418.5,224.5C 420.046,228.763 420.379,233.097 419.5,237.5C 404.454,232.263 389.454,227.263 374.5,222.5C 375.873,222.657 377.207,222.49 378.5,222C 364.284,215.392 349.951,209.059 335.5,203C 333.456,202.502 332.122,201.335 331.5,199.5 Z"/></g>
<g><path style="opacity:1" fill="#9027cb" d="M 434.5,206.5 C 436.479,209.146 438.812,211.479 441.5,213.5C 442.852,212.476 444.185,211.476 445.5,210.5C 447.553,210.402 449.22,211.069 450.5,212.5C 446.169,216.663 441.669,220.663 437,224.5C 431.184,218.859 426.35,212.526 422.5,205.5C 422.281,204.325 422.614,203.325 423.5,202.5C 426.889,204.699 430.556,206.032 434.5,206.5 Z"/></g>
<g><path style="opacity:1" fill="#170714" d="M 614.5,237.5 C 614.5,239.833 614.5,242.167 614.5,244.5C 614.833,258.516 614.499,272.516 613.5,286.5C 606.925,283.629 600.425,280.629 594,277.5C 589.234,279.354 584.401,281.02 579.5,282.5C 571.084,279.028 562.75,275.361 554.5,271.5C 552.244,275.6 550.577,279.934 549.5,284.5C 548.732,285.263 548.232,286.263 548,287.5C 547.648,285.753 547.148,284.086 546.5,282.5C 545.81,278.51 545.643,274.51 546,270.5C 549.758,262.647 553.258,254.647 556.5,246.5C 549.272,242.054 541.605,238.387 533.5,235.5C 532.251,224.354 531.584,213.02 531.5,201.5C 559.273,213.219 586.939,225.219 614.5,237.5 Z"/></g>
<g><path style="opacity:1" fill="#361731" d="M 311.5,213.5 C 342.993,220.579 373.993,229.412 404.5,240C 409.123,244.738 412.623,250.238 415,256.5C 419.749,269.245 423.582,282.245 426.5,295.5C 421.128,296.51 415.794,297.843 410.5,299.5C 405.382,297.627 400.382,295.46 395.5,293C 396.833,292 398.167,291 399.5,290C 397.278,289.305 395.111,288.472 393,287.5C 385.208,290.154 377.708,293.487 370.5,297.5C 367.459,295.441 364.459,293.441 361.5,291.5C 371.987,285.686 381.654,278.686 390.5,270.5C 350.272,252.218 309.939,234.218 269.5,216.5C 270.945,213.882 272.611,211.382 274.5,209C 276,208.833 277.5,208.667 279,208.5C 289.924,209.682 300.757,211.349 311.5,213.5 Z"/></g>
<g><path style="opacity:1" fill="#3b1937" d="M 260.5,232.5 C 254.963,244.711 248.963,256.711 242.5,268.5C 242.833,268.833 243.167,269.167 243.5,269.5C 252.404,264.709 261.404,260.542 270.5,257C 265.112,264.944 260.112,273.111 255.5,281.5C 253.745,284.68 251.745,287.68 249.5,290.5C 249.167,289.833 248.833,289.167 248.5,288.5C 250.733,283.972 252.233,279.305 253,274.5C 251.612,273.446 250.112,273.28 248.5,274C 245.5,275.833 242.5,277.667 239.5,279.5C 238.52,278.019 237.353,276.685 236,275.5C 235.333,273.833 235.333,272.167 236,270.5C 239.93,260.878 243.763,251.211 247.5,241.5C 248.791,240.458 248.791,239.292 247.5,238C 234.929,232.213 222.262,226.713 209.5,221.5C 209.199,216.952 211.199,213.785 215.5,212C 222.342,208.718 229.342,206.218 236.5,204.5C 244.138,203.687 251.804,203.354 259.5,203.5C 259.453,206.568 258.953,209.568 258,212.5C 254.695,221.073 252.029,229.74 250,238.5C 253.311,236.097 256.811,234.097 260.5,232.5 Z"/></g>
<g><path style="opacity:1" fill="#220c1e" d="M 410.5,180.5 C 411.167,180.833 411.833,181.167 412.5,181.5C 412.5,182.167 412.833,182.5 413.5,182.5C 415.15,190.783 418.15,198.45 422.5,205.5C 426.35,212.526 431.184,218.859 437,224.5C 441.669,220.663 446.169,216.663 450.5,212.5C 453.876,209.122 457.543,206.122 461.5,203.5C 463.284,203.893 464.95,204.559 466.5,205.5C 453.989,214.674 443.989,226.007 436.5,239.5C 427.624,251.55 424.624,264.884 427.5,279.5C 428.417,285.158 428.917,290.825 429,296.5C 428.617,295.944 428.117,295.611 427.5,295.5C 427.167,295.5 426.833,295.5 426.5,295.5C 423.582,282.245 419.749,269.245 415,256.5C 412.623,250.238 409.123,244.738 404.5,240C 373.993,229.412 342.993,220.579 311.5,213.5C 303.288,209.227 294.955,205.227 286.5,201.5C 299.911,203.782 313.244,206.449 326.5,209.5C 342.31,214.121 358.31,218.455 374.5,222.5C 389.454,227.263 404.454,232.263 419.5,237.5C 420.379,233.097 420.046,228.763 418.5,224.5C 418.599,221.763 418.265,219.096 417.5,216.5C 417.483,214.435 417.15,212.435 416.5,210.5C 416.118,205.908 415.118,201.575 413.5,197.5C 413.47,193.382 412.803,189.382 411.5,185.5C 411.371,183.784 411.038,182.117 410.5,180.5 Z"/></g>
<g><path style="opacity:1" fill="#3b1936" d="M 269.5,216.5 C 309.939,234.218 350.272,252.218 390.5,270.5C 381.654,278.686 371.987,285.686 361.5,291.5C 361.167,291.5 360.833,291.5 360.5,291.5C 327.505,271.508 294.505,251.508 261.5,231.5C 263.912,226.341 266.579,221.341 269.5,216.5 Z"/></g>
<g><path style="opacity:1" fill="#411c3e" d="M 209.5,221.5 C 222.262,226.713 234.929,232.213 247.5,238C 248.791,239.292 248.791,240.458 247.5,241.5C 247.103,240.475 246.437,240.308 245.5,241C 232.002,249.916 218.336,258.583 204.5,267C 203.393,272.803 202.226,278.637 201,284.5C 198.055,280.933 194.889,277.6 191.5,274.5C 189.33,278.188 187.663,282.188 186.5,286.5C 182.065,297.709 177.898,309.042 174,320.5C 173.505,318.527 173.338,316.527 173.5,314.5C 175.94,299.776 178.94,285.109 182.5,270.5C 184.262,269.738 185.262,268.404 185.5,266.5C 187.099,268.604 188.932,270.604 191,272.5C 193.529,266.579 195.863,260.579 198,254.5C 200.308,257.923 202.142,261.589 203.5,265.5C 205.739,253.923 207.406,242.256 208.5,230.5C 208.963,227.518 209.296,224.518 209.5,221.5 Z"/></g>
<g><path style="opacity:1" fill="#4d234c" d="M 25.5,197.5 C 36.1719,197.333 46.8385,197.5 57.5,198C 45.6851,207.076 33.3518,215.409 20.5,223C 58.5042,228.724 94.5042,240.557 128.5,258.5C 128.833,258 129.167,257.5 129.5,257C 127.903,252.408 126.403,247.908 125,243.5C 144.454,252.147 163.62,261.147 182.5,270.5C 178.94,285.109 175.94,299.776 173.5,314.5C 135.417,297.104 97.4165,280.437 59.5,264.5C 54.3978,261.245 49.3978,257.745 44.5,254C 43.3044,253.346 43.3044,252.846 44.5,252.5C 63.5986,261.559 82.9319,269.725 102.5,277C 73.6595,261.079 44.6595,245.412 15.5,230C 13.6354,228.699 11.6354,228.365 9.5,229C 5.99339,230.359 3.32672,232.526 1.5,235.5C 0.833333,235.167 0.166667,234.833 -0.5,234.5C -0.5,234.167 -0.5,233.833 -0.5,233.5C 9.32854,222.338 17.9952,210.338 25.5,197.5 Z"/></g>
<g><path style="opacity:1" fill="#391837" d="M 208.5,230.5 C 207.406,242.256 205.739,253.923 203.5,265.5C 202.142,261.589 200.308,257.923 198,254.5C 195.863,260.579 193.529,266.579 191,272.5C 188.932,270.604 187.099,268.604 185.5,266.5C 167.549,245.535 146.549,228.368 122.5,215C 102.88,204.178 81.8802,198.178 59.5,197C 68.1667,190.333 76.8333,183.667 85.5,177C 87.6838,175.102 88.0171,172.936 86.5,170.5C 83.9642,162.893 81.6309,155.226 79.5,147.5C 78.5,147.5 77.5,147.5 76.5,147.5C 89.2947,145.839 102.295,145.173 115.5,145.5C 115.046,148.14 113.879,150.473 112,152.5C 104.619,160.383 96.7855,167.717 88.5,174.5C 120.708,178.938 148.374,192.438 171.5,215C 183.829,220.273 196.162,225.44 208.5,230.5 Z"/></g>
<g><path style="opacity:1" fill="#2b1025" d="M 472.5,208.5 C 472.5,221.167 472.5,233.833 472.5,246.5C 472.5,249.167 472.5,251.833 472.5,254.5C 460.5,249.5 448.5,244.5 436.5,239.5C 443.989,226.007 453.989,214.674 466.5,205.5C 468.392,204.298 470.226,202.965 472,201.5C 472.497,203.81 472.663,206.143 472.5,208.5 Z"/></g>
<g><path style="opacity:1" fill="#431d42" d="M 59.5,264.5 C 65.6515,269.741 71.9849,274.741 78.5,279.5C 78.44,280.043 78.1067,280.376 77.5,280.5C 62.5658,273.53 47.5658,266.863 32.5,260.5C 21.8529,252.516 11.5195,244.182 1.5,235.5C 3.32672,232.526 5.99339,230.359 9.5,229C 11.6354,228.365 13.6354,228.699 15.5,230C 44.6595,245.412 73.6595,261.079 102.5,277C 82.9319,269.725 63.5986,261.559 44.5,252.5C 43.3044,252.846 43.3044,253.346 44.5,254C 49.3978,257.745 54.3978,261.245 59.5,264.5 Z"/></g>
<g><path style="opacity:1" fill="#33152d" d="M 436.5,239.5 C 448.5,244.5 460.5,249.5 472.5,254.5C 472.5,270.5 472.5,286.5 472.5,302.5C 457.495,294.913 442.662,286.913 428,278.5C 427.601,278.728 427.435,279.062 427.5,279.5C 424.624,264.884 427.624,251.55 436.5,239.5 Z"/></g>
<g><path style="opacity:1" fill="#1b0817" d="M 472.5,208.5 C 489.6,215.703 506.6,223.203 523.5,231C 524.337,232.011 524.67,233.178 524.5,234.5C 523.259,244.825 522.426,255.158 522,265.5C 526.106,267.593 530.273,269.593 534.5,271.5C 534.833,270.833 535.167,270.167 535.5,269.5C 534.592,258.189 533.925,246.855 533.5,235.5C 541.605,238.387 549.272,242.054 556.5,246.5C 553.258,254.647 549.758,262.647 546,270.5C 545.643,274.51 545.81,278.51 546.5,282.5C 543.218,281.461 540.052,280.128 537,278.5C 537.108,284.812 537.275,291.145 537.5,297.5C 535.638,301.39 533.638,305.223 531.5,309C 526.23,306.44 521.396,302.94 517,298.5C 517.679,290.199 518.513,281.866 519.5,273.5C 519.167,272.5 518.833,271.5 518.5,270.5C 503.875,263.903 489.208,257.403 474.5,251C 473.901,249.378 473.234,247.878 472.5,246.5C 472.5,233.833 472.5,221.167 472.5,208.5 Z"/></g>
<g><path style="opacity:1" fill="#49214a" d="M 32.5,260.5 C 47.5658,266.863 62.5658,273.53 77.5,280.5C 78.1067,280.376 78.44,280.043 78.5,279.5C 88.5,286.833 98.5,294.167 108.5,301.5C 115.015,306.259 121.348,311.259 127.5,316.5C 126.749,317.573 125.749,317.74 124.5,317C 110.167,310.5 95.8333,304 81.5,297.5C 80.7025,297.957 80.3691,298.624 80.5,299.5C 64.4606,286.489 48.4606,273.489 32.5,260.5 Z"/></g>
<g><path style="opacity:1" fill="#1f0a1b" d="M 614.5,244.5 C 615.497,264.993 615.831,285.66 615.5,306.5C 605.19,307.83 595.523,305.997 586.5,301C 585.833,300.667 585.167,300.333 584.5,300C 588.899,299.183 593.232,298.183 597.5,297C 589.059,293.03 580.559,289.196 572,285.5C 568.129,286.735 564.296,288.068 560.5,289.5C 556.931,287.547 553.264,285.881 549.5,284.5C 550.577,279.934 552.244,275.6 554.5,271.5C 562.75,275.361 571.084,279.028 579.5,282.5C 584.401,281.02 589.234,279.354 594,277.5C 600.425,280.629 606.925,283.629 613.5,286.5C 614.499,272.516 614.833,258.516 614.5,244.5 Z"/></g>
<g><path style="opacity:1" fill="#462043" d="M 261.5,231.5 C 294.505,251.508 327.505,271.508 360.5,291.5C 347.319,298.787 333.652,305.121 319.5,310.5C 316.972,308.22 313.972,306.386 310.5,305C 292.335,296.671 274.002,288.837 255.5,281.5C 260.112,273.111 265.112,264.944 270.5,257C 261.404,260.542 252.404,264.709 243.5,269.5C 243.167,269.167 242.833,268.833 242.5,268.5C 248.963,256.711 254.963,244.711 260.5,232.5C 260.5,231.833 260.833,231.5 261.5,231.5 Z"/></g>
<g><path style="opacity:1" fill="#210b1d" d="M 546.5,282.5 C 547.148,284.086 547.648,285.753 548,287.5C 548.232,286.263 548.732,285.263 549.5,284.5C 553.264,285.881 556.931,287.547 560.5,289.5C 564.296,288.068 568.129,286.735 572,285.5C 580.559,289.196 589.059,293.03 597.5,297C 593.232,298.183 588.899,299.183 584.5,300C 585.167,300.333 585.833,300.667 586.5,301C 595.523,305.997 605.19,307.83 615.5,306.5C 615.5,310.167 615.5,313.833 615.5,317.5C 615.5,324.167 615.5,330.833 615.5,337.5C 599.644,330.073 583.644,322.907 567.5,316C 576.215,315.805 584.881,315.305 593.5,314.5C 596.647,315.975 599.647,315.808 602.5,314C 597.833,312 593.167,310 588.5,308C 575.502,308.095 562.502,308.095 549.5,308C 548.167,307.333 546.833,306.667 545.5,306C 554.057,303.907 562.723,302.24 571.5,301C 565.543,297.773 559.377,294.939 553,292.5C 547.846,294.274 542.68,295.94 537.5,297.5C 537.275,291.145 537.108,284.812 537,278.5C 540.052,280.128 543.218,281.461 546.5,282.5 Z"/></g>
<g><path style="opacity:1" fill="#4a2249" d="M 247.5,241.5 C 243.763,251.211 239.93,260.878 236,270.5C 235.333,272.167 235.333,273.833 236,275.5C 237.353,276.685 238.52,278.019 239.5,279.5C 242.5,277.667 245.5,275.833 248.5,274C 250.112,273.28 251.612,273.446 253,274.5C 252.233,279.305 250.733,283.972 248.5,288.5C 248.833,289.167 249.167,289.833 249.5,290.5C 251.745,287.68 253.745,284.68 255.5,281.5C 274.002,288.837 292.335,296.671 310.5,305C 313.972,306.386 316.972,308.22 319.5,310.5C 316.692,311.103 314.026,312.103 311.5,313.5C 319.489,317.496 327.823,320.496 336.5,322.5C 329.731,327.886 322.064,331.053 313.5,332C 305.5,328.333 297.5,324.667 289.5,321C 296.019,317.939 302.685,315.272 309.5,313C 290.584,306.537 271.918,299.537 253.5,292C 250.469,290.925 248.469,291.925 247.5,295C 266.992,308.913 286.659,322.58 306.5,336C 301.874,338.146 297.208,339.98 292.5,341.5C 289.201,342.376 285.868,342.543 282.5,342C 272.715,337.941 263.048,333.608 253.5,329C 256.525,328.867 259.192,327.867 261.5,326C 253.415,322.305 245.249,318.805 237,315.5C 235.286,316.076 234.119,317.243 233.5,319C 232.552,319.483 231.552,319.649 230.5,319.5C 231.449,317.263 232.116,314.929 232.5,312.5C 229.538,311.939 226.705,310.939 224,309.5C 221.974,310.52 220.641,312.187 220,314.5C 219.843,312.005 219.676,309.672 219.5,307.5C 213.348,304.923 207.348,302.09 201.5,299C 210.65,294.26 219.983,289.76 229.5,285.5C 231.824,282.063 233.324,278.396 234,274.5C 223.402,278.866 212.568,282.533 201.5,285.5C 201.628,287.655 201.128,289.655 200,291.5C 195.706,288.466 191.206,286.799 186.5,286.5C 187.663,282.188 189.33,278.188 191.5,274.5C 194.889,277.6 198.055,280.933 201,284.5C 202.226,278.637 203.393,272.803 204.5,267C 218.336,258.583 232.002,249.916 245.5,241C 246.437,240.308 247.103,240.475 247.5,241.5 Z"/></g>
<g><path style="opacity:1" fill="#532652" d="M 173.5,314.5 C 173.338,316.527 173.505,318.527 174,320.5C 177.898,309.042 182.065,297.709 186.5,286.5C 191.206,286.799 195.706,288.466 200,291.5C 201.128,289.655 201.628,287.655 201.5,285.5C 212.568,282.533 223.402,278.866 234,274.5C 233.324,278.396 231.824,282.063 229.5,285.5C 219.983,289.76 210.65,294.26 201.5,299C 207.348,302.09 213.348,304.923 219.5,307.5C 219.676,309.672 219.843,312.005 220,314.5C 220.641,312.187 221.974,310.52 224,309.5C 226.705,310.939 229.538,311.939 232.5,312.5C 232.116,314.929 231.449,317.263 230.5,319.5C 231.552,319.649 232.552,319.483 233.5,319C 234.119,317.243 235.286,316.076 237,315.5C 245.249,318.805 253.415,322.305 261.5,326C 259.192,327.867 256.525,328.867 253.5,329C 263.048,333.608 272.715,337.941 282.5,342C 285.868,342.543 289.201,342.376 292.5,341.5C 296.732,341.778 300.732,342.944 304.5,345C 326.924,355.216 349.257,365.383 371.5,375.5C 367.196,377.494 362.863,379.494 358.5,381.5C 353.833,383.833 349.167,386.167 344.5,388.5C 315.94,374.311 286.774,360.978 257,348.5C 243.834,350.774 230.667,350.941 217.5,349C 215.998,348.417 214.665,347.584 213.5,346.5C 215.808,342.223 217.808,337.89 219.5,333.5C 217.323,333.414 215.323,332.747 213.5,331.5C 211.768,333.283 210.268,335.283 209,337.5C 209.59,334.717 210.423,331.883 211.5,329C 211.167,328.5 210.833,328 210.5,327.5C 206.135,325.901 201.969,323.901 198,321.5C 196.529,327.053 195.196,332.72 194,338.5C 165.789,325.979 137.623,313.312 109.5,300.5C 108.893,300.624 108.56,300.957 108.5,301.5C 98.5,294.167 88.5,286.833 78.5,279.5C 71.9849,274.741 65.6515,269.741 59.5,264.5C 97.4165,280.437 135.417,297.104 173.5,314.5 Z"/></g>
<g><path style="opacity:1" fill="#260e22" d="M 472.5,246.5 C 473.234,247.878 473.901,249.378 474.5,251C 489.208,257.403 503.875,263.903 518.5,270.5C 518.833,271.5 519.167,272.5 519.5,273.5C 518.513,281.866 517.679,290.199 517,298.5C 521.396,302.94 526.23,306.44 531.5,309C 533.638,305.223 535.638,301.39 537.5,297.5C 542.68,295.94 547.846,294.274 553,292.5C 559.377,294.939 565.543,297.773 571.5,301C 562.723,302.24 554.057,303.907 545.5,306C 546.833,306.667 548.167,307.333 549.5,308C 562.502,308.095 575.502,308.095 588.5,308C 593.167,310 597.833,312 602.5,314C 599.647,315.808 596.647,315.975 593.5,314.5C 584.881,315.305 576.215,315.805 567.5,316C 583.644,322.907 599.644,330.073 615.5,337.5C 615.832,349.186 615.499,360.852 614.5,372.5C 598.66,365.11 582.66,358.11 566.5,351.5C 556.917,355.959 547.584,360.959 538.5,366.5C 537.167,365.833 535.833,365.167 534.5,364.5C 533.167,363.833 533.167,363.167 534.5,362.5C 546.368,358.11 557.701,352.776 568.5,346.5C 553.436,338.969 538.102,331.969 522.5,325.5C 518.671,332.491 514.837,339.491 511,346.5C 511.901,332.475 513.401,318.475 515.5,304.5C 515.167,303.5 514.833,302.5 514.5,301.5C 511.038,306.261 507.705,311.094 504.5,316C 501.267,315.893 498.267,314.893 495.5,313C 500.48,307.493 504.813,301.659 508.5,295.5C 505.719,294.177 503.053,294.344 500.5,296C 495.425,300.287 490.258,304.453 485,308.5C 484.167,296.843 483.5,285.176 483,273.5C 481.573,283.153 480.24,292.82 479,302.5C 478.751,303.624 478.251,304.624 477.5,305.5C 476.378,304.37 475.044,303.703 473.5,303.5C 472.833,303.5 472.5,303.167 472.5,302.5C 472.5,286.5 472.5,270.5 472.5,254.5C 472.5,251.833 472.5,249.167 472.5,246.5 Z"/></g>
<g><path style="opacity:1" fill="#4f2350" d="M 127.5,316.5 C 139.167,325.167 150.833,333.833 162.5,342.5C 164.173,343.343 165.34,344.676 166,346.5C 167.813,351.091 169.313,355.758 170.5,360.5C 162.044,356.571 153.377,353.238 144.5,350.5C 123.167,333.5 101.833,316.5 80.5,299.5C 80.3691,298.624 80.7025,297.957 81.5,297.5C 95.8333,304 110.167,310.5 124.5,317C 125.749,317.74 126.749,317.573 127.5,316.5 Z"/></g>
<g><path style="opacity:1" fill="#431e40" d="M 426.5,295.5 C 426.833,295.5 427.167,295.5 427.5,295.5C 432.167,318.169 436.834,340.836 441.5,363.5C 414.977,351.407 388.31,339.573 361.5,328C 362.056,327.617 362.389,327.117 362.5,326.5C 370.122,324.845 377.789,323.345 385.5,322C 379.058,319.029 372.558,316.196 366,313.5C 356.239,316.817 346.405,319.817 336.5,322.5C 327.823,320.496 319.489,317.496 311.5,313.5C 314.026,312.103 316.692,311.103 319.5,310.5C 333.652,305.121 347.319,298.787 360.5,291.5C 360.833,291.5 361.167,291.5 361.5,291.5C 364.459,293.441 367.459,295.441 370.5,297.5C 377.708,293.487 385.208,290.154 393,287.5C 395.111,288.472 397.278,289.305 399.5,290C 398.167,291 396.833,292 395.5,293C 400.382,295.46 405.382,297.627 410.5,299.5C 415.794,297.843 421.128,296.51 426.5,295.5 Z"/></g>
<g><path style="opacity:1" fill="#4f254f" d="M 336.5,322.5 C 346.405,319.817 356.239,316.817 366,313.5C 372.558,316.196 379.058,319.029 385.5,322C 377.789,323.345 370.122,324.845 362.5,326.5C 350.696,328.194 339.029,330.528 327.5,333.5C 349.986,343.654 372.319,353.988 394.5,364.5C 386.707,367.896 379.041,371.563 371.5,375.5C 349.257,365.383 326.924,355.216 304.5,345C 300.732,342.944 296.732,341.778 292.5,341.5C 297.208,339.98 301.874,338.146 306.5,336C 286.659,322.58 266.992,308.913 247.5,295C 248.469,291.925 250.469,290.925 253.5,292C 271.918,299.537 290.584,306.537 309.5,313C 302.685,315.272 296.019,317.939 289.5,321C 297.5,324.667 305.5,328.333 313.5,332C 322.064,331.053 329.731,327.886 336.5,322.5 Z"/></g>
<g><path style="opacity:1" fill="#5a2a5a" d="M 344.5,388.5 C 322.647,387.72 300.981,386.386 279.5,384.5C 280.873,384.657 282.207,384.49 283.5,384C 253.833,370.833 224.167,357.667 194.5,344.5C 193.901,347.923 192.568,350.923 190.5,353.5C 181.382,349.775 172.382,345.775 163.5,341.5C 162.893,341.624 162.56,341.957 162.5,342.5C 150.833,333.833 139.167,325.167 127.5,316.5C 121.348,311.259 115.015,306.259 108.5,301.5C 108.56,300.957 108.893,300.624 109.5,300.5C 137.623,313.312 165.789,325.979 194,338.5C 195.196,332.72 196.529,327.053 198,321.5C 201.969,323.901 206.135,325.901 210.5,327.5C 210.833,328 211.167,328.5 211.5,329C 210.423,331.883 209.59,334.717 209,337.5C 210.268,335.283 211.768,333.283 213.5,331.5C 215.323,332.747 217.323,333.414 219.5,333.5C 217.808,337.89 215.808,342.223 213.5,346.5C 214.665,347.584 215.998,348.417 217.5,349C 230.667,350.941 243.834,350.774 257,348.5C 286.774,360.978 315.94,374.311 344.5,388.5 Z"/></g>
<g><path style="opacity:1" fill="#4a2248" d="M 362.5,326.5 C 362.389,327.117 362.056,327.617 361.5,328C 388.31,339.573 414.977,351.407 441.5,363.5C 442.438,365.91 442.438,368.244 441.5,370.5C 432.637,373.955 423.637,377.121 414.5,380C 404.5,380.667 394.5,380.667 384.5,380C 384.167,379.667 383.833,379.333 383.5,379C 388.833,373.667 394.167,368.333 399.5,363C 397.718,362.878 396.052,363.378 394.5,364.5C 372.319,353.988 349.986,343.654 327.5,333.5C 339.029,330.528 350.696,328.194 362.5,326.5 Z"/></g>
<g><path style="opacity:1" fill="#411d3f" d="M 473.5,334.5 C 473.783,335.289 474.283,335.956 475,336.5C 476.318,326.465 477.818,316.465 479.5,306.5C 481.419,307.612 483.086,308.946 484.5,310.5C 484.432,329.181 484.932,347.848 486,366.5C 488.666,362.167 490.499,357.5 491.5,352.5C 493.429,352.231 495.095,352.731 496.5,354C 493.3,363.119 489.633,371.952 485.5,380.5C 485.777,377.552 485.444,374.719 484.5,372C 471.096,366.257 457.763,360.424 444.5,354.5C 438.909,336.47 434.742,318.137 432,299.5C 445.706,311.377 459.539,323.044 473.5,334.5 Z"/></g>
<g><path style="opacity:1" fill="#5f2d61" d="M 162.5,342.5 C 162.56,341.957 162.893,341.624 163.5,341.5C 172.382,345.775 181.382,349.775 190.5,353.5C 192.568,350.923 193.901,347.923 194.5,344.5C 224.167,357.667 253.833,370.833 283.5,384C 282.207,384.49 280.873,384.657 279.5,384.5C 264.831,383.878 250.165,383.211 235.5,382.5C 223.902,381.181 212.235,380.014 200.5,379C 197.167,375.667 193.833,372.333 190.5,369C 184.877,367.971 179.21,367.471 173.5,367.5C 173.293,364.759 172.293,362.426 170.5,360.5C 169.313,355.758 167.813,351.091 166,346.5C 165.34,344.676 164.173,343.343 162.5,342.5 Z"/></g>
<g><path style="opacity:1" fill="#572958" d="M 144.5,350.5 C 153.377,353.238 162.044,356.571 170.5,360.5C 172.293,362.426 173.293,364.759 173.5,367.5C 179.21,367.471 184.877,367.971 190.5,369C 193.833,372.333 197.167,375.667 200.5,379C 212.235,380.014 223.902,381.181 235.5,382.5C 245.53,387.685 255.863,392.018 266.5,395.5C 239.557,394.103 212.89,390.603 186.5,385C 172.311,373.636 158.311,362.136 144.5,350.5 Z"/></g>
<g><path style="opacity:1" fill="#482045" d="M 444.5,354.5 C 457.763,360.424 471.096,366.257 484.5,372C 485.444,374.719 485.777,377.552 485.5,380.5C 485.768,382.099 485.434,383.432 484.5,384.5C 475.114,387.629 465.781,390.962 456.5,394.5C 451.578,381.486 447.578,368.153 444.5,354.5 Z"/></g>
<g><path style="opacity:1" fill="#2f122b" d="M 615.5,337.5 C 615.5,330.833 615.5,324.167 615.5,317.5C 615.833,317.5 616.167,317.5 616.5,317.5C 616.5,341.833 616.5,366.167 616.5,390.5C 614.117,392.358 611.45,393.692 608.5,394.5C 605.491,393.653 602.491,393.986 599.5,395.5C 585.21,388.439 570.71,381.773 556,375.5C 549.355,381.144 543.022,387.144 537,393.5C 534.953,392.391 532.787,391.724 530.5,391.5C 530.281,390.325 530.614,389.325 531.5,388.5C 535.309,385.858 538.976,383.025 542.5,380C 537.618,377.54 532.618,375.373 527.5,373.5C 522.054,376.307 516.554,378.973 511,381.5C 507.609,380.649 504.443,379.316 501.5,377.5C 511.127,373.021 520.794,368.521 530.5,364C 519.917,359.206 509.25,354.706 498.5,350.5C 501.861,340.924 505.527,331.424 509.5,322C 507.545,319.929 505.212,319.262 502.5,320C 498.878,324.745 495.378,329.578 492,334.5C 490.247,333.373 488.413,332.373 486.5,331.5C 485.348,328.894 485.182,326.227 486,323.5C 488.536,320.919 490.702,318.086 492.5,315C 490.288,312.727 487.622,311.227 484.5,310.5C 483.086,308.946 481.419,307.612 479.5,306.5C 477.818,316.465 476.318,326.465 475,336.5C 474.283,335.956 473.783,335.289 473.5,334.5C 473.5,324.167 473.5,313.833 473.5,303.5C 475.044,303.703 476.378,304.37 477.5,305.5C 478.251,304.624 478.751,303.624 479,302.5C 480.24,292.82 481.573,283.153 483,273.5C 483.5,285.176 484.167,296.843 485,308.5C 490.258,304.453 495.425,300.287 500.5,296C 503.053,294.344 505.719,294.177 508.5,295.5C 504.813,301.659 500.48,307.493 495.5,313C 498.267,314.893 501.267,315.893 504.5,316C 507.705,311.094 511.038,306.261 514.5,301.5C 514.833,302.5 515.167,303.5 515.5,304.5C 513.401,318.475 511.901,332.475 511,346.5C 514.837,339.491 518.671,332.491 522.5,325.5C 538.102,331.969 553.436,338.969 568.5,346.5C 557.701,352.776 546.368,358.11 534.5,362.5C 533.167,363.167 533.167,363.833 534.5,364.5C 535.833,365.167 537.167,365.833 538.5,366.5C 547.584,360.959 556.917,355.959 566.5,351.5C 582.66,358.11 598.66,365.11 614.5,372.5C 615.499,360.852 615.832,349.186 615.5,337.5 Z"/></g>
<g><path style="opacity:1" fill="#421c41" d="M 441.5,370.5 C 439.303,374.389 436.97,378.222 434.5,382C 426.864,381.522 419.197,381.522 411.5,382C 416.207,384.735 421.207,386.568 426.5,387.5C 409.446,390.729 392.113,392.729 374.5,393.5C 368.271,393.484 368.271,392.318 374.5,390C 368.59,387.883 363.256,385.05 358.5,381.5C 362.863,379.494 367.196,377.494 371.5,375.5C 379.041,371.563 386.707,367.896 394.5,364.5C 396.052,363.378 397.718,362.878 399.5,363C 394.167,368.333 388.833,373.667 383.5,379C 383.833,379.333 384.167,379.667 384.5,380C 394.5,380.667 404.5,380.667 414.5,380C 423.637,377.121 432.637,373.955 441.5,370.5 Z"/></g>
<g><path style="opacity:1" fill="#3a1938" d="M 472.5,302.5 C 472.5,303.167 472.833,303.5 473.5,303.5C 473.5,313.833 473.5,324.167 473.5,334.5C 459.539,323.044 445.706,311.377 432,299.5C 434.742,318.137 438.909,336.47 444.5,354.5C 447.578,368.153 451.578,381.486 456.5,394.5C 465.781,390.962 475.114,387.629 484.5,384.5C 484.33,385.822 484.663,386.989 485.5,388C 488.633,388.86 491.3,390.36 493.5,392.5C 481.42,395.854 469.42,399.521 457.5,403.5C 450.075,397.238 442.242,391.571 434,386.5C 431.566,387.322 429.066,387.656 426.5,387.5C 421.207,386.568 416.207,384.735 411.5,382C 419.197,381.522 426.864,381.522 434.5,382C 436.97,378.222 439.303,374.389 441.5,370.5C 442.438,368.244 442.438,365.91 441.5,363.5C 436.834,340.836 432.167,318.169 427.5,295.5C 428.117,295.611 428.617,295.944 429,296.5C 428.917,290.825 428.417,285.158 427.5,279.5C 427.435,279.062 427.601,278.728 428,278.5C 442.662,286.913 457.495,294.913 472.5,302.5 Z"/></g>
<g><path style="opacity:1" fill="#331531" d="M 484.5,310.5 C 487.622,311.227 490.288,312.727 492.5,315C 490.702,318.086 488.536,320.919 486,323.5C 485.182,326.227 485.348,328.894 486.5,331.5C 488.413,332.373 490.247,333.373 492,334.5C 495.378,329.578 498.878,324.745 502.5,320C 505.212,319.262 507.545,319.929 509.5,322C 505.527,331.424 501.861,340.924 498.5,350.5C 509.25,354.706 519.917,359.206 530.5,364C 520.794,368.521 511.127,373.021 501.5,377.5C 504.443,379.316 507.609,380.649 511,381.5C 516.554,378.973 522.054,376.307 527.5,373.5C 532.618,375.373 537.618,377.54 542.5,380C 538.976,383.025 535.309,385.858 531.5,388.5C 530.614,389.325 530.281,390.325 530.5,391.5C 532.787,391.724 534.953,392.391 537,393.5C 543.022,387.144 549.355,381.144 556,375.5C 570.71,381.773 585.21,388.439 599.5,395.5C 602.491,393.986 605.491,393.653 608.5,394.5C 587.833,405.5 567.167,416.5 546.5,427.5C 545.167,427.5 543.833,427.5 542.5,427.5C 525.991,416.079 509.657,404.412 493.5,392.5C 491.3,390.36 488.633,388.86 485.5,388C 484.663,386.989 484.33,385.822 484.5,384.5C 485.434,383.432 485.768,382.099 485.5,380.5C 489.633,371.952 493.3,363.119 496.5,354C 495.095,352.731 493.429,352.231 491.5,352.5C 490.499,357.5 488.666,362.167 486,366.5C 484.932,347.848 484.432,329.181 484.5,310.5 Z"/></g>
<g><path style="opacity:1" fill="#4d234e" d="M 358.5,381.5 C 363.256,385.05 368.59,387.883 374.5,390C 368.271,392.318 368.271,393.484 374.5,393.5C 364.024,394.808 353.357,395.641 342.5,396C 317.155,396.744 291.821,396.577 266.5,395.5C 255.863,392.018 245.53,387.685 235.5,382.5C 250.165,383.211 264.831,383.878 279.5,384.5C 300.981,386.386 322.647,387.72 344.5,388.5C 349.167,386.167 353.833,383.833 358.5,381.5 Z"/></g>
</svg>
