<svg xmlns="http://www.w3.org/2000/svg" xmlns:xlink="http://www.w3.org/1999/xlink" viewBox="0 0 1608.34 455.44"><defs><style>.cls-1{isolation:isolate;}.cls-2{mix-blend-mode:overlay;fill:url(#radial-gradient);}</style><radialGradient id="radial-gradient" cx="971.26" cy="516.43" r="309.52" gradientTransform="translate(-951.82 -141.33) scale(2 1.32)" gradientUnits="userSpaceOnUse"><stop offset="0.08" stop-color="#ff23c9"/><stop offset="1" stop-color="#e014bd"/></radialGradient></defs><g class="cls-1"><g id="Layer_1" data-name="Layer 1"><path class="cls-2" d="M1524.48,448.63c68-56.36,197.25-91.84,267.65-107.89l-.35-28.5s-311,67.91-386.5,197.7-100.63,164.49-244.71,196.19-263-37.73-352.19-137.34S373.85,430,250.35,506.92s-32,152.42-32,152.42S447,553.7,602.55,586.9,751.2,740.84,977.61,765q9.18,1,18.28,1.8c-30.18-9.08-47.73-21.92-48.59-32.16-2-24.4,45.19-9.49,45.19-9.49s160.22,29.82,254.7-19,154-132.83,182.81-100.3S1321.14,733.27,1183.52,765.8c-2.86.67-5.67,1.27-8.49,1.88,139.36-12.92,254.24-60.25,324-146.07,100.62-123.74,295-122.24,295-122.24l-.88-72C1650.45,446.71,1434.34,523.3,1524.48,448.63Zm-990,90.81c-123.24,4.07-332.75,56.93-209.51-40.66,0,0,258.81-52.86,390.27,40.66S657.69,535.37,534.44,539.44ZM796.72,668.17c-10.43,4.69-34.42-6.55-53.58-25.11S716.9,605.65,727.33,601s34.41,6.56,53.57,25.12S807.15,663.48,796.72,668.17ZM1621,509.62c-82.16,36.6-147.89,40.66-102.7,5.42s106.81-35.24,106.81-35.24S1703.18,473,1621,509.62Z" transform="translate(-185.73 -312.24)"/></g></g></svg>