<svg xmlns="http://www.w3.org/2000/svg" xmlns:xlink="http://www.w3.org/1999/xlink" viewBox="0 0 1380.58 594.39"><defs><style>.cls-1{isolation:isolate;}.cls-2{mix-blend-mode:overlay;fill:url(#radial-gradient);}</style><radialGradient id="radial-gradient" cx="956.53" cy="492.66" r="291.52" gradientTransform="translate(-951.82 -141.33) scale(2 1.32)" gradientUnits="userSpaceOnUse"><stop offset="0.08" stop-color="#ff23c9"/><stop offset="1" stop-color="#e014bd"/></radialGradient></defs><g class="cls-1"><g id="Layer_1" data-name="Layer 1"><path class="cls-2" d="M1411.55,211.41s0,80.64-127.39,90.93S1058,264.6,948.76,321.21s10.4,310.54-106.6,348.28-392.59-12-405.59-101.22-166.4,166.42-166.4,166.42S639.37,868.51,876,769s119.6-235,158.6-303.67S1175,362.39,1364.75,374.4s286-139,286-139ZM541,757.76c-217.93-51-36.91-74.22-36.91-74.22s112.48,34.79,203.86,33.63,205.63-59.14,217.93-29S758.88,808.79,541,757.76ZM1263.27,339.1c-52.72,26.68-175.67,16.39-225.8,52.26-6.49,4.65-11.36,10.14-15.79,15.71-17.9,22.5-26,47.81-39.19,71.53-5.58,10-18.85,36.53-38.75,20.51-6.65-5.35-11.3-12.74-14.46-21.11-8.24-21.86-6.31-50.45-3.18-67.17,5.57-29.72,23-61.74,61.25-79.84C1068.19,292.72,1316,312.43,1263.27,339.1Zm70.62,15.8c-30.43,0-55.1-4.8-55.1-10.72s24.67-10.72,55.1-10.72,55.1,4.8,55.1,10.72S1364.32,354.9,1333.89,354.9Z" transform="translate(-270.17 -211.41)"/></g></g></svg>