<svg xmlns="http://www.w3.org/2000/svg" xmlns:xlink="http://www.w3.org/1999/xlink" viewBox="0 0 729.68 478.76"><defs><style>.cls-1{isolation:isolate;}.cls-2{mix-blend-mode:overlay;fill:url(#radial-gradient);}</style><radialGradient id="radial-gradient" cx="981.09" cy="475.96" r="181.98" gradientTransform="translate(-951.82 -141.33) scale(2 1.32)" gradientUnits="userSpaceOnUse"><stop offset="0.08" stop-color="#ff23c9"/><stop offset="1" stop-color="#e014bd"/></radialGradient></defs><g class="cls-1"><g id="Layer_1" data-name="Layer 1"><path class="cls-2" d="M784,650.39c-166.95-3,418.86-370,418.86-370l-37.46-9.89c-101.62,68.41-329.52,216.84-355,189.79-25.21-26.81,180.65-152.9,277.83-210.15l-11.19-2.95S546.52,515.82,660.87,674.27,1363,576.18,1363,576.18l11.44-205.24S951,653.41,784,650.39Zm92.17-190.1c60.24-21.69-78.51,109.63-116.85,90.36S876.19,460.29,876.19,460.29ZM794.82,702.72c-3,7.27-22,10.2-42.42,6.53s-34.57-12.53-31.57-19.81,22-10.2,42.42-6.53S797.82,695.44,794.82,702.72Zm147.09-13.53c-206.3,30.12-182.57-25.3-31-44.57S1192,514.5,1192,514.5l38.34,68.67S1148.22,659.07,941.91,689.19Z" transform="translate(-644.72 -247.19)"/></g></g></svg>