<svg xmlns="http://www.w3.org/2000/svg" xmlns:xlink="http://www.w3.org/1999/xlink" viewBox="0 0 1920 1080"><defs><style>.cls-1{isolation:isolate;}.cls-2{opacity:0.39;}.cls-3{fill:#fff;}.cls-4,.cls-5,.cls-6,.cls-7,.cls-8{opacity:0.82;mix-blend-mode:screen;}.cls-4{fill:url(#Áåçûìÿííûé_ãðàäèåíò_747);}.cls-5{fill:url(#Áåçûìÿííûé_ãðàäèåíò_747-2);}.cls-6{fill:url(#Áåçûìÿííûé_ãðàäèåíò_747-3);}.cls-7{fill:url(#Áåçûìÿííûé_ãðàäèåíò_747-4);}.cls-8{fill:url(#Áåçûìÿííûé_ãðàäèåíò_747-5);}</style><radialGradient id="Áåçûìÿííûé_ãðàäèåíò_747" cx="672.04" cy="604.75" r="9.46" gradientTransform="translate(-927.65 -1354.72) scale(2.08 3.55)" gradientUnits="userSpaceOnUse"><stop offset="0" stop-color="#006dff"/><stop offset="0.05" stop-color="#005ad2"/><stop offset="0.1" stop-color="#0047a7"/><stop offset="0.16" stop-color="#00367f"/><stop offset="0.22" stop-color="#00275c"/><stop offset="0.29" stop-color="#001b3f"/><stop offset="0.36" stop-color="#001128"/><stop offset="0.45" stop-color="#000916"/><stop offset="0.55" stop-color="#000409"/><stop offset="0.69" stop-color="#000102"/><stop offset="1"/></radialGradient><radialGradient id="Áåçûìÿííûé_ãðàäèåíò_747-2" cx="970.08" cy="614.92" r="9.46" xlink:href="#Áåçûìÿííûé_ãðàäèåíò_747"/><radialGradient id="Áåçûìÿííûé_ãðàäèåíò_747-3" cx="1019.92" cy="633.89" r="9.46" xlink:href="#Áåçûìÿííûé_ãðàäèåíò_747"/><radialGradient id="Áåçûìÿííûé_ãðàäèåíò_747-4" cx="1097.74" cy="540.91" r="9.46" xlink:href="#Áåçûìÿííûé_ãðàäèåíò_747"/><radialGradient id="Áåçûìÿííûé_ãðàäèåíò_747-5" cx="1180.03" cy="622.51" r="9.46" xlink:href="#Áåçûìÿííûé_ãðàäèåíò_747"/></defs><g class="cls-1"><g id="Layer_1" data-name="Layer 1"><g class="cls-2"><path class="cls-3" d="M596.07,264.83c0,1.61-.76,2.91-1.71,2.91s-1.7-1.3-1.7-2.91.76-2.91,1.7-2.91S596.07,263.23,596.07,264.83Z" transform="translate(0 0)"/><path class="cls-3" d="M714.58,341.25c0,1.6-.77,2.91-1.71,2.91s-1.7-1.31-1.7-2.91.76-2.91,1.7-2.91S714.58,339.64,714.58,341.25Z" transform="translate(0 0)"/><path class="cls-3" d="M1117.28,248.13c0,1.6-.76,2.91-1.71,2.91s-1.7-1.31-1.7-2.91.76-2.91,1.7-2.91S1117.28,246.52,1117.28,248.13Z" transform="translate(0 0)"/><path class="cls-3" d="M992.61,355c0,.8-.39,1.45-.86,1.45s-.85-.65-.85-1.45.38-1.45.85-1.45S992.61,354.23,992.61,355Z" transform="translate(0 0)"/><path class="cls-3" d="M1030,262.48c0,.8-.39,1.46-.86,1.46s-.85-.66-.85-1.46.38-1.45.85-1.45S1030,261.68,1030,262.48Z" transform="translate(0 0)"/><path class="cls-3" d="M949.16,328.08c0,.81-.38,1.46-.85,1.46s-.85-.65-.85-1.46.38-1.45.85-1.45S949.16,327.28,949.16,328.08Z" transform="translate(0 0)"/><path class="cls-3" d="M906.67,256.32c0,.8-.38,1.45-.85,1.45s-.86-.65-.86-1.45.39-1.46.86-1.46S906.67,255.52,906.67,256.32Z" transform="translate(0 0)"/><path class="cls-3" d="M828.41,307.23c0,.81-.38,1.46-.85,1.46s-.86-.65-.86-1.46.39-1.45.86-1.45S828.41,306.43,828.41,307.23Z" transform="translate(0 0)"/><path class="cls-3" d="M744.8,361.06c0,.8-.38,1.45-.85,1.45s-.86-.65-.86-1.45.38-1.46.86-1.46S744.8,360.25,744.8,361.06Z" transform="translate(0 0)"/><path class="cls-3" d="M683,246.08c0,.8-.38,1.45-.86,1.45s-.85-.65-.85-1.45.38-1.46.85-1.46S683,245.27,683,246.08Z" transform="translate(0 0)"/><path class="cls-3" d="M579.07,344.16c0,.8-.39,1.45-.86,1.45s-.85-.65-.85-1.45.38-1.46.85-1.46S579.07,343.35,579.07,344.16Z" transform="translate(0 0)"/><path class="cls-3" d="M517.63,243.17c0,.8-.38,1.45-.85,1.45s-.85-.65-.85-1.45.38-1.46.85-1.46S517.63,242.36,517.63,243.17Z" transform="translate(0 0)"/><path class="cls-3" d="M547,310.69c0,.81-.38,1.46-.85,1.46s-.86-.65-.86-1.46.39-1.45.86-1.45S547,309.89,547,310.69Z" transform="translate(0 0)"/><path class="cls-3" d="M1176.46,357c0,.81-.38,1.46-.86,1.46s-.85-.65-.85-1.46.38-1.45.85-1.45S1176.46,356.15,1176.46,357Z" transform="translate(0 0)"/><ellipse class="cls-3" cx="1248.61" cy="262.48" rx="0.85" ry="1.45"/><path class="cls-3" d="M1099.47,299.42c0,1.61-.77,2.91-1.71,2.91s-1.71-1.3-1.71-2.91.77-2.9,1.71-2.9S1099.47,297.82,1099.47,299.42Z" transform="translate(0 0)"/><path class="cls-3" d="M1009,375c0,1.61-.76,2.91-1.71,2.91s-1.7-1.3-1.7-2.91.76-2.91,1.7-2.91S1009,373.4,1009,375Z" transform="translate(0 0)"/></g><g class="cls-2"><path class="cls-3" d="M306.2,401.42c0,1.61-.76,2.91-1.7,2.91s-1.71-1.3-1.71-2.91.77-2.91,1.71-2.91S306.2,399.81,306.2,401.42Z" transform="translate(0 0)"/><path class="cls-3" d="M424.71,477.83c0,1.61-.76,2.91-1.7,2.91s-1.71-1.3-1.71-2.91.76-2.9,1.71-2.9S424.71,476.23,424.71,477.83Z" transform="translate(0 0)"/><path class="cls-3" d="M827.41,384.72c0,1.6-.76,2.91-1.7,2.91s-1.71-1.31-1.71-2.91.77-2.91,1.71-2.91S827.41,383.11,827.41,384.72Z" transform="translate(0 0)"/><path class="cls-3" d="M702.74,491.62c0,.8-.38,1.45-.85,1.45s-.86-.65-.86-1.45.39-1.46.86-1.46S702.74,490.81,702.74,491.62Z" transform="translate(0 0)"/><path class="cls-3" d="M740.17,399.07c0,.8-.38,1.45-.85,1.45s-.86-.65-.86-1.45.39-1.46.86-1.46S740.17,398.27,740.17,399.07Z" transform="translate(0 0)"/><path class="cls-3" d="M659.3,464.67c0,.81-.39,1.46-.86,1.46s-.85-.65-.85-1.46.38-1.45.85-1.45S659.3,463.87,659.3,464.67Z" transform="translate(0 0)"/><path class="cls-3" d="M616.8,392.91c0,.8-.38,1.45-.85,1.45s-.85-.65-.85-1.45.38-1.46.85-1.46S616.8,392.1,616.8,392.91Z" transform="translate(0 0)"/><path class="cls-3" d="M538.55,443.82c0,.81-.39,1.46-.86,1.46s-.85-.65-.85-1.46.38-1.45.85-1.45S538.55,443,538.55,443.82Z" transform="translate(0 0)"/><path class="cls-3" d="M454.93,497.65c0,.8-.38,1.45-.85,1.45s-.85-.65-.85-1.45.38-1.46.85-1.46S454.93,496.84,454.93,497.65Z" transform="translate(0 0)"/><path class="cls-3" d="M393.14,382.66c0,.81-.38,1.46-.85,1.46s-.85-.65-.85-1.46.38-1.45.85-1.45S393.14,381.86,393.14,382.66Z" transform="translate(0 0)"/><path class="cls-3" d="M289.2,480.74c0,.81-.38,1.46-.85,1.46s-.85-.65-.85-1.46.38-1.45.85-1.45S289.2,479.94,289.2,480.74Z" transform="translate(0 0)"/><path class="cls-3" d="M227.77,379.75c0,.81-.38,1.46-.86,1.46s-.85-.65-.85-1.46.38-1.45.85-1.45S227.77,379,227.77,379.75Z" transform="translate(0 0)"/><path class="cls-3" d="M257.14,447.28c0,.81-.38,1.46-.85,1.46s-.85-.65-.85-1.46.38-1.45.85-1.45S257.14,446.48,257.14,447.28Z" transform="translate(0 0)"/><path class="cls-3" d="M886.59,493.54c0,.81-.38,1.46-.85,1.46s-.85-.65-.85-1.46.38-1.45.85-1.45S886.59,492.74,886.59,493.54Z" transform="translate(0 0)"/><path class="cls-3" d="M959.59,399.07c0,.8-.38,1.45-.85,1.45s-.85-.65-.85-1.45.38-1.46.85-1.46S959.59,398.27,959.59,399.07Z" transform="translate(0 0)"/><path class="cls-3" d="M809.6,436c0,1.61-.76,2.91-1.71,2.91s-1.7-1.3-1.7-2.91.76-2.91,1.7-2.91S809.6,434.41,809.6,436Z" transform="translate(0 0)"/><path class="cls-3" d="M719.16,511.59c0,1.61-.77,2.91-1.71,2.91s-1.71-1.3-1.71-2.91.77-2.91,1.71-2.91S719.16,510,719.16,511.59Z" transform="translate(0 0)"/></g><g class="cls-2"><path class="cls-3" d="M281.66,181.27c0,1.61-.76,2.91-1.7,2.91s-1.71-1.3-1.71-2.91.77-2.91,1.71-2.91S281.66,179.66,281.66,181.27Z" transform="translate(0 0)"/><path class="cls-3" d="M400.17,257.68c0,1.61-.76,2.91-1.71,2.91s-1.7-1.3-1.7-2.91.76-2.91,1.7-2.91S400.17,256.08,400.17,257.68Z" transform="translate(0 0)"/><path class="cls-3" d="M802.87,164.56c0,1.61-.76,2.91-1.7,2.91s-1.71-1.3-1.71-2.91.77-2.91,1.71-2.91S802.87,163,802.87,164.56Z" transform="translate(0 0)"/><path class="cls-3" d="M678.2,271.47c0,.8-.38,1.45-.85,1.45s-.86-.65-.86-1.45.39-1.46.86-1.46S678.2,270.66,678.2,271.47Z" transform="translate(0 0)"/><path class="cls-3" d="M715.63,178.92c0,.8-.38,1.45-.85,1.45s-.86-.65-.86-1.45.39-1.46.86-1.46S715.63,178.11,715.63,178.92Z" transform="translate(0 0)"/><path class="cls-3" d="M634.76,244.52c0,.8-.39,1.46-.86,1.46s-.85-.66-.85-1.46.38-1.45.85-1.45S634.76,243.72,634.76,244.52Z" transform="translate(0 0)"/><path class="cls-3" d="M592.26,172.76c0,.8-.38,1.45-.85,1.45s-.85-.65-.85-1.45.38-1.46.85-1.46S592.26,172,592.26,172.76Z" transform="translate(0 0)"/><path class="cls-3" d="M514,223.67c0,.8-.38,1.46-.85,1.46s-.85-.66-.85-1.46.38-1.45.85-1.45S514,222.87,514,223.67Z" transform="translate(0 0)"/><path class="cls-3" d="M430.39,277.49c0,.81-.38,1.46-.85,1.46s-.85-.65-.85-1.46.38-1.45.85-1.45S430.39,276.69,430.39,277.49Z" transform="translate(0 0)"/><path class="cls-3" d="M368.6,162.51c0,.81-.38,1.46-.85,1.46s-.85-.65-.85-1.46.38-1.45.85-1.45S368.6,161.71,368.6,162.51Z" transform="translate(0 0)"/><path class="cls-3" d="M264.66,260.59c0,.81-.38,1.46-.85,1.46s-.86-.65-.86-1.46.39-1.45.86-1.45S264.66,259.79,264.66,260.59Z" transform="translate(0 0)"/><path class="cls-3" d="M203.23,159.6c0,.81-.39,1.46-.86,1.46s-.85-.65-.85-1.46.38-1.45.85-1.45S203.23,158.8,203.23,159.6Z" transform="translate(0 0)"/><path class="cls-3" d="M232.6,227.13c0,.8-.38,1.46-.85,1.46s-.85-.66-.85-1.46.38-1.45.85-1.45S232.6,226.33,232.6,227.13Z" transform="translate(0 0)"/><path class="cls-3" d="M862.05,273.39c0,.8-.38,1.46-.85,1.46s-.85-.66-.85-1.46.38-1.45.85-1.45S862.05,272.59,862.05,273.39Z" transform="translate(0 0)"/><path class="cls-3" d="M935.05,178.92c0,.8-.38,1.45-.85,1.45s-.85-.65-.85-1.45.38-1.46.85-1.46S935.05,178.11,935.05,178.92Z" transform="translate(0 0)"/><path class="cls-3" d="M785.06,215.86c0,1.61-.76,2.91-1.71,2.91s-1.7-1.3-1.7-2.91.76-2.91,1.7-2.91S785.06,214.25,785.06,215.86Z" transform="translate(0 0)"/><path class="cls-3" d="M694.61,291.44c0,1.61-.76,2.91-1.7,2.91s-1.71-1.3-1.71-2.91.77-2.91,1.71-2.91S694.61,289.83,694.61,291.44Z" transform="translate(0 0)"/></g><g class="cls-2"><path class="cls-3" d="M346.43,150.85c0,1.61-.77,2.91-1.71,2.91s-1.71-1.3-1.71-2.91.77-2.9,1.71-2.9S346.43,149.25,346.43,150.85Z" transform="translate(0 0)"/><path class="cls-3" d="M464.93,227.27c0,1.61-.76,2.91-1.7,2.91s-1.71-1.3-1.71-2.91.77-2.91,1.71-2.91S464.93,225.66,464.93,227.27Z" transform="translate(0 0)"/><path class="cls-3" d="M867.64,134.15c0,1.61-.77,2.91-1.71,2.91s-1.71-1.3-1.71-2.91.77-2.91,1.71-2.91S867.64,132.54,867.64,134.15Z" transform="translate(0 0)"/><path class="cls-3" d="M743,241.05c0,.81-.38,1.46-.85,1.46s-.85-.65-.85-1.46.38-1.45.85-1.45S743,240.25,743,241.05Z" transform="translate(0 0)"/><ellipse class="cls-3" cx="779.54" cy="148.5" rx="0.85" ry="1.45"/><path class="cls-3" d="M699.52,214.11c0,.8-.38,1.45-.85,1.45s-.86-.65-.86-1.45.38-1.46.86-1.46S699.52,213.3,699.52,214.11Z" transform="translate(0 0)"/><path class="cls-3" d="M657,142.34c0,.81-.39,1.46-.86,1.46s-.85-.65-.85-1.46.38-1.45.85-1.45S657,141.54,657,142.34Z" transform="translate(0 0)"/><path class="cls-3" d="M578.77,193.26c0,.8-.38,1.45-.86,1.45s-.85-.65-.85-1.45.38-1.46.85-1.46S578.77,192.45,578.77,193.26Z" transform="translate(0 0)"/><path class="cls-3" d="M495.15,247.08c0,.8-.38,1.45-.85,1.45s-.85-.65-.85-1.45.38-1.45.85-1.45S495.15,246.28,495.15,247.08Z" transform="translate(0 0)"/><path class="cls-3" d="M433.36,132.1c0,.8-.38,1.45-.85,1.45s-.85-.65-.85-1.45.38-1.46.85-1.46S433.36,131.29,433.36,132.1Z" transform="translate(0 0)"/><path class="cls-3" d="M329.42,230.18c0,.8-.38,1.45-.85,1.45s-.85-.65-.85-1.45.38-1.46.85-1.46S329.42,229.37,329.42,230.18Z" transform="translate(0 0)"/><ellipse class="cls-3" cx="267.14" cy="129.19" rx="0.85" ry="1.45"/><path class="cls-3" d="M297.37,196.72c0,.8-.39,1.45-.86,1.45s-.85-.65-.85-1.45.38-1.46.85-1.46S297.37,195.91,297.37,196.72Z" transform="translate(0 0)"/><path class="cls-3" d="M926.81,243c0,.8-.38,1.45-.85,1.45s-.85-.65-.85-1.45.38-1.46.85-1.46S926.81,242.17,926.81,243Z" transform="translate(0 0)"/><ellipse class="cls-3" cx="998.96" cy="148.5" rx="0.85" ry="1.45"/><path class="cls-3" d="M849.82,185.45c0,1.6-.76,2.91-1.7,2.91s-1.71-1.31-1.71-2.91.76-2.91,1.71-2.91S849.82,183.84,849.82,185.45Z" transform="translate(0 0)"/><path class="cls-3" d="M759.38,261c0,1.6-.77,2.91-1.71,2.91S756,262.63,756,261s.77-2.91,1.71-2.91S759.38,259.42,759.38,261Z" transform="translate(0 0)"/></g><g class="cls-2"><path class="cls-3" d="M351.46,243.55c0,1.61-.76,2.91-1.7,2.91s-1.71-1.3-1.71-2.91.77-2.91,1.71-2.91S351.46,241.94,351.46,243.55Z" transform="translate(0 0)"/><path class="cls-3" d="M470,320c0,1.6-.76,2.9-1.7,2.9s-1.71-1.3-1.71-2.9.76-2.91,1.71-2.91S470,318.36,470,320Z" transform="translate(0 0)"/><path class="cls-3" d="M872.67,226.85c0,1.6-.76,2.91-1.7,2.91s-1.71-1.31-1.71-2.91.77-2.91,1.71-2.91S872.67,225.24,872.67,226.85Z" transform="translate(0 0)"/><path class="cls-3" d="M748,333.75c0,.8-.38,1.45-.85,1.45s-.86-.65-.86-1.45.39-1.46.86-1.46S748,333,748,333.75Z" transform="translate(0 0)"/><path class="cls-3" d="M785.43,241.2c0,.8-.38,1.45-.85,1.45s-.86-.65-.86-1.45.39-1.45.86-1.45S785.43,240.4,785.43,241.2Z" transform="translate(0 0)"/><path class="cls-3" d="M704.56,306.8c0,.81-.39,1.46-.86,1.46s-.85-.65-.85-1.46.38-1.45.85-1.45S704.56,306,704.56,306.8Z" transform="translate(0 0)"/><path class="cls-3" d="M662.06,235c0,.8-.38,1.45-.85,1.45s-.85-.65-.85-1.45.38-1.46.85-1.46S662.06,234.23,662.06,235Z" transform="translate(0 0)"/><path class="cls-3" d="M583.8,286c0,.81-.38,1.46-.85,1.46s-.85-.65-.85-1.46.38-1.45.85-1.45S583.8,285.15,583.8,286Z" transform="translate(0 0)"/><path class="cls-3" d="M500.19,339.78c0,.8-.38,1.45-.85,1.45s-.85-.65-.85-1.45.38-1.46.85-1.46S500.19,339,500.19,339.78Z" transform="translate(0 0)"/><path class="cls-3" d="M438.4,224.79c0,.81-.38,1.46-.85,1.46s-.85-.65-.85-1.46.38-1.45.85-1.45S438.4,224,438.4,224.79Z" transform="translate(0 0)"/><path class="cls-3" d="M334.46,322.87c0,.81-.38,1.46-.85,1.46s-.86-.65-.86-1.46.39-1.45.86-1.45S334.46,322.07,334.46,322.87Z" transform="translate(0 0)"/><path class="cls-3" d="M273,221.88c0,.81-.39,1.46-.86,1.46s-.85-.65-.85-1.46.38-1.45.85-1.45S273,221.08,273,221.88Z" transform="translate(0 0)"/><path class="cls-3" d="M302.4,289.41c0,.81-.38,1.46-.85,1.46s-.85-.65-.85-1.46.38-1.45.85-1.45S302.4,288.61,302.4,289.41Z" transform="translate(0 0)"/><path class="cls-3" d="M931.85,335.67c0,.81-.38,1.46-.85,1.46s-.85-.65-.85-1.46.38-1.45.85-1.45S931.85,334.87,931.85,335.67Z" transform="translate(0 0)"/><path class="cls-3" d="M1004.85,241.2c0,.8-.38,1.45-.85,1.45s-.85-.65-.85-1.45.38-1.45.85-1.45S1004.85,240.4,1004.85,241.2Z" transform="translate(0 0)"/><path class="cls-3" d="M854.86,278.14c0,1.61-.76,2.91-1.71,2.91s-1.7-1.3-1.7-2.91.76-2.91,1.7-2.91S854.86,276.54,854.86,278.14Z" transform="translate(0 0)"/><path class="cls-3" d="M764.41,353.72c0,1.61-.76,2.91-1.7,2.91s-1.71-1.3-1.71-2.91.77-2.91,1.71-2.91S764.41,352.12,764.41,353.72Z" transform="translate(0 0)"/></g><g class="cls-2"><path class="cls-3" d="M900.64,219c0,1.6-.76,2.91-1.7,2.91s-1.71-1.31-1.71-2.91.77-2.91,1.71-2.91S900.64,217.35,900.64,219Z" transform="translate(0 0)"/><path class="cls-3" d="M1019.15,295.37c0,1.61-.76,2.91-1.71,2.91s-1.7-1.3-1.7-2.91.76-2.91,1.7-2.91S1019.15,293.76,1019.15,295.37Z" transform="translate(0 0)"/><path class="cls-3" d="M1421.85,202.25c0,1.61-.76,2.91-1.7,2.91s-1.71-1.3-1.71-2.91.77-2.91,1.71-2.91S1421.85,200.64,1421.85,202.25Z" transform="translate(0 0)"/><path class="cls-3" d="M1297.18,309.15c0,.81-.38,1.46-.85,1.46s-.86-.65-.86-1.46.39-1.45.86-1.45S1297.18,308.35,1297.18,309.15Z" transform="translate(0 0)"/><path class="cls-3" d="M1334.61,216.6c0,.81-.38,1.46-.85,1.46s-.86-.65-.86-1.46.39-1.45.86-1.45S1334.61,215.8,1334.61,216.6Z" transform="translate(0 0)"/><path class="cls-3" d="M1253.74,282.21c0,.8-.39,1.45-.86,1.45s-.85-.65-.85-1.45.38-1.46.85-1.46S1253.74,281.4,1253.74,282.21Z" transform="translate(0 0)"/><path class="cls-3" d="M1211.24,210.44c0,.81-.38,1.46-.85,1.46s-.85-.65-.85-1.46.38-1.45.85-1.45S1211.24,209.64,1211.24,210.44Z" transform="translate(0 0)"/><path class="cls-3" d="M1133,261.36c0,.8-.38,1.45-.85,1.45s-.85-.65-.85-1.45.38-1.46.85-1.46S1133,260.55,1133,261.36Z" transform="translate(0 0)"/><path class="cls-3" d="M1049.37,315.18c0,.8-.38,1.46-.85,1.46s-.85-.66-.85-1.46.38-1.45.85-1.45S1049.37,314.38,1049.37,315.18Z" transform="translate(0 0)"/><path class="cls-3" d="M987.58,200.2c0,.8-.38,1.45-.85,1.45s-.85-.65-.85-1.45.38-1.46.85-1.46S987.58,199.4,987.58,200.2Z" transform="translate(0 0)"/><path class="cls-3" d="M883.64,298.28c0,.8-.38,1.45-.85,1.45s-.86-.65-.86-1.45.39-1.46.86-1.46S883.64,297.48,883.64,298.28Z" transform="translate(0 0)"/><path class="cls-3" d="M822.21,197.29c0,.8-.39,1.45-.86,1.45s-.85-.65-.85-1.45.38-1.46.85-1.46S822.21,196.49,822.21,197.29Z" transform="translate(0 0)"/><path class="cls-3" d="M851.58,264.82c0,.8-.38,1.45-.85,1.45s-.85-.65-.85-1.45.38-1.46.85-1.46S851.58,264,851.58,264.82Z" transform="translate(0 0)"/><path class="cls-3" d="M1481,311.08c0,.8-.38,1.45-.85,1.45s-.86-.65-.86-1.45.39-1.46.86-1.46S1481,310.28,1481,311.08Z" transform="translate(0 0)"/><path class="cls-3" d="M1554,216.6c0,.81-.38,1.46-.85,1.46s-.85-.65-.85-1.46.38-1.45.85-1.45S1554,215.8,1554,216.6Z" transform="translate(0 0)"/><path class="cls-3" d="M1404,253.55c0,1.61-.76,2.91-1.71,2.91s-1.7-1.3-1.7-2.91.76-2.91,1.7-2.91S1404,251.94,1404,253.55Z" transform="translate(0 0)"/><path class="cls-3" d="M1313.59,329.13c0,1.6-.76,2.91-1.7,2.91s-1.71-1.31-1.71-2.91.77-2.91,1.71-2.91S1313.59,327.52,1313.59,329.13Z" transform="translate(0 0)"/></g><g class="cls-2"><ellipse class="cls-3" cx="1235.97" cy="300.63" rx="1.71" ry="2.91"/><ellipse class="cls-3" cx="1354.48" cy="377.04" rx="1.71" ry="2.91"/><path class="cls-3" d="M1758.89,283.93c0,1.6-.76,2.91-1.71,2.91s-1.7-1.31-1.7-2.91.76-2.91,1.7-2.91S1758.89,282.32,1758.89,283.93Z" transform="translate(0 0)"/><path class="cls-3" d="M1634.22,390.83c0,.8-.39,1.45-.86,1.45s-.85-.65-.85-1.45.38-1.46.85-1.46S1634.22,390,1634.22,390.83Z" transform="translate(0 0)"/><path class="cls-3" d="M1671.65,298.28c0,.8-.39,1.45-.86,1.45s-.85-.65-.85-1.45.38-1.46.85-1.46S1671.65,297.48,1671.65,298.28Z" transform="translate(0 0)"/><path class="cls-3" d="M1590.77,363.88c0,.81-.38,1.46-.85,1.46s-.85-.65-.85-1.46.38-1.45.85-1.45S1590.77,363.08,1590.77,363.88Z" transform="translate(0 0)"/><path class="cls-3" d="M1548.28,292.12c0,.8-.38,1.45-.85,1.45s-.86-.65-.86-1.45.39-1.46.86-1.46S1548.28,291.31,1548.28,292.12Z" transform="translate(0 0)"/><ellipse class="cls-3" cx="1469.17" cy="343.03" rx="0.85" ry="1.45"/><path class="cls-3" d="M1386.41,396.86c0,.8-.38,1.45-.85,1.45s-.86-.65-.86-1.45.38-1.46.86-1.46S1386.41,396.05,1386.41,396.86Z" transform="translate(0 0)"/><path class="cls-3" d="M1324.62,281.87c0,.81-.38,1.46-.86,1.46s-.85-.65-.85-1.46.38-1.45.85-1.45S1324.62,281.07,1324.62,281.87Z" transform="translate(0 0)"/><path class="cls-3" d="M1220.68,380c0,.81-.38,1.46-.86,1.46s-.85-.65-.85-1.46.38-1.45.85-1.45S1220.68,379.15,1220.68,380Z" transform="translate(0 0)"/><path class="cls-3" d="M1159.24,279c0,.81-.38,1.46-.85,1.46s-.85-.65-.85-1.46.38-1.45.85-1.45S1159.24,278.16,1159.24,279Z" transform="translate(0 0)"/><ellipse class="cls-3" cx="1187.77" cy="346.49" rx="0.85" ry="1.45"/><path class="cls-3" d="M1818.07,392.75c0,.81-.38,1.46-.86,1.46s-.85-.65-.85-1.46.38-1.45.85-1.45S1818.07,392,1818.07,392.75Z" transform="translate(0 0)"/><path class="cls-3" d="M1741.08,335.22c0,1.61-.77,2.91-1.71,2.91s-1.71-1.3-1.71-2.91.77-2.91,1.71-2.91S1741.08,333.62,1741.08,335.22Z" transform="translate(0 0)"/><path class="cls-3" d="M1650.63,410.8c0,1.61-.76,2.91-1.7,2.91s-1.71-1.3-1.71-2.91.76-2.91,1.71-2.91S1650.63,409.2,1650.63,410.8Z" transform="translate(0 0)"/></g><g class="cls-2"><path class="cls-3" d="M1706.2,196.73c0,1.61-.77,2.91-1.71,2.91s-1.7-1.3-1.7-2.91.76-2.91,1.7-2.91S1706.2,195.12,1706.2,196.73Z" transform="translate(0 0)"/><path class="cls-3" d="M1824.71,273.15c0,1.6-.77,2.9-1.71,2.9s-1.71-1.3-1.71-2.9.77-2.91,1.71-2.91S1824.71,271.54,1824.71,273.15Z" transform="translate(0 0)"/><path class="cls-3" d="M1854.93,293c0,.8-.38,1.45-.86,1.45s-.85-.65-.85-1.45.38-1.46.85-1.46S1854.93,292.15,1854.93,293Z" transform="translate(0 0)"/><path class="cls-3" d="M1793.14,178c0,.81-.39,1.46-.86,1.46s-.85-.65-.85-1.46.38-1.45.85-1.45S1793.14,177.17,1793.14,178Z" transform="translate(0 0)"/><path class="cls-3" d="M1689.2,276.05c0,.81-.39,1.46-.86,1.46s-.85-.65-.85-1.46.38-1.45.85-1.45S1689.2,275.25,1689.2,276.05Z" transform="translate(0 0)"/><path class="cls-3" d="M1627.76,175.06c0,.81-.38,1.46-.85,1.46s-.85-.65-.85-1.46.38-1.45.85-1.45S1627.76,174.26,1627.76,175.06Z" transform="translate(0 0)"/><path class="cls-3" d="M1657.14,242.59c0,.81-.38,1.46-.86,1.46s-.85-.65-.85-1.46.38-1.45.85-1.45S1657.14,241.79,1657.14,242.59Z" transform="translate(0 0)"/></g><g class="cls-2"><path class="cls-3" d="M823.69,862.57c0,1.4-.66,2.53-1.48,2.53s-1.49-1.13-1.49-2.53.67-2.53,1.49-2.53S823.69,861.17,823.69,862.57Z" transform="translate(0 0)"/><path class="cls-3" d="M926.9,929.12c0,1.4-.67,2.53-1.49,2.53s-1.48-1.13-1.48-2.53.66-2.54,1.48-2.54S926.9,927.72,926.9,929.12Z" transform="translate(0 0)"/><path class="cls-3" d="M1277.6,848c0,1.4-.66,2.54-1.48,2.54s-1.49-1.14-1.49-2.54.67-2.53,1.49-2.53S1277.6,846.62,1277.6,848Z" transform="translate(0 0)"/><path class="cls-3" d="M1169,941.12c0,.7-.33,1.27-.74,1.27s-.75-.57-.75-1.27.33-1.27.75-1.27S1169,940.42,1169,941.12Z" transform="translate(0 0)"/><path class="cls-3" d="M1201.62,860.52c0,.7-.33,1.27-.74,1.27s-.74-.57-.74-1.27.33-1.26.74-1.26S1201.62,859.82,1201.62,860.52Z" transform="translate(0 0)"/><path class="cls-3" d="M1131.19,917.65c0,.7-.33,1.27-.74,1.27s-.74-.57-.74-1.27.33-1.26.74-1.26S1131.19,917,1131.19,917.65Z" transform="translate(0 0)"/><path class="cls-3" d="M1094.19,855.16c0,.7-.33,1.26-.75,1.26s-.74-.56-.74-1.26.33-1.27.74-1.27S1094.19,854.46,1094.19,855.16Z" transform="translate(0 0)"/><path class="cls-3" d="M1026,899.5c0,.7-.33,1.26-.74,1.26s-.74-.56-.74-1.26.33-1.27.74-1.27S1026,898.8,1026,899.5Z" transform="translate(0 0)"/><path class="cls-3" d="M953.22,946.37c0,.7-.33,1.27-.74,1.27s-.75-.57-.75-1.27.34-1.27.75-1.27S953.22,945.67,953.22,946.37Z" transform="translate(0 0)"/><path class="cls-3" d="M899.41,846.23c0,.7-.34,1.27-.75,1.27s-.74-.57-.74-1.27.33-1.26.74-1.26S899.41,845.54,899.41,846.23Z" transform="translate(0 0)"/><path class="cls-3" d="M808.89,931.65c0,.7-.34,1.27-.75,1.27s-.74-.57-.74-1.27.33-1.27.74-1.27S808.89,931,808.89,931.65Z" transform="translate(0 0)"/><path class="cls-3" d="M755.39,843.7c0,.7-.34,1.27-.75,1.27s-.74-.57-.74-1.27.33-1.27.74-1.27S755.39,843,755.39,843.7Z" transform="translate(0 0)"/><path class="cls-3" d="M781,902.51c0,.7-.33,1.27-.74,1.27s-.75-.57-.75-1.27.34-1.27.75-1.27S781,901.81,781,902.51Z" transform="translate(0 0)"/><path class="cls-3" d="M1329.14,942.8c0,.7-.33,1.26-.74,1.26s-.75-.56-.75-1.26.34-1.27.75-1.27S1329.14,942.1,1329.14,942.8Z" transform="translate(0 0)"/><path class="cls-3" d="M1392.72,860.52c0,.7-.34,1.27-.75,1.27s-.74-.57-.74-1.27.33-1.26.74-1.26S1392.72,859.82,1392.72,860.52Z" transform="translate(0 0)"/><path class="cls-3" d="M1262.09,892.7c0,1.39-.67,2.53-1.49,2.53s-1.48-1.14-1.48-2.53.66-2.54,1.48-2.54S1262.09,891.3,1262.09,892.7Z" transform="translate(0 0)"/><ellipse class="cls-3" cx="1181.84" cy="958.52" rx="1.49" ry="2.53"/></g><g class="cls-2"><path class="cls-3" d="M571.26,981.52c0,1.4-.67,2.53-1.49,2.53s-1.48-1.13-1.48-2.53S569,979,569.77,979,571.26,980.12,571.26,981.52Z" transform="translate(0 0)"/><path class="cls-3" d="M674.46,1048.07c0,1.4-.66,2.53-1.48,2.53s-1.49-1.13-1.49-2.53.67-2.54,1.49-2.54S674.46,1046.67,674.46,1048.07Z" transform="translate(0 0)"/><ellipse class="cls-3" cx="1023.68" cy="966.97" rx="1.49" ry="2.53"/><path class="cls-3" d="M916.59,1060.07c0,.7-.33,1.27-.74,1.27s-.74-.57-.74-1.27.33-1.27.74-1.27S916.59,1059.37,916.59,1060.07Z" transform="translate(0 0)"/><path class="cls-3" d="M949.19,979.47c0,.7-.33,1.27-.74,1.27s-.75-.57-.75-1.27.34-1.26.75-1.26S949.19,978.77,949.19,979.47Z" transform="translate(0 0)"/><path class="cls-3" d="M878.76,1036.61c0,.7-.34,1.26-.75,1.26s-.74-.56-.74-1.26.33-1.27.74-1.27S878.76,1035.91,878.76,1036.61Z" transform="translate(0 0)"/><path class="cls-3" d="M841.75,974.11c0,.7-.33,1.26-.74,1.26s-.74-.56-.74-1.26.33-1.27.74-1.27S841.75,973.41,841.75,974.11Z" transform="translate(0 0)"/><path class="cls-3" d="M773.6,1018.45c0,.7-.33,1.26-.74,1.26s-.75-.56-.75-1.26.34-1.27.75-1.27S773.6,1017.75,773.6,1018.45Z" transform="translate(0 0)"/><path class="cls-3" d="M700.78,1065.32c0,.7-.33,1.27-.74,1.27s-.74-.57-.74-1.27.33-1.27.74-1.27S700.78,1064.62,700.78,1065.32Z" transform="translate(0 0)"/><path class="cls-3" d="M647,965.19c0,.7-.33,1.26-.74,1.26s-.75-.56-.75-1.26.34-1.27.75-1.27S647,964.49,647,965.19Z" transform="translate(0 0)"/><path class="cls-3" d="M556.45,1050.6c0,.7-.33,1.27-.74,1.27s-.74-.57-.74-1.27.33-1.27.74-1.27S556.45,1049.9,556.45,1050.6Z" transform="translate(0 0)"/><path class="cls-3" d="M503,962.65c0,.7-.33,1.27-.74,1.27s-.75-.57-.75-1.27.34-1.26.75-1.26S503,962,503,962.65Z" transform="translate(0 0)"/><path class="cls-3" d="M528.53,1021.46c0,.7-.33,1.27-.74,1.27s-.74-.57-.74-1.27.33-1.27.74-1.27S528.53,1020.76,528.53,1021.46Z" transform="translate(0 0)"/><path class="cls-3" d="M1076.7,1061.75c0,.7-.33,1.26-.74,1.26s-.74-.56-.74-1.26.33-1.27.74-1.27S1076.7,1061.05,1076.7,1061.75Z" transform="translate(0 0)"/><path class="cls-3" d="M1140.28,979.47c0,.7-.33,1.27-.74,1.27s-.75-.57-.75-1.27.34-1.26.75-1.26S1140.28,978.77,1140.28,979.47Z" transform="translate(0 0)"/><ellipse class="cls-3" cx="1008.17" cy="1011.65" rx="1.49" ry="2.53"/><ellipse class="cls-3" cx="929.4" cy="1077.47" rx="1.49" ry="2.53"/></g><ellipse class="cls-3" cx="1089.34" cy="825.83" rx="3.37" ry="5.74"/><path class="cls-3" d="M1196.72,893.06c0,3.56-1.69,6.44-3.77,6.44s-3.78-2.88-3.78-6.44,1.69-6.43,3.78-6.43S1196.72,889.51,1196.72,893.06Z" transform="translate(0 0)"/><ellipse class="cls-3" cx="1541.36" cy="808.07" rx="1.49" ry="2.53"/><path class="cls-3" d="M1434.27,901.17c0,.7-.33,1.26-.74,1.26s-.74-.56-.74-1.26.33-1.27.74-1.27S1434.27,900.47,1434.27,901.17Z" transform="translate(0 0)"/><path class="cls-3" d="M1466.87,820.57c0,.7-.33,1.27-.74,1.27s-.75-.57-.75-1.27.34-1.27.75-1.27S1466.87,819.87,1466.87,820.57Z" transform="translate(0 0)"/><path class="cls-3" d="M1396.44,877.7c0,.7-.33,1.27-.74,1.27s-.75-.57-.75-1.27.34-1.26.75-1.26S1396.44,877,1396.44,877.7Z" transform="translate(0 0)"/><path class="cls-3" d="M1359.43,815.2c0,.7-.33,1.27-.74,1.27s-.74-.57-.74-1.27.33-1.26.74-1.26S1359.43,814.5,1359.43,815.2Z" transform="translate(0 0)"/><path class="cls-3" d="M1291.28,859.54c0,.7-.33,1.27-.74,1.27s-.75-.57-.75-1.27.34-1.26.75-1.26S1291.28,858.84,1291.28,859.54Z" transform="translate(0 0)"/><path class="cls-3" d="M1218.46,906.42c0,.7-.33,1.26-.74,1.26s-.74-.56-.74-1.26.33-1.27.74-1.27S1218.46,905.72,1218.46,906.42Z" transform="translate(0 0)"/><path class="cls-3" d="M1164.65,806.28c0,.7-.33,1.27-.74,1.27s-.74-.57-.74-1.27.33-1.26.74-1.26S1164.65,805.58,1164.65,806.28Z" transform="translate(0 0)"/><path class="cls-3" d="M1074.13,891.7c0,.7-.33,1.27-.74,1.27s-.74-.57-.74-1.27.33-1.27.74-1.27S1074.13,891,1074.13,891.7Z" transform="translate(0 0)"/><path class="cls-3" d="M1020.63,803.75c0,.7-.33,1.27-.74,1.27s-.74-.57-.74-1.27.33-1.27.74-1.27S1020.63,803.05,1020.63,803.75Z" transform="translate(0 0)"/><path class="cls-3" d="M1046.21,862.56c0,.7-.33,1.26-.74,1.26s-.74-.56-.74-1.26.33-1.27.74-1.27S1046.21,861.86,1046.21,862.56Z" transform="translate(0 0)"/><path class="cls-3" d="M1594.38,902.84c0,.7-.33,1.27-.74,1.27s-.74-.57-.74-1.27.33-1.26.74-1.26S1594.38,902.14,1594.38,902.84Z" transform="translate(0 0)"/><path class="cls-3" d="M1658,820.57c0,.7-.33,1.27-.74,1.27s-.75-.57-.75-1.27.34-1.27.75-1.27S1658,819.87,1658,820.57Z" transform="translate(0 0)"/><path class="cls-3" d="M1528.8,852.74c0,2.79-1.32,5-3,5s-3-2.25-3-5,1.33-5,3-5S1528.8,850,1528.8,852.74Z" transform="translate(0 0)"/><path class="cls-3" d="M1448.57,918.56c0,1.4-.67,2.54-1.49,2.54s-1.48-1.14-1.48-2.54.66-2.53,1.48-2.53S1448.57,917.16,1448.57,918.56Z" transform="translate(0 0)"/><g class="cls-2"><ellipse class="cls-3" cx="1380.97" cy="893.75" rx="1.49" ry="2.53"/><path class="cls-3" d="M1485.66,960.29c0,1.4-.66,2.54-1.48,2.54s-1.49-1.14-1.49-2.54.66-2.53,1.49-2.53S1485.66,958.89,1485.66,960.29Z" transform="translate(0 0)"/><path class="cls-3" d="M1836.36,879.2c0,1.4-.66,2.53-1.48,2.53s-1.49-1.13-1.49-2.53.67-2.54,1.49-2.54S1836.36,877.8,1836.36,879.2Z" transform="translate(0 0)"/><path class="cls-3" d="M1727.79,972.3c0,.7-.33,1.26-.74,1.26s-.75-.56-.75-1.26.34-1.27.75-1.27S1727.79,971.6,1727.79,972.3Z" transform="translate(0 0)"/><path class="cls-3" d="M1760.39,891.7c0,.7-.34,1.27-.75,1.27s-.74-.57-.74-1.27.33-1.27.74-1.27S1760.39,891,1760.39,891.7Z" transform="translate(0 0)"/><path class="cls-3" d="M1690,948.83c0,.7-.33,1.27-.74,1.27s-.74-.57-.74-1.27.33-1.27.74-1.27S1690,948.13,1690,948.83Z" transform="translate(0 0)"/><path class="cls-3" d="M1653,886.33c0,.7-.33,1.27-.74,1.27s-.75-.57-.75-1.27.34-1.26.75-1.26S1653,885.63,1653,886.33Z" transform="translate(0 0)"/><path class="cls-3" d="M1584.8,930.67c0,.7-.34,1.27-.75,1.27s-.74-.57-.74-1.27.33-1.26.74-1.26S1584.8,930,1584.8,930.67Z" transform="translate(0 0)"/><path class="cls-3" d="M1512,977.55c0,.7-.33,1.26-.74,1.26s-.75-.56-.75-1.26.34-1.27.75-1.27S1512,976.85,1512,977.55Z" transform="translate(0 0)"/><path class="cls-3" d="M1458.17,877.41c0,.7-.34,1.27-.75,1.27s-.74-.57-.74-1.27.33-1.27.74-1.27S1458.17,876.71,1458.17,877.41Z" transform="translate(0 0)"/><path class="cls-3" d="M1367.65,962.83c0,.7-.33,1.26-.74,1.26s-.75-.56-.75-1.26.34-1.27.75-1.27S1367.65,962.13,1367.65,962.83Z" transform="translate(0 0)"/><path class="cls-3" d="M1314.15,874.88c0,.7-.34,1.26-.75,1.26s-.74-.56-.74-1.26.33-1.27.74-1.27S1314.15,874.18,1314.15,874.88Z" transform="translate(0 0)"/><path class="cls-3" d="M1339.73,933.69c0,.7-.33,1.26-.74,1.26s-.75-.56-.75-1.26.34-1.27.75-1.27S1339.73,933,1339.73,933.69Z" transform="translate(0 0)"/><path class="cls-3" d="M1887.9,974c0,.7-.33,1.27-.74,1.27s-.75-.57-.75-1.27.34-1.26.75-1.26S1887.9,973.27,1887.9,974Z" transform="translate(0 0)"/><ellipse class="cls-3" cx="1819.36" cy="923.87" rx="1.49" ry="2.53"/><ellipse class="cls-3" cx="1740.6" cy="989.69" rx="1.49" ry="2.53"/></g><g class="cls-2"><ellipse class="cls-3" cx="1788.99" cy="803.26" rx="1.49" ry="2.53"/><path class="cls-3" d="M1893.68,869.81c0,1.4-.66,2.53-1.48,2.53s-1.49-1.13-1.49-2.53.66-2.53,1.49-2.53S1893.68,868.41,1893.68,869.81Z" transform="translate(0 0)"/><path class="cls-3" d="M1920,887.06c0,.7-.33,1.27-.74,1.27s-.75-.57-.75-1.27.34-1.26.75-1.26S1920,886.36,1920,887.06Z" transform="translate(0 0)"/><path class="cls-3" d="M1866.19,786.93c0,.7-.34,1.26-.75,1.26s-.74-.56-.74-1.26.33-1.27.74-1.27S1866.19,786.23,1866.19,786.93Z" transform="translate(0 0)"/><path class="cls-3" d="M1775.67,872.34c0,.7-.33,1.27-.74,1.27s-.75-.57-.75-1.27.34-1.26.75-1.26S1775.67,871.64,1775.67,872.34Z" transform="translate(0 0)"/><path class="cls-3" d="M1722.17,784.39c0,.7-.34,1.27-.75,1.27s-.74-.57-.74-1.27.33-1.26.74-1.26S1722.17,783.69,1722.17,784.39Z" transform="translate(0 0)"/><path class="cls-3" d="M1747.75,843.2c0,.7-.33,1.27-.74,1.27s-.75-.57-.75-1.27.34-1.26.75-1.26S1747.75,842.5,1747.75,843.2Z" transform="translate(0 0)"/></g><path class="cls-3" d="M1352.29,563.49c0-2.33,1.11-4.22,2.47-4.22s2.48,1.89,2.48,4.22-1.11,4.23-2.48,4.23S1352.29,565.83,1352.29,563.49Z" transform="translate(0 0)"/><path class="cls-3" d="M1251.07,498.64c0-1.4.66-2.54,1.48-2.54s1.49,1.14,1.49,2.54-.67,2.53-1.49,2.53S1251.07,500,1251.07,498.64Z" transform="translate(0 0)"/><ellipse class="cls-3" cx="901.85" cy="579.73" rx="1.49" ry="2.53"/><path class="cls-3" d="M1008.94,486.63c0-.7.33-1.26.74-1.26s.74.56.74,1.26-.33,1.27-.74,1.27S1008.94,487.33,1008.94,486.63Z" transform="translate(0 0)"/><path class="cls-3" d="M976.34,567.23c0-.7.33-1.26.74-1.26s.75.56.75,1.26-.34,1.27-.75,1.27S976.34,567.93,976.34,567.23Z" transform="translate(0 0)"/><path class="cls-3" d="M1046.77,510.1c0-.7.33-1.27.74-1.27s.75.57.75,1.27-.34,1.27-.75,1.27S1046.77,510.8,1046.77,510.1Z" transform="translate(0 0)"/><path class="cls-3" d="M1083.78,572.6c0-.7.33-1.27.74-1.27s.74.57.74,1.27-.33,1.27-.74,1.27S1083.78,573.3,1083.78,572.6Z" transform="translate(0 0)"/><path class="cls-3" d="M1151.93,528.26c0-.7.33-1.27.74-1.27s.75.57.75,1.27-.34,1.26-.75,1.26S1151.93,529,1151.93,528.26Z" transform="translate(0 0)"/><path class="cls-3" d="M1224.75,481.38c0-.69.33-1.26.74-1.26s.74.57.74,1.26-.33,1.27-.74,1.27S1224.75,482.08,1224.75,481.38Z" transform="translate(0 0)"/><path class="cls-3" d="M1278.56,581.52c0-.7.33-1.27.74-1.27s.74.57.74,1.27-.33,1.27-.74,1.27S1278.56,582.22,1278.56,581.52Z" transform="translate(0 0)"/><path class="cls-3" d="M1369.08,496.1c0-.7.33-1.26.74-1.26s.74.56.74,1.26-.33,1.27-.74,1.27S1369.08,496.8,1369.08,496.1Z" transform="translate(0 0)"/><path class="cls-3" d="M1422.58,584.05c0-.7.33-1.26.74-1.26s.74.56.74,1.26-.33,1.27-.74,1.27S1422.58,584.75,1422.58,584.05Z" transform="translate(0 0)"/><path class="cls-3" d="M1397,525.24c0-.69.33-1.26.74-1.26s.74.57.74,1.26-.33,1.27-.74,1.27S1397,525.94,1397,525.24Z" transform="translate(0 0)"/><path class="cls-3" d="M848.83,485c0-.7.33-1.27.74-1.27s.74.57.74,1.27-.33,1.26-.74,1.26S848.83,485.66,848.83,485Z" transform="translate(0 0)"/><path class="cls-3" d="M785.25,567.23c0-.7.33-1.26.74-1.26s.75.56.75,1.26-.34,1.27-.75,1.27S785.25,567.93,785.25,567.23Z" transform="translate(0 0)"/><path class="cls-3" d="M915.88,535.06c0-1.4.66-2.53,1.48-2.53s1.49,1.13,1.49,2.53-.67,2.53-1.49,2.53S915.88,536.46,915.88,535.06Z" transform="translate(0 0)"/><path class="cls-3" d="M994.64,469.24c0-1.4.67-2.53,1.49-2.53s1.48,1.13,1.48,2.53-.66,2.53-1.48,2.53S994.64,470.64,994.64,469.24Z" transform="translate(0 0)"/><g class="cls-2"><path class="cls-3" d="M1606.71,446.23c0-1.4.66-2.53,1.48-2.53s1.49,1.13,1.49,2.53-.67,2.54-1.49,2.54S1606.71,447.63,1606.71,446.23Z" transform="translate(0 0)"/><path class="cls-3" d="M1503.5,379.69c0-1.4.67-2.54,1.49-2.54s1.48,1.14,1.48,2.54-.66,2.53-1.48,2.53S1503.5,381.09,1503.5,379.69Z" transform="translate(0 0)"/><path class="cls-3" d="M1152.8,460.78c0-1.4.66-2.53,1.48-2.53s1.49,1.13,1.49,2.53-.67,2.54-1.49,2.54S1152.8,462.18,1152.8,460.78Z" transform="translate(0 0)"/><path class="cls-3" d="M1261.37,367.68c0-.7.34-1.26.75-1.26s.74.56.74,1.26-.33,1.27-.74,1.27S1261.37,368.38,1261.37,367.68Z" transform="translate(0 0)"/><path class="cls-3" d="M1228.78,448.28c0-.7.33-1.27.74-1.27s.74.57.74,1.27-.33,1.27-.74,1.27S1228.78,449,1228.78,448.28Z" transform="translate(0 0)"/><path class="cls-3" d="M1299.21,391.15c0-.7.33-1.27.74-1.27s.74.57.74,1.27-.33,1.27-.74,1.27S1299.21,391.85,1299.21,391.15Z" transform="translate(0 0)"/><path class="cls-3" d="M1336.21,453.65c0-.7.34-1.27.75-1.27s.74.57.74,1.27-.33,1.26-.74,1.26S1336.21,454.35,1336.21,453.65Z" transform="translate(0 0)"/><path class="cls-3" d="M1404.37,409.31c0-.7.33-1.27.74-1.27s.74.57.74,1.27-.33,1.26-.74,1.26S1404.37,410,1404.37,409.31Z" transform="translate(0 0)"/><path class="cls-3" d="M1477.18,362.43c0-.7.33-1.26.74-1.26s.75.56.75,1.26-.33,1.27-.75,1.27S1477.18,363.13,1477.18,362.43Z" transform="translate(0 0)"/><path class="cls-3" d="M1531,462.57c0-.7.34-1.27.75-1.27s.74.57.74,1.27-.33,1.27-.74,1.27S1531,463.27,1531,462.57Z" transform="translate(0 0)"/><path class="cls-3" d="M1621.51,377.15c0-.7.34-1.26.75-1.26s.74.56.74,1.26-.33,1.27-.74,1.27S1621.51,377.85,1621.51,377.15Z" transform="translate(0 0)"/><path class="cls-3" d="M1675,465.1c0-.7.34-1.26.75-1.26s.74.56.74,1.26-.33,1.27-.74,1.27S1675,465.8,1675,465.1Z" transform="translate(0 0)"/><path class="cls-3" d="M1649.43,406.29c0-.7.33-1.26.74-1.26s.75.56.75,1.26-.34,1.27-.75,1.27S1649.43,407,1649.43,406.29Z" transform="translate(0 0)"/><path class="cls-3" d="M1101.26,366c0-.7.33-1.27.74-1.27s.75.57.75,1.27-.33,1.26-.75,1.26S1101.26,366.71,1101.26,366Z" transform="translate(0 0)"/><path class="cls-3" d="M1037.69,448.28c0-.7.33-1.27.74-1.27s.74.57.74,1.27-.33,1.27-.74,1.27S1037.69,449,1037.69,448.28Z" transform="translate(0 0)"/><path class="cls-3" d="M1168.31,416.11c0-1.4.67-2.54,1.49-2.54s1.48,1.14,1.48,2.54-.66,2.53-1.48,2.53S1168.31,417.51,1168.31,416.11Z" transform="translate(0 0)"/><path class="cls-3" d="M1247.08,350.29c0-1.4.66-2.54,1.48-2.54s1.49,1.14,1.49,2.54-.67,2.53-1.49,2.53S1247.08,351.69,1247.08,350.29Z" transform="translate(0 0)"/></g><g class="cls-2"><path class="cls-3" d="M1089,605.14c0-1.4.67-2.54,1.49-2.54s1.49,1.14,1.49,2.54-.67,2.53-1.49,2.53S1089,606.54,1089,605.14Z" transform="translate(0 0)"/><path class="cls-3" d="M985.82,538.59c0-1.4.67-2.53,1.49-2.53s1.48,1.13,1.48,2.53-.66,2.53-1.48,2.53S985.82,540,985.82,538.59Z" transform="translate(0 0)"/><ellipse class="cls-3" cx="636.6" cy="619.68" rx="1.49" ry="2.53"/><path class="cls-3" d="M743.69,526.59c0-.7.33-1.27.74-1.27s.75.57.75,1.27-.34,1.26-.75,1.26S743.69,527.29,743.69,526.59Z" transform="translate(0 0)"/><path class="cls-3" d="M711.1,607.18c0-.69.33-1.26.74-1.26s.74.57.74,1.26-.33,1.27-.74,1.27S711.1,607.88,711.1,607.18Z" transform="translate(0 0)"/><path class="cls-3" d="M781.53,550.05c0-.7.33-1.26.74-1.26s.74.56.74,1.26-.33,1.27-.74,1.27S781.53,550.75,781.53,550.05Z" transform="translate(0 0)"/><path class="cls-3" d="M818.53,612.55c0-.7.33-1.27.74-1.27s.75.57.75,1.27-.34,1.27-.75,1.27S818.53,613.25,818.53,612.55Z" transform="translate(0 0)"/><path class="cls-3" d="M886.69,568.21c0-.7.33-1.27.74-1.27s.74.57.74,1.27-.33,1.27-.74,1.27S886.69,568.91,886.69,568.21Z" transform="translate(0 0)"/><path class="cls-3" d="M959.5,521.34c0-.7.33-1.27.74-1.27s.75.57.75,1.27-.34,1.26-.75,1.26S959.5,522,959.5,521.34Z" transform="translate(0 0)"/><path class="cls-3" d="M1013.31,621.47c0-.7.34-1.26.75-1.26s.74.56.74,1.26-.33,1.27-.74,1.27S1013.31,622.17,1013.31,621.47Z" transform="translate(0 0)"/><path class="cls-3" d="M1103.83,536.06c0-.7.33-1.27.74-1.27s.75.57.75,1.27-.33,1.26-.75,1.26S1103.83,536.76,1103.83,536.06Z" transform="translate(0 0)"/><ellipse class="cls-3" cx="1158.08" cy="624.01" rx="0.74" ry="1.27"/><path class="cls-3" d="M1131.75,565.2c0-.7.33-1.27.74-1.27s.75.57.75,1.27-.34,1.26-.75,1.26S1131.75,565.9,1131.75,565.2Z" transform="translate(0 0)"/><path class="cls-3" d="M583.58,524.91c0-.7.33-1.27.74-1.27s.75.57.75,1.27-.34,1.27-.75,1.27S583.58,525.61,583.58,524.91Z" transform="translate(0 0)"/><path class="cls-3" d="M520,607.18c0-.69.34-1.26.75-1.26s.74.57.74,1.26-.33,1.27-.74,1.27S520,607.88,520,607.18Z" transform="translate(0 0)"/><path class="cls-3" d="M650.63,575c0-1.4.67-2.53,1.49-2.53s1.48,1.13,1.48,2.53-.66,2.54-1.48,2.54S650.63,576.41,650.63,575Z" transform="translate(0 0)"/><ellipse class="cls-3" cx="730.88" cy="509.19" rx="1.49" ry="2.53"/></g><g class="cls-2"><ellipse class="cls-3" cx="796.99" cy="534.01" rx="1.49" ry="2.53"/><path class="cls-3" d="M692.3,467.46c0-1.4.67-2.53,1.49-2.53s1.49,1.13,1.49,2.53-.67,2.54-1.49,2.54S692.3,468.86,692.3,467.46Z" transform="translate(0 0)"/><ellipse class="cls-3" cx="343.09" cy="548.56" rx="1.49" ry="2.53"/><path class="cls-3" d="M450.18,455.46c0-.7.33-1.27.74-1.27s.74.57.74,1.27-.33,1.27-.74,1.27S450.18,456.16,450.18,455.46Z" transform="translate(0 0)"/><ellipse class="cls-3" cx="418.32" cy="536.06" rx="0.74" ry="1.27"/><path class="cls-3" d="M488,478.92c0-.7.33-1.26.74-1.26s.75.56.75,1.26-.34,1.27-.75,1.27S488,479.62,488,478.92Z" transform="translate(0 0)"/><path class="cls-3" d="M525,541.42c0-.7.33-1.26.74-1.26s.74.56.74,1.26-.33,1.27-.74,1.27S525,542.12,525,541.42Z" transform="translate(0 0)"/><path class="cls-3" d="M593.17,497.08c0-.7.33-1.26.74-1.26s.74.56.74,1.26-.33,1.27-.74,1.27S593.17,497.78,593.17,497.08Z" transform="translate(0 0)"/><path class="cls-3" d="M666,450.21c0-.7.34-1.27.75-1.27s.74.57.74,1.27-.33,1.27-.74,1.27S666,450.91,666,450.21Z" transform="translate(0 0)"/><path class="cls-3" d="M719.8,550.34c0-.7.33-1.26.74-1.26s.74.56.74,1.26-.33,1.27-.74,1.27S719.8,551,719.8,550.34Z" transform="translate(0 0)"/><path class="cls-3" d="M810.32,464.93c0-.7.33-1.27.74-1.27s.74.57.74,1.27-.33,1.26-.74,1.26S810.32,465.63,810.32,464.93Z" transform="translate(0 0)"/><path class="cls-3" d="M863.82,552.88c0-.7.33-1.27.74-1.27s.74.57.74,1.27-.33,1.26-.74,1.26S863.82,553.58,863.82,552.88Z" transform="translate(0 0)"/><path class="cls-3" d="M838.23,494.07c0-.7.34-1.27.75-1.27s.74.57.74,1.27-.33,1.27-.74,1.27S838.23,494.77,838.23,494.07Z" transform="translate(0 0)"/><path class="cls-3" d="M290.06,453.78c0-.7.34-1.27.75-1.27s.74.57.74,1.27-.33,1.27-.74,1.27S290.06,454.48,290.06,453.78Z" transform="translate(0 0)"/><path class="cls-3" d="M357.11,503.88c0-1.4.67-2.53,1.49-2.53s1.49,1.13,1.49,2.53-.67,2.54-1.49,2.54S357.11,505.28,357.11,503.88Z" transform="translate(0 0)"/><path class="cls-3" d="M435.88,438.06c0-1.4.67-2.53,1.49-2.53s1.48,1.13,1.48,2.53-.66,2.54-1.48,2.54S435.88,439.46,435.88,438.06Z" transform="translate(0 0)"/></g><g class="cls-2"><ellipse class="cls-3" cx="285.77" cy="557.95" rx="1.49" ry="2.53"/><path class="cls-3" d="M258,540.69c0-.7.34-1.26.75-1.26s.74.56.74,1.26-.33,1.27-.74,1.27S258,541.39,258,540.69Z" transform="translate(0 0)"/><path class="cls-3" d="M311.78,640.83c0-.7.33-1.27.74-1.27s.74.57.74,1.27-.33,1.26-.74,1.26S311.78,641.53,311.78,640.83Z" transform="translate(0 0)"/><path class="cls-3" d="M402.3,555.41c0-.7.33-1.27.74-1.27s.74.57.74,1.27-.33,1.27-.74,1.27S402.3,556.11,402.3,555.41Z" transform="translate(0 0)"/><path class="cls-3" d="M455.8,643.36c0-.7.33-1.27.74-1.27s.74.57.74,1.27-.33,1.27-.74,1.27S455.8,644.06,455.8,643.36Z" transform="translate(0 0)"/></g><g class="cls-2"><path class="cls-3" d="M722.14,673.23c0,1.4-.66,2.53-1.49,2.53s-1.48-1.13-1.48-2.53.66-2.53,1.48-2.53S722.14,671.83,722.14,673.23Z" transform="translate(0 0)"/><path class="cls-3" d="M825.35,739.78c0,1.4-.67,2.53-1.49,2.53s-1.49-1.13-1.49-2.53.67-2.54,1.49-2.54S825.35,738.38,825.35,739.78Z" transform="translate(0 0)"/><path class="cls-3" d="M1176.05,658.68c0,1.4-.67,2.54-1.49,2.54s-1.48-1.14-1.48-2.54.66-2.53,1.48-2.53S1176.05,657.28,1176.05,658.68Z" transform="translate(0 0)"/><path class="cls-3" d="M1067.47,751.78c0,.7-.33,1.27-.74,1.27s-.74-.57-.74-1.27.33-1.27.74-1.27S1067.47,751.08,1067.47,751.78Z" transform="translate(0 0)"/><path class="cls-3" d="M1100.07,671.18c0,.7-.33,1.27-.74,1.27s-.75-.57-.75-1.27.34-1.26.75-1.26S1100.07,670.48,1100.07,671.18Z" transform="translate(0 0)"/><path class="cls-3" d="M1029.64,728.31c0,.7-.33,1.27-.74,1.27s-.75-.57-.75-1.27.34-1.26.75-1.26S1029.64,727.61,1029.64,728.31Z" transform="translate(0 0)"/><path class="cls-3" d="M992.63,665.82c0,.7-.33,1.26-.74,1.26s-.74-.56-.74-1.26.33-1.27.74-1.27S992.63,665.12,992.63,665.82Z" transform="translate(0 0)"/><path class="cls-3" d="M924.48,710.16c0,.7-.33,1.26-.74,1.26s-.75-.56-.75-1.26.34-1.27.75-1.27S924.48,709.46,924.48,710.16Z" transform="translate(0 0)"/><path class="cls-3" d="M851.66,757c0,.7-.33,1.27-.74,1.27s-.74-.57-.74-1.27.33-1.27.74-1.27S851.66,756.33,851.66,757Z" transform="translate(0 0)"/><path class="cls-3" d="M797.85,656.89c0,.7-.33,1.27-.74,1.27s-.74-.57-.74-1.27.33-1.26.74-1.26S797.85,656.19,797.85,656.89Z" transform="translate(0 0)"/><path class="cls-3" d="M707.33,742.31c0,.7-.33,1.27-.74,1.27s-.74-.57-.74-1.27.33-1.27.74-1.27S707.33,741.61,707.33,742.31Z" transform="translate(0 0)"/><path class="cls-3" d="M653.83,654.36c0,.7-.33,1.27-.74,1.27s-.74-.57-.74-1.27.33-1.27.74-1.27S653.83,653.66,653.83,654.36Z" transform="translate(0 0)"/><path class="cls-3" d="M679.42,713.17c0,.7-.34,1.27-.75,1.27s-.74-.57-.74-1.27.33-1.27.74-1.27S679.42,712.47,679.42,713.17Z" transform="translate(0 0)"/><path class="cls-3" d="M1227.58,753.46c0,.7-.33,1.26-.74,1.26s-.74-.56-.74-1.26.33-1.27.74-1.27S1227.58,752.76,1227.58,753.46Z" transform="translate(0 0)"/><path class="cls-3" d="M1291.16,671.18c0,.7-.33,1.27-.74,1.27s-.74-.57-.74-1.27.33-1.26.74-1.26S1291.16,670.48,1291.16,671.18Z" transform="translate(0 0)"/><path class="cls-3" d="M1160.53,703.36c0,1.39-.66,2.53-1.48,2.53s-1.49-1.14-1.49-2.53.67-2.54,1.49-2.54S1160.53,702,1160.53,703.36Z" transform="translate(0 0)"/><path class="cls-3" d="M1081.77,769.18c0,1.39-.67,2.53-1.49,2.53s-1.48-1.14-1.48-2.53.66-2.54,1.48-2.54S1081.77,767.78,1081.77,769.18Z" transform="translate(0 0)"/></g><ellipse class="cls-3" cx="469.65" cy="789.74" rx="2.92" ry="4.97"/><ellipse class="cls-3" cx="571.42" cy="858.73" rx="1.49" ry="2.53"/><ellipse class="cls-3" cx="922.13" cy="777.63" rx="1.49" ry="2.53"/><path class="cls-3" d="M815,870.73c0,.7-.33,1.27-.75,1.27s-.74-.57-.74-1.27.33-1.27.74-1.27S815,870,815,870.73Z" transform="translate(0 0)"/><path class="cls-3" d="M847.63,790.13c0,.7-.33,1.27-.74,1.27s-.74-.57-.74-1.27.33-1.26.74-1.26S847.63,789.43,847.63,790.13Z" transform="translate(0 0)"/><path class="cls-3" d="M777.2,847.27c0,.7-.33,1.26-.74,1.26s-.74-.56-.74-1.26.33-1.27.74-1.27S777.2,846.57,777.2,847.27Z" transform="translate(0 0)"/><path class="cls-3" d="M740.2,784.77c0,.7-.33,1.26-.75,1.26s-.74-.56-.74-1.26.33-1.27.74-1.27S740.2,784.07,740.2,784.77Z" transform="translate(0 0)"/><path class="cls-3" d="M672,829.11c0,.7-.33,1.26-.74,1.26s-.74-.56-.74-1.26.33-1.27.74-1.27S672,828.41,672,829.11Z" transform="translate(0 0)"/><path class="cls-3" d="M599.23,876c0,.7-.33,1.27-.74,1.27s-.75-.57-.75-1.27.34-1.27.75-1.27S599.23,875.28,599.23,876Z" transform="translate(0 0)"/><path class="cls-3" d="M545.42,775.85c0,.7-.34,1.26-.75,1.26s-.74-.56-.74-1.26.33-1.27.74-1.27S545.42,775.15,545.42,775.85Z" transform="translate(0 0)"/><path class="cls-3" d="M454.9,861.26c0,.7-.34,1.27-.75,1.27s-.74-.57-.74-1.27.33-1.27.74-1.27S454.9,860.56,454.9,861.26Z" transform="translate(0 0)"/><path class="cls-3" d="M401.4,773.31c0,.7-.34,1.27-.75,1.27s-.74-.57-.74-1.27.33-1.26.74-1.26S401.4,772.61,401.4,773.31Z" transform="translate(0 0)"/><path class="cls-3" d="M427,832.12c0,.7-.33,1.27-.74,1.27s-.75-.57-.75-1.27.34-1.27.75-1.27S427,831.42,427,832.12Z" transform="translate(0 0)"/><path class="cls-3" d="M975.15,872.41c0,.7-.33,1.26-.74,1.26s-.75-.56-.75-1.26.34-1.27.75-1.27S975.15,871.71,975.15,872.41Z" transform="translate(0 0)"/><path class="cls-3" d="M1038.73,790.13c0,.7-.34,1.27-.75,1.27s-.74-.57-.74-1.27.33-1.26.74-1.26S1038.73,789.43,1038.73,790.13Z" transform="translate(0 0)"/><path class="cls-3" d="M908.1,822.31c0,1.4-.67,2.53-1.49,2.53s-1.48-1.13-1.48-2.53.66-2.54,1.48-2.54S908.1,820.91,908.1,822.31Z" transform="translate(0 0)"/><ellipse class="cls-3" cx="827.85" cy="888.13" rx="1.49" ry="2.53"/><g class="cls-2"><path class="cls-3" d="M987.39,633.28c0,1.4-.67,2.53-1.49,2.53s-1.49-1.13-1.49-2.53.67-2.54,1.49-2.54S987.39,631.88,987.39,633.28Z" transform="translate(0 0)"/><ellipse class="cls-3" cx="1089.11" cy="699.82" rx="1.49" ry="2.53"/><ellipse class="cls-3" cx="1439.81" cy="618.73" rx="1.49" ry="2.53"/><path class="cls-3" d="M1332.72,711.83c0,.7-.33,1.26-.74,1.26s-.75-.56-.75-1.26.34-1.27.75-1.27S1332.72,711.13,1332.72,711.83Z" transform="translate(0 0)"/><path class="cls-3" d="M1365.32,631.23c0,.7-.34,1.27-.75,1.27s-.74-.57-.74-1.27.33-1.27.74-1.27S1365.32,630.53,1365.32,631.23Z" transform="translate(0 0)"/><path class="cls-3" d="M1294.88,688.36c0,.7-.33,1.27-.74,1.27s-.74-.57-.74-1.27.33-1.26.74-1.26S1294.88,687.66,1294.88,688.36Z" transform="translate(0 0)"/><path class="cls-3" d="M1257.88,625.86c0,.7-.33,1.27-.74,1.27s-.75-.57-.75-1.27.34-1.26.75-1.26S1257.88,625.16,1257.88,625.86Z" transform="translate(0 0)"/><path class="cls-3" d="M1189.73,670.2c0,.7-.34,1.27-.75,1.27s-.74-.57-.74-1.27.33-1.26.74-1.26S1189.73,669.5,1189.73,670.2Z" transform="translate(0 0)"/><path class="cls-3" d="M1116.91,717.08c0,.7-.33,1.26-.74,1.26s-.75-.56-.75-1.26.34-1.27.75-1.27S1116.91,716.38,1116.91,717.08Z" transform="translate(0 0)"/><path class="cls-3" d="M1063.1,616.94c0,.7-.33,1.27-.75,1.27s-.74-.57-.74-1.27.33-1.26.74-1.26S1063.1,616.24,1063.1,616.94Z" transform="translate(0 0)"/><path class="cls-3" d="M972.58,702.36c0,.7-.33,1.26-.74,1.26s-.75-.56-.75-1.26.34-1.27.75-1.27S972.58,701.66,972.58,702.36Z" transform="translate(0 0)"/><path class="cls-3" d="M919.08,614.41c0,.7-.34,1.27-.75,1.27s-.74-.57-.74-1.27.33-1.27.74-1.27S919.08,613.71,919.08,614.41Z" transform="translate(0 0)"/><path class="cls-3" d="M944.66,673.22c0,.7-.33,1.26-.74,1.26s-.75-.56-.75-1.26.34-1.27.75-1.27S944.66,672.52,944.66,673.22Z" transform="translate(0 0)"/><path class="cls-3" d="M1492.83,713.5c0,.7-.33,1.27-.74,1.27s-.75-.57-.75-1.27.34-1.26.75-1.26S1492.83,712.8,1492.83,713.5Z" transform="translate(0 0)"/><path class="cls-3" d="M1556.41,631.23c0,.7-.34,1.27-.75,1.27s-.74-.57-.74-1.27.33-1.27.74-1.27S1556.41,630.53,1556.41,631.23Z" transform="translate(0 0)"/><path class="cls-3" d="M1425.78,663.4c0,1.4-.67,2.54-1.49,2.54s-1.48-1.14-1.48-2.54.66-2.53,1.48-2.53S1425.78,662,1425.78,663.4Z" transform="translate(0 0)"/><path class="cls-3" d="M1347,729.22c0,1.4-.66,2.54-1.48,2.54s-1.49-1.14-1.49-2.54.67-2.53,1.49-2.53S1347,727.82,1347,729.22Z" transform="translate(0 0)"/></g><g class="cls-2"><ellipse class="cls-3" cx="1279.42" cy="704.41" rx="1.49" ry="2.53"/><path class="cls-3" d="M1384.11,771c0,1.4-.67,2.54-1.49,2.54s-1.48-1.14-1.48-2.54.66-2.53,1.48-2.53S1384.11,769.55,1384.11,771Z" transform="translate(0 0)"/><path class="cls-3" d="M1734.81,689.86c0,1.4-.66,2.53-1.49,2.53s-1.48-1.13-1.48-2.53.66-2.54,1.48-2.54S1734.81,688.46,1734.81,689.86Z" transform="translate(0 0)"/><path class="cls-3" d="M1626.24,783c0,.7-.34,1.26-.75,1.26s-.74-.56-.74-1.26.33-1.27.74-1.27S1626.24,782.26,1626.24,783Z" transform="translate(0 0)"/><ellipse class="cls-3" cx="1658.09" cy="702.36" rx="0.74" ry="1.27"/><path class="cls-3" d="M1588.4,759.49c0,.7-.33,1.27-.74,1.27s-.75-.57-.75-1.27.34-1.27.75-1.27S1588.4,758.79,1588.4,759.49Z" transform="translate(0 0)"/><path class="cls-3" d="M1551.4,697c0,.7-.34,1.27-.75,1.27s-.74-.57-.74-1.27.33-1.26.74-1.26S1551.4,696.29,1551.4,697Z" transform="translate(0 0)"/><path class="cls-3" d="M1483.24,741.33c0,.7-.33,1.27-.74,1.27s-.74-.57-.74-1.27.33-1.26.74-1.26S1483.24,740.63,1483.24,741.33Z" transform="translate(0 0)"/><path class="cls-3" d="M1410.43,788.21c0,.7-.34,1.26-.75,1.26s-.74-.56-.74-1.26.33-1.27.74-1.27S1410.43,787.51,1410.43,788.21Z" transform="translate(0 0)"/><path class="cls-3" d="M1356.61,688.07c0,.7-.33,1.27-.74,1.27s-.74-.57-.74-1.27.33-1.27.74-1.27S1356.61,687.37,1356.61,688.07Z" transform="translate(0 0)"/><path class="cls-3" d="M1266.09,773.49c0,.7-.33,1.26-.74,1.26s-.74-.56-.74-1.26.33-1.27.74-1.27S1266.09,772.79,1266.09,773.49Z" transform="translate(0 0)"/><path class="cls-3" d="M1212.59,685.54c0,.7-.33,1.26-.74,1.26s-.74-.56-.74-1.26.33-1.27.74-1.27S1212.59,684.84,1212.59,685.54Z" transform="translate(0 0)"/><path class="cls-3" d="M1238.18,744.35c0,.7-.34,1.26-.75,1.26s-.74-.56-.74-1.26.33-1.27.74-1.27S1238.18,743.65,1238.18,744.35Z" transform="translate(0 0)"/><path class="cls-3" d="M1786.35,784.63c0,.7-.34,1.27-.75,1.27s-.74-.57-.74-1.27.33-1.26.74-1.26S1786.35,783.93,1786.35,784.63Z" transform="translate(0 0)"/><ellipse class="cls-3" cx="1717.81" cy="734.53" rx="1.49" ry="2.53"/><ellipse class="cls-3" cx="1639.04" cy="800.35" rx="1.49" ry="2.53"/></g><g class="cls-2"><ellipse class="cls-3" cx="1687.44" cy="613.92" rx="1.49" ry="2.53"/><path class="cls-3" d="M1792.13,680.47c0,1.4-.67,2.53-1.49,2.53s-1.48-1.13-1.48-2.53.66-2.53,1.48-2.53S1792.13,679.07,1792.13,680.47Z" transform="translate(0 0)"/><path class="cls-3" d="M1818.45,697.72c0,.7-.34,1.27-.75,1.27s-.74-.57-.74-1.27.33-1.26.74-1.26S1818.45,697,1818.45,697.72Z" transform="translate(0 0)"/><path class="cls-3" d="M1764.63,597.59c0,.7-.33,1.26-.74,1.26s-.74-.56-.74-1.26.33-1.27.74-1.27S1764.63,596.89,1764.63,597.59Z" transform="translate(0 0)"/><path class="cls-3" d="M1674.11,683c0,.7-.33,1.27-.74,1.27s-.74-.57-.74-1.27.33-1.26.74-1.26S1674.11,682.3,1674.11,683Z" transform="translate(0 0)"/><path class="cls-3" d="M1620.61,595.05c0,.7-.33,1.27-.74,1.27s-.74-.57-.74-1.27.33-1.26.74-1.26S1620.61,594.35,1620.61,595.05Z" transform="translate(0 0)"/><path class="cls-3" d="M1646.2,653.86c0,.7-.34,1.27-.75,1.27s-.74-.57-.74-1.27.33-1.26.74-1.26S1646.2,653.16,1646.2,653.86Z" transform="translate(0 0)"/></g><path class="cls-3" d="M152.18,110.32c0,1.6-.76,2.91-1.7,2.91s-1.71-1.31-1.71-2.91.77-2.91,1.71-2.91S152.18,108.71,152.18,110.32Z" transform="translate(0 0)"/><ellipse class="cls-3" cx="26.66" cy="217.22" rx="0.85" ry="1.45"/><path class="cls-3" d="M64.94,124.67c0,.8-.38,1.45-.85,1.45s-.86-.65-.86-1.45.39-1.46.86-1.46S64.94,123.87,64.94,124.67Z" transform="translate(0 0)"/><ellipse class="cls-3" cx="210.51" cy="219.14" rx="0.85" ry="1.45"/><path class="cls-3" d="M134.37,161.61c0,1.61-.76,2.91-1.71,2.91s-1.7-1.3-1.7-2.91.76-2.91,1.7-2.91S134.37,160,134.37,161.61Z" transform="translate(0 0)"/><path class="cls-3" d="M43.92,237.19c0,1.61-.76,2.91-1.7,2.91s-1.71-1.3-1.71-2.91.77-2.91,1.71-2.91S43.92,235.59,43.92,237.19Z" transform="translate(0 0)"/><g class="cls-2"><ellipse class="cls-3" cx="97.79" cy="23.12" rx="1.71" ry="2.91"/><path class="cls-3" d="M218,99.54c0,1.6-.76,2.9-1.71,2.9s-1.7-1.3-1.7-2.9.76-2.91,1.7-2.91S218,97.93,218,99.54Z" transform="translate(0 0)"/><ellipse class="cls-3" cx="247.37" cy="119.35" rx="0.85" ry="1.45"/><path class="cls-3" d="M186.43,4.36c0,.81-.38,1.46-.85,1.46s-.86-.65-.86-1.46.39-1.45.86-1.45S186.43,3.56,186.43,4.36Z" transform="translate(0 0)"/><path class="cls-3" d="M82.49,102.44c0,.81-.38,1.46-.85,1.46s-.86-.65-.86-1.46.39-1.45.86-1.45S82.49,101.64,82.49,102.44Z" transform="translate(0 0)"/><path class="cls-3" d="M21.06,1.45c0,.81-.39,1.46-.86,1.46s-.85-.65-.85-1.46S19.73,0,20.2,0,21.06.65,21.06,1.45Z" transform="translate(0 0)"/><ellipse class="cls-3" cx="49.58" cy="68.98" rx="0.85" ry="1.45"/></g><path class="cls-3" d="M51.25,647c0,.7-.33,1.27-.74,1.27s-.74-.57-.74-1.27.33-1.27.74-1.27S51.25,646.26,51.25,647Z" transform="translate(0 0)"/><ellipse class="cls-3" cx="228.17" cy="705.59" rx="1.49" ry="2.53"/><path class="cls-3" d="M121.08,798.69c0,.7-.33,1.26-.74,1.26s-.74-.56-.74-1.26.33-1.27.74-1.27S121.08,798,121.08,798.69Z" transform="translate(0 0)"/><path class="cls-3" d="M153.68,718.09c0,.7-.33,1.26-.74,1.26s-.75-.56-.75-1.26.34-1.27.75-1.27S153.68,717.39,153.68,718.09Z" transform="translate(0 0)"/><path class="cls-3" d="M83.25,775.22c0,.7-.33,1.27-.74,1.27s-.75-.57-.75-1.27.34-1.27.75-1.27S83.25,774.52,83.25,775.22Z" transform="translate(0 0)"/><path class="cls-3" d="M46.24,712.72c0,.7-.33,1.27-.74,1.27s-.74-.57-.74-1.27.33-1.26.74-1.26S46.24,712,46.24,712.72Z" transform="translate(0 0)"/><ellipse class="cls-3" cx="280.45" cy="800.36" rx="0.74" ry="1.27"/><path class="cls-3" d="M214.14,750.26c0,1.4-.66,2.54-1.48,2.54s-1.49-1.14-1.49-2.54.67-2.53,1.49-2.53S214.14,748.86,214.14,750.26Z" transform="translate(0 0)"/><ellipse class="cls-3" cx="133.89" cy="816.08" rx="1.49" ry="2.53"/><path class="cls-3" d="M183.77,629.65c0,1.4-.67,2.54-1.49,2.54s-1.48-1.14-1.48-2.54.66-2.53,1.48-2.53S183.77,628.25,183.77,629.65Z" transform="translate(0 0)"/><path class="cls-3" d="M287,696.2c0,1.4-.66,2.53-1.48,2.53S284,697.6,284,696.2s.67-2.53,1.49-2.53S287,694.8,287,696.2Z" transform="translate(0 0)"/><path class="cls-3" d="M259.48,613.32c0,.7-.33,1.26-.74,1.26s-.74-.56-.74-1.26.33-1.27.74-1.27S259.48,612.62,259.48,613.32Z" transform="translate(0 0)"/><path class="cls-3" d="M169,698.73c0,.7-.33,1.27-.74,1.27s-.74-.57-.74-1.27.33-1.26.74-1.26S169,698,169,698.73Z" transform="translate(0 0)"/><ellipse class="cls-3" cx="114.72" cy="610.78" rx="0.74" ry="1.27"/><path class="cls-3" d="M141,669.59c0,.7-.33,1.27-.74,1.27s-.74-.57-.74-1.27.33-1.26.74-1.26S141,668.89,141,669.59Z" transform="translate(0 0)"/><ellipse class="cls-3" cx="1.49" cy="272.62" rx="1.49" ry="2.53"/><path class="cls-3" d="M14.81,203.54c0-.7.33-1.26.74-1.26s.74.56.74,1.26-.33,1.27-.74,1.27S14.81,204.24,14.81,203.54Z" transform="translate(0 0)"/><path class="cls-3" d="M68.31,291.49c0-.7.33-1.26.74-1.26s.74.56.74,1.26-.33,1.27-.74,1.27S68.31,292.19,68.31,291.49Z" transform="translate(0 0)"/><path class="cls-3" d="M42.73,232.68c0-.7.33-1.26.74-1.26s.74.56.74,1.26-.33,1.27-.74,1.27S42.73,233.38,42.73,232.68Z" transform="translate(0 0)"/><ellipse class="cls-3" cx="126.62" cy="516.25" rx="1.49" ry="2.53"/><path class="cls-3" d="M19.53,609.35c0,.7-.33,1.26-.74,1.26s-.75-.56-.75-1.26.34-1.27.75-1.27S19.53,608.65,19.53,609.35Z" transform="translate(0 0)"/><path class="cls-3" d="M52.13,528.75c0,.7-.34,1.26-.75,1.26s-.74-.56-.74-1.26.33-1.27.74-1.27S52.13,528.05,52.13,528.75Z" transform="translate(0 0)"/><ellipse class="cls-3" cx="178.9" cy="611.02" rx="0.74" ry="1.27"/><path class="cls-3" d="M112.59,560.92c0,1.4-.67,2.53-1.49,2.53s-1.48-1.13-1.48-2.53.66-2.53,1.48-2.53S112.59,559.52,112.59,560.92Z" transform="translate(0 0)"/><path class="cls-3" d="M33.82,626.74c0,1.4-.66,2.53-1.48,2.53s-1.49-1.13-1.49-2.53.67-2.53,1.49-2.53S33.82,625.34,33.82,626.74Z" transform="translate(0 0)"/><g class="cls-2"><path class="cls-3" d="M82.22,440.31c0,1.4-.67,2.54-1.49,2.54s-1.49-1.14-1.49-2.54.67-2.53,1.49-2.53S82.22,438.91,82.22,440.31Z" transform="translate(0 0)"/><path class="cls-3" d="M185.42,506.86c0,1.4-.66,2.53-1.49,2.53s-1.48-1.13-1.48-2.53.66-2.53,1.48-2.53S185.42,505.46,185.42,506.86Z" transform="translate(0 0)"/><path class="cls-3" d="M211.74,524.11c0,.7-.33,1.27-.74,1.27s-.75-.57-.75-1.27.34-1.26.75-1.26S211.74,523.41,211.74,524.11Z" transform="translate(0 0)"/><path class="cls-3" d="M157.93,424c0,.7-.34,1.26-.75,1.26s-.74-.56-.74-1.26.33-1.27.74-1.27S157.93,423.28,157.93,424Z" transform="translate(0 0)"/><path class="cls-3" d="M67.41,509.39c0,.7-.33,1.27-.74,1.27s-.75-.57-.75-1.27.34-1.26.75-1.26S67.41,508.69,67.41,509.39Z" transform="translate(0 0)"/><path class="cls-3" d="M13.91,421.44c0,.7-.34,1.27-.75,1.27s-.74-.57-.74-1.27.33-1.26.74-1.26S13.91,420.74,13.91,421.44Z" transform="translate(0 0)"/><path class="cls-3" d="M39.49,480.25c0,.7-.33,1.27-.74,1.27S38,481,38,480.25s.34-1.26.75-1.26S39.49,479.55,39.49,480.25Z" transform="translate(0 0)"/></g><ellipse class="cls-4" cx="469.65" cy="789.74" rx="20.61" ry="35.14"/><ellipse class="cls-5" cx="1089.34" cy="825.83" rx="20.61" ry="35.14"/><ellipse class="cls-6" cx="1192.95" cy="893.06" rx="20.61" ry="35.14"/><ellipse class="cls-7" cx="1354.76" cy="563.36" rx="20.61" ry="35.14"/><ellipse class="cls-8" cx="1525.85" cy="852.74" rx="20.61" ry="35.14"/></g></g></svg>