<?xml version="1.0" encoding="UTF-8"?>
<!DOCTYPE svg PUBLIC "-//W3C//DTD SVG 1.1//EN" "http://www.w3.org/Graphics/SVG/1.1/DTD/svg11.dtd">
<svg xmlns="http://www.w3.org/2000/svg" version="1.1" width="222px" height="186px" style="shape-rendering:geometricPrecision; text-rendering:geometricPrecision; image-rendering:optimizeQuality; fill-rule:evenodd; clip-rule:evenodd" xmlns:xlink="http://www.w3.org/1999/xlink">
<g><path style="opacity:1" fill="#f9f2e9" d="M 151.5,4.5 C 154.939,4.25293 158.272,4.58627 161.5,5.5C 162.137,8.45603 162.637,11.456 163,14.5C 164.417,15.0779 165.25,16.0779 165.5,17.5C 163.95,16.5592 162.284,15.8925 160.5,15.5C 155.349,12.4637 149.683,11.1304 143.5,11.5C 144.293,7.04092 146.96,4.70758 151.5,4.5 Z"/></g>
<g><path style="opacity:1" fill="#faf1e8" d="M 161.5,5.5 C 164.989,6.47685 167.823,8.47685 170,11.5C 173.571,16.302 175.737,21.6353 176.5,27.5C 176.167,27.5 175.833,27.5 175.5,27.5C 173.167,23.1667 169.833,19.8333 165.5,17.5C 165.25,16.0779 164.417,15.0779 163,14.5C 162.637,11.456 162.137,8.45603 161.5,5.5 Z"/></g>
<g><path style="opacity:1" fill="#ea0b7f" d="M 141.5,-0.5 C 144.833,-0.5 148.167,-0.5 151.5,-0.5C 151.5,-0.166667 151.5,0.166667 151.5,0.5C 146.623,-0.224718 142.956,1.44195 140.5,5.5C 138.916,6.9197 137.75,9.25303 137,12.5C 134.367,14.1601 131.534,14.6601 128.5,14C 128.043,13.586 127.709,13.086 127.5,12.5C 128.747,10.5029 129.581,8.50289 130,6.5C 128.961,7.7101 127.794,8.7101 126.5,9.5C 126.859,7.62901 127.859,6.12901 129.5,5C 133.284,2.47128 137.284,0.637951 141.5,-0.5 Z"/></g>
<g><path style="opacity:1" fill="#b50f57" d="M 151.5,0.5 C 153.027,0.427017 154.027,1.09368 154.5,2.5C 153.5,3.16667 152.5,3.83333 151.5,4.5C 146.96,4.70758 144.293,7.04092 143.5,11.5C 142.596,12.209 142.263,13.209 142.5,14.5C 141.533,15.8062 140.199,16.4729 138.5,16.5C 139.167,12.8333 139.833,9.16667 140.5,5.5C 142.956,1.44195 146.623,-0.224718 151.5,0.5 Z"/></g>
<g><path style="opacity:1" fill="#edc4b6" d="M 154.5,2.5 C 165.175,3.08865 174.342,7.08865 182,14.5C 183.094,16.0779 183.928,17.7446 184.5,19.5C 182.855,23.145 180.188,25.8116 176.5,27.5C 175.737,21.6353 173.571,16.302 170,11.5C 167.823,8.47685 164.989,6.47685 161.5,5.5C 158.272,4.58627 154.939,4.25293 151.5,4.5C 152.5,3.83333 153.5,3.16667 154.5,2.5 Z"/></g>
<g><path style="opacity:1" fill="#2f83bd" d="M 143.5,11.5 C 149.683,11.1304 155.349,12.4637 160.5,15.5C 157.381,16.1622 154.381,16.4956 151.5,16.5C 148.545,15.8413 145.545,15.5079 142.5,15.5C 142.5,15.1667 142.5,14.8333 142.5,14.5C 142.263,13.209 142.596,12.209 143.5,11.5 Z"/></g>
<g><path style="opacity:1" fill="#d41d95" d="M 140.5,5.5 C 139.833,9.16667 139.167,12.8333 138.5,16.5C 134.404,19.8075 129.737,20.9741 124.5,20C 123.934,19.0053 123.267,18.172 122.5,17.5C 122.5,17.1667 122.5,16.8333 122.5,16.5C 123.079,13.6689 124.412,11.3356 126.5,9.5C 127.794,8.7101 128.961,7.7101 130,6.5C 129.581,8.50289 128.747,10.5029 127.5,12.5C 127.709,13.086 128.043,13.586 128.5,14C 131.534,14.6601 134.367,14.1601 137,12.5C 137.75,9.25303 138.916,6.9197 140.5,5.5 Z"/></g>
<g><path style="opacity:1" fill="#96227e" d="M 142.5,14.5 C 142.5,14.8333 142.5,15.1667 142.5,15.5C 141.917,20.4133 139.25,23.4133 134.5,24.5C 132.5,24.5 130.5,24.5 128.5,24.5C 124.41,23.9979 122.41,21.6645 122.5,17.5C 123.267,18.172 123.934,19.0053 124.5,20C 129.737,20.9741 134.404,19.8075 138.5,16.5C 140.199,16.4729 141.533,15.8062 142.5,14.5 Z"/></g>
<g><path style="opacity:1" fill="#269b9b" d="M 142.5,15.5 C 145.545,15.5079 148.545,15.8413 151.5,16.5C 159.718,18.1066 166.051,22.44 170.5,29.5C 170.167,30.5 169.5,31.1667 168.5,31.5C 168.167,31.5 167.833,31.5 167.5,31.5C 162.012,22.0888 154.012,18.0888 143.5,19.5C 143.443,20.609 143.11,21.609 142.5,22.5C 139.994,23.7496 137.327,24.4162 134.5,24.5C 139.25,23.4133 141.917,20.4133 142.5,15.5 Z"/></g>
<g><path style="opacity:1" fill="#315ca6" d="M 151.5,16.5 C 154.381,16.4956 157.381,16.1622 160.5,15.5C 162.284,15.8925 163.95,16.5592 165.5,17.5C 169.833,19.8333 173.167,23.1667 175.5,27.5C 174.07,28.5375 172.403,29.2041 170.5,29.5C 166.051,22.44 159.718,18.1066 151.5,16.5 Z"/></g>
<g><path style="opacity:1" fill="#6ccbad" d="M 143.5,19.5 C 149.205,19.4016 154.205,21.0682 158.5,24.5C 157.759,28.172 156.593,31.8387 155,35.5C 152.944,37.3188 150.777,37.9855 148.5,37.5C 143.647,39.9352 138.147,40.9352 132,40.5C 127.019,40.653 122.185,39.9863 117.5,38.5C 117.5,37.5 117.5,36.5 117.5,35.5C 118.404,34.791 118.737,33.791 118.5,32.5C 119.93,32.4208 121.264,32.7542 122.5,33.5C 123.176,32.3984 123.842,31.3984 124.5,30.5C 124.5,31.1667 124.5,31.8333 124.5,32.5C 124.286,34.1439 124.62,35.6439 125.5,37C 131.558,37.7392 137.558,37.4059 143.5,36C 148.803,35.3816 150.97,32.5482 150,27.5C 149.617,26.944 149.117,26.6107 148.5,26.5C 147.147,24.2621 145.147,22.9287 142.5,22.5C 143.11,21.609 143.443,20.609 143.5,19.5 Z"/></g>
<g><path style="opacity:1" fill="#9ad1b2" d="M 142.5,22.5 C 145.147,22.9287 147.147,24.2621 148.5,26.5C 141.419,31.8764 133.419,33.8764 124.5,32.5C 124.5,31.8333 124.5,31.1667 124.5,30.5C 125.441,28.2279 126.774,26.2279 128.5,24.5C 130.5,24.5 132.5,24.5 134.5,24.5C 137.327,24.4162 139.994,23.7496 142.5,22.5 Z"/></g>
<g><path style="opacity:1" fill="#9bd6af" d="M 148.5,26.5 C 149.117,26.6107 149.617,26.944 150,27.5C 150.97,32.5482 148.803,35.3816 143.5,36C 137.558,37.4059 131.558,37.7392 125.5,37C 124.62,35.6439 124.286,34.1439 124.5,32.5C 133.419,33.8764 141.419,31.8764 148.5,26.5 Z"/></g>
<g><path style="opacity:1" fill="#4089c0" d="M 221.5,35.5 C 221.5,38.1667 221.5,40.8333 221.5,43.5C 220.687,45.2608 219.687,46.9275 218.5,48.5C 217.722,47.8444 217.056,47.0111 216.5,46C 218.894,42.5974 219.06,39.0974 217,35.5C 216.667,36.1667 216.333,36.8333 216,37.5C 215.667,35.1667 215.333,32.8333 215,30.5C 214,41.1667 213,41.1667 212,30.5C 211.346,29.3044 210.846,29.3044 210.5,30.5C 211.738,33.1655 211.738,35.8322 210.5,38.5C 209.199,36.556 208.199,34.556 207.5,32.5C 207.376,27.453 209.709,25.6197 214.5,27C 216.317,28.7998 217.484,30.9664 218,33.5C 219.113,34.305 220.279,34.9717 221.5,35.5 Z"/></g>
<g><path style="opacity:1" fill="#66c6b3" d="M 122.5,16.5 C 122.5,16.8333 122.5,17.1667 122.5,17.5C 122.41,21.6645 124.41,23.9979 128.5,24.5C 126.774,26.2279 125.441,28.2279 124.5,30.5C 123.842,31.3984 123.176,32.3984 122.5,33.5C 121.264,32.7542 119.93,32.4208 118.5,32.5C 118.737,33.791 118.404,34.791 117.5,35.5C 116.518,38.9619 116.185,42.6286 116.5,46.5C 115.075,44.9689 114.409,45.3023 114.5,47.5C 111.432,35.7013 114.099,25.368 122.5,16.5 Z"/></g>
<g><path style="opacity:1" fill="#f63dd9" d="M 184.5,19.5 C 185.791,19.2627 186.791,19.596 187.5,20.5C 186.952,22.3936 185.952,24.0603 184.5,25.5C 180.418,28.2914 176.251,30.9581 172,33.5C 171.51,34.7932 171.343,36.1266 171.5,37.5C 170.652,38.625 169.652,38.625 168.5,37.5C 168.5,35.5 168.5,33.5 168.5,31.5C 169.5,31.1667 170.167,30.5 170.5,29.5C 172.403,29.2041 174.07,28.5375 175.5,27.5C 175.833,27.5 176.167,27.5 176.5,27.5C 180.188,25.8116 182.855,23.145 184.5,19.5 Z"/></g>
<g><path style="opacity:1" fill="#ef9105" d="M 85.5,32.5 C 84.5,33.1667 83.5,33.8333 82.5,34.5C 81.5386,32.7354 81.2053,30.7354 81.5,28.5C 84.5,28.1667 85.8333,29.5 85.5,32.5 Z"/></g>
<g><path style="opacity:1" fill="#6bcfaa" d="M 158.5,24.5 C 161.392,27.8968 162.226,31.8968 161,36.5C 158.318,38.585 155.484,40.2517 152.5,41.5C 144.384,43.0225 136.217,44.3558 128,45.5C 125.044,45.0531 122.211,44.2197 119.5,43C 118.418,41.6703 117.751,40.1703 117.5,38.5C 122.185,39.9863 127.019,40.653 132,40.5C 138.147,40.9352 143.647,39.9352 148.5,37.5C 150.777,37.9855 152.944,37.3188 155,35.5C 156.593,31.8387 157.759,28.172 158.5,24.5 Z"/></g>
<g><path style="opacity:1" fill="#c62094" d="M 187.5,20.5 C 188.5,20.8333 189.167,21.5 189.5,22.5C 188.976,34.0213 182.976,39.0213 171.5,37.5C 171.343,36.1266 171.51,34.7932 172,33.5C 176.251,30.9581 180.418,28.2914 184.5,25.5C 185.952,24.0603 186.952,22.3936 187.5,20.5 Z"/></g>
<g><path style="opacity:1" fill="#dd5890" d="M 96.5,72.5 C 97.4345,73.5676 97.7678,74.901 97.5,76.5C 95.066,79.4376 92.3993,82.2709 89.5,85C 87.5979,86.3011 85.5979,86.9678 83.5,87C 86.3333,85.5 88.5,83.3333 90,80.5C 90.7892,74.6824 90.2892,69.0158 88.5,63.5C 88.4403,60.6592 87.7736,57.9925 86.5,55.5C 85.8303,52.3271 84.6636,49.3271 83,46.5C 81.2111,44.771 79.0444,44.1043 76.5,44.5C 76.5,43.5 76.5,42.5 76.5,41.5C 79.2668,40.9493 81.6001,39.6159 83.5,37.5C 86.975,48.0649 90.1417,58.7315 93,69.5C 93.8147,71.6228 94.8147,73.6228 96,75.5C 96.4828,74.552 96.6495,73.552 96.5,72.5 Z"/></g>
<g><path style="opacity:1" fill="#28c3a4" d="M 143.5,19.5 C 154.012,18.0888 162.012,22.0888 167.5,31.5C 163.275,41.2106 155.941,47.7106 145.5,51C 137.353,53.0517 129.353,52.885 121.5,50.5C 126.926,50.5382 132.593,50.3715 138.5,50C 143.776,47.7734 148.776,45.1068 153.5,42C 153.272,41.6012 152.938,41.4346 152.5,41.5C 155.484,40.2517 158.318,38.585 161,36.5C 162.226,31.8968 161.392,27.8968 158.5,24.5C 154.205,21.0682 149.205,19.4016 143.5,19.5 Z"/></g>
<g><path style="opacity:1" fill="#962389" d="M 189.5,22.5 C 191.894,24.3318 192.894,26.8318 192.5,30C 192.749,33.3235 191.749,36.1568 189.5,38.5C 185.68,40.4116 181.68,41.745 177.5,42.5C 176.167,42.5 174.833,42.5 173.5,42.5C 171.938,42.2671 170.605,41.6005 169.5,40.5C 168.89,39.609 168.557,38.609 168.5,37.5C 169.652,38.625 170.652,38.625 171.5,37.5C 182.976,39.0213 188.976,34.0213 189.5,22.5 Z"/></g>
<g><path style="opacity:1" fill="#29c5aa" d="M 117.5,35.5 C 117.5,36.5 117.5,37.5 117.5,38.5C 117.751,40.1703 118.418,41.6703 119.5,43C 122.211,44.2197 125.044,45.0531 128,45.5C 136.217,44.3558 144.384,43.0225 152.5,41.5C 152.938,41.4346 153.272,41.6012 153.5,42C 148.776,45.1068 143.776,47.7734 138.5,50C 132.593,50.3715 126.926,50.5382 121.5,50.5C 119.611,49.396 117.945,48.0627 116.5,46.5C 116.185,42.6286 116.518,38.9619 117.5,35.5 Z"/></g>
<g><path style="opacity:0.953" fill="#d39899" d="M 189.5,38.5 C 187.945,46.9438 184.278,54.2771 178.5,60.5C 176.668,61.2485 175.001,62.2485 173.5,63.5C 172.761,63.631 172.094,63.4643 171.5,63C 173.98,62.0846 174.647,60.5846 173.5,58.5C 176.167,54.1667 178.833,49.8333 181.5,45.5C 180.311,44.5713 178.978,44.238 177.5,44.5C 177.5,43.8333 177.5,43.1667 177.5,42.5C 181.68,41.745 185.68,40.4116 189.5,38.5 Z"/></g>
<g><path style="opacity:1" fill="#3872b6" d="M 207.5,33.5 C 207.682,35.5914 207.348,37.5914 206.5,39.5C 208.444,41.28 209.777,43.4467 210.5,46C 207.865,49.3656 205.698,48.8656 204,44.5C 203.601,44.7284 203.435,45.0618 203.5,45.5C 202.521,42.3752 202.187,39.0419 202.5,35.5C 203.822,35.33 204.989,35.6634 206,36.5C 206.232,35.2625 206.732,34.2625 207.5,33.5 Z"/></g>
<g><path style="opacity:0.935" fill="#f70e77" d="M 53.5,43.5 C 53.3048,47.3778 53.3048,51.0444 53.5,54.5C 48.8333,53.1667 44.1667,53.1667 39.5,54.5C 38.5206,51.3752 38.1872,48.0419 38.5,44.5C 43.3054,43.5128 48.3054,43.1795 53.5,43.5 Z"/></g>
<g><path style="opacity:1" fill="#fd4a74" d="M 38.5,44.5 C 38.1872,48.0419 38.5206,51.3752 39.5,54.5C 36.8103,56.1935 34.8103,58.5268 33.5,61.5C 32.8333,62.8333 32.1667,64.1667 31.5,65.5C 31.6659,60.4889 31.4993,55.4889 31,50.5C 30.6924,49.6919 30.1924,49.0253 29.5,48.5C 28.1401,49.1799 26.8068,49.8466 25.5,50.5C 25.1575,48.7748 24.1575,48.2748 22.5,49C 18.4758,50.6743 14.8092,52.841 11.5,55.5C 11.5,54.8333 11.1667,54.5 10.5,54.5C 18.3512,47.4354 27.6846,44.102 38.5,44.5 Z"/></g>
<g><path style="opacity:1" fill="#ed5b84" d="M 76.5,39.5 C 76.5,40.1667 76.5,40.8333 76.5,41.5C 76.5,42.5 76.5,43.5 76.5,44.5C 76.5,44.8333 76.5,45.1667 76.5,45.5C 74.8326,52.8131 73.1659,60.1465 71.5,67.5C 72.0253,68.1924 72.6919,68.6924 73.5,69C 72.7362,71.0693 72.2362,73.236 72,75.5C 71.6174,76.056 71.1174,76.3893 70.5,76.5C 70.7204,73.5995 70.0538,70.9329 68.5,68.5C 67.2613,68.9424 66.2613,69.6091 65.5,70.5C 64.448,70.6495 63.448,70.4828 62.5,70C 64.7463,68.9605 66.913,67.7938 69,66.5C 69.4955,64.5273 69.6621,62.5273 69.5,60.5C 66.2118,60.0156 63.5452,61.0156 61.5,63.5C 60.8333,62.8333 60.1667,62.1667 59.5,61.5C 59.5,60.8333 59.5,60.1667 59.5,59.5C 64.7807,59.6848 67.4474,57.0181 67.5,51.5C 64.786,51.75 62.1194,51.9167 59.5,52C 62.3508,50.7114 65.3508,50.2114 68.5,50.5C 68.5,47.8333 68.5,45.1667 68.5,42.5C 71.1667,41.5 73.8333,40.5 76.5,39.5 Z"/></g>
<g><path style="opacity:1" fill="#e5558b" d="M 76.5,45.5 C 76.8056,55.1942 77.4723,64.8608 78.5,74.5C 78.5,77.5 78.5,80.5 78.5,83.5C 78.5,85.1667 78.5,86.8333 78.5,88.5C 76.0799,88.2924 73.7466,88.6258 71.5,89.5C 70.5481,87.9547 70.2148,86.288 70.5,84.5C 70.5,81.8333 70.5,79.1667 70.5,76.5C 71.1174,76.3893 71.6174,76.056 72,75.5C 72.2362,73.236 72.7362,71.0693 73.5,69C 72.6919,68.6924 72.0253,68.1924 71.5,67.5C 73.1659,60.1465 74.8326,52.8131 76.5,45.5 Z"/></g>
<g><path style="opacity:1" fill="#d41b8a" d="M 76.5,44.5 C 79.0444,44.1043 81.2111,44.771 83,46.5C 84.6636,49.3271 85.8303,52.3271 86.5,55.5C 85.8826,55.3893 85.3826,55.056 85,54.5C 84.3025,61.757 82.1358,68.4237 78.5,74.5C 77.4723,64.8608 76.8056,55.1942 76.5,45.5C 76.5,45.1667 76.5,44.8333 76.5,44.5 Z"/></g>
<g><path style="opacity:1" fill="#16b185" d="M 167.5,31.5 C 167.833,31.5 168.167,31.5 168.5,31.5C 168.5,33.5 168.5,35.5 168.5,37.5C 168.557,38.609 168.89,39.609 169.5,40.5C 169.872,47.0834 167.539,52.4168 162.5,56.5C 163.39,54.2181 163.556,51.8848 163,49.5C 162.275,48.9415 161.442,48.6082 160.5,48.5C 155.726,50.0531 151.06,51.8865 146.5,54C 141.857,54.8304 137.19,55.4971 132.5,56C 130.185,58.4755 130.518,60.8089 133.5,63C 136.107,65.1049 139.107,65.9383 142.5,65.5C 142.5,65.8333 142.5,66.1667 142.5,66.5C 136.165,67.1436 130.165,66.1436 124.5,63.5C 119.151,59.4769 115.818,54.1436 114.5,47.5C 114.409,45.3023 115.075,44.9689 116.5,46.5C 117.945,48.0627 119.611,49.396 121.5,50.5C 129.353,52.885 137.353,53.0517 145.5,51C 155.941,47.7106 163.275,41.2106 167.5,31.5 Z"/></g>
<g><path style="opacity:1" fill="#24449e" d="M 218.5,48.5 C 217.559,50.7721 216.226,52.7721 214.5,54.5C 214.725,56.7159 213.892,58.3826 212,59.5C 211.909,54.9209 209.743,51.9209 205.5,50.5C 204.559,48.9505 203.893,47.2838 203.5,45.5C 203.435,45.0618 203.601,44.7284 204,44.5C 205.698,48.8656 207.865,49.3656 210.5,46C 209.777,43.4467 208.444,41.28 206.5,39.5C 207.348,37.5914 207.682,35.5914 207.5,33.5C 207.5,33.1667 207.5,32.8333 207.5,32.5C 208.199,34.556 209.199,36.556 210.5,38.5C 211.738,35.8322 211.738,33.1655 210.5,30.5C 210.846,29.3044 211.346,29.3044 212,30.5C 213,41.1667 214,41.1667 215,30.5C 215.333,32.8333 215.667,35.1667 216,37.5C 216.333,36.8333 216.667,36.1667 217,35.5C 219.06,39.0974 218.894,42.5974 216.5,46C 217.056,47.0111 217.722,47.8444 218.5,48.5 Z"/></g>
<g><path style="opacity:1" fill="#56c480" d="M 162.5,56.5 C 157.145,62.1734 150.478,65.1734 142.5,65.5C 139.107,65.9383 136.107,65.1049 133.5,63C 130.518,60.8089 130.185,58.4755 132.5,56C 137.19,55.4971 141.857,54.8304 146.5,54C 151.06,51.8865 155.726,50.0531 160.5,48.5C 161.442,48.6082 162.275,48.9415 163,49.5C 163.556,51.8848 163.39,54.2181 162.5,56.5 Z"/></g>
<g><path style="opacity:1" fill="#fd827a" d="M 25.5,50.5 C 22.0443,55.3936 21.5443,60.7269 24,66.5C 24.5,67.6667 25.3333,68.5 26.5,69C 24.9529,71.9314 25.4529,74.4314 28,76.5C 29.3506,74.9818 30.8506,73.6485 32.5,72.5C 33.4408,74.0495 34.1075,75.7162 34.5,77.5C 29.9723,76.7209 27.3056,78.5542 26.5,83C 26.8198,84.6532 27.8198,85.6532 29.5,86C 28.0715,86.5791 26.7382,86.4124 25.5,85.5C 24.7724,82.9205 24.2724,80.2538 24,77.5C 21.4438,76.7809 20.2771,75.1142 20.5,72.5C 21.5611,68.5523 20.7278,64.8856 18,61.5C 16.2111,59.771 14.0444,59.1043 11.5,59.5C 11.5,58.5 11.5,57.5 11.5,56.5C 11.5,56.1667 11.5,55.8333 11.5,55.5C 14.8092,52.841 18.4758,50.6743 22.5,49C 24.1575,48.2748 25.1575,48.7748 25.5,50.5 Z"/></g>
<g><path style="opacity:1" fill="#eb157f" d="M 68.5,42.5 C 68.5,45.1667 68.5,47.8333 68.5,50.5C 65.3508,50.2114 62.3508,50.7114 59.5,52C 62.1194,51.9167 64.786,51.75 67.5,51.5C 67.4474,57.0181 64.7807,59.6848 59.5,59.5C 58.1667,58.5 56.8333,57.5 55.5,56.5C 55.5,55.1667 54.8333,54.5 53.5,54.5C 53.3048,51.0444 53.3048,47.3778 53.5,43.5C 58.547,43.6625 63.547,43.3292 68.5,42.5 Z"/></g>
<g><path style="opacity:1" fill="#ca2d87" d="M 85.5,32.5 C 89.7687,45.5653 93.4354,58.8986 96.5,72.5C 96.6495,73.552 96.4828,74.552 96,75.5C 94.8147,73.6228 93.8147,71.6228 93,69.5C 90.1417,58.7315 86.975,48.0649 83.5,37.5C 81.6001,39.6159 79.2668,40.9493 76.5,41.5C 76.5,40.8333 76.5,40.1667 76.5,39.5C 78.5,37.8333 80.5,36.1667 82.5,34.5C 83.5,33.8333 84.5,33.1667 85.5,32.5 Z"/></g>
<g><path style="opacity:1" fill="#cb1d8e" d="M 86.5,55.5 C 87.7736,57.9925 88.4403,60.6592 88.5,63.5C 86.2368,70.6932 82.9034,77.3598 78.5,83.5C 78.5,80.5 78.5,77.5 78.5,74.5C 82.1358,68.4237 84.3025,61.757 85,54.5C 85.3826,55.056 85.8826,55.3893 86.5,55.5 Z"/></g>
<g><path style="opacity:1" fill="#0a7a59" d="M 169.5,40.5 C 170.605,41.6005 171.938,42.2671 173.5,42.5C 169.165,57.4954 159.165,65.4954 143.5,66.5C 143.167,66.5 142.833,66.5 142.5,66.5C 142.5,66.1667 142.5,65.8333 142.5,65.5C 150.478,65.1734 157.145,62.1734 162.5,56.5C 167.539,52.4168 169.872,47.0834 169.5,40.5 Z"/></g>
<g><path style="opacity:1" fill="#fcd601" d="M 53.5,54.5 C 54.8333,54.5 55.5,55.1667 55.5,56.5C 56.1667,61.8333 53.8333,64.1667 48.5,63.5C 48.5,61.8333 48.5,60.1667 48.5,58.5C 45.2084,58.1196 42.8751,59.4529 41.5,62.5C 43.2012,62.1896 44.8678,62.6896 46.5,64C 44.3395,64.9959 42.6728,66.4959 41.5,68.5C 40.8333,68.5 40.1667,68.5 39.5,68.5C 34.984,68.5193 32.984,66.186 33.5,61.5C 34.8103,58.5268 36.8103,56.1935 39.5,54.5C 44.1667,53.1667 48.8333,53.1667 53.5,54.5 Z"/></g>
<g><path style="opacity:1" fill="#d5a8a4" d="M 177.5,44.5 C 178.978,44.238 180.311,44.5713 181.5,45.5C 178.833,49.8333 176.167,54.1667 173.5,58.5C 174.647,60.5846 173.98,62.0846 171.5,63C 172.094,63.4643 172.761,63.631 173.5,63.5C 163.674,70.3724 152.674,73.0391 140.5,71.5C 137.603,70.871 134.936,69.871 132.5,68.5C 133.167,68.5 133.833,68.5 134.5,68.5C 149.767,70.2469 162.6,65.5803 173,54.5C 175.318,51.531 176.818,48.1977 177.5,44.5 Z"/></g>
<g><path style="opacity:1" fill="#3e3d90" d="M 205.5,50.5 C 209.743,51.9209 211.909,54.9209 212,59.5C 213.892,58.3826 214.725,56.7159 214.5,54.5C 215.435,59.5446 214.769,64.5446 212.5,69.5C 208.064,69.9681 204.064,68.9681 200.5,66.5C 200.34,64.847 199.674,63.5137 198.5,62.5C 202.478,59.5082 204.811,55.5082 205.5,50.5 Z"/></g>
<g><path style="opacity:1" fill="#fa4e7a" d="M 11.5,56.5 C 11.5,57.5 11.5,58.5 11.5,59.5C 14.0444,59.1043 16.2111,59.771 18,61.5C 20.7278,64.8856 21.5611,68.5523 20.5,72.5C 19.7354,72.9234 18.9021,73.2568 18,73.5C 16.1997,72.6805 14.3664,72.0138 12.5,71.5C 11.5184,68.0381 11.185,64.3714 11.5,60.5C 9.77414,60.8146 8.10747,60.9813 6.5,61C 8.03748,59.2927 9.70415,57.7927 11.5,56.5 Z"/></g>
<g><path style="opacity:0.966" fill="#f1107d" d="M 10.5,54.5 C 11.1667,54.5 11.5,54.8333 11.5,55.5C 11.5,55.8333 11.5,56.1667 11.5,56.5C 9.70415,57.7927 8.03748,59.2927 6.5,61C 8.10747,60.9813 9.77414,60.8146 11.5,60.5C 11.185,64.3714 11.5184,68.0381 12.5,71.5C 12.5,75.8333 12.5,80.1667 12.5,84.5C 11.8343,81.9723 11.1676,79.3056 10.5,76.5C 6.52363,73.8549 2.85697,70.8549 -0.5,67.5C -0.5,67.1667 -0.5,66.8333 -0.5,66.5C 2.42932,61.9006 6.09598,57.9006 10.5,54.5 Z"/></g>
<g><path style="opacity:1" fill="#f2a100" d="M 55.5,56.5 C 56.8333,57.5 58.1667,58.5 59.5,59.5C 59.5,60.1667 59.5,60.8333 59.5,61.5C 56.7131,63.2049 57.0465,64.3716 60.5,65C 59.6266,66.045 58.6266,66.8783 57.5,67.5C 56.8333,67.8333 56.1667,68.1667 55.5,68.5C 51.9165,67.0072 49.5832,68.3405 48.5,72.5C 46.6187,70.2663 44.2853,68.933 41.5,68.5C 42.6728,66.4959 44.3395,64.9959 46.5,64C 44.8678,62.6896 43.2012,62.1896 41.5,62.5C 42.8751,59.4529 45.2084,58.1196 48.5,58.5C 48.5,60.1667 48.5,61.8333 48.5,63.5C 53.8333,64.1667 56.1667,61.8333 55.5,56.5 Z"/></g>
<g><path style="opacity:1" fill="#e97307" d="M 59.5,61.5 C 60.1667,62.1667 60.8333,62.8333 61.5,63.5C 61.5,65.8333 61.5,68.1667 61.5,70.5C 58.8255,71.3396 56.1589,71.8396 53.5,72C 55.1918,70.6927 56.5251,69.1927 57.5,67.5C 58.6266,66.8783 59.6266,66.045 60.5,65C 57.0465,64.3716 56.7131,63.2049 59.5,61.5 Z"/></g>
<g><path style="opacity:1" fill="#2f5d7d" d="M 124.5,63.5 C 130.165,66.1436 136.165,67.1436 142.5,66.5C 142.833,66.5 143.167,66.5 143.5,66.5C 140.5,67.1667 137.5,67.8333 134.5,68.5C 133.833,68.5 133.167,68.5 132.5,68.5C 129.489,67.3307 126.822,65.664 124.5,63.5 Z"/></g>
<g><path style="opacity:0.981" fill="#e6c5b9" d="M 177.5,66.5 C 179.142,68.0808 181.142,68.7475 183.5,68.5C 183.372,72.8814 183.705,77.2147 184.5,81.5C 183.5,81.5 182.5,81.5 181.5,81.5C 180.21,80.9423 179.377,79.9423 179,78.5C 178.667,76.5 178.333,74.5 178,72.5C 177.459,78.6634 176.125,78.9967 174,73.5C 172.276,76.7363 172.11,80.0697 173.5,83.5C 171.86,80.5122 171.026,77.1789 171,73.5C 168.036,75.7258 164.87,76.0591 161.5,74.5C 167.073,72.38 172.407,69.7133 177.5,66.5 Z"/></g>
<g><path style="opacity:1" fill="#f92c79" d="M 31.5,65.5 C 31.448,67.9029 31.7814,70.2362 32.5,72.5C 30.8506,73.6485 29.3506,74.9818 28,76.5C 25.4529,74.4314 24.9529,71.9314 26.5,69C 25.3333,68.5 24.5,67.6667 24,66.5C 21.5443,60.7269 22.0443,55.3936 25.5,50.5C 26.8068,49.8466 28.1401,49.1799 29.5,48.5C 30.1924,49.0253 30.6924,49.6919 31,50.5C 31.4993,55.4889 31.6659,60.4889 31.5,65.5 Z"/></g>
<g><path style="opacity:1" fill="#c02692" d="M 88.5,63.5 C 90.2892,69.0158 90.7892,74.6824 90,80.5C 88.5,83.3333 86.3333,85.5 83.5,87C 85.5979,86.9678 87.5979,86.3011 89.5,85C 92.3993,82.2709 95.066,79.4376 97.5,76.5C 98.404,77.209 98.7373,78.209 98.5,79.5C 97.075,80.922 96.075,82.5887 95.5,84.5C 90.6036,88.5799 84.937,90.9132 78.5,91.5C 78.5,90.5 78.5,89.5 78.5,88.5C 78.5,86.8333 78.5,85.1667 78.5,83.5C 82.9034,77.3598 86.2368,70.6932 88.5,63.5 Z"/></g>
<g><path style="opacity:1" fill="#372e82" d="M 173.5,42.5 C 174.833,42.5 176.167,42.5 177.5,42.5C 177.5,43.1667 177.5,43.8333 177.5,44.5C 176.818,48.1977 175.318,51.531 173,54.5C 162.6,65.5803 149.767,70.2469 134.5,68.5C 137.5,67.8333 140.5,67.1667 143.5,66.5C 159.165,65.4954 169.165,57.4954 173.5,42.5 Z"/></g>
<g><path style="opacity:1" fill="#dd1786" d="M 70.5,76.5 C 70.5,79.1667 70.5,81.8333 70.5,84.5C 69.71,83.3915 69.21,82.0581 69,80.5C 65.6365,85.0285 61.8031,89.0285 57.5,92.5C 51.4908,92.3338 45.4908,92.5005 39.5,93C 35.1822,93.8258 31.1822,95.3258 27.5,97.5C 27.5,96.8333 27.5,96.1667 27.5,95.5C 28.0577,94.2101 29.0577,93.3768 30.5,93C 33.7769,91.8566 37.1102,91.0233 40.5,90.5C 51.2075,86.7917 59.5408,80.125 65.5,70.5C 66.2613,69.6091 67.2613,68.9424 68.5,68.5C 70.0538,70.9329 70.7204,73.5995 70.5,76.5 Z"/></g>
<g><path style="opacity:1" fill="#eda328" d="M 183.5,68.5 C 184.167,68.5 184.833,68.5 185.5,68.5C 184.859,73.5693 186.192,77.9027 189.5,81.5C 190.984,83.0737 192.651,84.407 194.5,85.5C 194.158,86.3382 193.492,86.6716 192.5,86.5C 189.525,85.3449 186.858,83.6782 184.5,81.5C 183.705,77.2147 183.372,72.8814 183.5,68.5 Z"/></g>
<g><path style="opacity:1" fill="#e52083" d="M 65.5,70.5 C 59.5408,80.125 51.2075,86.7917 40.5,90.5C 37.4115,89.2154 34.0781,88.5488 30.5,88.5C 30.5,87.5 30.5,86.5 30.5,85.5C 33.9122,84.9579 36.9122,83.6246 39.5,81.5C 48.7292,84.3172 55.7292,81.6505 60.5,73.5C 60.5569,72.391 60.8902,71.391 61.5,70.5C 61.5,68.1667 61.5,65.8333 61.5,63.5C 63.5452,61.0156 66.2118,60.0156 69.5,60.5C 69.6621,62.5273 69.4955,64.5273 69,66.5C 66.913,67.7938 64.7463,68.9605 62.5,70C 63.448,70.4828 64.448,70.6495 65.5,70.5 Z"/></g>
<g><path style="opacity:1" fill="#ba7b40" d="M 200.5,66.5 C 204.064,68.9681 208.064,69.9681 212.5,69.5C 212.167,70.1667 211.833,70.8333 211.5,71.5C 207.805,71.6498 204.472,70.6498 201.5,68.5C 200.662,68.1583 200.328,67.4916 200.5,66.5 Z"/></g>
<g><path style="opacity:1" fill="#efcabb" d="M 198.5,62.5 C 199.674,63.5137 200.34,64.847 200.5,66.5C 200.328,67.4916 200.662,68.1583 201.5,68.5C 201.657,69.8734 201.49,71.2068 201,72.5C 197.44,76.1554 193.607,79.1554 189.5,81.5C 186.192,77.9027 184.859,73.5693 185.5,68.5C 190.122,67.285 194.455,65.285 198.5,62.5 Z"/></g>
<g><path style="opacity:1" fill="#f6ad05" d="M 33.5,61.5 C 32.984,66.186 34.984,68.5193 39.5,68.5C 39.5,70.8333 39.5,73.1667 39.5,75.5C 46.0784,75.8626 51.4117,73.5293 55.5,68.5C 56.1667,68.1667 56.8333,67.8333 57.5,67.5C 56.5251,69.1927 55.1918,70.6927 53.5,72C 56.1589,71.8396 58.8255,71.3396 61.5,70.5C 60.8902,71.391 60.5569,72.391 60.5,73.5C 54.0802,72.9998 48.4135,74.9998 43.5,79.5C 42.707,78.6446 43.0403,77.8113 44.5,77C 41.5248,76.9565 38.5248,77.1231 35.5,77.5C 35.1667,77.5 34.8333,77.5 34.5,77.5C 34.1075,75.7162 33.4408,74.0495 32.5,72.5C 31.7814,70.2362 31.448,67.9029 31.5,65.5C 32.1667,64.1667 32.8333,62.8333 33.5,61.5 Z"/></g>
<g><path style="opacity:1" fill="#e77100" d="M 55.5,68.5 C 51.4117,73.5293 46.0784,75.8626 39.5,75.5C 39.5,73.1667 39.5,70.8333 39.5,68.5C 40.1667,68.5 40.8333,68.5 41.5,68.5C 44.2853,68.933 46.6187,70.2663 48.5,72.5C 49.5832,68.3405 51.9165,67.0072 55.5,68.5 Z"/></g>
<g><path style="opacity:1" fill="#e3bab4" d="M 181.5,81.5 C 181.286,83.1439 181.62,84.6439 182.5,86C 181.672,86.9147 180.672,87.5814 179.5,88C 180.5,89 181.5,90 182.5,91C 181.167,91.6667 181.167,92.3333 182.5,93C 180.959,94.3712 179.625,95.8712 178.5,97.5C 176.856,92.9073 175.19,88.2406 173.5,83.5C 172.11,80.0697 172.276,76.7363 174,73.5C 176.125,78.9967 177.459,78.6634 178,72.5C 178.333,74.5 178.667,76.5 179,78.5C 179.377,79.9423 180.21,80.9423 181.5,81.5 Z"/></g>
<g><path style="opacity:1" fill="#d7a6a3" d="M 201.5,68.5 C 204.472,70.6498 207.805,71.6498 211.5,71.5C 207.211,77.8151 201.544,82.4817 194.5,85.5C 192.651,84.407 190.984,83.0737 189.5,81.5C 193.607,79.1554 197.44,76.1554 201,72.5C 201.49,71.2068 201.657,69.8734 201.5,68.5 Z"/></g>
<g><path style="opacity:1" fill="#309ace" d="M 178.5,60.5 C 178.483,62.5648 178.15,64.5648 177.5,66.5C 172.407,69.7133 167.073,72.38 161.5,74.5C 160.5,74.5 159.5,74.5 158.5,74.5C 156.978,77.7113 155.645,81.2113 154.5,85C 155.536,88.1208 155.703,91.2875 155,94.5C 154.79,92.9419 154.29,91.6085 153.5,90.5C 152.608,85.5624 152.274,80.5624 152.5,75.5C 150.167,75.5 147.833,75.5 145.5,75.5C 143.716,75.1075 142.05,74.4408 140.5,73.5C 140.5,72.8333 140.5,72.1667 140.5,71.5C 152.674,73.0391 163.674,70.3724 173.5,63.5C 175.001,62.2485 176.668,61.2485 178.5,60.5 Z"/></g>
<g><path style="opacity:0.935" fill="#e01585" d="M -0.5,67.5 C 2.85697,70.8549 6.52363,73.8549 10.5,76.5C 11.1676,79.3056 11.8343,81.9723 12.5,84.5C 12.3339,90.1764 12.5006,95.8431 13,101.5C 13.2778,104.721 14.1111,107.721 15.5,110.5C 14.9524,112.394 13.9524,114.06 12.5,115.5C 12.1667,115 11.8333,114.5 11.5,114C 7.70718,99.3166 3.70718,84.8166 -0.5,70.5C -0.5,69.5 -0.5,68.5 -0.5,67.5 Z"/></g>
<g><path style="opacity:1" fill="#e97405" d="M 60.5,73.5 C 55.7292,81.6505 48.7292,84.3172 39.5,81.5C 38.1667,80.1667 36.8333,78.8333 35.5,77.5C 38.5248,77.1231 41.5248,76.9565 44.5,77C 43.0403,77.8113 42.707,78.6446 43.5,79.5C 48.4135,74.9998 54.0802,72.9998 60.5,73.5 Z"/></g>
<g><path style="opacity:1" fill="#f7e7cf" d="M 173.5,83.5 C 175.19,88.2406 176.856,92.9073 178.5,97.5C 178.802,100.059 178.468,102.393 177.5,104.5C 175.833,105.167 174.167,105.833 172.5,106.5C 173.508,96.5232 169.175,90.5232 159.5,88.5C 158.559,83.9296 158.226,79.263 158.5,74.5C 159.5,74.5 160.5,74.5 161.5,74.5C 164.87,76.0591 168.036,75.7258 171,73.5C 171.026,77.1789 171.86,80.5122 173.5,83.5 Z"/></g>
<g><path style="opacity:0.926" fill="#d2228d" d="M 70.5,84.5 C 70.2148,86.288 70.5481,87.9547 71.5,89.5C 73.7466,88.6258 76.0799,88.2924 78.5,88.5C 78.5,89.5 78.5,90.5 78.5,91.5C 73.3507,92.458 68.0173,93.1246 62.5,93.5C 60.6307,93.4932 58.964,93.1599 57.5,92.5C 61.8031,89.0285 65.6365,85.0285 69,80.5C 69.21,82.0581 69.71,83.3915 70.5,84.5 Z"/></g>
<g><path style="opacity:1" fill="#f7e6d0" d="M 145.5,75.5 C 147.833,75.5 150.167,75.5 152.5,75.5C 152.274,80.5624 152.608,85.5624 153.5,90.5C 153.942,94.1545 154.276,97.8212 154.5,101.5C 151.245,96.6505 148.745,91.3172 147,85.5C 146.503,88.146 146.336,90.8127 146.5,93.5C 145.51,87.69 145.177,81.69 145.5,75.5 Z"/></g>
<g><path style="opacity:0.984" fill="#e2b6b1" d="M 181.5,81.5 C 182.5,81.5 183.5,81.5 184.5,81.5C 186.858,83.6782 189.525,85.3449 192.5,86.5C 186.674,88.6675 186.007,92.0009 190.5,96.5C 189.652,98.4086 189.318,100.409 189.5,102.5C 188.31,104.355 186.977,106.188 185.5,108C 184.552,108.483 183.552,108.649 182.5,108.5C 183.399,103.549 182.065,102.549 178.5,105.5C 177.893,105.376 177.56,105.043 177.5,104.5C 178.468,102.393 178.802,100.059 178.5,97.5C 179.625,95.8712 180.959,94.3712 182.5,93C 181.167,92.3333 181.167,91.6667 182.5,91C 181.5,90 180.5,89 179.5,88C 180.672,87.5814 181.672,86.9147 182.5,86C 181.62,84.6439 181.286,83.1439 181.5,81.5 Z"/></g>
<g><path style="opacity:1" fill="#ee5084" d="M 12.5,71.5 C 14.3664,72.0138 16.1997,72.6805 18,73.5C 18.9021,73.2568 19.7354,72.9234 20.5,72.5C 20.2771,75.1142 21.4438,76.7809 24,77.5C 24.2724,80.2538 24.7724,82.9205 25.5,85.5C 25.4208,86.9305 25.7542,88.2638 26.5,89.5C 22.4042,93.0382 19.9042,97.3715 19,102.5C 21.4356,99.5532 24.2689,97.2199 27.5,95.5C 27.5,96.1667 27.5,96.8333 27.5,97.5C 23.2766,101.602 19.2766,105.935 15.5,110.5C 14.1111,107.721 13.2778,104.721 13,101.5C 12.5006,95.8431 12.3339,90.1764 12.5,84.5C 12.5,80.1667 12.5,75.8333 12.5,71.5 Z"/></g>
<g><path style="opacity:1" fill="#ee9209" d="M 98.5,79.5 C 100.008,83.3569 101.341,87.3569 102.5,91.5C 101.395,92.6005 100.062,93.2671 98.5,93.5C 97.6693,90.341 96.6693,87.341 95.5,84.5C 96.075,82.5887 97.075,80.922 98.5,79.5 Z"/></g>
<g><path style="opacity:1" fill="#f9e7d2" d="M 140.5,75.5 C 141.117,75.6107 141.617,75.944 142,76.5C 142.724,82.3134 142.058,87.9801 140,93.5C 139.502,95.5444 138.335,96.8777 136.5,97.5C 136.116,93.7275 134.45,90.7275 131.5,88.5C 135.67,84.9934 138.67,80.6601 140.5,75.5 Z"/></g>
<g><path style="opacity:1" fill="#f25f85" d="M 34.5,77.5 C 34.8333,77.5 35.1667,77.5 35.5,77.5C 36.8333,78.8333 38.1667,80.1667 39.5,81.5C 36.9122,83.6246 33.9122,84.9579 30.5,85.5C 30.5,86.5 30.5,87.5 30.5,88.5C 34.0781,88.5488 37.4115,89.2154 40.5,90.5C 37.1102,91.0233 33.7769,91.8566 30.5,93C 29.0577,93.3768 28.0577,94.2101 27.5,95.5C 24.2689,97.2199 21.4356,99.5532 19,102.5C 19.9042,97.3715 22.4042,93.0382 26.5,89.5C 25.7542,88.2638 25.4208,86.9305 25.5,85.5C 26.7382,86.4124 28.0715,86.5791 29.5,86C 27.8198,85.6532 26.8198,84.6532 26.5,83C 27.3056,78.5542 29.9723,76.7209 34.5,77.5 Z"/></g>
<g><path style="opacity:1" fill="#efa41d" d="M 131.5,88.5 C 134.45,90.7275 136.116,93.7275 136.5,97.5C 136.658,100.902 136.324,104.236 135.5,107.5C 134.761,107.631 134.094,107.464 133.5,107C 135.226,100.704 134.226,94.8705 130.5,89.5C 130.5,88.8333 130.833,88.5 131.5,88.5 Z"/></g>
<g><path style="opacity:1" fill="#3175bb" d="M 158.5,74.5 C 158.226,79.263 158.559,83.9296 159.5,88.5C 160.002,93.3468 160.669,98.1801 161.5,103C 161.605,105.873 160.272,107.373 157.5,107.5C 156.201,105.588 155.201,103.588 154.5,101.5C 154.276,97.8212 153.942,94.1545 153.5,90.5C 154.29,91.6085 154.79,92.9419 155,94.5C 155.703,91.2875 155.536,88.1208 154.5,85C 155.645,81.2113 156.978,77.7113 158.5,74.5 Z"/></g>
<g><path style="opacity:0.545" fill="#db9e41" d="M 121.5,93.5 C 121.842,92.6618 122.508,92.3284 123.5,92.5C 126.162,98.184 126.162,103.851 123.5,109.5C 123.167,109.5 122.833,109.5 122.5,109.5C 123.052,106.884 123.386,104.217 123.5,101.5C 123.713,98.4733 123.047,95.8066 121.5,93.5 Z"/></g>
<g><path style="opacity:1" fill="#fdfaf1" d="M 154.5,101.5 C 155.201,103.588 156.201,105.588 157.5,107.5C 155.052,108.473 152.385,108.806 149.5,108.5C 149.5,107.833 149.167,107.5 148.5,107.5C 147.402,102.908 146.735,98.241 146.5,93.5C 146.336,90.8127 146.503,88.146 147,85.5C 148.745,91.3172 151.245,96.6505 154.5,101.5 Z"/></g>
<g><path style="opacity:1" fill="#f7ebd3" d="M 159.5,88.5 C 169.175,90.5232 173.508,96.5232 172.5,106.5C 166.359,107.726 160.359,109.059 154.5,110.5C 153.167,110.5 151.833,110.5 150.5,110.5C 149.662,110.158 149.328,109.492 149.5,108.5C 152.385,108.806 155.052,108.473 157.5,107.5C 160.272,107.373 161.605,105.873 161.5,103C 160.669,98.1801 160.002,93.3468 159.5,88.5 Z"/></g>
<g><path style="opacity:0.999" fill="#e4beb7" d="M 140.5,73.5 C 142.05,74.4408 143.716,75.1075 145.5,75.5C 145.177,81.69 145.51,87.69 146.5,93.5C 146.735,98.241 147.402,102.908 148.5,107.5C 147.167,106.833 146.167,105.833 145.5,104.5C 145.719,103.325 145.386,102.325 144.5,101.5C 142.008,104.337 139.008,106.337 135.5,107.5C 136.324,104.236 136.658,100.902 136.5,97.5C 138.335,96.8777 139.502,95.5444 140,93.5C 142.058,87.9801 142.724,82.3134 142,76.5C 141.617,75.944 141.117,75.6107 140.5,75.5C 140.5,74.8333 140.5,74.1667 140.5,73.5 Z"/></g>
<g><path style="opacity:1" fill="#3783bd" d="M 111.5,94.5 C 110.71,95.6085 110.21,96.9419 110,98.5C 108.989,99.3366 107.822,99.67 106.5,99.5C 106.833,102.5 105.5,103.833 102.5,103.5C 102.162,101.146 101.662,98.8127 101,96.5C 100.457,99.8678 100.624,103.201 101.5,106.5C 100.448,106.351 99.448,106.517 98.5,107C 99.8333,107.333 101.167,107.667 102.5,108C 101.584,108.278 100.918,108.778 100.5,109.5C 93.6937,104.94 93.027,99.6063 98.5,93.5C 100.062,93.2671 101.395,92.6005 102.5,91.5C 106.098,90.455 109.098,91.455 111.5,94.5 Z"/></g>
<g><path style="opacity:1" fill="#e9c9bd" d="M 130.5,89.5 C 134.226,94.8705 135.226,100.704 133.5,107C 134.094,107.464 134.761,107.631 135.5,107.5C 131.79,109.136 127.79,109.802 123.5,109.5C 126.162,103.851 126.162,98.184 123.5,92.5C 125.713,91.2271 128.046,90.2271 130.5,89.5 Z"/></g>
<g><path style="opacity:1" fill="#e9bbb5" d="M 189.5,102.5 C 190.403,105.391 190.736,108.391 190.5,111.5C 187.721,111.279 185.054,111.612 182.5,112.5C 180.591,110.127 178.758,110.127 177,112.5C 176.583,111.244 175.75,110.577 174.5,110.5C 175.141,109.518 175.807,108.518 176.5,107.5C 176.167,107.167 175.833,106.833 175.5,106.5C 168.858,109.628 161.858,110.962 154.5,110.5C 160.359,109.059 166.359,107.726 172.5,106.5C 174.167,105.833 175.833,105.167 177.5,104.5C 177.56,105.043 177.893,105.376 178.5,105.5C 182.065,102.549 183.399,103.549 182.5,108.5C 183.552,108.649 184.552,108.483 185.5,108C 186.977,106.188 188.31,104.355 189.5,102.5 Z"/></g>
<g><path style="opacity:1" fill="#2b3a8e" d="M 121.5,93.5 C 123.047,95.8066 123.713,98.4733 123.5,101.5C 123.386,104.217 123.052,106.884 122.5,109.5C 118.9,109.206 115.4,108.54 112,107.5C 110.729,108.883 109.229,109.883 107.5,110.5C 106.167,110.5 104.833,110.5 103.5,110.5C 102.209,110.737 101.209,110.404 100.5,109.5C 100.918,108.778 101.584,108.278 102.5,108C 101.167,107.667 99.8333,107.333 98.5,107C 99.448,106.517 100.448,106.351 101.5,106.5C 100.624,103.201 100.457,99.8678 101,96.5C 101.662,98.8127 102.162,101.146 102.5,103.5C 105.5,103.833 106.833,102.5 106.5,99.5C 107.822,99.67 108.989,99.3366 110,98.5C 110.21,96.9419 110.71,95.6085 111.5,94.5C 114.86,94.3841 118.193,94.0508 121.5,93.5 Z"/></g>
<g><path style="opacity:1" fill="#fdf1df" d="M 174.5,110.5 C 171.269,114.949 166.936,117.616 161.5,118.5C 155.786,118.49 152.12,115.823 150.5,110.5C 151.833,110.5 153.167,110.5 154.5,110.5C 161.858,110.962 168.858,109.628 175.5,106.5C 175.833,106.833 176.167,107.167 176.5,107.5C 175.807,108.518 175.141,109.518 174.5,110.5 Z"/></g>
<g><path style="opacity:1" fill="#e9afab" d="M 174.5,110.5 C 175.75,110.577 176.583,111.244 177,112.5C 178.758,110.127 180.591,110.127 182.5,112.5C 173.968,115.697 168.634,121.697 166.5,130.5C 165.391,130.443 164.391,130.11 163.5,129.5C 159.644,126.4 155.977,123.067 152.5,119.5C 154.638,119.703 156.305,120.703 157.5,122.5C 158.696,122.154 158.696,121.654 157.5,121C 159.066,120.392 160.4,119.558 161.5,118.5C 166.936,117.616 171.269,114.949 174.5,110.5 Z"/></g>
<g><path style="opacity:1" fill="#e3851b" d="M 190.5,111.5 C 190.5,111.833 190.5,112.167 190.5,112.5C 179.507,114.827 171.841,121.161 167.5,131.5C 166.833,131.5 166.5,131.167 166.5,130.5C 168.634,121.697 173.968,115.697 182.5,112.5C 185.054,111.612 187.721,111.279 190.5,111.5 Z"/></g>
<g><path style="opacity:1" fill="#e28721" d="M 152.5,119.5 C 155.977,123.067 159.644,126.4 163.5,129.5C 162.167,129.5 160.833,129.5 159.5,129.5C 155.178,126.408 151.345,122.741 148,118.5C 146.41,116.35 145.743,114.017 146,111.5C 148.031,114.355 150.197,117.022 152.5,119.5 Z"/></g>
<g><path style="opacity:1" fill="#ef9302" d="M 103.5,110.5 C 104.833,110.5 106.167,110.5 107.5,110.5C 112.03,126.094 116.364,141.761 120.5,157.5C 121.974,159.961 121.807,162.294 120,164.5C 118.519,163.529 117.685,162.196 117.5,160.5C 112.526,143.938 107.859,127.271 103.5,110.5 Z"/></g>
<g><path style="opacity:1" fill="#e7b1ab" d="M 190.5,112.5 C 190.963,115.482 191.296,118.482 191.5,121.5C 188.393,121.351 185.393,121.851 182.5,123C 181.244,123.417 180.577,124.25 180.5,125.5C 177.786,124.137 175.119,124.304 172.5,126C 170.45,127.965 168.783,130.132 167.5,132.5C 167.5,132.167 167.5,131.833 167.5,131.5C 171.841,121.161 179.507,114.827 190.5,112.5 Z"/></g>
<g><path style="opacity:1" fill="#dca6a4" d="M 191.5,121.5 C 192.073,126.847 192.74,132.18 193.5,137.5C 191.883,138.038 190.216,138.371 188.5,138.5C 188.5,139.5 188.5,140.5 188.5,141.5C 187.799,139.412 186.799,137.412 185.5,135.5C 186.043,135.44 186.376,135.107 186.5,134.5C 185.22,130.917 183.22,127.917 180.5,125.5C 180.577,124.25 181.244,123.417 182.5,123C 185.393,121.851 188.393,121.351 191.5,121.5 Z"/></g>
<g><path style="opacity:1" fill="#9f2c94" d="M 138.5,117.5 C 142.52,120.239 143.52,123.905 141.5,128.5C 140.5,130.167 139.167,131.5 137.5,132.5C 136.128,133.512 134.795,134.512 133.5,135.5C 130.833,135.5 128.167,135.5 125.5,135.5C 123.896,134.713 123.229,133.38 123.5,131.5C 126.265,131.396 129.265,131.229 132.5,131C 133.833,130.333 135.167,129.667 136.5,129C 138.183,125.38 138.85,121.546 138.5,117.5 Z"/></g>
<g><path style="opacity:0.993" fill="#e5b5b0" d="M 145.5,104.5 C 146.167,105.833 147.167,106.833 148.5,107.5C 149.167,107.5 149.5,107.833 149.5,108.5C 149.328,109.492 149.662,110.158 150.5,110.5C 152.12,115.823 155.786,118.49 161.5,118.5C 160.4,119.558 159.066,120.392 157.5,121C 158.696,121.654 158.696,122.154 157.5,122.5C 156.305,120.703 154.638,119.703 152.5,119.5C 150.197,117.022 148.031,114.355 146,111.5C 145.743,114.017 146.41,116.35 148,118.5C 151.345,122.741 155.178,126.408 159.5,129.5C 155.542,130.071 151.876,131.405 148.5,133.5C 146.977,130.636 144.643,128.969 141.5,128.5C 143.52,123.905 142.52,120.239 138.5,117.5C 137.292,116.766 135.959,116.433 134.5,116.5C 137.856,114.401 141.356,112.401 145,110.5C 145.711,108.633 145.211,107.133 143.5,106C 144.044,105.283 144.711,104.783 145.5,104.5 Z"/></g>
<g><path style="opacity:1" fill="#f1d2c0" d="M 180.5,125.5 C 183.22,127.917 185.22,130.917 186.5,134.5C 186.376,135.107 186.043,135.44 185.5,135.5C 181.117,132.57 177.117,132.904 173.5,136.5C 173.167,137.5 172.5,138.167 171.5,138.5C 170.18,136.537 168.846,134.537 167.5,132.5C 168.783,130.132 170.45,127.965 172.5,126C 175.119,124.304 177.786,124.137 180.5,125.5 Z"/></g>
<g><path style="opacity:1" fill="#e70e85" d="M 134.5,116.5 C 136.557,125.889 132.557,130.223 122.5,129.5C 123.134,121.872 127.134,117.538 134.5,116.5 Z"/></g>
<g><path style="opacity:1" fill="#c8208f" d="M 134.5,116.5 C 135.959,116.433 137.292,116.766 138.5,117.5C 138.85,121.546 138.183,125.38 136.5,129C 135.167,129.667 133.833,130.333 132.5,131C 129.265,131.229 126.265,131.396 123.5,131.5C 122.662,131.158 122.328,130.492 122.5,129.5C 132.557,130.223 136.557,125.889 134.5,116.5 Z"/></g>
<g><path style="opacity:1" fill="#dd7d17" d="M 141.5,128.5 C 144.643,128.969 146.977,130.636 148.5,133.5C 147.075,134.922 146.075,136.589 145.5,138.5C 142.545,136.878 139.878,134.878 137.5,132.5C 139.167,131.5 140.5,130.167 141.5,128.5 Z"/></g>
<g><path style="opacity:1" fill="#da891a" d="M 193.5,137.5 C 194.043,140.218 194.709,142.885 195.5,145.5C 193.167,146.167 190.833,146.833 188.5,147.5C 188.5,145.5 188.5,143.5 188.5,141.5C 188.5,140.5 188.5,139.5 188.5,138.5C 190.216,138.371 191.883,138.038 193.5,137.5 Z"/></g>
<g><path style="opacity:0.95" fill="#e9baad" d="M 129.5,146.5 C 127.377,143.133 126.044,139.466 125.5,135.5C 128.167,135.5 130.833,135.5 133.5,135.5C 134.496,135.414 135.329,135.748 136,136.5C 136.992,134.335 138.158,134.501 139.5,137C 139.235,139.151 138.235,140.818 136.5,142C 138.969,144.626 138.469,146.793 135,148.5C 133.2,147.68 131.366,147.014 129.5,146.5 Z"/></g>
<g><path style="opacity:1" fill="#d6a09e" d="M 137.5,132.5 C 139.878,134.878 142.545,136.878 145.5,138.5C 145.405,141.697 146.072,144.697 147.5,147.5C 146.657,149.173 145.324,150.34 143.5,151C 139.514,151.499 135.514,151.666 131.5,151.5C 131.107,149.716 130.441,148.05 129.5,146.5C 131.366,147.014 133.2,147.68 135,148.5C 138.469,146.793 138.969,144.626 136.5,142C 138.235,140.818 139.235,139.151 139.5,137C 138.158,134.501 136.992,134.335 136,136.5C 135.329,135.748 134.496,135.414 133.5,135.5C 134.795,134.512 136.128,133.512 137.5,132.5 Z"/></g>
<g><path style="opacity:1" fill="#d81a8c" d="M 173.5,136.5 C 182.133,137.89 185.633,142.89 184,151.5C 183.29,152.973 182.124,153.64 180.5,153.5C 179.833,153.5 179.167,153.5 178.5,153.5C 178.167,153.5 177.833,153.5 177.5,153.5C 173.017,149.528 171.017,144.528 171.5,138.5C 172.5,138.167 173.167,137.5 173.5,136.5 Z"/></g>
<g><path style="opacity:1" fill="#a22b92" d="M 185.5,135.5 C 186.799,137.412 187.799,139.412 188.5,141.5C 188.5,143.5 188.5,145.5 188.5,147.5C 188.226,153.139 185.559,155.139 180.5,153.5C 182.124,153.64 183.29,152.973 184,151.5C 185.633,142.89 182.133,137.89 173.5,136.5C 177.117,132.904 181.117,132.57 185.5,135.5 Z"/></g>
<g><path style="opacity:0.493" fill="#d2198a" d="M 149.5,149.5 C 158.96,149.994 168.293,151.328 177.5,153.5C 177.5,154.167 177.833,154.5 178.5,154.5C 179.5,154.833 180.167,155.5 180.5,156.5C 181.167,157.833 181.833,159.167 182.5,160.5C 183.11,161.391 183.443,162.391 183.5,163.5C 181.435,163.517 179.435,163.85 177.5,164.5C 176.119,158.616 172.453,154.783 166.5,153C 161.101,151.745 156.434,152.911 152.5,156.5C 150.707,154.574 149.707,152.241 149.5,149.5 Z"/></g>
<g><path style="opacity:0.442" fill="#8144ae" d="M 131.5,152.5 C 132.5,153.167 133.5,153.833 134.5,154.5C 134.414,155.496 134.748,156.329 135.5,157C 131.845,157.331 128.512,158.498 125.5,160.5C 123.937,161.945 122.604,163.611 121.5,165.5C 121.33,166.822 121.663,167.989 122.5,169C 125.817,169.498 129.15,169.665 132.5,169.5C 132.5,171.167 132.5,172.833 132.5,174.5C 126.674,174.335 121.007,173.335 115.5,171.5C 112.799,167.292 113.465,163.625 117.5,160.5C 117.685,162.196 118.519,163.529 120,164.5C 121.807,162.294 121.974,159.961 120.5,157.5C 124.048,155.559 127.714,153.893 131.5,152.5 Z"/></g>
<g><path style="opacity:1" fill="#2b3999" d="M 148.5,149.5 C 148.833,149.5 149.167,149.5 149.5,149.5C 149.707,152.241 150.707,154.574 152.5,156.5C 152.5,157.5 152.5,158.5 152.5,159.5C 148.569,163.13 143.903,165.13 138.5,165.5C 140.83,162.176 142.83,158.176 144.5,153.5C 146.773,153.043 148.106,151.71 148.5,149.5 Z"/></g>
<g><path style="opacity:1" fill="#d37e19" d="M 147.5,147.5 C 148.338,147.842 148.672,148.508 148.5,149.5C 148.106,151.71 146.773,153.043 144.5,153.5C 143.609,154.11 142.609,154.443 141.5,154.5C 139.167,154.5 136.833,154.5 134.5,154.5C 133.5,153.833 132.5,153.167 131.5,152.5C 131.5,152.167 131.5,151.833 131.5,151.5C 135.514,151.666 139.514,151.499 143.5,151C 145.324,150.34 146.657,149.173 147.5,147.5 Z"/></g>
<g><path style="opacity:1" fill="#d67a16" d="M 197.5,153.5 C 197.5,153.833 197.5,154.167 197.5,154.5C 197.084,156.752 195.751,158.252 193.5,159C 189.886,159.936 186.22,160.436 182.5,160.5C 181.833,159.167 181.167,157.833 180.5,156.5C 186.506,157.11 192.173,156.11 197.5,153.5 Z"/></g>
<g><path style="opacity:1" fill="#ca8689" d="M 195.5,145.5 C 195.963,148.221 196.629,150.888 197.5,153.5C 192.173,156.11 186.506,157.11 180.5,156.5C 180.167,155.5 179.5,154.833 178.5,154.5C 178.5,154.167 178.5,153.833 178.5,153.5C 179.167,153.5 179.833,153.5 180.5,153.5C 185.559,155.139 188.226,153.139 188.5,147.5C 190.833,146.833 193.167,146.167 195.5,145.5 Z"/></g>
<g><path style="opacity:0.489" fill="#e70d81" d="M 177.5,164.5 C 175.228,165.441 173.228,166.774 171.5,168.5C 165.586,156.529 159.586,156.529 153.5,168.5C 154.129,170.741 155.129,172.741 156.5,174.5C 152.5,174.5 148.5,174.5 144.5,174.5C 144.167,172.5 143.833,170.5 143.5,168.5C 146.511,167.439 149.511,166.273 152.5,165C 153.807,163.057 153.807,161.223 152.5,159.5C 152.5,158.5 152.5,157.5 152.5,156.5C 156.434,152.911 161.101,151.745 166.5,153C 172.453,154.783 176.119,158.616 177.5,164.5 Z"/></g>
<g><path style="opacity:1" fill="#2646a3" d="M 197.5,154.5 C 199.009,157.678 200.342,161.011 201.5,164.5C 201.5,165.167 201.5,165.833 201.5,166.5C 193.633,172.844 184.633,175.344 174.5,174C 172.68,173.8 171.347,172.966 170.5,171.5C 170.328,170.508 170.662,169.842 171.5,169.5C 172.694,170.777 174.36,171.444 176.5,171.5C 180.925,171.954 184.258,170.288 186.5,166.5C 186.121,164.787 185.121,163.787 183.5,163.5C 183.443,162.391 183.11,161.391 182.5,160.5C 186.22,160.436 189.886,159.936 193.5,159C 195.751,158.252 197.084,156.752 197.5,154.5 Z"/></g>
<g><path style="opacity:1" fill="#288bc5" d="M 134.5,154.5 C 136.833,154.5 139.167,154.5 141.5,154.5C 140.322,155.999 138.655,156.999 136.5,157.5C 139.009,159.59 138.675,161.423 135.5,163C 132.183,163.498 128.85,163.665 125.5,163.5C 125.5,162.5 125.5,161.5 125.5,160.5C 128.512,158.498 131.845,157.331 135.5,157C 134.748,156.329 134.414,155.496 134.5,154.5 Z"/></g>
<g><path style="opacity:0.487" fill="#f3077c" d="M 171.5,168.5 C 171.5,168.833 171.5,169.167 171.5,169.5C 170.662,169.842 170.328,170.508 170.5,171.5C 169.212,173.035 169.212,174.701 170.5,176.5C 173.758,177.417 177.091,177.751 180.5,177.5C 179.752,179.332 178.752,180.999 177.5,182.5C 170.825,178.996 163.825,176.33 156.5,174.5C 155.129,172.741 154.129,170.741 153.5,168.5C 159.586,156.529 165.586,156.529 171.5,168.5 Z"/></g>
<g><path style="opacity:1" fill="#d1771b" d="M 152.5,159.5 C 153.807,161.223 153.807,163.057 152.5,165C 149.511,166.273 146.511,167.439 143.5,168.5C 139.865,169.114 136.198,169.448 132.5,169.5C 129.15,169.665 125.817,169.498 122.5,169C 121.663,167.989 121.33,166.822 121.5,165.5C 127.31,166.711 132.977,166.711 138.5,165.5C 143.903,165.13 148.569,163.13 152.5,159.5 Z"/></g>
<g><path style="opacity:1" fill="#205fb3" d="M 144.5,153.5 C 142.83,158.176 140.83,162.176 138.5,165.5C 132.977,166.711 127.31,166.711 121.5,165.5C 122.604,163.611 123.937,161.945 125.5,160.5C 125.5,161.5 125.5,162.5 125.5,163.5C 128.85,163.665 132.183,163.498 135.5,163C 138.675,161.423 139.009,159.59 136.5,157.5C 138.655,156.999 140.322,155.999 141.5,154.5C 142.609,154.443 143.609,154.11 144.5,153.5 Z"/></g>
<g><path style="opacity:0.461" fill="#8143ae" d="M 201.5,164.5 C 214.055,172.827 213.388,179.827 199.5,185.5C 195.167,185.5 190.833,185.5 186.5,185.5C 188.924,182.992 190.59,179.992 191.5,176.5C 194.511,175.439 197.511,174.273 200.5,173C 202.608,170.984 202.942,168.817 201.5,166.5C 201.5,165.833 201.5,165.167 201.5,164.5 Z"/></g>
<g><path style="opacity:1" fill="#d57816" d="M 201.5,166.5 C 202.942,168.817 202.608,170.984 200.5,173C 197.511,174.273 194.511,175.439 191.5,176.5C 187.865,177.114 184.198,177.448 180.5,177.5C 177.091,177.751 173.758,177.417 170.5,176.5C 169.212,174.701 169.212,173.035 170.5,171.5C 171.347,172.966 172.68,173.8 174.5,174C 184.633,175.344 193.633,172.844 201.5,166.5 Z"/></g>
<g><path style="opacity:0.448" fill="#b42998" d="M 143.5,168.5 C 143.833,170.5 144.167,172.5 144.5,174.5C 140.5,174.5 136.5,174.5 132.5,174.5C 132.5,172.833 132.5,171.167 132.5,169.5C 136.198,169.448 139.865,169.114 143.5,168.5 Z"/></g>
<g><path style="opacity:1" fill="#2682c3" d="M 183.5,163.5 C 185.121,163.787 186.121,164.787 186.5,166.5C 184.258,170.288 180.925,171.954 176.5,171.5C 174.36,171.444 172.694,170.777 171.5,169.5C 171.5,169.167 171.5,168.833 171.5,168.5C 173.228,166.774 175.228,165.441 177.5,164.5C 179.435,163.85 181.435,163.517 183.5,163.5 Z"/></g>
<g><path style="opacity:0.502" fill="#a5329e" d="M 191.5,176.5 C 190.59,179.992 188.924,182.992 186.5,185.5C 186.167,185.5 185.833,185.5 185.5,185.5C 182.919,184.512 180.252,183.512 177.5,182.5C 178.752,180.999 179.752,179.332 180.5,177.5C 184.198,177.448 187.865,177.114 191.5,176.5 Z"/></g>
</svg>
